<svg width="399" height="86" viewBox="0 0 399 86" fill="none" xmlns="http://www.w3.org/2000/svg">
<path d="M53.44 43.25C53.44 43.25 53.42 43.26 53.42 43.27C53.72 42.19 53.9 41.08 53.9 39.93C53.9 35.15 52.02 28.91 46.76 26.41H27.54V39.33H31.58C33.25 39.33 34.08 39.89 34.08 41C34.08 42.47 32.82 43.21 30.29 43.21C26.32 43.21 23.16 42.03 20.83 39.67C18.5 37.31 17.33 34.11 17.33 30.09C17.33 26.07 18.59 22.94 21.1 20.46C23.61 17.99 26.86 16.75 30.83 16.75C33.02 16.75 35.46 17.38 38.12 18.63V1.70999C34.7 0.569991 31.59 0 28.79 0C20.57 0 13.71 2.81 8.23 8.42C2.74 14.03 0 21.06 0 29.51C0 36.46 1.86 42.52 5.53 47.72C6.91 49.98 16.56 60.43 19.13 66.22C20.17 68.55 22.01 72.06 25.35 82.53C25.91 84.28 26.63 85.08 27.4 85.28C27.69 85.38 28.02 85.46 28.39 85.46C28.72 85.46 28.8 85.46 29.05 85.37C29.85 85.17 30.88 84.38 31.47 82.52C34.81 72.04 37.34 68.28 38.05 66.68C40.23 61.79 50.27 49.86 51.9 46.81C52.5 45.75 52.99 44.64 53.34 43.5C53.37 43.41 53.41 43.33 53.44 43.24V43.25Z" fill="#FF5400"/>
<path d="M88.33 23.62V36.33H77.25C75.75 36.33 74.68 36.55 74.05 37C73.42 37.45 73.11 38.2 73.11 39.26C73.11 40.46 73.43 41.25 74.07 41.62C74.71 41.99 76.02 42.18 78 42.18H89.41V58.48H76.08C69.81 58.48 65.02 56.98 61.7 53.99C58.38 51 56.73 46.67 56.73 41.01V18.65C56.73 13.19 58.3 8.95 61.43 5.94C64.56 2.93 68.98 1.42999 74.66 1.42999H89.42V17.82H78.59C75.66 17.82 74.2 18.77 74.2 20.66C74.2 21.77 74.55 22.55 75.25 22.98C75.95 23.41 77.19 23.63 78.97 23.63H88.33V23.62Z" fill="#FF5400"/>
<path d="M126.2 0C134.28 0 141.21 2.93999 147 8.81999C152.79 14.7 155.67 21.74 155.67 29.93C155.67 38.12 152.76 45.34 146.93 51.16C141.11 56.98 134.03 59.9 125.7 59.9C117.37 59.9 110.36 56.97 104.51 51.12C98.66 45.27 95.73 38.2 95.73 29.93C95.73 21.66 98.68 14.49 104.57 8.7C110.46 2.9 117.67 0.00999451 126.2 0.00999451V0ZM125.7 16.8C122.22 16.8 119.25 18.08 116.8 20.65C114.35 23.22 113.12 26.31 113.12 29.93C113.12 33.55 114.35 36.65 116.82 39.21C119.29 41.77 122.25 43.06 125.7 43.06C129.15 43.06 132.19 41.79 134.62 39.24C137.05 36.69 138.28 33.59 138.28 29.94C138.28 26.29 137.06 23.19 134.62 20.64C132.18 18.09 129.21 16.82 125.7 16.82V16.8Z" fill="#FF5400"/>
<path d="M222.88 1.42V42.51C222.88 47.64 221.33 51.82 218.24 55.05C215.15 58.28 211.15 59.9 206.24 59.9C200.33 59.9 195.82 57.21 192.7 51.83C190.78 54.73 188.71 56.8 186.51 58.04C184.31 59.28 181.59 59.9 178.36 59.9C173.23 59.9 169.3 58.28 166.57 55.05C163.84 51.82 162.47 47.16 162.47 41.09V1.42H179.44V38.54C179.44 40.38 179.59 41.59 179.88 42.18C180.17 42.77 180.76 43.06 181.66 43.06C183.33 43.06 184.17 41.65 184.17 38.84V1.42999H201.14V38.55C201.14 40.33 201.29 41.53 201.6 42.14C201.91 42.75 202.51 43.06 203.4 43.06C205.07 43.06 205.91 41.56 205.91 38.55V1.42999H222.88V1.42Z" fill="#FF5400"/>
<path d="M260.21 0C268.29 0 275.22 2.93999 281.01 8.81999C286.8 14.7 289.68 21.74 289.68 29.93C289.68 38.12 286.77 45.34 280.94 51.16C275.12 56.98 268.04 59.9 259.71 59.9C251.38 59.9 244.37 56.97 238.52 51.12C232.67 45.27 229.74 38.2 229.74 29.93C229.74 21.66 232.69 14.49 238.58 8.7C244.47 2.91 251.68 0.00999451 260.21 0.00999451V0ZM259.71 16.8C256.23 16.8 253.26 18.08 250.81 20.65C248.36 23.22 247.13 26.31 247.13 29.93C247.13 33.55 248.36 36.65 250.83 39.21C253.3 41.77 256.26 43.06 259.71 43.06C263.16 43.06 266.2 41.79 268.63 39.24C271.06 36.69 272.29 33.59 272.29 29.94C272.29 26.29 271.07 23.19 268.63 20.64C266.19 18.09 263.22 16.82 259.71 16.82V16.8Z" fill="#FF5400"/>
<path d="M314.64 16.76V58.48H297.67V1.42H319.45C326.08 1.42 331.22 3.06001 334.87 6.35001C338.94 10.03 340.97 14.7 340.97 20.35C340.97 26 338.45 30.98 333.4 34.94L343.18 58.47H325.37L317.14 40.08V25.41H318.48C322.05 25.41 323.83 23.88 323.83 20.81C323.83 18.11 321.77 16.76 317.64 16.76H314.63H314.64Z" fill="#FF5400"/>
<path d="M365.84 1.42V58.48H348.87V1.42H365.84ZM398.4 1.42L383.35 27.29L398.31 58.47H379.25L366.33 26.95L380.96 1.41H398.39L398.4 1.42Z" fill="#FF5400"/>
</svg>
