<svg width="470" height="470" viewBox="0 0 470 470" fill="none" xmlns="http://www.w3.org/2000/svg">
<path d="M235 421.038C364.787 421.038 470 414.895 470 407.318C470 399.74 364.787 393.598 235 393.598C105.213 393.598 0 399.74 0 407.318C0 414.895 105.213 421.038 235 421.038Z" fill="#E9E9E9"/>
<path d="M68.6859 74.3872C68.6859 74.3872 62.6258 76.6295 60.7108 84.9319C58.7958 93.2343 63.8863 111.148 64.6984 119.62C65.5104 128.092 56.2142 145.267 80.3699 146.83C104.526 148.394 108.016 82.4836 96.8292 77.8779C85.6422 73.2722 68.6859 74.3872 68.6859 74.3872Z" fill="#263238"/>
<path d="M95.6895 78.8359C102.428 75.6604 105.313 97.5981 102.962 113.427" stroke="#263238" stroke-width="0.5" stroke-linecap="round" stroke-linejoin="round"/>
<path d="M152.982 69.9759L155.855 62.0734C155.855 62.0734 154.643 60.6311 160.17 57.9889C165.697 55.3467 169.066 53.9165 171.333 54.6316C173.599 55.3467 176.714 60.4493 176.472 62.2189C176.229 63.9884 161.127 66.4489 161.127 66.4489L158.97 72.509L152.982 69.9759Z" fill="#E4897B"/>
<path d="M106.259 110.384C106.259 110.384 132.633 102.469 136.947 98.4212C141.262 94.373 153.467 64.2178 153.467 64.2178L162.327 67.8539C162.327 67.8539 153.249 102.881 145.577 110.99C137.905 119.098 108.416 133.473 108.416 133.473L106.259 110.384Z" fill="#FF5400"/>
<path opacity="0.6" d="M106.259 110.384C106.259 110.384 132.633 102.469 136.947 98.4212C141.262 94.373 153.467 64.2178 153.467 64.2178L162.327 67.8539C162.327 67.8539 153.249 102.881 145.577 110.99C137.905 119.098 108.416 133.473 108.416 133.473L106.259 110.384Z" fill="white"/>
<path d="M58.5537 379.224L64.4078 382.667C67.1537 378.972 70.1248 375.451 73.3041 372.122C75.0009 370.328 76.7826 368.34 78.637 366.207C82.3458 361.953 86.3576 357.093 90.5634 351.869L94.3328 347.154C108.95 328.707 124.827 307.036 130.766 292.383C132.609 287.825 133.505 283.898 133.105 281.062C131.893 272.311 128.5 259.137 124.621 246.41C118.707 226.957 112.053 208.522 112.053 208.522L95.7024 236.217C95.7024 236.217 100.72 248.18 105.289 260.918C109.786 273.427 113.846 286.698 112.343 290.153C112.198 290.492 112.016 290.892 111.81 291.365C109.095 296.988 101.581 309.727 93.048 323.798L90.4421 328.077C85.8607 335.591 81.0974 343.312 76.6856 350.402C74.9646 353.19 73.292 355.881 71.7042 358.426C64.1654 370.461 58.5537 379.224 58.5537 379.224Z" fill="#E4897B"/>
<path opacity="0.2" d="M94.672 347.142C86.9392 356.838 79.5095 365.686 73.9827 372.11C73.1948 368.159 72.3949 363.48 71.7646 358.378C78.152 348.124 85.9696 335.47 93.0721 323.75C92.9214 331.579 93.4567 339.406 94.672 347.142Z" fill="#333333"/>
<path d="M65.4861 267.003C67.5102 280.808 70.3342 293.316 72.2735 300.77C73.4006 305.243 74.1642 307.885 74.1642 307.885C74.1916 322.061 75.0252 336.224 76.661 350.306C77.2791 355.857 77.9458 361.214 78.6366 366.147C81.1819 384.497 83.8604 397.66 83.8604 397.66L90.8296 396.751L90.563 351.796L90.4175 327.968L90.2236 295.546L90.1509 289.898L89.8115 265.246L89.3146 228.885L65.074 217.977C61.8258 231.854 63.0378 250.374 65.4861 267.003Z" fill="#E4897B"/>
<path opacity="0.2" d="M130.354 267.233C124.161 271.512 115.81 274.081 110.077 275.463C108.756 270.942 107.047 265.863 105.229 260.918C100.659 248.18 95.6416 236.217 95.6416 236.217L111.992 208.522C111.992 208.522 118.646 226.957 124.561 246.41C126.766 253.489 128.778 260.712 130.354 267.233Z" fill="#333333"/>
<path opacity="0.2" d="M90.0173 280.566C82.4842 280.403 74.9642 279.861 67.4857 278.941C66.7827 275.148 66.0919 271.136 65.4859 267.003C63.0618 250.374 61.8498 231.854 65.0738 218.037L89.3143 228.945L89.8113 265.306L90.0173 280.566Z" fill="#333333"/>
<path d="M131.53 264.821C116.368 273.729 71.7651 277.511 71.7651 277.511L64.4929 257.003L65.3171 277.341H63.1476C63.1476 277.341 46.8579 222.194 68.5048 186.051L107.29 183.058L111.532 203.032C111.532 203.032 122.416 231.611 131.53 264.821Z" fill="#263238"/>
<path d="M103.084 406.653C101.941 405.972 100.685 405.504 99.3749 405.271C99.3749 405.271 95.0843 402.084 91.6906 391.115L86.588 390.533C85.7209 390.454 84.8506 390.644 84.0957 391.078C83.3408 391.512 82.7382 392.168 82.3701 392.957C82.2614 393.175 82.1878 393.408 82.1519 393.648C82.0731 394.883 82.0731 396.122 82.1519 397.357C82.462 401.495 83.0205 405.612 83.8245 409.683L84.7214 409.562L83.97 401.781C83.7276 399.139 86.1759 401.926 87.1576 404.677C88.1394 407.429 89.7756 410.253 95.5448 409.526C102.272 408.714 105.023 408.059 103.084 406.653Z" fill="#2E353A"/>
<path d="M90.2837 387.236C90.2837 387.236 92.1017 392.194 94.5258 397.648C95.6387 400.476 97.2846 403.064 99.3739 405.271C99.3739 405.271 95.156 406.641 92.8895 403.999C90.623 401.356 86.7203 391.818 82.3691 392.921C82.6009 392.145 82.9265 391.4 83.3388 390.703C83.9933 389.624 90.2837 387.236 90.2837 387.236Z" fill="#E4897B"/>
<path d="M60.3842 402.349C60.1405 401.035 59.6556 399.777 58.954 398.64C58.954 398.64 58.5056 393.319 64.4687 383.514L61.5235 379.308C61.0147 378.606 60.3024 378.077 59.4829 377.793C58.6634 377.509 57.7764 377.484 56.942 377.721C56.7078 377.787 56.4836 377.885 56.2754 378.011C55.2972 378.761 54.3662 379.571 53.4878 380.435C50.5934 383.412 47.8816 386.561 45.3672 389.865L46.058 390.447L51.391 384.726C53.209 382.799 52.7363 386.483 51.3304 389.029C49.9244 391.574 48.9063 394.689 53.2211 398.567C58.2995 403.1 60.6145 404.724 60.3842 402.349Z" fill="#2E353A"/>
<path d="M66.4432 379.879C66.4432 379.879 63.9343 384.533 61.4496 389.963C60.0729 392.671 59.2255 395.616 58.9528 398.641C58.9528 398.641 55.1471 396.399 55.6198 392.945C56.0924 389.491 60.6497 380.267 56.9409 377.722C57.6774 377.387 58.4502 377.139 59.2437 376.982C60.4679 376.728 66.4432 379.879 66.4432 379.879Z" fill="#E4897B"/>
<path d="M68.1039 182.04L67.8857 187.894L107.967 186.331L108.234 179.41L68.1039 182.04Z" fill="#263238"/>
<path opacity="0.2" d="M68.1039 182.04L67.8857 187.894L107.967 186.331L108.234 179.41L68.1039 182.04Z" fill="white"/>
<path d="M81.6467 180.076L79.6592 180.103L79.7952 190.222L81.7827 190.195L81.6467 180.076Z" fill="#263238"/>
<path d="M98.9245 180.095L90.1611 180.548L90.5047 187.193L99.2681 186.74L98.9245 180.095Z" fill="white"/>
<path d="M106.153 178.311L104.165 178.337L104.299 188.456L106.287 188.43L106.153 178.311Z" fill="#263238"/>
<path d="M57.2193 184.513L66.3822 189.749C68.5194 190.561 70.3009 192.102 71.4121 194.1C73.6544 197.736 70.4304 211.601 68.685 211.601C66.9397 211.601 57.0859 209.444 57.2193 207.529C57.3526 205.614 61.1705 196.5 61.1705 196.5L52.3105 190.985L57.2193 184.513Z" fill="#E4897B"/>
<path d="M67.8865 182.027C67.8865 182.027 65.4625 146.491 57.2207 126.177C57.2207 126.177 74.1891 117.063 106.259 110.421C106.259 110.421 115.446 132.783 108.235 179.834L67.8865 182.027Z" fill="#FF5400"/>
<path opacity="0.6" d="M94.5387 147.97C95.1679 147.97 95.678 147.46 95.678 146.831C95.678 146.201 95.1679 145.691 94.5387 145.691C93.9095 145.691 93.3994 146.201 93.3994 146.831C93.3994 147.46 93.9095 147.97 94.5387 147.97Z" fill="white"/>
<path opacity="0.6" d="M96.829 160.623C96.7998 160.906 96.6666 161.169 96.455 161.36C96.2434 161.551 95.9686 161.656 95.6836 161.656C95.3987 161.656 95.1239 161.551 94.9123 161.36C94.7007 161.169 94.5675 160.906 94.5383 160.623C94.5218 160.463 94.5391 160.301 94.5891 160.147C94.6392 159.994 94.7208 159.853 94.8288 159.734C94.9367 159.614 95.0686 159.518 95.2159 159.453C95.3631 159.387 95.5225 159.354 95.6836 159.354C95.8448 159.354 96.0042 159.387 96.1514 159.453C96.2987 159.518 96.4306 159.614 96.5385 159.734C96.6465 159.853 96.7281 159.994 96.7782 160.147C96.8282 160.301 96.8455 160.463 96.829 160.623Z" fill="white"/>
<path opacity="0.6" d="M96.829 173.726C96.7998 174.01 96.6666 174.272 96.455 174.463C96.2434 174.654 95.9686 174.76 95.6836 174.76C95.3987 174.76 95.1239 174.654 94.9123 174.463C94.7007 174.272 94.5675 174.01 94.5383 173.726C94.5218 173.566 94.5391 173.404 94.5891 173.251C94.6392 173.098 94.7208 172.957 94.8288 172.837C94.9367 172.717 95.0686 172.622 95.2159 172.556C95.3631 172.491 95.5225 172.457 95.6836 172.457C95.8448 172.457 96.0042 172.491 96.1514 172.556C96.2987 172.622 96.4306 172.717 96.5385 172.837C96.6465 172.957 96.7281 173.098 96.7782 173.251C96.8282 173.404 96.8455 173.566 96.829 173.726Z" fill="white"/>
<path d="M57.2203 126.178C49.6815 130.323 22.3503 161.739 24.4956 171.083C26.6409 180.428 57.2203 195.057 57.2203 195.057L62.4684 186.003C62.4684 186.003 42.4457 171.083 41.4882 168.684C40.5307 166.284 63.5228 148.2 63.5228 148.2C63.814 143.402 63.672 138.587 63.0986 133.814C62.8545 132.144 62.1858 130.565 61.1565 129.228C60.1273 127.891 58.7719 126.841 57.2203 126.178Z" fill="#FF5400"/>
<path opacity="0.6" d="M57.2203 126.178C49.6815 130.323 22.3503 161.739 24.4956 171.083C26.6409 180.428 57.2203 195.057 57.2203 195.057L62.4684 186.003C62.4684 186.003 42.4457 171.083 41.4882 168.684C40.5307 166.284 63.5228 148.2 63.5228 148.2C63.814 143.402 63.672 138.587 63.0986 133.814C62.8545 132.144 62.1858 130.565 61.1565 129.228C60.1273 127.891 58.7719 126.841 57.2203 126.178Z" fill="white"/>
<path d="M71.3767 132.481C71.3767 132.481 63.7045 119.949 80.4911 115.622C97.2777 111.295 102.392 121.379 102.392 121.379L94.0294 119.937L92.975 139.923C89.1088 133.005 82.818 127.763 75.3157 125.209L71.3767 132.481Z" fill="#FF5400"/>
<path opacity="0.6" d="M71.3767 132.481C71.3767 132.481 63.7045 119.949 80.4911 115.622C97.2777 111.295 102.392 121.379 102.392 121.379L94.0294 119.937L92.975 139.923C89.1088 133.005 82.818 127.763 75.3157 125.209L71.3767 132.481Z" fill="white"/>
<path d="M90.4422 130.092C84.816 127.463 79.4233 124.361 74.3223 120.82C78.2614 117.111 77.5463 111.633 76.5403 108.215C76.2277 107.131 75.8222 106.077 75.3283 105.063L86.9274 107.233C86.6601 108.836 86.5102 110.456 86.4789 112.081C86.4357 113.302 86.5457 114.524 86.8062 115.717C87.594 119.184 89.5696 119.232 89.5696 119.232C91.63 123.026 90.4422 130.092 90.4422 130.092Z" fill="#E4897B"/>
<path opacity="0.2" d="M86.502 112.117C86.4589 113.338 86.5688 114.559 86.8293 115.753C82.2236 115.147 78.7329 111.462 76.5392 108.263C76.2266 107.179 75.8211 106.125 75.3271 105.111L86.9262 107.281C86.6677 108.88 86.5259 110.497 86.502 112.117Z" fill="#333333"/>
<path d="M84.1998 74.5811C96.6958 74.5811 97.7382 80.6412 98.4533 91.0283C99.3502 104.021 96.4534 113.257 83.8362 110.421C66.7103 106.639 67.4375 74.5811 84.1998 74.5811Z" fill="#E4897B"/>
<path d="M91.9814 90.4463C92.7862 91.9575 93.7711 93.3656 94.9145 94.6399C94.6164 95.0551 94.2103 95.3808 93.7403 95.5816C93.2703 95.7825 92.7542 95.8508 92.2481 95.7792L91.9814 90.4463Z" fill="#DE5753"/>
<path d="M85.7628 89.6107C85.7628 90.4349 85.3386 91.1136 84.7932 91.1257C84.2478 91.1378 83.7751 90.4833 83.7629 89.647C83.7508 88.8107 84.175 88.1441 84.7205 88.132C85.2659 88.1199 85.7386 88.7744 85.7628 89.6107Z" fill="#263238"/>
<path d="M84.5039 88.168L86.2856 87.4287C86.2856 87.4287 85.425 88.968 84.5039 88.168Z" fill="#263238"/>
<path d="M96.0655 89.2224C96.0655 90.0466 95.6413 90.7253 95.0959 90.7374C94.5505 90.7496 94.0778 90.083 94.0657 89.2588C94.0536 88.4346 94.4778 87.7437 95.0353 87.7316C95.5928 87.7195 96.0413 88.3861 96.0655 89.2224Z" fill="#263238"/>
<path d="M94.8047 87.7804L96.5864 87.041C96.5864 87.041 95.7258 88.5682 94.8047 87.7804Z" fill="#263238"/>
<path d="M85.6786 82.6416C84.8801 82.5426 84.0696 82.6277 83.3091 82.8903C82.5486 83.1529 81.8583 83.5861 81.291 84.1566" stroke="#263238" stroke-width="0.707962" stroke-linecap="round" stroke-linejoin="round"/>
<path d="M93.0117 82.2054C93.7021 82.0329 94.4226 82.0185 95.1193 82.1633C95.8161 82.3082 96.4711 82.6084 97.0356 83.0417" stroke="#263238" stroke-width="0.707962" stroke-linecap="round" stroke-linejoin="round"/>
<path d="M73.3404 92.1804C73.3404 92.1804 78.0794 83.8901 77.3765 77.4906C77.3765 77.4906 84.5032 70.1457 94.0903 77.4058C94.0903 77.4058 98.09 84.3022 98.3445 89.6715C98.3445 89.6715 100.332 71.6487 82.9881 71.2002C65.644 70.7518 65.6562 96.1437 74.6009 103.731C74.6009 103.731 70.4073 97.3557 73.3404 92.1804Z" fill="#263238"/>
<path d="M75.0129 94.3254C74.967 93.7459 74.8074 93.1812 74.5431 92.6635C74.2788 92.1458 73.9151 91.6852 73.4727 91.3082C73.0304 90.9311 72.518 90.6449 71.965 90.4659C71.412 90.2869 70.8291 90.2187 70.2497 90.2651C67.1226 90.6045 65.6197 97.0161 73.4009 98.5796C74.4918 98.7857 75.122 97.707 75.0129 94.3254Z" fill="#E4897B"/>
<path d="M90.8298 101.246C90.8298 101.246 86.5998 102.203 84.8545 98.4219" stroke="#263238" stroke-width="0.707962" stroke-linecap="round" stroke-linejoin="round"/>
<path d="M77.4377 77.4904C77.4377 77.4904 88.9762 72.3757 96.612 79.1267C96.612 79.1267 99.6057 70.2304 89.3398 67.2003C79.074 64.1703 68.7354 74.3877 68.7354 74.3877L77.4377 77.4904Z" fill="#263238"/>
<path d="M77.4375 77.49C77.4375 77.49 70.7107 84.1319 71.6803 97.3673C72.6499 110.603 71.3773 118.953 68.7472 127.232C66.1171 135.51 73.0014 137.982 73.0014 137.982C73.0014 137.982 65.1596 139.922 63.5476 131.522C62.481 126.02 65.0021 114.093 63.7415 99.8883C62.481 85.6833 67.4746 75.6356 77.4375 77.49Z" fill="#263238"/>
<path d="M264.635 48C262.43 48 260.274 48.654 258.44 49.8792C256.606 51.1045 255.177 52.846 254.333 54.8835C253.489 56.921 253.268 59.163 253.699 61.326C254.129 63.489 255.191 65.4759 256.75 67.0354C258.31 68.5948 260.297 69.6568 262.46 70.087C264.623 70.5173 266.865 70.2965 268.902 69.4525C270.94 68.6085 272.681 67.1793 273.906 65.3456C275.132 63.5119 275.786 61.356 275.786 59.1506C275.786 56.1933 274.611 53.3571 272.52 51.266C270.429 49.1748 267.592 48 264.635 48ZM264.635 58.0719C263.995 58.0719 263.369 57.8822 262.837 57.5266C262.305 57.171 261.89 56.6656 261.645 56.0742C261.4 55.4829 261.336 54.8322 261.461 54.2045C261.586 53.5768 261.894 53.0001 262.347 52.5476C262.799 52.095 263.376 51.7868 264.004 51.6619C264.631 51.537 265.282 51.6011 265.873 51.8461C266.465 52.091 266.97 52.5058 267.326 53.038C267.681 53.5701 267.871 54.1958 267.871 54.8358C267.871 55.2608 267.787 55.6816 267.625 56.0742C267.462 56.4669 267.224 56.8236 266.923 57.1241C266.623 57.4246 266.266 57.663 265.873 57.8256C265.481 57.9882 265.06 58.0719 264.635 58.0719Z" fill="#FF5400"/>
<path opacity="0.6" d="M264.635 48C262.43 48 260.274 48.654 258.44 49.8792C256.606 51.1045 255.177 52.846 254.333 54.8835C253.489 56.921 253.268 59.163 253.699 61.326C254.129 63.489 255.191 65.4759 256.75 67.0354C258.31 68.5948 260.297 69.6568 262.46 70.087C264.623 70.5173 266.865 70.2965 268.902 69.4525C270.94 68.6085 272.681 67.1793 273.906 65.3456C275.132 63.5119 275.786 61.356 275.786 59.1506C275.786 56.1933 274.611 53.3571 272.52 51.266C270.429 49.1748 267.592 48 264.635 48ZM264.635 58.0719C263.995 58.0719 263.369 57.8822 262.837 57.5266C262.305 57.171 261.89 56.6656 261.645 56.0742C261.4 55.4829 261.336 54.8322 261.461 54.2045C261.586 53.5768 261.894 53.0001 262.347 52.5476C262.799 52.095 263.376 51.7868 264.004 51.6619C264.631 51.537 265.282 51.6011 265.873 51.8461C266.465 52.091 266.97 52.5058 267.326 53.038C267.681 53.5701 267.871 54.1958 267.871 54.8358C267.871 55.2608 267.787 55.6816 267.625 56.0742C267.462 56.4669 267.224 56.8236 266.923 57.1241C266.623 57.4246 266.266 57.663 265.873 57.8256C265.481 57.9882 265.06 58.0719 264.635 58.0719Z" fill="white"/>
<path d="M374.966 62.6416H154.292C149.278 62.6416 145.214 66.706 145.214 71.7197V400.567C145.214 405.581 149.278 409.645 154.292 409.645H374.966C379.979 409.645 384.044 405.581 384.044 400.567V71.7197C384.044 66.706 379.979 62.6416 374.966 62.6416Z" fill="#FF5400"/>
<path opacity="0.8" d="M371.403 82.8096H157.855V393.137H371.403V82.8096Z" fill="white"/>
<path d="M321.429 59.6836H207.838C206.546 59.6836 205.499 60.7309 205.499 62.0228V76.5914C205.499 77.8833 206.546 78.9306 207.838 78.9306H321.429C322.721 78.9306 323.769 77.8833 323.769 76.5914V62.0228C323.769 60.7309 322.721 59.6836 321.429 59.6836Z" fill="#FF5400"/>
<path opacity="0.4" d="M321.429 59.6836H207.838C206.546 59.6836 205.499 60.7309 205.499 62.0228V76.5914C205.499 77.8833 206.546 78.9306 207.838 78.9306H321.429C322.721 78.9306 323.769 77.8833 323.769 76.5914V62.0228C323.769 60.7309 322.721 59.6836 321.429 59.6836Z" fill="white"/>
<path d="M308.352 96.8081H274.125C273.428 96.8203 272.741 96.6416 272.138 96.2912C271.536 95.9408 271.041 95.4321 270.707 94.8204C270.12 93.7232 269.246 92.8058 268.179 92.1662C267.112 91.5267 265.891 91.1888 264.647 91.1888C263.402 91.1888 262.182 91.5267 261.114 92.1662C260.047 92.8058 259.173 93.7232 258.587 94.8204C258.252 95.4312 257.756 95.9392 257.154 96.2894C256.552 96.6397 255.865 96.819 255.169 96.8081H220.905C219.94 96.8081 219.015 96.425 218.334 95.7431C217.652 95.0612 217.269 94.1364 217.269 93.172V72.7494C217.269 71.785 217.652 70.8602 218.334 70.1783C219.015 69.4964 219.94 69.1133 220.905 69.1133H308.352C309.317 69.1133 310.242 69.4964 310.924 70.1783C311.605 70.8602 311.988 71.785 311.988 72.7494V93.1114C311.997 93.594 311.908 94.0733 311.729 94.5215C311.55 94.9697 311.284 95.3777 310.945 95.7218C310.607 96.0659 310.203 96.3391 309.758 96.5257C309.313 96.7122 308.835 96.8082 308.352 96.8081ZM264.635 88.7481C266.322 88.7447 267.978 89.2025 269.424 90.0719C270.87 90.9412 272.052 92.1893 272.84 93.6811C272.972 93.9023 273.161 94.0841 273.387 94.2078C273.612 94.3314 273.867 94.3923 274.125 94.3841H308.352C308.674 94.3841 308.982 94.2564 309.209 94.0291C309.437 93.8018 309.564 93.4935 309.564 93.172V72.7494C309.564 72.4279 309.437 72.1196 309.209 71.8923C308.982 71.665 308.674 71.5373 308.352 71.5373H220.905C220.583 71.5373 220.275 71.665 220.048 71.8923C219.82 72.1196 219.693 72.4279 219.693 72.7494V93.1114C219.693 93.4329 219.82 93.7412 220.048 93.9685C220.275 94.1958 220.583 94.3235 220.905 94.3235H255.157C255.412 94.3307 255.665 94.2694 255.889 94.1457C256.113 94.0221 256.299 93.8407 256.429 93.6205C257.227 92.1408 258.412 90.9058 259.857 90.0476C261.302 89.1894 262.954 88.7402 264.635 88.7481Z" fill="#263238"/>
<g opacity="0.2">
<path d="M308.352 96.8091H274.125C273.428 96.8213 272.741 96.6425 272.138 96.2921C271.536 95.9417 271.041 95.4331 270.707 94.8214C270.12 93.7241 269.246 92.8068 268.179 92.1672C267.112 91.5276 265.891 91.1898 264.647 91.1898C263.402 91.1898 262.182 91.5276 261.114 92.1672C260.047 92.8068 259.173 93.7241 258.587 94.8214C258.252 95.4322 257.756 95.9401 257.154 96.2904C256.552 96.6406 255.865 96.82 255.169 96.8091H220.905C219.94 96.8091 219.015 96.426 218.334 95.7441C217.652 95.0622 217.269 94.1374 217.269 93.173V72.7503C217.269 71.786 217.652 70.8611 218.334 70.1792C219.015 69.4973 219.94 69.1143 220.905 69.1143H308.352C309.317 69.1143 310.242 69.4973 310.924 70.1792C311.605 70.8611 311.988 71.786 311.988 72.7503V93.1124C311.997 93.595 311.908 94.0743 311.729 94.5225C311.55 94.9707 311.284 95.3787 310.945 95.7228C310.607 96.0669 310.203 96.3401 309.758 96.5266C309.313 96.7131 308.835 96.8092 308.352 96.8091ZM264.635 88.7491C266.322 88.7457 267.978 89.2034 269.424 90.0728C270.87 90.9422 272.052 92.1902 272.84 93.6821C272.972 93.9033 273.161 94.0851 273.387 94.2087C273.612 94.3324 273.867 94.3932 274.125 94.385H308.352C308.674 94.385 308.982 94.2573 309.209 94.03C309.437 93.8027 309.564 93.4945 309.564 93.173V72.7503C309.564 72.4289 309.437 72.1206 309.209 71.8933C308.982 71.666 308.674 71.5383 308.352 71.5383H220.905C220.583 71.5383 220.275 71.666 220.048 71.8933C219.82 72.1206 219.693 72.4289 219.693 72.7503V93.1124C219.693 93.4339 219.82 93.7421 220.048 93.9694C220.275 94.1967 220.583 94.3244 220.905 94.3244H255.157C255.412 94.3317 255.665 94.2704 255.889 94.1467C256.113 94.0231 256.299 93.8417 256.429 93.6215C257.227 92.1418 258.412 90.9068 259.857 90.0486C261.302 89.1904 262.954 88.7412 264.635 88.7491Z" fill="white"/>
</g>
<path d="M303.166 65.5635H226.141C225.365 65.5635 224.735 66.1929 224.735 66.9694V72.4235C224.735 73.2 225.365 73.8295 226.141 73.8295H303.166C303.942 73.8295 304.572 73.2 304.572 72.4235V66.9694C304.572 66.1929 303.942 65.5635 303.166 65.5635Z" fill="#FF5400"/>
<path opacity="0.6" d="M303.129 65.5635H226.104C225.328 65.5635 224.698 66.1929 224.698 66.9694V72.4235C224.698 73.2 225.328 73.8295 226.104 73.8295H303.129C303.905 73.8295 304.534 73.2 304.534 72.4235V66.9694C304.534 66.1929 303.905 65.5635 303.129 65.5635Z" fill="white"/>
<path opacity="0.3" d="M284.464 252.299H262.89V273.873H284.464V252.299Z" fill="#333333"/>
<path opacity="0.3" d="M281.943 282.551H265.411C264.742 282.551 264.101 282.286 263.628 281.813C263.155 281.34 262.89 280.699 262.89 280.03C262.893 279.364 263.16 278.726 263.632 278.256C264.105 277.785 264.744 277.521 265.411 277.521H281.943C282.609 277.521 283.249 277.785 283.721 278.256C284.194 278.726 284.461 279.364 284.464 280.03C284.464 280.699 284.198 281.34 283.725 281.813C283.253 282.286 282.611 282.551 281.943 282.551Z" fill="#333333"/>
<path opacity="0.3" d="M351.368 252.299H295.881C294.609 252.299 293.578 253.33 293.578 254.602V254.614C293.578 255.886 294.609 256.917 295.881 256.917H351.368C352.639 256.917 353.67 255.886 353.67 254.614V254.602C353.67 253.33 352.639 252.299 351.368 252.299Z" fill="#333333"/>
<path opacity="0.3" d="M339.247 264.42H295.881C294.609 264.42 293.578 265.451 293.578 266.723V266.735C293.578 268.007 294.609 269.038 295.881 269.038H339.247C340.519 269.038 341.55 268.007 341.55 266.735V266.723C341.55 265.451 340.519 264.42 339.247 264.42Z" fill="#333333"/>
<path opacity="0.3" d="M351.368 276.539H295.881C294.609 276.539 293.578 277.57 293.578 278.842V278.854C293.578 280.126 294.609 281.157 295.881 281.157H351.368C352.639 281.157 353.67 280.126 353.67 278.854V278.842C353.67 277.57 352.639 276.539 351.368 276.539Z" fill="#333333"/>
<path opacity="0.3" d="M319.855 288.659H295.881C294.609 288.659 293.578 289.69 293.578 290.962V290.974C293.578 292.246 294.609 293.277 295.881 293.277H319.855C321.127 293.277 322.158 292.246 322.158 290.974V290.962C322.158 289.69 321.127 288.659 319.855 288.659Z" fill="#333333"/>
<path opacity="0.3" d="M328.399 114.771H200.264C199.156 114.768 198.094 114.326 197.31 113.543C196.527 112.759 196.085 111.698 196.082 110.59C196.082 109.481 196.523 108.417 197.307 107.633C198.091 106.849 199.155 106.408 200.264 106.408H328.399C329.508 106.408 330.572 106.849 331.356 107.633C332.14 108.417 332.581 109.481 332.581 110.59C332.577 111.698 332.136 112.759 331.352 113.543C330.569 114.326 329.507 114.768 328.399 114.771Z" fill="#333333"/>
<path opacity="0.3" d="M349.768 139.521H265.192C264.581 139.518 263.995 139.273 263.563 138.839C263.132 138.405 262.89 137.818 262.89 137.206C262.89 136.595 263.132 136.01 263.564 135.578C263.996 135.146 264.582 134.903 265.192 134.903H349.768C350.379 134.903 350.964 135.146 351.396 135.578C351.828 136.01 352.071 136.595 352.071 137.206C352.071 137.818 351.828 138.405 351.397 138.839C350.965 139.273 350.38 139.518 349.768 139.521Z" fill="#333333"/>
<path opacity="0.3" d="M337.647 151.64H265.192C264.581 151.637 263.995 151.392 263.563 150.958C263.132 150.524 262.89 149.937 262.89 149.325C262.89 148.715 263.132 148.129 263.564 147.697C263.996 147.265 264.582 147.022 265.192 147.022H337.647C338.258 147.022 338.844 147.265 339.276 147.697C339.708 148.129 339.95 148.715 339.95 149.325C339.95 149.937 339.708 150.524 339.277 150.958C338.845 151.392 338.259 151.637 337.647 151.64Z" fill="#333333"/>
<path opacity="0.3" d="M349.768 163.761H265.192C264.581 163.758 263.995 163.513 263.563 163.079C263.132 162.645 262.89 162.058 262.89 161.446C262.89 160.836 263.132 160.25 263.564 159.818C263.996 159.386 264.582 159.144 265.192 159.144H349.768C350.379 159.144 350.964 159.386 351.396 159.818C351.828 160.25 352.071 160.836 352.071 161.446C352.071 162.058 351.828 162.645 351.397 163.079C350.965 163.513 350.38 163.758 349.768 163.761Z" fill="#333333"/>
<path opacity="0.3" d="M325.527 175.881H265.192C264.581 175.877 263.995 175.632 263.563 175.198C263.132 174.764 262.89 174.177 262.89 173.566C262.89 172.955 263.132 172.369 263.564 171.937C263.996 171.505 264.582 171.263 265.192 171.263H325.527C326.138 171.263 326.724 171.505 327.156 171.937C327.587 172.369 327.83 172.955 327.83 173.566C327.83 174.177 327.588 174.764 327.156 175.198C326.725 175.632 326.139 175.877 325.527 175.881Z" fill="#333333"/>
<path opacity="0.3" d="M268.937 190.328L270.271 193.019L273.252 193.455L271.095 195.552L271.604 198.521L268.937 197.115L266.283 198.521L266.792 195.552L264.635 193.455L267.604 193.019L268.937 190.328Z" fill="#333333"/>
<path opacity="0.3" d="M283.991 190.328L285.324 193.019L288.293 193.455L286.136 195.552L286.645 198.521L283.991 197.115L281.324 198.521L281.833 195.552L279.676 193.455L282.657 193.019L283.991 190.328Z" fill="#333333"/>
<path opacity="0.3" d="M299.032 190.328L300.365 193.019L303.347 193.455L301.19 195.552L301.699 198.521L299.032 197.115L296.366 198.521L296.875 195.552L294.729 193.455L297.699 193.019L299.032 190.328Z" fill="#333333"/>
<path opacity="0.3" d="M314.086 190.328L315.407 193.019L318.389 193.455L316.232 195.552L316.741 198.521L314.086 197.115L311.42 198.521L311.929 195.552L309.771 193.455L312.753 193.019L314.086 190.328Z" fill="#333333"/>
<path opacity="0.3" d="M329.127 190.328L330.46 193.019L333.43 193.455L331.284 195.552L331.793 198.521L329.127 197.115L326.46 198.521L326.97 195.552L324.824 193.455L327.794 193.019L329.127 190.328Z" fill="#333333"/>
<path opacity="0.3" d="M268.937 205.77L270.271 208.46L273.252 208.897L271.095 210.993L271.604 213.963L268.937 212.557L266.283 213.963L266.792 210.993L264.635 208.897L267.604 208.46L268.937 205.77Z" fill="#333333"/>
<path opacity="0.3" d="M283.991 205.77L285.324 208.46L288.293 208.897L286.136 210.993L286.645 213.963L283.991 212.557L281.324 213.963L281.833 210.993L279.676 208.897L282.657 208.46L283.991 205.77Z" fill="#333333"/>
<path opacity="0.3" d="M299.032 205.77L300.365 208.46L303.347 208.897L301.19 210.993L301.699 213.963L299.032 212.557L296.366 213.963L296.875 210.993L294.729 208.897L297.699 208.46L299.032 205.77Z" fill="#333333"/>
<path opacity="0.1" d="M314.086 205.77L315.407 208.46L318.389 208.897L316.232 210.993L316.741 213.963L314.086 212.557L311.42 213.963L311.929 210.993L309.771 208.897L312.753 208.46L314.086 205.77Z" fill="#333333"/>
<path opacity="0.1" d="M329.127 205.77L330.46 208.46L333.43 208.897L331.284 210.993L331.793 213.963L329.127 212.557L326.46 213.963L326.97 210.993L324.824 208.897L327.794 208.46L329.127 205.77Z" fill="#333333"/>
<path opacity="0.3" d="M268.937 221.211L270.271 223.902L273.252 224.338L271.095 226.435L271.604 229.404L268.937 227.998L266.283 229.404L266.792 226.435L264.635 224.338L267.604 223.902L268.937 221.211Z" fill="#333333"/>
<path opacity="0.3" d="M283.991 221.211L285.324 223.902L288.293 224.338L286.136 226.435L286.645 229.404L283.991 227.998L281.324 229.404L281.833 226.435L279.676 224.338L282.657 223.902L283.991 221.211Z" fill="#333333"/>
<path opacity="0.3" d="M299.032 221.211L300.365 223.902L303.347 224.338L301.19 226.435L301.699 229.404L299.032 227.998L296.366 229.404L296.875 226.435L294.729 224.338L297.699 223.902L299.032 221.211Z" fill="#333333"/>
<path opacity="0.3" d="M314.086 221.211L315.407 223.902L318.389 224.338L316.232 226.435L316.741 229.404L314.086 227.998L311.42 229.404L311.929 226.435L309.771 224.338L312.753 223.902L314.086 221.211Z" fill="#333333"/>
<path opacity="0.1" d="M329.127 221.211L330.46 223.902L333.43 224.338L331.284 226.435L331.793 229.404L329.127 227.998L326.46 229.404L326.97 226.435L324.824 224.338L327.794 223.902L329.127 221.211Z" fill="#333333"/>
<path opacity="0.3" d="M284.464 312.9H262.89V334.474H284.464V312.9Z" fill="#333333"/>
<path opacity="0.3" d="M281.943 343.153H265.411C264.742 343.153 264.101 342.887 263.628 342.415C263.155 341.942 262.89 341.301 262.89 340.632C262.893 339.965 263.16 339.327 263.632 338.857C264.105 338.387 264.744 338.123 265.411 338.123H281.943C282.609 338.123 283.249 338.387 283.721 338.857C284.194 339.327 284.461 339.965 284.464 340.632C284.464 341.301 284.198 341.942 283.725 342.415C283.253 342.887 282.611 343.153 281.943 343.153Z" fill="#333333"/>
<path opacity="0.3" d="M351.368 312.9H295.881C294.609 312.9 293.578 313.931 293.578 315.203V315.215C293.578 316.487 294.609 317.518 295.881 317.518H351.368C352.639 317.518 353.67 316.487 353.67 315.215V315.203C353.67 313.931 352.639 312.9 351.368 312.9Z" fill="#333333"/>
<path opacity="0.3" d="M339.247 325.021H295.881C294.609 325.021 293.578 326.052 293.578 327.324V327.336C293.578 328.608 294.609 329.639 295.881 329.639H339.247C340.519 329.639 341.55 328.608 341.55 327.336V327.324C341.55 326.052 340.519 325.021 339.247 325.021Z" fill="#333333"/>
<path opacity="0.3" d="M351.368 337.141H295.881C294.609 337.141 293.578 338.172 293.578 339.443V339.456C293.578 340.727 294.609 341.758 295.881 341.758H351.368C352.639 341.758 353.67 340.727 353.67 339.456V339.443C353.67 338.172 352.639 337.141 351.368 337.141Z" fill="#333333"/>
<path opacity="0.3" d="M319.855 349.262H295.881C294.609 349.262 293.578 350.293 293.578 351.565V351.577C293.578 352.849 294.609 353.88 295.881 353.88H319.855C321.127 353.88 322.158 352.849 322.158 351.577V351.565C322.158 350.293 321.127 349.262 319.855 349.262Z" fill="#333333"/>
<path d="M249.121 134.903H171.333V238.192H249.121V134.903Z" fill="white"/>
<path d="M245.484 138.538H174.969V234.555H245.484V138.538Z" fill="#FF5400"/>
<path opacity="0.4" d="M245.484 138.538H174.969V234.555H245.484V138.538Z" fill="white"/>
<path d="M245.485 213.103V234.556H240.007C238.491 233.112 236.821 231.839 235.026 230.762C234.16 230.241 233.232 229.833 232.262 229.55C224.033 227.32 235.898 205.31 235.898 205.31C238.637 206.182 242.043 209.285 245.485 213.103Z" fill="#FF5400"/>
<path opacity="0.6" d="M245.485 213.103V234.556H240.007C238.491 233.112 236.821 231.839 235.026 230.762C234.16 230.241 233.232 229.833 232.262 229.55C224.033 227.32 235.898 205.31 235.898 205.31C238.637 206.182 242.043 209.285 245.485 213.103Z" fill="white"/>
<path opacity="0.2" d="M245.484 234.482V234.555H240.006C238.49 233.11 236.82 231.838 235.024 230.761L236.649 220.616C238.233 221.931 239.639 223.446 240.83 225.125C242.902 227.957 244.476 231.121 245.484 234.482Z" fill="#333333"/>
<path d="M230.383 204.425C230.213 205.297 230.043 206.182 229.849 207.055C229.656 207.927 229.389 209.127 229.134 210.158C226.492 220.787 222.129 230.095 215.875 234.556H194.495C188.277 231.392 187.089 226.071 187.295 220.496C187.429 216.727 188.204 212.885 188.507 209.588C188.603 208.451 188.603 207.307 188.507 206.17C188.35 204.449 188.022 202.376 187.622 200.11C185.768 189.553 182.144 174.318 183.986 166.5C186.18 156.998 193.113 154.38 193.113 154.38C193.113 154.38 195.464 154.222 199.076 154.247C201.743 154.247 205.136 154.38 208.687 154.719H208.942C212.925 155.078 216.87 155.775 220.735 156.804L221.62 157.059C222.383 157.289 223.147 157.531 223.886 157.798C224.371 157.968 224.844 158.149 225.316 158.343C225.93 158.604 226.482 158.987 226.941 159.471C232.431 165.106 233.789 185.771 230.383 204.425Z" fill="#263238"/>
<path d="M223.995 159.519C231.691 155.883 235.012 180.984 232.261 199.104" stroke="#263238" stroke-width="0.5" stroke-linecap="round" stroke-linejoin="round"/>
<path d="M241.412 234.555H186.095C185.865 233.513 185.635 232.47 185.392 231.44C184.026 225.408 182.215 219.485 179.975 213.72C182.241 212.373 184.607 211.202 187.053 210.218C187.513 210.011 187.986 209.818 188.495 209.624C190.41 208.86 192.64 208.072 195.137 207.321L195.937 207.091C197.816 206.545 199.84 206.036 201.997 205.588C206.5 204.642 211.072 204.067 215.669 203.867C219.168 203.702 222.673 203.758 226.165 204.036C227.535 204.133 228.928 204.266 230.346 204.448C232.128 204.666 233.983 204.945 235.813 205.297C236.019 205.624 239.388 210.981 240.782 225.138C241.121 227.925 241.327 231.052 241.412 234.555Z" fill="#FF5400"/>
<path d="M195.452 218.119C195.452 218.119 189.125 202.533 208.881 200.775C228.637 199.018 232.576 211.332 232.576 211.332L223.401 208.156L218.553 230.518C215.438 221.99 209.271 214.921 201.245 210.677L195.452 218.119Z" fill="#FF5400"/>
<path opacity="0.6" d="M195.452 218.119C195.452 218.119 189.125 202.533 208.881 200.775C228.637 199.018 232.576 211.332 232.576 211.332L223.401 208.156L218.553 230.518C215.438 221.99 209.271 214.921 201.245 210.677L195.452 218.119Z" fill="white"/>
<path d="M217.73 220.617C212.642 215.34 206.865 210.774 200.556 207.042C205.283 203.043 204.798 196.74 203.852 192.777C203.552 191.533 203.147 190.316 202.64 189.141L215.767 192.316C215.361 194.144 215.09 196 214.955 197.867C214.841 199.242 214.894 200.626 215.112 201.988C215.803 206 218.057 206.17 218.057 206.17C220.203 210.678 217.73 220.617 217.73 220.617Z" fill="#E4897B"/>
<path opacity="0.2" d="M215.002 197.854C214.889 199.229 214.942 200.613 215.16 201.975C209.936 201.006 206.167 196.582 203.852 192.8C203.551 191.556 203.146 190.34 202.64 189.164L215.766 192.34C215.379 194.157 215.124 196 215.002 197.854Z" fill="#333333"/>
<path d="M210.845 154.658C225.135 154.658 226.335 161.567 227.159 173.469C228.177 188.353 224.856 198.921 210.421 195.697C190.823 191.346 191.659 154.658 210.845 154.658Z" fill="#E4897B"/>
<path d="M219.692 172.814C220.61 174.558 221.733 176.186 223.038 177.663C222.702 178.142 222.24 178.518 221.702 178.749C221.165 178.98 220.574 179.057 219.995 178.972L219.692 172.814Z" fill="#DE5753"/>
<path d="M212.627 171.894C212.627 172.851 212.154 173.627 211.512 173.639C210.869 173.651 210.3 172.9 210.3 171.942C210.3 170.985 210.772 170.221 211.403 170.209C212.033 170.197 212.603 170.9 212.627 171.894Z" fill="#263238"/>
<path d="M211.185 170.209L213.233 169.349C213.233 169.349 212.239 171.106 211.185 170.209Z" fill="#263238"/>
<path d="M224.419 171.396C224.419 172.353 223.946 173.129 223.304 173.141C222.661 173.153 222.092 172.402 222.092 171.444C222.092 170.487 222.564 169.723 223.195 169.711C223.825 169.699 224.395 170.45 224.419 171.396Z" fill="#263238"/>
<path d="M222.978 169.761L225.014 168.912C225.014 168.912 224.093 170.682 222.978 169.761Z" fill="#263238"/>
<path d="M212.53 163.87C212.53 163.87 209.281 163.446 207.512 165.603" stroke="#263238" stroke-width="0.707962" stroke-linecap="round" stroke-linejoin="round"/>
<path d="M220.929 163.41C221.717 163.211 222.54 163.194 223.336 163.36C224.131 163.526 224.879 163.87 225.522 164.367" stroke="#263238" stroke-width="0.707962" stroke-linecap="round" stroke-linejoin="round"/>
<path d="M198.421 174.79C198.421 174.79 203.839 165.312 203.039 157.979C203.039 157.979 211.184 149.58 222.153 157.882C222.153 157.882 226.746 165.785 227.001 171.918C227.001 171.918 229.28 151.313 209.427 150.792C189.574 150.271 189.622 179.335 199.852 188.013C199.852 188.013 195.064 180.717 198.421 174.79Z" fill="#263238"/>
<path d="M200.301 177.226C200.189 175.891 199.555 174.654 198.536 173.784C197.516 172.915 196.195 172.483 194.859 172.584C191.223 172.972 189.55 180.316 198.495 182.098C199.731 182.353 200.458 181.104 200.301 177.226Z" fill="#E4897B"/>
<path d="M218.433 185.225C218.433 185.225 213.585 186.316 211.585 181.989" stroke="#263238" stroke-width="0.707962" stroke-linecap="round" stroke-linejoin="round"/>
<path d="M203.04 157.979C203.04 157.979 216.239 152.125 224.977 159.858C224.977 159.858 228.407 149.677 216.699 146.198C204.991 142.72 193.089 154.428 193.089 154.428L203.04 157.979Z" fill="#263238"/>
<path d="M203.04 157.98C203.04 157.98 195.331 165.579 196.446 180.717C197.561 195.855 196.095 205.43 193.089 214.908C190.083 224.387 197.937 227.211 197.937 227.211C197.937 227.211 188.968 229.416 187.126 219.817C185.914 213.515 188.798 199.867 187.344 183.614C185.89 167.361 191.695 155.859 203.04 157.98Z" fill="#263238"/>
<path opacity="0.2" d="M188.653 234.556H186.096C185.865 233.513 185.635 232.471 185.393 231.441L187.32 229.756C187.864 231.326 188.309 232.929 188.653 234.556Z" fill="#333333"/>
<path d="M187.331 234.555H174.969V217.586C176.498 216.138 178.171 214.851 179.962 213.744C181.741 214.496 183.294 215.694 184.473 217.223C185.652 218.752 186.415 220.56 186.689 222.471C187.046 224.88 187.252 227.308 187.307 229.743C187.368 231.476 187.356 233.137 187.331 234.555Z" fill="#FF5400"/>
<path opacity="0.6" d="M187.331 234.555H174.969V217.586C176.498 216.138 178.171 214.851 179.962 213.744C181.741 214.496 183.294 215.694 184.473 217.223C185.652 218.752 186.415 220.56 186.689 222.471C187.046 224.88 187.252 227.308 187.307 229.743C187.368 231.476 187.356 233.137 187.331 234.555Z" fill="white"/>
<path opacity="0.3" d="M249.121 250.227H171.333V353.37H249.121V250.227Z" fill="#333333"/>
<path opacity="0.3" d="M236.043 266.214H182.992C182.38 266.21 181.795 265.965 181.363 265.531C180.932 265.097 180.689 264.51 180.689 263.899C180.689 263.288 180.932 262.702 181.364 262.27C181.796 261.838 182.382 261.596 182.992 261.596H236.043C236.346 261.594 236.647 261.652 236.928 261.768C237.209 261.883 237.464 262.052 237.679 262.266C237.894 262.48 238.065 262.734 238.181 263.014C238.298 263.295 238.358 263.595 238.358 263.899C238.358 264.203 238.298 264.504 238.181 264.784C238.065 265.065 237.895 265.321 237.68 265.535C237.465 265.75 237.209 265.921 236.929 266.037C236.648 266.154 236.347 266.214 236.043 266.214Z" fill="white"/>
<path opacity="0.3" d="M236.055 274.492H182.992C181.72 274.492 180.689 275.523 180.689 276.795V276.807C180.689 278.079 181.72 279.11 182.992 279.11H236.055C237.327 279.11 238.358 278.079 238.358 276.807V276.795C238.358 275.523 237.327 274.492 236.055 274.492Z" fill="white"/>
<path opacity="0.3" d="M211.802 292.017H182.992C182.38 292.014 181.795 291.769 181.363 291.335C180.932 290.901 180.689 290.314 180.689 289.702C180.689 289.092 180.932 288.506 181.364 288.074C181.796 287.642 182.382 287.399 182.992 287.399H211.802C212.106 287.398 212.406 287.456 212.687 287.571C212.968 287.686 213.223 287.856 213.438 288.07C213.654 288.284 213.824 288.538 213.941 288.818C214.057 289.098 214.117 289.399 214.117 289.702C214.117 290.316 213.873 290.905 213.439 291.339C213.005 291.773 212.416 292.017 211.802 292.017Z" fill="white"/>
<path opacity="0.3" d="M236.043 304.914H182.992C182.382 304.914 181.796 304.671 181.364 304.239C180.932 303.807 180.689 303.222 180.689 302.611C180.689 301.999 180.932 301.412 181.363 300.978C181.795 300.544 182.38 300.299 182.992 300.296H236.043C236.657 300.296 237.246 300.54 237.68 300.974C238.114 301.408 238.358 301.997 238.358 302.611C238.358 302.914 238.298 303.215 238.181 303.495C238.065 303.775 237.894 304.03 237.679 304.244C237.464 304.458 237.209 304.627 236.928 304.742C236.647 304.857 236.346 304.915 236.043 304.914Z" fill="white"/>
<path opacity="0.3" d="M236.043 317.81H182.992C182.382 317.81 181.796 317.567 181.364 317.135C180.932 316.703 180.689 316.118 180.689 315.507C180.689 314.896 180.932 314.31 181.364 313.879C181.796 313.447 182.382 313.204 182.992 313.204H236.043C236.346 313.203 236.647 313.261 236.928 313.376C237.209 313.491 237.464 313.66 237.679 313.874C237.894 314.088 238.065 314.343 238.181 314.623C238.298 314.903 238.358 315.204 238.358 315.507C238.358 315.81 238.298 316.111 238.181 316.391C238.065 316.671 237.894 316.926 237.679 317.14C237.464 317.354 237.209 317.523 236.928 317.638C236.647 317.753 236.346 317.811 236.043 317.81Z" fill="white"/>
<path opacity="0.3" d="M199.682 330.669H182.992C182.382 330.669 181.796 330.426 181.364 329.994C180.932 329.562 180.689 328.977 180.689 328.366C180.688 328.062 180.746 327.762 180.861 327.481C180.976 327.2 181.146 326.945 181.36 326.73C181.574 326.514 181.828 326.344 182.108 326.227C182.388 326.111 182.689 326.051 182.992 326.051H199.682C199.986 326.049 200.288 326.108 200.57 326.224C200.851 326.34 201.107 326.51 201.322 326.725C201.538 326.941 201.708 327.196 201.824 327.478C201.94 327.76 201.999 328.061 201.997 328.366C201.997 328.669 201.937 328.97 201.82 329.25C201.704 329.53 201.533 329.784 201.318 329.998C201.103 330.212 200.848 330.382 200.567 330.497C200.286 330.612 199.985 330.67 199.682 330.669Z" fill="white"/>
<path opacity="0.3" d="M223.922 343.614H182.992C182.382 343.614 181.796 343.371 181.364 342.939C180.932 342.507 180.689 341.921 180.689 341.311C180.689 340.7 180.932 340.114 181.364 339.682C181.796 339.25 182.382 339.008 182.992 339.008H223.922C224.226 339.006 224.527 339.065 224.807 339.18C225.088 339.295 225.344 339.464 225.559 339.678C225.774 339.892 225.945 340.146 226.061 340.427C226.177 340.707 226.237 341.007 226.237 341.311C226.237 341.614 226.177 341.915 226.061 342.195C225.945 342.475 225.774 342.729 225.559 342.943C225.344 343.157 225.088 343.327 224.807 343.442C224.527 343.557 224.226 343.615 223.922 343.614Z" fill="white"/>
<path d="M422.294 334.172C421.265 333.76 420.152 333.602 419.049 333.71C417.946 333.817 416.885 334.188 415.955 334.79C410.077 338.147 407.616 351.94 406.586 362.666C406.962 347.455 409.459 326.415 419.434 314.961L418.525 314.173C410.174 323.748 406.926 339.456 405.798 353.237C405.641 347.37 405.277 341.019 404.501 334.971C404.768 321.991 405.895 310.21 408.865 306.198L407.883 305.471C405.265 309.01 404.004 318.003 403.495 328.499C402.005 320.633 399.629 313.955 395.908 310.525L395.096 311.41C399.532 315.494 401.98 324.815 403.265 335.117C403.265 336.571 403.265 338.05 403.205 339.529C402.053 333.469 400.502 328.487 398.453 326.487C391.545 319.773 383.424 326.39 383.352 326.487L384.127 327.408C384.418 327.166 391.484 321.433 397.605 327.408C400.296 330.014 402.077 338.535 403.241 347.528C403.398 358.303 403.932 368.436 404.295 374.326C404.295 375.259 404.211 375.793 404.211 375.841H404.392C404.526 377.877 404.623 379.186 404.647 379.477L405.713 379.392C405.713 380.132 405.823 380.604 405.835 380.786L407.047 380.677C407.047 380.58 406.865 378.786 406.732 375.829H407.107C407.107 375.49 407.507 341.044 416.622 335.832C417.391 335.323 418.273 335.007 419.191 334.912C420.109 334.817 421.036 334.945 421.894 335.287C427.227 337.492 430.075 347.698 430.099 347.807L431.311 347.48C431.081 347.043 428.184 336.608 422.294 334.172Z" fill="#263238"/>
<path d="M390.77 335.274C385.474 335.65 381.377 342.813 381.195 343.116L382.262 343.71C382.262 343.637 386.213 336.814 390.855 336.438C392.807 336.317 394.661 337.371 396.382 339.601C403.533 348.946 402.091 375.489 402.079 375.756L403.291 375.829C403.291 374.714 404.769 348.558 397.34 338.874C395.364 336.329 393.146 335.105 390.77 335.274Z" fill="#263238"/>
<g opacity="0.2">
<path d="M422.295 334.172C421.266 333.76 420.153 333.602 419.05 333.71C417.947 333.817 416.886 334.188 415.956 334.79C410.078 338.147 407.617 351.94 406.587 362.666C406.963 347.455 409.46 326.415 419.435 314.961L418.526 314.173C410.175 323.748 406.926 339.456 405.799 353.237C405.642 347.37 405.278 341.019 404.502 334.971C404.769 321.991 405.896 310.21 408.866 306.198L407.884 305.471C405.266 309.01 404.005 318.003 403.496 328.499C402.006 320.633 399.63 313.955 395.909 310.525L395.097 311.41C399.533 315.494 401.981 324.815 403.266 335.117C403.266 336.571 403.266 338.05 403.206 339.529C402.054 333.469 400.503 328.487 398.454 326.487C391.546 319.773 383.425 326.39 383.353 326.487L384.128 327.408C384.419 327.166 391.485 321.433 397.606 327.408C400.297 330.014 402.078 338.535 403.242 347.528C403.399 358.303 403.933 368.436 404.296 374.326C404.296 375.259 404.212 375.793 404.212 375.841H404.393C404.527 377.877 404.624 379.186 404.648 379.477L405.714 379.392C405.714 380.132 405.824 380.604 405.836 380.786L407.048 380.677C407.048 380.58 406.866 378.786 406.733 375.829H407.108C407.108 375.49 407.508 341.044 416.623 335.832C417.392 335.323 418.274 335.007 419.192 334.912C420.11 334.817 421.037 334.945 421.895 335.287C427.228 337.492 430.076 347.698 430.1 347.807L431.312 347.48C431.082 347.043 428.185 336.608 422.295 334.172Z" fill="white"/>
<path d="M390.77 335.274C385.474 335.65 381.377 342.813 381.195 343.116L382.262 343.71C382.262 343.637 386.213 336.814 390.855 336.438C392.807 336.317 394.661 337.371 396.382 339.601C403.533 348.946 402.091 375.489 402.079 375.756L403.291 375.829C403.291 374.714 404.769 348.558 397.34 338.874C395.364 336.329 393.146 335.105 390.77 335.274Z" fill="white"/>
</g>
<path d="M424.403 340.425C424.403 340.425 419.664 342.17 421.07 346.303C422.476 350.436 437.481 357.211 437.481 357.211C437.481 357.211 443.772 351.454 438.002 342.085C432.233 332.716 424.537 337.467 424.403 340.425Z" fill="#263238"/>
<path d="M403.775 332.56C403.775 332.56 408.829 332.342 409.12 336.705C409.411 341.068 398.212 353.104 398.212 353.104C398.212 353.104 390.188 350.207 391.909 339.335C393.63 328.463 402.526 329.881 403.775 332.56Z" fill="#263238"/>
<path d="M399.496 311.713C399.496 311.713 402.865 311.349 402.599 309.289C402.332 307.228 389.497 301.956 381.994 310.501C381.994 310.501 386.842 318.815 393.848 318.924C400.853 319.033 399.496 311.713 399.496 311.713Z" fill="#263238"/>
<path d="M405.775 306.731C405.775 306.731 402.733 308.21 401.872 306.319C401.011 304.428 409.144 293.168 420.052 296.417C420.052 296.417 420.343 306.04 414.465 309.834C408.587 313.627 405.775 306.731 405.775 306.731Z" fill="#263238"/>
<path d="M389.824 338.765C389.824 338.765 392.151 336.886 389.643 335.965C387.134 335.044 374.819 335.31 374.698 347.503C374.698 347.503 389.037 349.927 390.806 345.249C392.576 340.571 389.824 338.765 389.824 338.765Z" fill="#263238"/>
<path d="M419.071 311.408C419.071 311.408 416.744 309.53 419.253 308.608C421.762 307.687 434.076 307.954 434.197 320.147C434.197 320.147 419.859 322.571 418.09 317.893C416.32 313.214 419.071 311.408 419.071 311.408Z" fill="#263238"/>
<path d="M411.483 321.227C411.483 321.227 411.277 318.948 413.119 319.845C414.962 320.742 421.385 327.662 414.731 334.232C414.731 334.232 405.775 327.602 407.387 324.148C408.999 320.693 411.483 321.227 411.483 321.227Z" fill="#263238"/>
<path d="M387.715 324.487C387.715 324.487 389.097 322.657 387.073 322.439C385.049 322.221 375.91 324.645 378.031 333.747C378.031 333.747 389.145 332.911 389.618 329.129C390.091 325.348 387.715 324.487 387.715 324.487Z" fill="#263238"/>
<path d="M425.288 409.644H387.158L383.049 367.901H429.409L425.288 409.644Z" fill="#FF5400"/>
<path opacity="0.2" d="M425.288 409.644H387.158L383.049 367.901H429.409L425.288 409.644Z" fill="white"/>
<path d="M431.445 363.296H381.013V372.507H431.445V363.296Z" fill="#FF5400"/>
<path opacity="0.5" d="M431.445 363.296H381.013V372.507H431.445V363.296Z" fill="white"/>
</svg>
