<svg width="79" height="86" viewBox="0 0 79 86" fill="none" xmlns="http://www.w3.org/2000/svg">
<path opacity="0.1" d="M57.8137 58.927C69.0638 48.0021 69.8318 30.5453 59.5292 19.9361C49.2267 9.3269 31.7548 9.58285 20.5048 20.5078C9.25472 31.4327 8.48666 48.8895 18.7893 59.4987C29.0918 70.1079 46.5637 69.852 57.8137 58.927Z" fill="#FF5400"/>
<path d="M19.8457 57.9824C17.547 55.5351 15.7788 52.6392 14.6519 49.4764C13.525 46.3136 13.0638 42.952 13.2972 39.6025H13.8224C13.5949 42.88 14.0465 46.1692 15.1489 49.2641C16.2513 52.359 17.9808 55.193 20.2291 57.5886L19.8457 57.9824Z" fill="#FF5400"/>
<path d="M65.0181 39.8286L64.4929 39.7971C64.6363 37.4838 64.4596 35.1618 63.9678 32.8968L64.4929 32.7812C64.9951 35.0945 65.1719 37.4665 65.0181 39.8286Z" fill="#FF5400"/>
<path d="M62.4451 28.3277C61.1598 25.4763 59.3213 22.9084 57.0362 20.7729C54.751 18.6373 52.0646 16.9767 49.1328 15.8872L49.3166 15.3936C52.3154 16.5054 55.063 18.2031 57.399 20.3877C59.735 22.5723 61.6128 25.2 62.923 28.1177L62.4451 28.3277Z" fill="#FF5400"/>
<path d="M55.4141 56.4556C65.2181 46.935 65.8884 31.723 56.9112 22.4787C47.9341 13.2344 32.709 13.4585 22.905 22.9791C13.101 32.4998 12.4307 47.7117 21.4078 56.956C30.385 66.2003 45.6101 65.9763 55.4141 56.4556Z" fill="#FF5400"/>
<path d="M36.4878 42.9792C37.6431 42.7219 38.184 41.7346 38.4308 40.6108C38.4571 40.4901 38.4781 40.3745 38.4991 40.259V40.154C38.562 39.6856 38.5971 39.2139 38.6041 38.7413C37.4857 38.6306 36.447 38.1124 35.6858 37.2855C34.9247 36.4585 34.4943 35.3804 34.4765 34.2566C34.4186 32.0282 34.9129 29.82 35.9154 27.8289C35.6573 27.8627 35.4127 27.9642 35.2065 28.123C35.1865 28.1382 35.1635 28.1489 35.139 28.1543C35.1146 28.1598 35.0892 28.1598 35.0647 28.1545C35.0191 28.1467 34.978 28.1224 34.9492 28.0863C34.9212 28.0468 34.9095 27.9981 34.9163 27.9503C34.9231 27.9024 34.9481 27.859 34.9859 27.8289C35.3124 27.5821 35.7109 27.4493 36.1202 27.4508C36.199 27.3248 36.2725 27.1935 36.3513 27.0727C36.0152 27.0727 35.6896 27.0727 35.3745 27.0727C35.7211 24.6466 40.3896 22.609 43.5719 24.447C44.9898 24.7306 47.3319 26.7576 47.3319 26.7576C47.3789 28.0488 47.3421 29.3416 47.2217 30.6279C47.0116 32.823 46.4917 35.4014 45.2261 36.8403C45.541 36.1043 45.6569 35.2984 45.5622 34.5035C45.2588 34.8034 44.8823 35.0189 44.4699 35.1284C44.3203 35.4502 44.1446 35.7593 43.9448 36.0526C43.4512 38.3055 43.0993 41.304 43.8503 43.0317C44.5277 43.0737 45.1841 43.1368 45.809 43.205L45.9613 43.2313C46.3737 42.9891 46.7701 42.7207 47.1482 42.4278C51.8744 38.7518 46.8593 34.4352 48.0409 30.4809C49.2224 26.5266 48.2247 25.0247 44.9951 24.8987C46.3342 22.7613 37.8269 19.3479 34.0879 25.9804C30.7008 31.9933 29.6085 34.9971 30.8268 39.6971C31.2847 41.2332 32.3225 42.5309 33.7203 43.3153C33.9583 43.2502 34.2005 43.2011 34.445 43.1683C35.112 43.1052 35.8051 43.0317 36.4878 42.9792Z" fill="#263238"/>
<path d="M29.1413 52.2222C28.9485 51.8812 28.7733 51.5306 28.6161 51.1719C28.2591 52.2222 27.9072 53.2724 27.5659 54.3227C27.2403 55.268 26.9304 56.2132 26.6049 57.1164L26.1165 58.3925L25.9064 58.9177C25.8329 59.0595 25.9064 58.9754 25.9064 59.0175C25.6825 59.2782 25.4346 59.5173 25.166 59.7316C25.1082 59.7894 25.0347 59.8419 24.9717 59.8944C26.4247 60.8745 27.9882 61.68 29.6297 62.2943C29.6664 59.8944 29.9605 57.4 30.2756 56.7331C28.3851 55.4203 28.6687 54.0076 29.1413 52.2222Z" fill="#FFC3BD"/>
<path d="M30.9789 45.1377L30.8477 45.3215C30.8897 45.2585 30.9369 45.2007 30.9842 45.1429L30.9789 45.1377Z" fill="#263238"/>
<path d="M29.7659 48.6558C29.7582 47.4998 30.1086 46.3698 30.7689 45.4209C29.7621 47.0048 28.9343 48.6956 28.3008 50.4622C28.3008 50.4622 28.3953 50.7406 28.5949 51.1764C28.752 51.5352 28.9273 51.8857 29.12 52.2267C29.4945 51.0707 29.7117 49.8697 29.7659 48.6558Z" fill="#263238"/>
<path d="M48.0721 56.276C47.4496 55.3613 46.8967 54.4011 46.418 53.4035C46.2604 53.4875 46.0976 53.5716 45.9296 53.6451C44.3542 51.9804 43.0098 50.636 43.0098 50.636C41.0458 46.5399 42.2589 44.2083 45.9821 43.2578C46.5599 43.3767 47.1114 43.5991 47.61 43.9142C47.119 43.569 46.5546 43.3425 45.9611 43.2526L45.8088 43.2263C45.1839 43.158 44.5274 43.095 43.85 43.053C43.9971 43.4364 40.6257 48.3044 38.5094 49.0764C37.6429 46.8918 35.2115 46.7447 35.2115 46.7447C35.2115 46.7447 32.9429 46.2774 32.2392 47.7057C32.7013 44.7545 35.5423 43.2001 36.4876 42.9795C35.8049 43.0373 35.1117 43.1108 34.4448 43.1948C34.2002 43.2276 33.9581 43.2767 33.7201 43.3418C32.6394 43.6383 31.6812 44.271 30.9841 45.1483C30.9368 45.2061 30.8896 45.2639 30.8476 45.3269L30.7688 45.4266C30.1085 46.3755 29.7581 47.5055 29.7658 48.6615C29.7179 49.8727 29.5077 51.0719 29.1409 52.2272C28.6682 53.9917 28.3846 55.4253 30.2384 56.7381C29.9233 57.4051 29.6292 59.889 29.5925 62.2994C32.2022 63.2669 34.9646 63.7578 37.7479 63.7488C41.3118 63.7434 44.8329 62.9715 48.0721 61.4854C47.9819 59.5307 47.9977 57.5726 48.1194 55.6196C48.1037 55.8297 48.0827 56.0607 48.0721 56.276Z" fill="#263238"/>
<path d="M35.2119 46.7445C35.2119 46.7445 37.6433 46.8915 38.5098 49.0761C40.6103 48.2779 43.9975 43.4361 43.8504 43.0527C43.8504 43.0527 39.0664 45.3738 35.2119 46.7445Z" fill="white"/>
<path d="M36.4984 42.9795C35.5531 43.2053 32.7121 44.7597 32.25 47.7058C32.9537 46.2774 35.2223 46.7447 35.2223 46.7447C34.4871 43.9825 36.4984 42.9795 36.4984 42.9795Z" fill="white"/>
<path d="M43.9444 36.0742C43.488 36.7364 42.9107 37.3065 42.243 37.7547C41.9621 37.9567 41.6633 38.1325 41.3502 38.2798C40.6623 39.3839 39.6364 40.2366 38.4252 40.7112V40.6219C38.1784 41.7457 37.6375 42.7225 36.4822 42.9903C36.4822 42.9903 34.4709 43.9986 35.1956 46.7608C39.0554 45.3902 43.8341 43.0848 43.8341 43.0848C43.0989 41.3309 43.4508 38.3271 43.9444 36.0742Z" fill="#FFC3BD"/>
<path d="M38.4414 40.6057C38.4677 40.485 38.4887 40.3694 38.5097 40.2539C38.4887 40.3537 38.4677 40.485 38.4414 40.6057Z" fill="#263238"/>
<path opacity="0.2" d="M38.4414 40.6057C38.4677 40.485 38.4887 40.3694 38.5097 40.2539C38.4887 40.3537 38.4677 40.485 38.4414 40.6057Z" fill="#333333"/>
<path d="M38.6304 38.7363C38.6234 39.2089 38.5883 39.6806 38.5254 40.149C38.5907 39.6808 38.6258 39.209 38.6304 38.7363Z" fill="#263238"/>
<path opacity="0.2" d="M38.6304 38.7363C38.6234 39.2089 38.5883 39.6806 38.5254 40.149C38.5907 39.6808 38.6258 39.209 38.6304 38.7363Z" fill="#333333"/>
<path d="M41.3506 38.2529C40.5047 38.6582 39.5633 38.8217 38.6303 38.7256C38.6257 39.1982 38.5906 39.6701 38.5253 40.1382V40.2432C38.5253 40.3587 38.4833 40.4743 38.457 40.5951V40.6843C39.6566 40.204 40.6707 39.3519 41.3506 38.2529Z" fill="#FFC3BD"/>
<path opacity="0.2" d="M41.3506 38.2529C40.5047 38.6582 39.5633 38.8217 38.6303 38.7256C38.6257 39.1982 38.5906 39.6701 38.5253 40.1382V40.2432C38.5253 40.3587 38.4833 40.4743 38.457 40.5951V40.6843C39.6566 40.204 40.6707 39.3519 41.3506 38.2529Z" fill="#333333"/>
<path d="M41.3501 38.2537C41.6631 38.1064 41.962 37.9306 42.2428 37.7285C42.9106 37.2803 43.4878 36.7102 43.9443 36.0481C44.1441 35.7548 44.3197 35.4457 44.4694 35.1238C44.3696 35.1238 44.2698 35.1764 44.1753 35.1869C43.2983 35.2656 43.0515 34.2784 43.4506 33.3961C43.5857 33.0978 43.7625 32.8202 43.9758 32.5717C43.7466 31.8219 43.8027 31.0139 44.1333 30.3031C43.3351 28.6646 42.4896 27.1522 42.4108 26.0547C40.4459 26.6621 38.4067 26.996 36.3507 27.0472C36.272 27.168 36.1984 27.2993 36.1197 27.4253C36.2977 27.4246 36.4748 27.4512 36.6448 27.5041C36.667 27.5122 36.6873 27.5247 36.7045 27.5408C36.7218 27.5569 36.7358 27.5762 36.7455 27.5977C36.7553 27.6192 36.7607 27.6424 36.7614 27.666C36.7622 27.6896 36.7582 27.7131 36.7498 27.7351C36.7332 27.7799 36.6998 27.8165 36.6567 27.8371C36.6135 27.8577 36.5641 27.8607 36.5188 27.8454C36.33 27.7881 36.1309 27.7738 35.9359 27.8034C34.9469 29.7962 34.4653 32.0023 34.5337 34.2259C34.5515 35.3497 34.9819 36.4277 35.743 37.2547C36.5042 38.0817 37.5429 38.5998 38.6614 38.7105C39.5825 38.8057 40.5121 38.6478 41.3501 38.2537ZM40.179 27.9399C40.465 27.9962 40.733 28.1212 40.9599 28.3042C41.1868 28.4871 41.3658 28.7226 41.4814 28.9902C41.5017 29.0343 41.5043 29.0845 41.4887 29.1304C41.4731 29.1764 41.4403 29.2145 41.3973 29.237C41.3536 29.2551 41.3045 29.2551 41.2608 29.237C41.2371 29.2305 41.2153 29.2186 41.1971 29.2022C41.1788 29.1858 41.1647 29.1653 41.1558 29.1425C41.0604 28.9304 40.915 28.7447 40.732 28.6011C40.5491 28.4575 40.3341 28.3604 40.1055 28.318C40.0581 28.3103 40.0155 28.2848 39.9863 28.2467C39.957 28.2087 39.9433 28.161 39.9479 28.1132C39.9501 28.0863 39.9581 28.0603 39.9715 28.0368C39.9849 28.0134 40.0032 27.9932 40.0253 27.9776C40.0473 27.9621 40.0725 27.9516 40.0991 27.9469C40.1257 27.9422 40.153 27.9434 40.179 27.9504V27.9399ZM39.9952 30.5341C40.0828 30.6 40.1477 30.6916 40.1806 30.7961C40.2136 30.9006 40.213 31.0128 40.179 31.117C40.1212 31.4216 39.9112 31.6422 39.7116 31.5949C39.5121 31.5476 39.3965 31.2798 39.4543 30.9752C39.4833 30.8209 39.5627 30.6805 39.6801 30.5761C39.5164 30.4895 39.3882 30.3483 39.3178 30.177L39.9952 30.5341ZM35.6891 30.3136C35.7173 30.1616 35.7948 30.0232 35.9096 29.9197C35.7486 29.8288 35.6228 29.6864 35.5525 29.5154L36.2405 29.8672C36.3252 29.9354 36.3878 30.0271 36.4205 30.1309C36.4532 30.2346 36.4545 30.3456 36.4243 30.4501C36.3612 30.7547 36.1564 30.9752 35.9569 30.9332C35.7573 30.8912 35.6313 30.6286 35.6891 30.3241V30.3136ZM36.9074 32.8657C36.7127 32.8773 36.5178 32.8461 36.3364 32.7744C36.155 32.7028 35.9914 32.5924 35.8571 32.4509C36.4194 31.9414 36.9104 31.3585 37.317 30.7179L36.9074 32.8657ZM37.9209 34.2731C37.8976 34.2669 37.8776 34.252 37.8649 34.2315C37.8522 34.211 37.8478 34.1865 37.8526 34.1628C37.8577 34.14 37.8715 34.12 37.8912 34.1072C37.9108 34.0944 37.9347 34.0899 37.9577 34.0946C38.3367 34.1762 38.7296 34.1674 39.1046 34.0689C39.4796 33.9703 39.8261 33.7848 40.116 33.5274C40.1243 33.5188 40.1342 33.5119 40.1451 33.5071C40.156 33.5023 40.1678 33.4997 40.1798 33.4995C40.1917 33.4992 40.2036 33.5013 40.2147 33.5057C40.2259 33.51 40.236 33.5165 40.2446 33.5248C40.2533 33.5331 40.2602 33.543 40.265 33.5539C40.2698 33.5648 40.2724 33.5766 40.2726 33.5886C40.2729 33.6005 40.2707 33.6124 40.2664 33.6235C40.262 33.6347 40.2555 33.6448 40.2473 33.6535C39.759 34.1029 39.1147 34.3441 38.4513 34.3256C38.2737 34.3241 38.0965 34.31 37.9209 34.2836V34.2731Z" fill="#FFC3BD"/>
<path d="M44.8427 31.951C44.6221 31.4259 44.3701 30.864 44.1127 30.3389C43.7821 31.0497 43.726 31.8577 43.9552 32.6075C44.1881 32.3144 44.4942 32.0879 44.8427 31.951Z" fill="#263238"/>
<path d="M39.6704 30.5918C39.553 30.6962 39.4736 30.8365 39.4446 30.9909C39.3868 31.2955 39.5023 31.5738 39.7019 31.6106C39.9014 31.6473 40.1115 31.4373 40.1693 31.1327C40.2033 31.0285 40.2039 30.9163 40.1709 30.8118C40.1379 30.7072 40.0731 30.6156 39.9855 30.5498C39.9411 30.5836 39.8888 30.6053 39.8335 30.6127C39.7782 30.62 39.722 30.6128 39.6704 30.5918Z" fill="#263238"/>
<path d="M36.4398 30.4657C36.47 30.3613 36.4687 30.2502 36.436 30.1465C36.4033 30.0428 36.3407 29.951 36.256 29.8828C36.2105 29.9162 36.1575 29.9379 36.1017 29.9462C36.0458 29.9544 35.9889 29.9489 35.9356 29.9301C35.8209 30.0336 35.7434 30.172 35.7151 30.3239C35.6573 30.6285 35.7728 30.9068 35.9724 30.9488C36.1719 30.9909 36.3505 30.7703 36.4398 30.4657Z" fill="#263238"/>
<path d="M36.2299 29.8821L35.542 29.5303C35.6123 29.7013 35.7381 29.8437 35.8991 29.9346C35.9542 29.9546 36.0134 29.9602 36.0713 29.951C36.1291 29.9418 36.1837 29.9181 36.2299 29.8821Z" fill="#263238"/>
<path d="M35.8623 32.4771C35.9966 32.6186 36.1602 32.729 36.3416 32.8007C36.523 32.8723 36.7179 32.9035 36.9126 32.892L37.3274 30.7441C36.9193 31.3851 36.4264 31.968 35.8623 32.4771Z" fill="#ED847E"/>
<path d="M40.2366 33.5265C40.219 33.5095 40.1955 33.5 40.171 33.5C40.1465 33.5 40.123 33.5095 40.1054 33.5265C39.8166 33.7823 39.4719 33.9669 39.0989 34.0654C38.7259 34.1639 38.335 34.1736 37.9575 34.0937C37.9346 34.089 37.9107 34.0935 37.891 34.1063C37.8714 34.1191 37.8575 34.139 37.8525 34.1619C37.8477 34.1856 37.852 34.2101 37.8647 34.2306C37.8774 34.2511 37.8975 34.266 37.9208 34.2722C38.0944 34.3019 38.2699 34.3194 38.4459 34.3247C39.1093 34.3432 39.7537 34.102 40.2419 33.6525C40.2567 33.6346 40.2643 33.6118 40.2634 33.5885C40.2624 33.5653 40.2529 33.5432 40.2366 33.5265Z" fill="#263238"/>
<path d="M44.8422 31.9512C44.4937 32.0881 44.1876 32.3145 43.9547 32.6076C43.7415 32.8561 43.5647 33.1337 43.4296 33.4321C43.0305 34.3143 43.2773 35.3016 44.1543 35.2228C44.2488 35.2228 44.3486 35.1808 44.4483 35.1598C44.8607 35.0502 45.2372 34.8348 45.5406 34.5349C45.4307 33.645 45.1956 32.7752 44.8422 31.9512Z" fill="#FFC3BD"/>
<path d="M42.5114 25.2928C42.5429 24.5366 42.9735 24.3528 43.5617 24.4684C40.3793 22.6094 35.7108 24.6469 35.3643 27.0941C35.6793 27.0941 36.0049 27.0941 36.341 27.0941C38.397 27.0429 40.4362 26.7089 42.4011 26.1015C42.3706 25.827 42.4085 25.5492 42.5114 25.2928Z" fill="#263238"/>
<path d="M42.5113 25.2927C42.4119 25.5426 42.374 25.8128 42.401 26.0804C42.4798 27.1937 43.3253 28.7061 44.1235 30.3288C44.3808 30.8539 44.6486 31.3791 44.8534 31.941C45.2068 32.765 45.442 33.6348 45.5519 34.5246C45.6465 35.3196 45.5306 36.1255 45.2158 36.8615C46.4814 35.4226 47.0013 32.8442 47.2113 30.6491C47.3317 29.3628 47.3686 28.07 47.3216 26.7788C47.3216 26.7788 44.9795 24.7518 43.5616 24.4682C42.9734 24.3527 42.5428 24.5365 42.5113 25.2927Z" fill="#263238"/>
<path d="M40.1159 28.3121C40.3445 28.3545 40.5595 28.4516 40.7424 28.5952C40.9254 28.7387 41.0707 28.9245 41.1662 29.1366C41.1751 29.1594 41.1892 29.1799 41.2075 29.1963C41.2257 29.2127 41.2475 29.2246 41.2712 29.2311C41.3149 29.2492 41.364 29.2492 41.4077 29.2311C41.4507 29.2086 41.4834 29.1705 41.4991 29.1245C41.5147 29.0786 41.5121 29.0284 41.4917 28.9843C41.3762 28.7167 41.1972 28.4812 40.9703 28.2982C40.7434 28.1153 40.4754 27.9903 40.1894 27.934C40.1414 27.9281 40.093 27.9412 40.0546 27.9707C40.0163 28.0002 39.9911 28.0436 39.9846 28.0916C39.9747 28.1381 39.9827 28.1867 40.0071 28.2275C40.0314 28.2684 40.0703 28.2986 40.1159 28.3121Z" fill="#263238"/>
<path d="M36.4877 27.8713C36.533 27.8866 36.5825 27.8836 36.6256 27.863C36.6688 27.8424 36.7022 27.8058 36.7188 27.761C36.7272 27.739 36.7311 27.7155 36.7304 27.6919C36.7297 27.6683 36.7243 27.6451 36.7145 27.6236C36.7047 27.6021 36.6908 27.5828 36.6735 27.5667C36.6562 27.5506 36.6359 27.5381 36.6138 27.53C36.4438 27.477 36.2667 27.4505 36.0886 27.4512C35.6793 27.4497 35.2809 27.5825 34.9543 27.8293C34.9165 27.8593 34.8915 27.9028 34.8847 27.9506C34.8779 27.9985 34.8896 28.0472 34.9176 28.0866C34.9464 28.1227 34.9876 28.147 35.0331 28.1549C35.0576 28.1602 35.083 28.1601 35.1075 28.1547C35.1319 28.1493 35.1549 28.1386 35.1749 28.1234C35.3811 27.9645 35.6257 27.8631 35.8838 27.8293C36.0857 27.7964 36.2924 27.8108 36.4877 27.8713Z" fill="#263238"/>
<path d="M39.6697 30.5911C39.7214 30.6121 39.7776 30.6193 39.8328 30.612C39.8881 30.6046 39.9405 30.5829 39.9848 30.5491L39.2969 30.1973C39.371 30.3683 39.503 30.5077 39.6697 30.5911Z" fill="#263238"/>
<path d="M48.0722 56.276C48.0722 56.0607 48.1037 55.8296 48.1142 55.6091C47.8201 55.1417 47.5208 54.6691 47.2109 54.2017L46.607 53.3037L46.418 53.4035C46.8967 54.401 47.4497 55.3612 48.0722 56.276Z" fill="#263238"/>
<path opacity="0.2" d="M48.0722 56.276C48.0722 56.0607 48.1037 55.8296 48.1142 55.6091C47.8201 55.1417 47.5208 54.6691 47.2109 54.2017L46.607 53.3037L46.418 53.4035C46.8967 54.401 47.4497 55.3612 48.0722 56.276Z" fill="#333333"/>
<path d="M49.6321 60.6238V60.7078C51.7266 59.576 53.656 58.1625 55.3666 56.5067C55.0798 55.6596 54.7431 54.8301 54.3583 54.0228C53.8488 52.9246 53.2827 51.8536 52.6622 50.8142C52.137 49.9109 51.5804 49.0497 51.0079 48.1885C50.4828 49.286 48.9914 51.9275 46.623 53.2876L47.227 54.1856C47.5368 54.6529 47.8361 55.1256 48.1302 55.5929C48.3875 56.0026 48.6553 56.4174 48.8706 56.827C49.275 57.536 49.6531 58.2501 49.9209 58.9276L49.8684 59.2847C49.8054 59.7205 49.7266 60.1669 49.6321 60.6238Z" fill="#FFC3BD"/>
<path d="M43.0094 50.636C43.0094 50.636 44.3538 51.9804 45.9292 53.6451C46.0973 53.5715 46.26 53.4875 46.4176 53.4035L46.6066 53.3037C48.975 51.9436 50.4559 49.3022 50.9916 48.2046C51.1438 47.8948 51.2226 47.7057 51.2226 47.7057C51.2226 47.7057 49.6997 45.1851 47.6097 43.9142C47.111 43.5991 46.5595 43.3767 45.9817 43.2578C42.2585 44.2083 41.0454 46.5399 43.0094 50.636Z" fill="#263238"/>
<path d="M20.6796 79.0216L21.1207 80.6863C21.1462 80.7778 21.2012 80.8583 21.2772 80.9153C21.3532 80.9722 21.4458 81.0025 21.5408 81.0013H23.2895C23.3882 81.0023 23.4838 81.0355 23.5617 81.0959C23.6397 81.1562 23.6958 81.2405 23.7214 81.3357C23.747 81.431 23.7407 81.532 23.7035 81.6233C23.6663 81.7147 23.6002 81.7913 23.5153 81.8416L22.0397 82.8919C21.9558 82.9477 21.8915 83.0283 21.8557 83.1224C21.82 83.2166 21.8145 83.3196 21.8401 83.417L22.2813 85.0817C22.3074 85.1773 22.3036 85.2786 22.2702 85.3719C22.2368 85.4652 22.1756 85.546 22.0948 85.6033C22.0139 85.6606 21.9174 85.6917 21.8183 85.6923C21.7193 85.693 21.6224 85.6631 21.5408 85.6068L20.186 84.5565C20.109 84.5025 20.0174 84.4736 19.9234 84.4736C19.8294 84.4736 19.7377 84.5025 19.6608 84.5565L18.1852 85.6068C18.1079 85.6684 18.0121 85.7022 17.9133 85.7028C17.8145 85.7034 17.7183 85.6709 17.6402 85.6103C17.5621 85.5498 17.5066 85.4647 17.4826 85.3689C17.4585 85.273 17.4674 85.1719 17.5077 85.0817L18.1432 83.417C18.1822 83.3268 18.1899 83.2261 18.1652 83.1309C18.1404 83.0358 18.0846 82.9517 18.0066 82.8919L16.6518 81.8416C16.5772 81.7775 16.5242 81.6919 16.5 81.5966C16.4758 81.5013 16.4817 81.4008 16.5167 81.3089C16.5517 81.217 16.6143 81.1382 16.6958 81.0831C16.7773 81.0281 16.8738 80.9995 16.9721 81.0013H18.7208C18.8199 81.0014 18.9167 80.9713 18.9984 80.915C19.08 80.8587 19.1425 80.7789 19.1777 80.6863L19.7921 79.0216C19.82 78.9255 19.8784 78.8411 19.9584 78.781C20.0384 78.7209 20.1358 78.6885 20.2358 78.6885C20.3359 78.6885 20.4332 78.7209 20.5133 78.781C20.5933 78.8411 20.6516 78.9255 20.6796 79.0216Z" fill="#FF5400"/>
<path d="M29.6063 79.0216L30.0475 80.6863C30.0729 80.7778 30.1279 80.8583 30.2039 80.9153C30.2799 80.9722 30.3726 81.0025 30.4676 81.0013H32.2163C32.3149 81.0023 32.4105 81.0355 32.4885 81.0959C32.5665 81.1562 32.6226 81.2405 32.6482 81.3357C32.6738 81.431 32.6675 81.532 32.6303 81.6233C32.5931 81.7147 32.527 81.7913 32.4421 81.8416L30.9665 82.8919C30.8826 82.9477 30.8183 83.0283 30.7825 83.1224C30.7467 83.2166 30.7413 83.3196 30.7669 83.417L31.208 85.0817C31.2342 85.1773 31.2303 85.2786 31.197 85.3719C31.1636 85.4652 31.1023 85.546 31.0215 85.6033C30.9407 85.6606 30.8442 85.6917 30.7451 85.6923C30.646 85.693 30.5491 85.6631 30.4676 85.6068L29.1127 84.5565C29.0358 84.5025 28.9441 84.4736 28.8501 84.4736C28.7562 84.4736 28.6645 84.5025 28.5876 84.5565L27.1119 85.6068C27.0346 85.6684 26.9389 85.7022 26.84 85.7028C26.7412 85.7034 26.6451 85.6709 26.567 85.6103C26.4889 85.5498 26.4333 85.4647 26.4093 85.3689C26.3853 85.273 26.3942 85.1719 26.4345 85.0817L27.0699 83.417C27.1089 83.3268 27.1167 83.2261 27.0919 83.1309C27.0672 83.0358 27.0114 82.9517 26.9334 82.8919L25.5785 81.8416C25.5039 81.7775 25.4509 81.6919 25.4268 81.5966C25.4026 81.5013 25.4084 81.4008 25.4435 81.3089C25.4785 81.217 25.541 81.1382 25.6225 81.0831C25.704 81.0281 25.8005 80.9995 25.8989 81.0013H27.6476C27.7467 81.0014 27.8435 80.9713 27.9251 80.915C28.0067 80.8587 28.0693 80.7789 28.1044 80.6863L28.7189 79.0216C28.7468 78.9255 28.8052 78.8411 28.8852 78.781C28.9652 78.7209 29.0625 78.6885 29.1626 78.6885C29.2627 78.6885 29.36 78.7209 29.44 78.781C29.52 78.8411 29.5784 78.9255 29.6063 79.0216Z" fill="#FF5400"/>
<path d="M38.5341 79.0216L38.9752 80.6863C39.0007 80.7778 39.0557 80.8583 39.1317 80.9153C39.2076 80.9722 39.3003 81.0025 39.3953 81.0013H41.144C41.2426 81.0023 41.3383 81.0355 41.4162 81.0959C41.4942 81.1562 41.5503 81.2405 41.5759 81.3357C41.6015 81.431 41.5952 81.532 41.558 81.6233C41.5208 81.7147 41.4547 81.7913 41.3698 81.8416L39.8942 82.8919C39.8103 82.9477 39.746 83.0283 39.7102 83.1224C39.6745 83.2166 39.669 83.3196 39.6946 83.417L40.1358 85.0817C40.1619 85.1773 40.1581 85.2786 40.1247 85.3719C40.0913 85.4652 40.0301 85.546 39.9493 85.6033C39.8684 85.6606 39.7719 85.6917 39.6728 85.6923C39.5737 85.693 39.4769 85.6631 39.3953 85.6068L38.0404 84.5565C37.9635 84.5025 37.8718 84.4736 37.7779 84.4736C37.6839 84.4736 37.5922 84.5025 37.5153 84.5565L36.0397 85.6068C35.9623 85.6684 35.8666 85.7022 35.7678 85.7028C35.669 85.7034 35.5728 85.6709 35.4947 85.6103C35.4166 85.5498 35.3611 85.4647 35.3371 85.3689C35.313 85.273 35.3219 85.1719 35.3622 85.0817L35.9976 83.417C36.0367 83.3268 36.0444 83.2261 36.0197 83.1309C35.9949 83.0358 35.9391 82.9517 35.8611 82.8919L34.5063 81.8416C34.4317 81.7775 34.3787 81.6919 34.3545 81.5966C34.3303 81.5013 34.3362 81.4008 34.3712 81.3089C34.4062 81.217 34.4688 81.1382 34.5503 81.0831C34.6318 81.0281 34.7283 80.9995 34.8266 81.0013H36.5753C36.6744 81.0014 36.7712 80.9713 36.8528 80.915C36.9345 80.8587 36.997 80.7789 37.0322 80.6863L37.6466 79.0216C37.6745 78.9255 37.7329 78.8411 37.8129 78.781C37.8929 78.7209 37.9903 78.6885 38.0903 78.6885C38.1904 78.6885 38.2877 78.7209 38.3678 78.781C38.4478 78.8411 38.5061 78.9255 38.5341 79.0216Z" fill="#FF5400"/>
<path d="M47.4618 79.0216L47.9029 80.6863C47.9284 80.7778 47.9834 80.8583 48.0594 80.9153C48.1354 80.9722 48.2281 81.0025 48.323 81.0013H50.0718C50.1704 81.0023 50.266 81.0355 50.344 81.0959C50.422 81.1562 50.478 81.2405 50.5036 81.3357C50.5292 81.431 50.523 81.532 50.4857 81.6233C50.4485 81.7147 50.3824 81.7913 50.2976 81.8416L48.8219 82.8919C48.7381 82.9477 48.6738 83.0283 48.638 83.1224C48.6022 83.2166 48.5967 83.3196 48.6224 83.417L49.0635 85.0817C49.0896 85.1773 49.0858 85.2786 49.0524 85.3719C49.0191 85.4652 48.9578 85.546 48.877 85.6033C48.7962 85.6606 48.6997 85.6917 48.6006 85.6923C48.5015 85.693 48.4046 85.6631 48.323 85.6068L46.9682 84.5565C46.8913 84.5025 46.7996 84.4736 46.7056 84.4736C46.6116 84.4736 46.5199 84.5025 46.443 84.5565L44.9674 85.6068C44.8901 85.6684 44.7943 85.7022 44.6955 85.7028C44.5967 85.7034 44.5005 85.6709 44.4224 85.6103C44.3443 85.5498 44.2888 85.4647 44.2648 85.3689C44.2408 85.273 44.2496 85.1719 44.29 85.0817L44.9254 83.417C44.9644 83.3268 44.9721 83.2261 44.9474 83.1309C44.9227 83.0358 44.8669 82.9517 44.7888 82.8919L43.434 81.8416C43.3594 81.7775 43.3064 81.6919 43.2822 81.5966C43.2581 81.5013 43.2639 81.4008 43.2989 81.3089C43.334 81.217 43.3965 81.1382 43.478 81.0831C43.5595 81.0281 43.656 80.9995 43.7543 81.0013H45.503C45.6022 81.0014 45.699 80.9713 45.7806 80.915C45.8622 80.8587 45.9247 80.7789 45.9599 80.6863L46.5743 79.0216C46.6023 78.9255 46.6606 78.8411 46.7406 78.781C46.8207 78.7209 46.918 78.6885 47.0181 78.6885C47.1181 78.6885 47.2155 78.7209 47.2955 78.781C47.3755 78.8411 47.4339 78.9255 47.4618 79.0216Z" fill="#FF5400"/>
<path d="M56.3886 79.0216L56.8297 80.6863C56.8552 80.7778 56.9102 80.8583 56.9862 80.9153C57.0621 80.9722 57.1548 81.0025 57.2498 81.0013H58.9985C59.0971 81.0023 59.1927 81.0355 59.2707 81.0959C59.3487 81.1562 59.4048 81.2405 59.4304 81.3357C59.456 81.431 59.4497 81.532 59.4125 81.6233C59.3753 81.7147 59.3092 81.7913 59.2243 81.8416L57.7487 82.8919C57.6648 82.9477 57.6005 83.0283 57.5647 83.1224C57.529 83.2166 57.5235 83.3196 57.5491 83.417L57.9902 85.0817C58.0164 85.1773 58.0125 85.2786 57.9792 85.3719C57.9458 85.4652 57.8846 85.546 57.8037 85.6033C57.7229 85.6606 57.6264 85.6917 57.5273 85.6923C57.4282 85.693 57.3313 85.6631 57.2498 85.6068L55.8949 84.5565C55.818 84.5025 55.7263 84.4736 55.6324 84.4736C55.5384 84.4736 55.4467 84.5025 55.3698 84.5565L53.8942 85.6068C53.8168 85.6684 53.7211 85.7022 53.6223 85.7028C53.5235 85.7034 53.4273 85.6709 53.3492 85.6103C53.2711 85.5498 53.2156 85.4647 53.1915 85.3689C53.1675 85.273 53.1764 85.1719 53.2167 85.0817L53.8521 83.417C53.8911 83.3268 53.8989 83.2261 53.8742 83.1309C53.8494 83.0358 53.7936 82.9517 53.7156 82.8919L52.3607 81.8416C52.2862 81.7775 52.2332 81.6919 52.209 81.5966C52.1848 81.5013 52.1907 81.4008 52.2257 81.3089C52.2607 81.217 52.3233 81.1382 52.4048 81.0831C52.4863 81.0281 52.5828 80.9995 52.6811 81.0013H54.4298C54.5289 81.0014 54.6257 80.9713 54.7073 80.915C54.7889 80.8587 54.8515 80.7789 54.8867 80.6863L55.5011 79.0216C55.529 78.9255 55.5874 78.8411 55.6674 78.781C55.7474 78.7209 55.8448 78.6885 55.9448 78.6885C56.0449 78.6885 56.1422 78.7209 56.2223 78.781C56.3023 78.8411 56.3606 78.9255 56.3886 79.0216Z" fill="#FF5400"/>
<path opacity="0.2" d="M54.2497 74.294H20.7563C20.4729 74.2995 20.2017 74.41 19.995 74.604C19.7884 74.798 19.6611 75.0618 19.6378 75.3443C19.6291 75.48 19.6485 75.6161 19.6949 75.7439C19.7413 75.8718 19.8136 75.9887 19.9072 76.0873C20.0009 76.1859 20.114 76.2641 20.2393 76.317C20.3646 76.3699 20.4995 76.3963 20.6355 76.3945H54.1289C54.4121 76.3901 54.6834 76.2798 54.8894 76.0855C55.0954 75.8911 55.2213 75.6267 55.2422 75.3443C55.2509 75.209 55.2316 75.0733 55.1855 74.9458C55.1394 74.8183 55.0676 74.7016 54.9745 74.6031C54.8814 74.5046 54.769 74.4263 54.6443 74.3731C54.5196 74.3199 54.3853 74.293 54.2497 74.294Z" fill="#FF5400"/>
<path opacity="0.2" d="M48.3107 70.8116H20.9614C20.6776 70.8159 20.4057 70.926 20.1989 71.1202C19.992 71.3145 19.865 71.5789 19.8428 71.8618C19.8342 71.9971 19.8535 72.1328 19.8995 72.2603C19.9456 72.3878 20.0174 72.5044 20.1105 72.603C20.2036 72.7015 20.3161 72.7798 20.4408 72.833C20.5655 72.8862 20.6998 72.9131 20.8354 72.9121H48.1899C48.4731 72.9076 48.7443 72.7974 48.9504 72.603C49.1564 72.4087 49.2822 72.1443 49.3032 71.8618C49.3118 71.7265 49.2925 71.5909 49.2465 71.4634C49.2004 71.3359 49.1286 71.2192 49.0355 71.1207C48.9424 71.0222 48.8299 70.9439 48.7052 70.8907C48.5805 70.8375 48.4462 70.8106 48.3107 70.8116Z" fill="#FF5400"/>
</svg>
