<svg width="80" height="80" viewBox="0 0 80 80" fill="none" xmlns="http://www.w3.org/2000/svg">
<path d="M29.1312 36.417C29.1312 36.417 31.1312 16.667 35.7412 14.417C40.3512 12.167 46.7412 10.707 48.5112 13.647C50.697 17.3731 52.172 21.4726 52.8612 25.737C53.3066 29.6971 53.437 33.6863 53.2512 37.667L47.9812 37.117C47.9812 37.117 48.0912 17.457 46.4712 14.557C44.8512 11.657 36.7612 14.057 35.8912 17.557C35.0212 21.057 33.2012 36.797 33.2012 36.797L29.1312 36.417Z" fill="#FF5400"/>
<path d="M11.0013 64.3675C11.1913 56.2275 11.8312 38.2775 12.1212 30.3675C12.1575 29.3311 12.595 28.3493 13.3412 27.6292C14.0874 26.909 15.0842 26.5069 16.1212 26.5075L64.5212 26.4375C65.5583 26.4369 66.5551 26.839 67.3013 27.5592C68.0475 28.2793 68.4849 29.2611 68.5212 30.2975L69.7213 63.7375C69.7414 64.2753 69.6529 64.8116 69.4609 65.3143C69.269 65.8171 68.9775 66.276 68.6041 66.6634C68.2306 67.0509 67.7828 67.359 67.2874 67.5693C66.7921 67.7797 66.2594 67.8879 65.7213 67.8875L15.0112 68.4675C14.4766 68.469 13.9471 68.3633 13.454 68.1567C12.9609 67.95 12.5142 67.6466 12.1404 67.2644C11.7665 66.8822 11.4731 66.4289 11.2775 65.9313C11.0818 65.4337 10.9879 64.902 11.0013 64.3675Z" fill="#FF5400"/>
<path d="M65.2312 38.7167C65.2312 38.7167 65.2312 38.8267 65.2312 39.0667C65.2312 39.3067 65.2312 39.6867 65.2312 40.1467C65.2312 41.1467 65.2312 42.5167 65.2312 44.3267C65.2312 47.9867 65.2312 53.2567 65.2312 59.7667V60.9967C65.2607 61.4433 65.1673 61.8894 64.9612 62.2867C64.7301 62.6887 64.381 63.0099 63.9612 63.2067C63.5333 63.3796 63.0714 63.4515 62.6112 63.4167H57.0812L44.8712 63.4867L31.3712 63.5567H24.2412H20.5912H19.7212C19.3871 63.5826 19.0511 63.5658 18.7212 63.5067C18.3908 63.4317 18.0816 63.283 17.8166 63.0717C17.5517 62.8605 17.3379 62.5921 17.1912 62.2867C17.0712 62.0252 17 61.7439 16.9812 61.4567C16.9812 61.1667 16.9812 60.9167 16.9812 60.6467C16.9812 60.1167 16.9812 59.5867 16.9812 59.0567C16.9812 58.0067 16.9812 56.9567 16.9812 55.9167C16.9812 53.8367 17.0412 51.7767 17.0612 49.7567C17.1212 45.7567 17.1812 41.7567 17.2312 38.0667V37.8867H17.4112C31.3212 38.6367 43.2512 38.7767 51.6912 38.7467C55.9212 38.7467 59.2712 38.6967 61.5612 38.6567H64.2112H64.8812C64.9541 38.6454 65.0283 38.6454 65.1012 38.6567H64.8612H64.1812L61.5612 38.7567C59.2712 38.8267 55.9212 38.9067 51.7012 38.9467C43.2512 39.0367 31.3112 38.9467 17.3912 38.2167L17.5712 38.0467C17.5712 41.7867 17.4712 45.6967 17.4212 49.7467C17.4212 51.7467 17.3712 53.8167 17.3412 55.8967C17.3412 56.9467 17.3412 57.9867 17.3412 59.0467C17.3412 59.5767 17.3412 60.0967 17.3412 60.6267C17.2708 61.1298 17.3293 61.6424 17.5112 62.1167C17.6379 62.3672 17.8184 62.5867 18.0396 62.7596C18.2609 62.9324 18.5175 63.0543 18.7912 63.1167C19.0804 63.1478 19.372 63.1478 19.6612 63.1167H20.5912H24.2412H31.3712H44.8612H57.0712H62.7212C63.1398 63.1612 63.5629 63.0993 63.9512 62.9367C64.3177 62.7676 64.622 62.4878 64.8212 62.1367C65.0084 61.7836 65.0949 61.3857 65.0712 60.9867V59.7567C65.1212 53.2767 65.1612 48.0267 65.1912 44.3867C65.1912 42.5667 65.1912 41.1567 65.2412 40.1767C65.2412 39.7067 65.2412 39.3367 65.2412 39.0767C65.2412 38.8167 65.2312 38.7167 65.2312 38.7167Z" fill="#D24500"/>
<path d="M51.4812 60.2871C51.4812 60.2871 51.7812 60.2871 52.3312 60.1671C53.1228 59.9799 53.8444 59.5705 54.4112 58.9871C54.8507 58.5212 55.1824 57.9644 55.3829 57.3561C55.5833 56.7478 55.6476 56.1029 55.5712 55.4671C55.5712 53.9471 55.5712 52.2171 55.5712 50.3071C55.5712 49.3071 55.5712 48.3071 55.5712 47.3071C55.6697 46.2316 55.3551 45.1589 54.6912 44.3071C54.3426 43.8665 53.905 43.5044 53.4071 43.2442C52.9091 42.984 52.362 42.8317 51.8012 42.7971C50.6312 42.7971 49.3812 42.7971 48.1212 42.7971H31.6512C30.6142 42.7964 29.6174 43.1986 28.8712 43.9187C28.1249 44.6388 27.6875 45.6206 27.6512 46.6571C27.6512 47.3571 27.6512 48.0471 27.6512 48.7371C27.6512 50.1071 27.6512 51.4571 27.6512 52.7871C27.6512 53.4471 27.6512 54.0971 27.6512 54.7871C27.6157 55.4166 27.6157 56.0476 27.6512 56.6771C27.7383 57.2641 27.9548 57.8243 28.2852 58.3172C28.6155 58.8102 29.0514 59.2234 29.5612 59.5271C30.0445 59.8248 30.5873 60.0126 31.1512 60.0771C31.7012 60.1371 32.2912 60.0771 32.8512 60.0771H39.1012L48.1512 60.1571H50.6112H51.2512H51.4712C51.3982 60.1662 51.3243 60.1662 51.2512 60.1571H50.6112H48.1512H39.1012H32.8512C32.2812 60.1571 31.7312 60.1571 31.1212 60.1571C30.1731 60.0509 29.2866 59.6345 28.5994 58.9726C27.9123 58.3108 27.4629 57.4405 27.3212 56.4971C27.2647 55.852 27.248 55.2041 27.2712 54.5571V48.5571C27.2712 47.8671 27.2712 47.1671 27.2712 46.4671C27.3076 45.3352 27.7829 44.2618 28.5967 43.4742C29.4104 42.6866 30.4987 42.2465 31.6312 42.2471L48.0712 42.2971C49.3412 42.2971 50.5612 42.2971 51.7712 42.2971C52.374 42.3379 52.9615 42.505 53.4956 42.7875C54.0296 43.07 54.4983 43.4617 54.8712 43.9371C55.5611 44.8316 55.8926 45.9512 55.8012 47.0771C55.8012 48.0771 55.8012 49.0771 55.8012 50.0771C55.8012 51.9871 55.8012 53.7171 55.8012 55.2371C55.8214 55.6068 55.8214 55.9773 55.8012 56.3471C55.7591 56.6884 55.6786 57.0238 55.5612 57.3471C55.3058 58.0218 54.8825 58.6202 54.3313 59.0857C53.7801 59.5512 53.1192 59.8683 52.4112 60.0071C52.1168 60.1459 51.8034 60.2403 51.4812 60.2871Z" fill="#D24500"/>
<g opacity="0.3">
<path d="M18.5612 63.427C33.0367 67.6752 48.4385 67.5987 62.8712 63.207L18.5612 63.427Z" fill="#333333"/>
</g>
<path d="M45.8712 47.8875H40.1613C39.7324 47.8848 39.3219 47.7133 39.0186 47.4101C38.7154 47.1068 38.5439 46.6963 38.5413 46.2675C38.5439 45.8369 38.7168 45.4249 39.0222 45.1213C39.3276 44.8178 39.7407 44.6475 40.1713 44.6475H45.8813C46.3109 44.6475 46.723 44.8181 47.0268 45.1219C47.3306 45.4258 47.5013 45.8378 47.5013 46.2675C47.5013 46.481 47.459 46.6925 47.377 46.8897C47.2949 47.0869 47.1747 47.266 47.0232 47.4165C46.8717 47.5671 46.692 47.6862 46.4943 47.767C46.2966 47.8479 46.0848 47.8888 45.8712 47.8875Z" fill="#E0E0E0"/>
</svg>
