<svg width="470" height="470" viewBox="0 0 470 470" fill="none" xmlns="http://www.w3.org/2000/svg">
<path d="M126.627 304.438H54.792V399.19H126.627V304.438Z" fill="#E0E0E0"/>
<path d="M126.626 304.438H92.9463V399.19H126.626V304.438Z" fill="#F0F0F0"/>
<path d="M76.3084 317.269H69.8506V332.957H76.3084V317.269Z" fill="#F5F5F5"/>
<path d="M76.3084 378.679H69.8506V394.367H76.3084V378.679Z" fill="#F5F5F5"/>
<path d="M92.9466 339.115C92.9466 339.256 84.402 339.359 73.874 339.359C63.346 339.359 54.792 339.256 54.792 339.115C54.792 338.974 63.3272 338.87 73.874 338.87C84.4208 338.87 92.9466 338.983 92.9466 339.115Z" fill="white"/>
<path d="M76.3084 348.204H69.8506V363.893H76.3084V348.204Z" fill="#F5F5F5"/>
<path d="M92.9466 370.059C92.9466 370.19 84.402 370.303 73.874 370.303C63.346 370.303 54.792 370.19 54.792 370.059C54.792 369.927 63.3272 369.814 73.874 369.814C84.4208 369.814 92.9466 369.927 92.9466 370.059Z" fill="white"/>
<path d="M106.558 317.269H100.101V332.957H106.558V317.269Z" fill="#E0E0E0"/>
<path d="M120.564 317.269H114.106V332.957H120.564V317.269Z" fill="#E0E0E0"/>
<path d="M106.558 347.048H100.101V362.736H106.558V347.048Z" fill="#E0E0E0"/>
<path d="M120.564 347.048H114.106V362.736H120.564V347.048Z" fill="#E0E0E0"/>
<path d="M106.558 376.817H100.101V392.506H106.558V376.817Z" fill="#E0E0E0"/>
<path d="M120.564 376.817H114.106V392.506H120.564V376.817Z" fill="#E0E0E0"/>
<path d="M132.032 301.139H49.3965V304.551H132.032V301.139Z" fill="#E0E0E0"/>
<path d="M127.126 304.879C127.126 305.011 111.07 305.124 91.274 305.124C71.4776 305.124 55.46 305.011 55.46 304.879C55.46 304.748 71.5152 304.635 91.321 304.635C111.127 304.635 127.126 304.748 127.126 304.879Z" fill="white"/>
<path d="M404.979 330.476H353.308V398.626H404.979V330.476Z" fill="#E0E0E0"/>
<path d="M404.97 330.476H380.746V398.626H404.97V330.476Z" fill="#F0F0F0"/>
<path d="M368.78 339.697H364.137V350.987H368.78V339.697Z" fill="#F5F5F5"/>
<path d="M368.78 383.877H364.137V395.166H368.78V383.877Z" fill="#F5F5F5"/>
<path d="M380.746 355.414C380.746 355.518 374.608 355.593 367.032 355.593C359.455 355.593 353.308 355.518 353.308 355.414C353.308 355.311 359.446 355.245 367.032 355.245C374.617 355.245 380.746 355.32 380.746 355.414Z" fill="white"/>
<path d="M368.78 361.956H364.137V373.245H368.78V361.956Z" fill="#F5F5F5"/>
<path d="M380.746 377.673C380.746 377.767 374.608 377.851 367.032 377.851C359.455 377.851 353.308 377.767 353.308 377.673C353.308 377.579 359.446 377.494 367.032 377.494C374.617 377.494 380.746 377.569 380.746 377.673Z" fill="white"/>
<path d="M390.532 339.697H385.889V350.987H390.532V339.697Z" fill="#E0E0E0"/>
<path d="M400.618 339.697H395.975V350.987H400.618V339.697Z" fill="#E0E0E0"/>
<path d="M390.532 361.12H385.889V372.409H390.532V361.12Z" fill="#E0E0E0"/>
<path d="M400.618 361.12H395.975V372.409H400.618V361.12Z" fill="#E0E0E0"/>
<path d="M390.532 382.533H385.889V393.823H390.532V382.533Z" fill="#E0E0E0"/>
<path d="M400.618 382.533H395.975V393.823H400.618V382.533Z" fill="#E0E0E0"/>
<path d="M408.862 328.098H349.426V330.551H408.862V328.098Z" fill="#E0E0E0"/>
<path d="M405.337 330.786C405.337 330.89 393.785 330.965 379.544 330.965C365.303 330.965 353.75 330.89 353.75 330.786C353.75 330.683 365.293 330.617 379.544 330.617C393.794 330.617 405.337 330.692 405.337 330.786Z" fill="white"/>
<path d="M43.0703 144.656H95.9829C95.9829 144.656 95.9829 132.54 89.7413 132.54C87.5014 132.466 85.3063 133.178 83.5351 134.551C81.7639 135.924 80.5278 137.872 80.0405 140.06C80.0405 140.06 80.0405 117.453 68.6665 120.771C57.8941 123.911 56.6815 138.387 56.6815 138.387C56.6815 138.387 54.7451 131.102 48.9077 135.209C43.0703 139.317 43.0703 144.656 43.0703 144.656Z" fill="#E0E0E0"/>
<path d="M322.579 43.6348H356.889C356.889 43.6348 356.889 35.7764 352.838 35.7764C351.386 35.7283 349.964 36.1885 348.816 37.0775C347.668 37.9665 346.866 39.2285 346.549 40.6456C346.549 40.6456 346.549 25.991 339.17 28.1436C332.195 30.174 331.406 39.5552 331.406 39.5552C331.406 39.5552 330.146 34.8552 326.367 37.4966C322.589 40.138 322.579 43.6348 322.579 43.6348Z" fill="#EBEBEB"/>
<path d="M392.205 195.135H426.515C426.515 195.135 426.515 187.286 422.464 187.286C421.012 187.238 419.59 187.698 418.442 188.587C417.294 189.476 416.492 190.738 416.175 192.155C416.175 192.155 416.175 177.501 408.796 179.644C401.821 181.684 401.032 191.065 401.032 191.065C401.032 191.065 399.772 186.365 395.993 189.006C392.214 191.648 392.205 195.135 392.205 195.135Z" fill="#E0E0E0"/>
<path d="M430.266 399.19C430.266 399.321 342.846 399.434 235.009 399.434C127.172 399.434 39.7334 399.321 39.7334 399.19C39.7334 399.058 127.153 398.945 235.009 398.945C342.865 398.945 430.266 399.049 430.266 399.19Z" fill="#263238"/>
<path d="M365.19 51.7002H231.381V60.6302H356.26V372.71H231.381V381.64H365.19V51.7002Z" fill="#455A64"/>
<path d="M231.381 60.6299V69.5599V363.78V372.71H356.26V60.6299H231.381Z" fill="white"/>
<path d="M99.64 372.71V60.6302H231.381V51.7002H90.71V381.64H231.381V372.71H99.64Z" fill="#263238"/>
<path d="M99.6396 60.6299V372.71H231.381V363.78V69.5599V60.6299H99.6396Z" fill="#F5F5F5"/>
<path d="M326.632 70.2085C329.01 70.9981 331.332 71.8723 333.644 72.7841V60.6299H258.585H259.882C279.641 61.3349 305.087 62.9799 326.632 70.2085Z" fill="#F5F5F5"/>
<path d="M345.977 60.6299V78.1797C349.389 79.7965 352.801 81.4979 356.26 83.2275V64.9351C353.055 63.4499 349.774 62.0023 346.4 60.6299H345.977Z" fill="#F5F5F5"/>
<path d="M138.124 331.492C144.747 329.175 151.105 326.163 157.093 322.505L116.673 293.365C110.563 296.251 104.162 299.25 99.6777 302.436V327.055C109.303 334.152 125.105 335.947 138.124 331.492Z" fill="#F5F5F5"/>
<path d="M207.881 258.152C206.904 252.244 206.84 246.22 207.693 240.292L188 235.592C178.6 233.346 168.448 237.171 166.22 243.789C160.759 260.051 146.254 275.975 128.883 287.029C126.38 288.569 123.794 289.972 121.138 291.231L140.361 305.086L209.103 263.332C208.595 261.63 208.187 259.901 207.881 258.152Z" fill="#F5F5F5"/>
<path d="M222.536 285.657C217.319 280.461 213.221 274.251 210.494 267.411L144.121 307.737L161.135 320.004C167.565 315.915 173.656 311.488 180.085 307.277C193.446 298.615 207.673 291.369 222.536 285.657Z" fill="#F5F5F5"/>
<path d="M289.981 259.986L212.995 241.515C212.29 246.898 212.391 252.357 213.296 257.711C215.145 267.681 220.053 276.828 227.339 283.88C247.348 276.595 268.086 271.492 289.191 268.662C295.781 267.722 296.354 261.443 289.981 259.986Z" fill="#F5F5F5"/>
<path d="M133.762 230.093L136.667 212.863L136.958 211.274C136.498 210.334 136.018 209.46 135.595 208.558C131.403 209.676 126.75 209.563 122.323 210.09C117.895 210.616 113.167 212.111 111.682 215.006C110.742 216.783 111.259 218.766 111.766 220.59C112.537 223.447 113.311 226.302 114.088 229.153C114.727 231.541 115.423 234.003 117.397 236.015C118.589 237.153 120.024 238.005 121.594 238.507C123.164 239.008 124.827 239.146 126.459 238.91C127.591 238.735 128.676 238.329 129.646 237.717C130.616 237.106 131.451 236.303 132.099 235.357C133.011 233.736 133.577 231.944 133.762 230.093Z" fill="#F5F5F5"/>
<path d="M298.055 195.031L346.399 209.395L356.259 202.504V182.529L323.961 172.941L298.055 195.031Z" fill="#E6E6E6"/>
<path d="M329.611 168.129L356.26 176.044V155.467L345.892 154.245L329.611 168.129Z" fill="#E6E6E6"/>
<path d="M345.976 78.1797V60.6299H333.643V135.83L176.034 105.026L184.578 60.6299H172.471L164.18 103.672L99.6398 101.012V109.218L162.62 111.86L146.903 193.452L103.832 198.8L99.6398 183.826V210.945C100.032 218.311 101.185 225.616 103.08 232.744C103.88 236.45 105.449 239.947 107.686 243.009C112.02 248.489 120.254 252.409 129.24 253.349C126.047 257.917 122.137 261.939 117.66 265.258C112.452 269.131 106.276 272.29 99.6398 275.288V285.017L103.005 283.57L116.635 293.393L157.055 322.533L169.275 331.322C157.422 337.902 145.672 343.128 133.292 344.538C130.35 344.867 126.843 345.046 123.093 345.234C115.215 345.484 107.363 346.272 99.5928 347.593V356.053C100.213 355.912 100.824 355.78 101.473 355.658C108.805 354.36 116.223 353.603 123.666 353.393C127.661 353.186 131.44 352.998 134.946 352.603C156.566 350.14 174.699 339.095 193.865 327.402C213.831 315.182 236.466 301.392 265.766 297.237C296.861 292.819 331.519 300.424 356.222 317.09V305.904C341.575 297.951 325.682 292.547 309.222 289.924C318.162 283.758 324.516 275.824 326.932 267.317C327.073 266.819 327.195 266.321 327.317 265.822C327.726 264.04 327.934 262.218 327.938 260.389C327.938 259.447 327.881 258.505 327.768 257.569L356.26 249.1V240.16L325.353 249.382C323.55 245.748 321.108 242.468 318.143 239.7L356.26 221.84V217.328L314.712 236.786C308.104 231.863 300.542 228.373 292.509 226.54L256.62 217.807L342.16 145.803L356.26 147.26V138.979L345.976 137.917V78.1797ZM174.454 113.242L218.945 121.946L216.519 208.059L158.86 194.044L174.454 113.242ZM112.499 241.241C110.252 238.421 109.228 235.019 108.448 232.076C106.265 223.868 105.094 215.424 104.96 206.931L145.267 201.931L142.729 215.091C140.267 227.875 137.512 239.653 131.553 249.73C123.657 249.288 116.259 246.017 112.499 241.241ZM121.138 291.174L107.639 281.445C114.279 278.526 120.601 274.932 126.505 270.72C145.521 256.62 150.494 237.641 154.63 216.2L157.29 202.372L214.564 216.303C211.249 223.963 208.939 232.02 207.693 240.273C206.84 246.201 206.903 252.225 207.881 258.133C208.189 259.863 208.597 261.574 209.103 263.256L140.361 305.03L121.138 291.174ZM186.176 321.254C181.899 323.867 177.716 326.434 173.477 328.878L161.135 319.976L144.121 307.709L210.494 267.383C213.22 274.223 217.318 280.432 222.535 285.628C226.544 289.644 231.075 293.103 236.006 295.912C216.773 302.614 200.803 312.352 186.176 321.282V321.254ZM288.476 234.248C307.126 238.779 318.491 251.525 315.492 264.535C315.398 264.939 315.295 265.343 315.182 265.738C312.634 274.658 304.757 282.883 293.872 288.129C276.188 286.888 258.427 288.931 241.486 294.154C236.295 291.432 231.542 287.947 227.386 283.814C220.106 276.772 215.198 267.639 213.342 257.682C212.438 252.328 212.336 246.87 213.041 241.486C214.197 233.223 216.464 225.153 219.781 217.497L288.476 234.248ZM278.136 186.449L244.4 214.846L221.915 209.375L224.34 123.008L278.127 133.527L278.136 186.449ZM284.303 181.26V134.73L329.15 143.51L284.303 181.26Z" fill="#E0E0E0"/>
<path d="M152.58 118.487L113.721 117.256V159.8H145.69L152.58 118.487Z" fill="#EBEBEB"/>
<path d="M144.563 167.809H107.564V185.161H144.563V167.809Z" fill="#EBEBEB"/>
<path d="M241.157 107.479L325.428 122.369V78.377H271.989V98.399H241.157V107.479Z" fill="#EBEBEB"/>
<path d="M220.608 104.181V67.6992H194.683L190.152 98.3808L220.608 104.181Z" fill="#EBEBEB"/>
<path d="M259.656 66.3643H232.932V85.0515H259.656V66.3643Z" fill="#E0E0E0"/>
<path d="M276.266 213.606L320.493 227.471L339.866 213.944L292.405 199.854L276.266 213.606Z" fill="#E6E6E6"/>
<path d="M208.276 127.765H183.61V182.491H208.276V127.765Z" fill="#EBEBEB"/>
<path d="M173.336 179.822H167.17V190.501H173.336V179.822Z" fill="#E0E0E0"/>
<path d="M269.93 140.267L232.932 132.578V160.496V165.14H269.93V140.267Z" fill="#EBEBEB"/>
<path d="M237.049 181.157H228.824V197.175H237.049V181.157Z" fill="#EBEBEB"/>
<path d="M249.382 181.157H241.157V197.175H249.382V181.157Z" fill="#EBEBEB"/>
<path d="M261.715 181.157H253.49V197.175H261.715V181.157Z" fill="#EBEBEB"/>
<path d="M111.672 60.6299H99.6396V93.7461L111.672 94.1785V60.6299Z" fill="#E6E6E6"/>
<path d="M154.639 95.6261L160.355 60.6299H121.946V94.4605L154.639 95.6261Z" fill="#E6E6E6"/>
<path d="M356.26 298.215V281.681L348.637 294.681L356.26 298.215Z" fill="#F0F0F0"/>
<path d="M171.813 329.001C191.29 319.601 203.98 300.707 222.884 290.367C227.712 287.567 233.09 285.848 238.647 285.328C243.582 284.99 248.32 285.403 253.152 284.022C259.91 282.142 264.018 277.752 266.988 271.454C270.645 263.689 273.399 253.49 269.893 245.256C266.547 237.474 260.463 231.19 252.794 227.593C248.602 225.619 244.099 224.444 239.813 222.687C236.993 221.54 233.665 220.29 231.353 218.24C229.605 216.671 230.3 215.665 231.419 213.616C232.923 211.068 234.639 208.653 236.551 206.396C240.02 202.054 244.175 197.833 246.722 192.832C248.508 189.335 248.828 185.387 248.884 181.552C249.072 169.013 249.542 156.501 249.824 143.952C249.824 142.57 247.765 142.589 247.681 143.952C246.995 155.101 246.337 166.343 246.572 177.52C246.656 181.599 246.891 186.083 245.509 190.003C243.686 195.182 239.296 199.506 235.893 203.68C233.156 206.819 230.753 210.234 228.721 213.869C227.866 215.543 227.349 216.689 228.373 218.372C230.657 222.132 236.946 224.012 240.828 225.507C245.726 227.387 250.717 228.703 255.285 231.419C259.581 234.065 263.184 237.696 265.795 242.013C269.724 248.236 270.175 254.12 268.502 261.217C266.34 270.401 262.288 279.594 252.635 282.442C247.935 283.834 243.357 283.467 238.582 283.805C234.514 284.146 230.53 285.16 226.794 286.804C205.362 295.95 191.544 317.044 171.334 328.343C170.864 328.606 171.278 329.283 171.748 329.057L171.813 329.001Z" fill="#263238"/>
<path d="M184.86 272.045C186.336 259.327 169.971 255.313 163.71 264.657C157.986 273.211 173.655 298.356 173.655 298.356M176.475 276.943C175.471 277.638 174.283 278.021 173.062 278.041C171.841 278.062 170.641 277.72 169.614 277.058C168.587 276.397 167.779 275.446 167.293 274.325C166.806 273.204 166.663 271.965 166.882 270.763C167.1 269.561 167.67 268.451 168.519 267.573C169.368 266.695 170.459 266.088 171.653 265.83C172.847 265.572 174.091 265.674 175.227 266.122C176.363 266.571 177.34 267.347 178.036 268.351C178.963 269.701 179.318 271.363 179.022 272.973C178.726 274.584 177.803 276.011 176.457 276.943H176.475Z" fill="#FF5400"/>
<path d="M357.463 165.384C353.073 158.936 350.103 155.73 343.796 153.446C341.379 152.579 338.842 152.094 336.276 152.008C330.241 153.888 326.077 153.888 320.032 152.008C316.94 152.393 314.298 150.128 298.506 159.932C291.992 163.974 287.518 166.644 279.782 170.629C277.667 171.569 276.172 172.18 275.843 171.983C274.414 171.127 258.838 142.627 258.838 142.627C258.838 142.627 255.37 132.775 253.913 132.841C252.456 132.907 242.116 133.217 241.956 134.834C241.796 136.451 242.435 143.567 243.563 144.535C244.691 145.503 248.762 148.097 248.762 148.097C248.762 148.097 266.039 192.766 272.421 192.127C277.121 191.666 295.094 184.184 304.438 180.208L306.506 179.465L307.737 205.362L307.239 237.999L347.969 235.687L347.311 202.1C347.621 193.734 347.405 191.037 348.251 184.099L360.471 188.743L362.643 174.963C361.169 171.639 359.437 168.437 357.463 165.384Z" fill="#E5BAAB"/>
<path d="M247.126 125.697C244.795 120.057 235.432 121.1 234.643 127.041C233.543 135.36 249.608 141.94 249.608 141.94V141.376C249.608 141.376 248.931 130.068 247.126 125.697ZM244.626 130.472C244.359 131.094 243.914 131.623 243.346 131.992C242.779 132.361 242.115 132.553 241.438 132.545C240.762 132.536 240.103 132.327 239.545 131.944C238.987 131.561 238.555 131.022 238.304 130.393C238.053 129.765 237.994 129.076 238.134 128.414C238.274 127.752 238.608 127.146 239.092 126.674C239.577 126.201 240.191 125.883 240.856 125.759C241.521 125.636 242.208 125.712 242.83 125.979C243.664 126.337 244.322 127.011 244.658 127.854C244.995 128.696 244.983 129.638 244.626 130.472Z" fill="#FF5400"/>
<path d="M245.152 139.872C245.711 140.11 246.233 140.427 246.703 140.812L248.311 141.959C248.611 142.184 248.922 142.401 249.251 142.664C249.444 142.81 249.606 142.994 249.727 143.204C249.848 143.413 249.926 143.645 249.956 143.886C249.965 144.113 249.904 144.338 249.781 144.53C249.659 144.722 249.48 144.871 249.269 144.957C248.908 145.108 248.505 145.125 248.132 145.004C247.565 144.793 247.018 144.532 246.496 144.224C245.556 143.735 244.889 143.35 244.616 143.162L244.701 143.077C244.748 143.209 244.757 143.275 244.748 143.284C244.739 143.294 244.682 143.284 244.598 143.134L244.494 143.002L244.673 143.049C244.992 143.153 245.697 143.444 246.666 143.886C247.181 144.142 247.712 144.368 248.254 144.563C248.781 144.741 249.514 144.478 249.467 143.914C249.42 143.35 248.583 142.795 248.038 142.316L246.496 141.094C246.001 140.743 245.549 140.332 245.152 139.872Z" fill="#D78776"/>
<path d="M246.768 137.56C247.39 137.689 247.983 137.931 248.517 138.274C249.132 138.603 249.687 139.032 250.162 139.543C250.451 139.849 250.692 140.198 250.876 140.577C251.002 140.79 251.084 141.027 251.117 141.272C251.151 141.517 251.136 141.766 251.074 142.006C251.023 142.139 250.945 142.261 250.844 142.363C250.744 142.465 250.624 142.545 250.491 142.598C250.258 142.688 250.006 142.72 249.758 142.692C249.337 142.634 248.928 142.51 248.545 142.325C247.908 142.049 247.31 141.689 246.768 141.254C245.828 140.511 245.462 139.881 245.509 139.844C245.556 139.806 246.045 140.333 246.975 140.981C247.525 141.352 248.111 141.667 248.724 141.921C249.065 142.071 249.426 142.173 249.795 142.222C250.171 142.222 250.51 142.147 250.613 141.846C250.693 141.486 250.632 141.11 250.444 140.793C250.285 140.45 250.076 140.134 249.823 139.853C249.394 139.359 248.894 138.931 248.338 138.584C247.785 138.29 247.26 137.947 246.768 137.56Z" fill="#D78776"/>
<path d="M253.885 133.33L245.773 135.718C245.397 135.781 245.061 135.987 244.833 136.291C244.532 136.855 245.068 137.522 245.622 137.842C246.829 138.496 248.207 138.762 249.57 138.603C250.923 138.421 252.255 138.107 253.547 137.663" fill="#E5BAAB"/>
<path d="M253.537 137.701C253.316 137.84 253.075 137.945 252.822 138.011C252.154 138.247 251.473 138.445 250.782 138.603C249.742 138.847 248.666 138.905 247.605 138.773C246.971 138.682 246.356 138.491 245.782 138.209C245.453 138.064 245.159 137.853 244.917 137.588C244.77 137.446 244.657 137.272 244.585 137.08C244.514 136.888 244.486 136.683 244.503 136.479C244.554 136.274 244.657 136.086 244.802 135.933C244.947 135.78 245.129 135.667 245.33 135.605C245.669 135.483 245.979 135.407 246.27 135.313L248.038 134.806L251.055 133.979C251.974 133.682 252.918 133.465 253.875 133.33C252.999 133.715 252.094 134.029 251.168 134.27L248.179 135.21L246.411 135.746C245.819 135.943 245.039 136.056 244.983 136.535C244.98 136.665 245.005 136.794 245.055 136.914C245.106 137.034 245.18 137.142 245.274 137.231C245.475 137.449 245.718 137.625 245.988 137.748C246.514 138.016 247.079 138.2 247.662 138.293C248.673 138.442 249.702 138.423 250.707 138.237C252.446 137.945 253.508 137.616 253.537 137.701Z" fill="#D78776"/>
<path d="M362.37 287.527C365.779 287.756 369.182 287.011 372.183 285.379C375.185 283.747 377.66 281.295 379.322 278.31C380.983 275.324 381.761 271.928 381.566 268.517C381.37 265.107 380.209 261.822 378.218 259.045C375.671 255.483 371.92 252.982 368.264 250.585L355.104 241.909L359.117 275.928L362.332 287.546" fill="#FF5400"/>
<path d="M381.058 265.005C380.895 265.342 380.653 265.636 380.353 265.86C379.56 266.518 378.617 266.97 377.608 267.176C375.07 267.778 371.348 267.251 367.888 265.381C364.981 263.731 362.362 261.62 360.133 259.13C359.259 258.19 358.582 257.428 358.122 256.883C357.864 256.615 357.634 256.323 357.436 256.009C357.737 256.226 358.012 256.478 358.253 256.761L360.378 258.885C362.649 261.27 365.255 263.312 368.114 264.948C370.958 266.583 374.259 267.244 377.514 266.828C378.486 266.664 379.409 266.282 380.212 265.71C380.785 265.296 381.03 264.976 381.058 265.005Z" fill="#263238"/>
<path d="M347.34 203.473L348.28 184.08C348.28 184.08 341.615 178.506 343.796 153.446L340.591 152.506C340.591 152.506 338.617 184.052 322.618 182.67C306.619 181.289 312.278 152.938 312.278 152.938C310.518 153.033 308.843 153.726 307.531 154.903C307.409 154.959 306.826 165.243 306.506 173.994C304.75 177.09 303.873 180.607 303.968 184.165C304.134 186.876 305.177 189.459 306.939 191.525C307.371 197.457 307.803 205.334 307.803 205.334L301.571 221.464L303.066 227.151L348.778 226.644L350.132 220.562L347.34 203.473Z" fill="#455A64"/>
<path d="M340.449 181.711C340.299 182.394 340 183.036 339.575 183.591C338.973 184.531 338.39 185.293 338.277 185.227C338.165 185.161 338.55 184.287 339.152 183.347C339.753 182.407 340.336 181.636 340.449 181.711Z" fill="white"/>
<path d="M342.367 198.021C342.263 198.115 341.427 197.382 340.402 196.376C339.746 195.819 339.198 195.147 338.785 194.392C338.889 194.289 339.725 195.032 340.75 196.028C341.407 196.587 341.955 197.262 342.367 198.021Z" fill="white"/>
<path d="M315.953 185.772C314.576 187.05 312.985 188.074 311.253 188.799C312.63 187.522 314.221 186.497 315.953 185.772Z" fill="white"/>
<path d="M308.753 184.616C307.997 184.459 307.285 184.138 306.666 183.676C305.576 183.046 304.786 182.445 304.786 182.332C305.541 182.491 306.253 182.812 306.873 183.272C307.992 183.902 308.819 184.503 308.753 184.616Z" fill="white"/>
<path d="M308.913 165.036C309.111 165.889 309.156 166.771 309.044 167.64C309.082 168.513 308.961 169.386 308.687 170.216C308.477 169.367 308.432 168.486 308.556 167.621C308.508 166.745 308.63 165.867 308.913 165.036Z" fill="white"/>
<path d="M342.104 168.448C342.226 168.514 341.982 169.237 341.568 170.074C341.154 170.911 340.713 171.54 340.628 171.484C340.543 171.428 340.75 170.694 341.164 169.858C341.577 169.021 341.982 168.391 342.104 168.448Z" fill="white"/>
<path d="M325.4 193.979C324.86 192.66 324.631 191.235 324.732 189.814C325.27 191.133 325.498 192.558 325.4 193.979Z" fill="white"/>
<path d="M335.787 181.213C335.843 181.335 335.411 181.664 334.847 181.937C334.283 182.21 333.728 182.351 333.672 182.228C333.616 182.106 334.048 181.777 334.612 181.495C335.176 181.213 335.731 181.091 335.787 181.213Z" fill="white"/>
<path d="M347.02 188.508C347.067 188.63 346.587 188.903 345.958 189.1C345.328 189.298 344.783 189.363 344.736 189.241C344.689 189.119 345.177 188.837 345.807 188.64C346.437 188.442 346.982 188.376 347.02 188.508Z" fill="white"/>
<path d="M313.02 180.978C312.907 181.044 312.38 180.377 311.845 179.474C311.309 178.572 310.97 177.782 311.083 177.716C311.196 177.651 311.732 178.318 312.268 179.22C312.803 180.123 313.123 180.912 313.02 180.978Z" fill="white"/>
<path d="M313.669 194.984C313.547 195.04 313.312 194.749 313.02 194.439C312.729 194.128 312.466 193.846 312.532 193.724C312.597 193.602 313.03 193.724 313.378 194.11C313.725 194.495 313.801 194.946 313.669 194.984Z" fill="white"/>
<path d="M307.822 217.347C307.732 216.669 307.803 215.98 308.029 215.335C308.283 214.254 308.593 213.408 308.724 213.455C308.814 214.133 308.74 214.823 308.508 215.467C308.264 216.529 307.954 217.375 307.822 217.347Z" fill="white"/>
<path d="M317.635 217.695C317.541 217.78 316.817 217.169 316.028 216.313C315.238 215.458 314.683 214.687 314.787 214.603C314.89 214.518 315.605 215.129 316.394 215.984C317.184 216.84 317.72 217.601 317.635 217.695Z" fill="white"/>
<path d="M313.161 222.931C313.161 223.062 312.324 222.931 311.384 222.564C310.444 222.197 309.73 221.859 309.777 221.727C309.824 221.596 310.613 221.727 311.553 222.103C312.493 222.479 313.208 222.78 313.161 222.931Z" fill="white"/>
<path d="M325.983 216.247C325.913 216.946 325.681 217.618 325.306 218.212C324.808 219.236 324.3 220.017 324.178 219.96C324.254 219.262 324.488 218.59 324.864 217.996C325.362 216.971 325.86 216.2 325.983 216.247Z" fill="white"/>
<path d="M336.999 218.738C336.649 219.676 335.985 220.464 335.119 220.966C334.346 221.591 333.378 221.923 332.384 221.906C332.384 221.765 333.578 221.408 334.847 220.524C336.116 219.641 336.877 218.663 336.999 218.738Z" fill="white"/>
<path d="M345.986 221.84C344.963 221.328 344.014 220.68 343.166 219.913C342.212 219.265 341.355 218.487 340.618 217.601C341.641 218.093 342.59 218.726 343.438 219.481C344.4 220.136 345.258 220.932 345.986 221.84Z" fill="white"/>
<path d="M331.885 206.33C331.265 207.163 330.52 207.895 329.676 208.501C328.94 209.233 328.089 209.84 327.157 210.297C327.778 209.464 328.523 208.732 329.366 208.125C330.103 207.394 330.954 206.787 331.885 206.33Z" fill="white"/>
<path d="M318.246 206.8C317.456 206.298 316.759 205.661 316.188 204.92C315.496 204.306 314.92 203.574 314.486 202.758C315.272 203.243 315.969 203.86 316.545 204.581C317.235 205.217 317.811 205.968 318.246 206.8Z" fill="white"/>
<path d="M331.181 200.22C330.447 200.679 329.634 200.998 328.784 201.16C327.974 201.473 327.114 201.635 326.246 201.64C327.785 200.854 329.46 200.369 331.181 200.211V200.22Z" fill="white"/>
<path d="M343.1 208.68C342.501 208.027 342.029 207.268 341.709 206.443C341.249 205.688 340.931 204.857 340.769 203.989C341.367 204.642 341.839 205.401 342.16 206.226C342.619 206.981 342.937 207.812 343.1 208.68Z" fill="white"/>
<path d="M309.523 203.727C309.677 204.55 309.677 205.394 309.523 206.218C309.52 207.055 309.357 207.885 309.044 208.662C308.877 207.84 308.877 206.993 309.044 206.171C309.042 205.332 309.204 204.502 309.523 203.727Z" fill="white"/>
<path d="M310.989 133.527C308.67 133.882 306.302 133.757 304.033 133.161C302.913 132.848 301.875 132.293 300.991 131.537C300.108 130.78 299.401 129.839 298.92 128.78C298.465 127.701 298.386 126.5 298.695 125.37C299.003 124.241 299.681 123.247 300.621 122.548C301.561 121.946 302.792 121.608 303.225 120.583C303.657 119.559 302.877 118.233 302.332 117.115C301.612 115.623 301.388 113.939 301.694 112.311C302 110.682 302.819 109.195 304.032 108.066C305.245 106.937 306.788 106.227 308.434 106.038C310.08 105.85 311.743 106.194 313.179 107.019C313.4 104.439 314.57 102.032 316.462 100.265C318.354 98.4973 320.835 97.4942 323.424 97.4498C326.013 97.4053 328.527 98.3227 330.479 100.024C332.431 101.726 333.682 104.091 333.991 106.662C334.17 108.157 334.047 109.764 334.809 111.071C335.674 112.556 337.45 113.233 338.653 114.464C340.994 116.861 340.674 120.79 339.593 123.967C338.512 127.145 336.83 130.247 336.933 133.602" fill="#263238"/>
<path d="M319.929 152.186C319.704 148.868 319.45 145.841 319.45 145.841C319.45 145.841 312.55 145.286 311.93 138.462C311.309 131.637 311.385 115.902 311.385 115.902L323.774 109.463L336.285 119.596L336.511 151.556C336.528 153.669 335.74 155.709 334.306 157.262C332.873 158.814 330.901 159.762 328.793 159.913C326.594 160.062 324.424 159.333 322.762 157.884C321.1 156.435 320.081 154.386 319.929 152.186Z" fill="#E5BAAB"/>
<path d="M313.067 127.333C313.08 127.503 313.142 127.666 313.247 127.801C313.351 127.936 313.493 128.038 313.654 128.093C313.816 128.149 313.99 128.156 314.155 128.114C314.321 128.071 314.47 127.981 314.585 127.855C314.7 127.729 314.776 127.572 314.802 127.403C314.829 127.234 314.805 127.061 314.735 126.906C314.664 126.75 314.55 126.619 314.405 126.528C314.261 126.436 314.093 126.39 313.922 126.393C313.803 126.395 313.686 126.421 313.578 126.471C313.469 126.52 313.372 126.59 313.292 126.678C313.212 126.766 313.151 126.87 313.112 126.982C313.073 127.095 313.058 127.214 313.067 127.333Z" fill="#263238"/>
<path d="M312.202 126.402C312.315 126.515 312.945 125.951 313.885 125.875C314.825 125.8 315.549 126.242 315.643 126.11C315.737 125.979 315.567 125.847 315.248 125.64C314.824 125.384 314.33 125.269 313.837 125.311C313.344 125.353 312.877 125.551 312.503 125.875C312.23 126.129 312.146 126.355 312.202 126.402Z" fill="#263238"/>
<path d="M323.201 127.088C323.202 127.203 323.226 127.317 323.272 127.422C323.318 127.528 323.384 127.624 323.467 127.703C323.55 127.783 323.649 127.845 323.756 127.887C323.864 127.928 323.979 127.947 324.094 127.943C324.326 127.943 324.548 127.851 324.712 127.687C324.876 127.523 324.968 127.301 324.968 127.069C324.968 126.837 324.876 126.615 324.712 126.451C324.548 126.287 324.326 126.195 324.094 126.195C323.975 126.191 323.857 126.211 323.747 126.255C323.637 126.298 323.537 126.364 323.454 126.448C323.37 126.531 323.304 126.631 323.261 126.741C323.217 126.852 323.197 126.969 323.201 127.088Z" fill="#263238"/>
<path d="M322.627 126.148C322.749 126.261 323.379 125.697 324.319 125.622C325.259 125.547 325.973 125.989 326.067 125.857C326.161 125.725 325.992 125.594 325.682 125.387C325.27 125.125 324.787 124.997 324.3 125.02C323.805 125.054 323.335 125.253 322.965 125.584C322.664 125.876 322.57 126.101 322.627 126.148Z" fill="#263238"/>
<path d="M319.431 134.176C318.922 134.288 318.4 134.329 317.88 134.298C317.743 134.32 317.603 134.32 317.466 134.298C317.377 134.275 317.294 134.232 317.222 134.174C317.151 134.116 317.093 134.042 317.052 133.959C316.963 133.629 316.986 133.279 317.118 132.963C317.306 132.343 317.494 131.685 317.692 130.989C318.125 129.281 318.691 127.609 319.384 125.988C319.075 127.726 318.638 129.438 318.077 131.111C317.87 131.797 317.673 132.446 317.475 133.076C317.368 133.311 317.329 133.572 317.363 133.828C317.41 133.997 317.645 134.025 317.88 134.035C318.4 134.02 318.921 134.067 319.431 134.176Z" fill="#263238"/>
<path d="M322.683 134.947C322.749 134.871 319.966 136.629 318.049 136.676C318.404 137.146 318.907 137.482 319.477 137.629C320.048 137.776 320.651 137.725 321.188 137.485C321.711 137.327 322.155 136.978 322.432 136.508C322.709 136.038 322.798 135.48 322.683 134.947Z" fill="white"/>
<path d="M319.449 145.842C322.692 145.63 325.807 144.495 328.426 142.57C328.426 142.57 326.499 147.637 319.647 147.515L319.449 145.842Z" fill="#D78776"/>
<path d="M308.32 117.951C310.464 119.944 313.829 120.226 316.574 119.211C319.302 118.057 321.654 116.162 323.36 113.74C324.553 114.905 326.018 115.754 327.622 116.208C329.225 116.663 330.918 116.71 332.544 116.344C333.033 122.557 334.114 126.355 336.445 132.587C336.445 132.587 335.9 135.304 336.727 134.928C337.526 130.623 338.288 126.035 339.087 121.768C339.369 120.207 339.651 118.534 339.03 117.068C338.41 115.601 336.812 114.539 335.439 113.533C333.738 112.283 332.178 110.836 330.448 109.632C328.757 108.343 326.751 107.531 324.639 107.282C322.48 107.272 320.341 107.697 318.35 108.533C315.984 109.192 313.755 110.272 311.77 111.719C309.89 113.28 308.555 115.761 309.044 118.158" fill="#263238"/>
<path d="M336.322 126.082C337.009 125.761 337.747 125.564 338.503 125.5C338.885 125.475 339.267 125.549 339.612 125.713C339.958 125.878 340.255 126.128 340.477 126.44C340.757 126.937 340.828 127.525 340.674 128.075C340.566 128.519 340.361 128.933 340.073 129.287C339.785 129.641 339.421 129.927 339.009 130.123C338.597 130.32 338.146 130.422 337.689 130.422C337.233 130.422 336.782 130.32 336.369 130.124" fill="#E5BAAB"/>
<path d="M326.594 124.419C326.697 124.419 326.773 124.889 326.397 125.284C326.021 125.679 325.532 125.622 325.541 125.509C325.551 125.397 325.851 125.284 326.105 125.002C326.359 124.72 326.472 124.419 326.594 124.419Z" fill="#263238"/>
<path d="M302.229 233.12L290.404 411.419C289.53 411.579 278.438 413.684 278.729 415.301C279.021 416.918 307.145 415.978 307.145 415.978L323.689 261.038L349.436 230.647L302.229 233.12Z" fill="#E5BAAB"/>
<path d="M306.845 414.625C306.845 414.898 300.377 415.067 292.406 415.001C284.435 414.935 277.958 414.663 277.968 414.39C277.977 414.118 284.435 413.958 292.406 414.024C300.377 414.089 306.845 414.353 306.845 414.625Z" fill="#263238"/>
<path d="M287.396 414.925C287.255 414.925 287.029 413.854 286.23 412.791C285.431 411.729 284.473 411.175 284.538 411.043C285.368 411.293 286.093 411.808 286.602 412.509C287.111 413.21 287.377 414.059 287.358 414.925H287.396Z" fill="#263238"/>
<path d="M307.38 409.971C302.423 409.809 297.563 411.371 293.628 414.389C294.081 413.811 294.627 413.312 295.245 412.914C296.676 411.876 298.262 411.07 299.945 410.526C301.635 409.977 303.403 409.704 305.181 409.718C305.923 409.68 306.666 409.766 307.38 409.971Z" fill="#263238"/>
<path d="M307.474 408.026C304.578 408.188 301.675 408.188 298.779 408.026C295.878 408.032 292.978 407.875 290.094 407.556C292.99 407.391 295.893 407.391 298.789 407.556C301.69 407.554 304.59 407.71 307.474 408.026Z" fill="#263238"/>
<path d="M307.653 404.943C304.74 405.261 301.813 405.418 298.883 405.413C295.956 405.583 293.021 405.583 290.094 405.413C293.007 405.1 295.934 404.943 298.864 404.943C301.791 404.783 304.725 404.783 307.653 404.943Z" fill="#263238"/>
<path d="M278.24 414.446C278.129 414.717 278.128 415.02 278.237 415.292C278.346 415.564 278.556 415.783 278.823 415.903C279.383 416.101 279.993 416.101 280.553 415.903C281.109 415.715 281.687 415.602 282.273 415.564C283.486 415.564 284.595 416.504 285.798 416.345C286.522 416.26 287.161 415.79 287.875 415.677C289.144 415.489 290.338 416.429 291.635 416.42C292.933 416.41 294.108 415.48 295.395 415.555C296.683 415.63 297.567 416.598 298.742 416.617C299.682 416.617 300.509 416.063 301.43 416.025C302.69 415.978 303.874 416.909 305.115 416.674C305.364 416.629 305.599 416.528 305.804 416.38C306.009 416.232 306.178 416.04 306.299 415.818C306.415 415.592 306.459 415.336 306.425 415.084C306.392 414.832 306.282 414.596 306.111 414.408" fill="#263238"/>
<path d="M303.131 405.281C303.131 405.328 302.567 405.084 301.909 404.388C301.52 403.971 301.233 403.469 301.073 402.922C300.981 402.588 300.943 402.242 300.96 401.897C300.962 401.691 301.007 401.487 301.093 401.299C301.179 401.111 301.303 400.943 301.458 400.807C301.562 400.733 301.683 400.687 301.809 400.672C301.936 400.657 302.064 400.675 302.182 400.722C302.373 400.805 302.541 400.934 302.671 401.098C302.882 401.384 303.047 401.701 303.16 402.038C303.359 402.572 303.429 403.145 303.366 403.711C303.235 404.651 302.821 405.159 302.783 405.121C302.746 405.084 302.99 404.576 303.018 403.692C303.03 403.181 302.938 402.672 302.746 402.198C302.63 401.928 302.478 401.675 302.295 401.446C302.107 401.22 301.89 401.117 301.74 401.248C301.549 401.445 301.441 401.708 301.439 401.982C301.418 402.272 301.441 402.563 301.505 402.846C301.633 403.341 301.86 403.805 302.172 404.209C302.68 404.867 303.188 405.215 303.131 405.281Z" fill="#263238"/>
<path d="M303.112 404.708C303.056 404.708 302.999 404.219 303.385 403.561C303.619 403.177 303.941 402.855 304.325 402.621C304.559 402.492 304.808 402.394 305.067 402.33C305.251 402.284 305.445 402.307 305.613 402.395C305.709 402.457 305.783 402.547 305.826 402.653C305.868 402.76 305.875 402.877 305.848 402.987C305.785 403.487 305.571 403.955 305.235 404.329C304.899 404.704 304.457 404.967 303.968 405.084C303.216 405.243 302.774 405.018 302.793 404.971C302.811 404.924 303.253 404.971 303.874 404.755C304.266 404.615 304.613 404.37 304.877 404.047C305.14 403.724 305.31 403.335 305.368 402.922C305.368 402.8 305.368 402.809 305.368 402.809C305.3 402.791 305.229 402.791 305.161 402.809C304.568 402.931 304.04 403.265 303.676 403.749C303.263 404.285 303.187 404.717 303.112 404.708Z" fill="#263238"/>
<path d="M362.548 405.055L362.304 405.121L354.577 342.733L347.273 233.693L325.982 253.838C325.456 254.825 332.666 341.756 334.198 347.838C335.646 353.553 344.66 403.006 345.751 408.985C344.482 409.624 334.969 414.446 335.674 415.875C336.379 417.304 363.188 408.731 363.188 408.731L362.548 405.055Z" fill="#E5BAAB"/>
<path d="M363.31 408.9C363.385 409.163 357.21 411.099 349.52 413.224C341.831 415.348 335.543 416.862 335.467 416.598C335.392 416.335 341.577 414.408 349.267 412.274C356.956 410.141 363.244 408.599 363.31 408.9Z" fill="#263238"/>
<path d="M344.698 414.483C344.566 414.54 344.04 413.543 342.987 412.744C341.934 411.945 340.853 411.673 340.881 411.522C341.754 411.53 342.6 411.824 343.289 412.359C343.979 412.894 344.474 413.64 344.698 414.483Z" fill="#263238"/>
<path d="M362.568 404.2C360.209 404.88 357.954 405.879 355.866 407.171C353.869 408.602 352.082 410.304 350.555 412.228C350.829 411.539 351.22 410.903 351.711 410.348C353.919 407.54 356.965 405.508 360.406 404.548C361.103 404.317 361.833 404.199 362.568 404.2Z" fill="#263238"/>
<path d="M362.107 402.32C359.365 403.274 356.572 404.074 353.741 404.717C350.96 405.505 348.135 406.133 345.281 406.597C348.024 405.649 350.817 404.852 353.647 404.21C356.43 403.422 359.254 402.791 362.107 402.32Z" fill="#263238"/>
<path d="M361.43 399.321C358.715 400.431 355.941 401.388 353.12 402.188C350.347 403.142 347.523 403.939 344.66 404.576C347.375 403.48 350.149 402.539 352.97 401.756C355.744 400.795 358.568 399.982 361.43 399.321Z" fill="#263238"/>
<path d="M335.758 416.524C335.721 416.813 335.798 417.105 335.974 417.337C336.15 417.569 336.41 417.723 336.698 417.765C337.295 417.835 337.898 417.692 338.4 417.36C338.883 417.028 339.408 416.759 339.96 416.561C341.135 416.242 342.451 416.825 343.57 416.345C344.247 416.063 344.726 415.405 345.393 415.133C346.559 414.597 347.96 415.133 349.153 414.822C350.347 414.512 351.268 413.215 352.537 412.942C353.806 412.67 354.916 413.356 356.062 413.046C356.946 412.811 357.604 412.031 358.478 411.749C359.672 411.354 361.072 411.918 362.238 411.354C362.473 411.248 362.68 411.09 362.843 410.891C363.006 410.692 363.121 410.458 363.178 410.207C363.226 409.957 363.197 409.698 363.094 409.465C362.992 409.231 362.821 409.035 362.605 408.9" fill="#263238"/>
<path d="M357.2 400.891C356.685 400.85 356.19 400.668 355.771 400.365C355.28 400.074 354.867 399.668 354.568 399.181C354.387 398.892 354.256 398.574 354.183 398.241C354.129 398.042 354.117 397.833 354.147 397.63C354.178 397.426 354.251 397.23 354.361 397.056C354.438 396.955 354.54 396.875 354.657 396.826C354.775 396.776 354.903 396.758 355.029 396.774C355.237 396.802 355.434 396.883 355.602 397.009C355.88 397.211 356.124 397.455 356.326 397.733C356.661 398.196 356.886 398.73 356.984 399.293C357.118 399.802 357.055 400.343 356.805 400.807C356.721 400.807 356.862 400.224 356.646 399.359C356.509 398.869 356.279 398.409 355.969 398.006C355.784 397.777 355.569 397.575 355.33 397.404C355.085 397.235 354.85 397.197 354.747 397.357C354.613 397.597 354.579 397.881 354.653 398.147C354.712 398.433 354.813 398.708 354.954 398.964C355.212 399.405 355.557 399.789 355.969 400.092C356.664 400.609 357.2 400.816 357.2 400.891Z" fill="#263238"/>
<path d="M356.993 400.347C356.993 400.347 356.758 399.905 356.993 399.162C357.112 398.735 357.335 398.344 357.642 398.025C357.831 397.833 358.046 397.668 358.281 397.536C358.443 397.444 358.634 397.414 358.817 397.451C358.924 397.486 359.018 397.551 359.087 397.64C359.156 397.729 359.196 397.837 359.202 397.95C359.28 398.448 359.204 398.958 358.984 399.411C358.764 399.865 358.41 400.241 357.971 400.488C357.294 400.845 356.805 400.751 356.815 400.704C356.824 400.657 357.247 400.582 357.755 400.196C358.096 399.956 358.365 399.626 358.531 399.243C358.696 398.86 358.753 398.438 358.695 398.025C358.695 397.903 358.695 397.912 358.695 397.921C358.622 397.915 358.55 397.932 358.488 397.968C357.958 398.254 357.546 398.716 357.322 399.275C357.031 399.895 357.078 400.337 356.993 400.347Z" fill="#263238"/>
<path d="M348.741 223.231L303.028 223.748L288.534 285.356C288.534 285.356 284.971 300.396 302.803 301.12C320.635 301.844 329.029 294.042 343.909 299.785C353.572 303.545 367.578 296.561 366.892 294.972C358.629 275.956 358.817 248.677 348.741 223.231Z" fill="#263238"/>
<path d="M362.671 299.258C362.671 299.258 362.596 298.995 362.483 298.497C362.371 297.999 362.211 297.247 361.957 296.307C361.187 293.665 360.225 291.082 359.081 288.58C357.283 284.872 355.713 281.058 354.381 277.159C353 272.304 352.202 267.303 352.002 262.26C351.692 256.902 351.673 251.798 351.363 247.22C351.153 243.102 350.571 239.012 349.624 235C348.979 232.309 348.053 229.694 346.861 227.198C346.438 226.314 346.08 225.647 345.817 225.205C345.673 224.984 345.553 224.747 345.46 224.5C345.62 224.707 345.768 224.924 345.902 225.149C346.314 225.782 346.69 226.438 347.03 227.113C348.306 229.586 349.293 232.198 349.972 234.896C350.972 238.903 351.601 242.994 351.852 247.116C352.19 251.76 352.219 256.864 352.529 262.156C352.721 267.171 353.497 272.146 354.841 276.98C356.147 280.866 357.669 284.676 359.4 288.392C360.54 290.927 361.467 293.552 362.173 296.241C362.399 297.181 362.559 297.942 362.624 298.459C362.666 298.723 362.682 298.991 362.671 299.258Z" fill="#455A64"/>
<path d="M320.023 248.62C320.023 248.62 319.957 248.696 319.779 248.761C319.517 248.856 319.236 248.885 318.961 248.846C318.452 248.753 317.979 248.523 317.593 248.18C317.207 247.837 316.922 247.394 316.771 246.9C316.437 245.462 316.348 243.978 316.507 242.51C316.554 240.856 316.611 239.061 316.667 237.181C316.799 233.421 316.94 229.98 317.062 227.499C317.137 226.342 317.194 225.365 317.241 224.566C317.249 224.205 317.293 223.846 317.372 223.494C317.439 223.85 317.458 224.214 317.429 224.575C317.429 225.374 317.429 226.352 317.429 227.508C317.429 229.99 317.306 233.411 317.175 237.199C317.109 239.079 317.043 240.875 316.977 242.52C316.803 243.941 316.85 245.381 317.118 246.787C317.237 247.239 317.474 247.651 317.805 247.981C318.135 248.311 318.547 248.548 318.998 248.667C319.34 248.714 319.687 248.699 320.023 248.62Z" fill="#455A64"/>
<path d="M319.929 225.882C319.873 225.882 320.305 225.506 320.991 225.807C321.186 225.893 321.359 226.022 321.495 226.185C321.632 226.348 321.73 226.54 321.781 226.747C321.823 227.024 321.771 227.307 321.633 227.551C321.495 227.795 321.279 227.985 321.02 228.091C320.771 228.224 320.483 228.265 320.207 228.208C319.931 228.152 319.683 228.001 319.506 227.781C319.391 227.589 319.33 227.37 319.33 227.147C319.33 226.923 319.391 226.704 319.506 226.512C319.569 226.384 319.658 226.27 319.768 226.179C319.879 226.088 320.007 226.022 320.145 225.986C320.343 225.939 320.446 225.986 320.446 225.986C320.446 225.986 320.014 226.089 319.826 226.634C319.771 226.771 319.749 226.919 319.762 227.066C319.775 227.213 319.823 227.355 319.901 227.48C320.02 227.604 320.178 227.684 320.348 227.708C320.519 227.732 320.692 227.698 320.841 227.612C321.006 227.551 321.146 227.439 321.241 227.291C321.336 227.143 321.38 226.969 321.367 226.794C321.341 226.642 321.282 226.498 321.194 226.372C321.107 226.245 320.992 226.139 320.86 226.061C320.343 225.807 319.948 225.957 319.929 225.882Z" fill="#455A64"/>
<path d="M349.802 235.433C349.54 235.512 349.268 235.553 348.994 235.555C348.245 235.6 347.495 235.6 346.747 235.555C344.245 235.479 341.812 234.715 339.716 233.346C338.681 232.629 337.811 231.7 337.163 230.62C336.515 229.541 336.103 228.336 335.956 227.086C335.875 226.329 335.939 225.563 336.144 224.83C336.197 224.557 336.306 224.298 336.463 224.068C336.254 225.047 336.197 226.052 336.294 227.048C336.486 228.229 336.914 229.36 337.552 230.372C338.19 231.385 339.025 232.259 340.007 232.942C342.038 234.259 344.37 235.039 346.785 235.207C348.636 235.405 349.802 235.348 349.802 235.433Z" fill="#263238"/>
<path d="M306.807 223.325C306.807 223.325 306.91 223.56 307.004 224.002C307.111 224.623 307.174 225.252 307.192 225.882C307.247 228.024 306.873 230.156 306.093 232.152C305.406 234.206 304.124 236.009 302.408 237.331C301.858 237.702 301.231 237.944 300.575 238.036C300.34 238.094 300.095 238.094 299.86 238.036C300.704 237.903 301.508 237.582 302.21 237.096C303.786 235.74 304.971 233.988 305.641 232.02C306.39 230.074 306.797 228.014 306.845 225.929C306.892 224.331 306.722 223.335 306.807 223.325Z" fill="#263238"/>
<path d="M365.256 291.4C364.548 292.171 363.739 292.841 362.85 293.393C360.425 294.914 357.693 295.877 354.85 296.213C350.643 296.68 346.389 296.477 342.245 295.612C337.545 294.822 332.469 293.525 327.017 293.478C321.565 293.431 316.527 295.095 311.977 296.298C309.815 296.896 307.617 297.358 305.397 297.68C303.439 297.926 301.46 297.964 299.494 297.792C296.628 297.596 293.864 296.653 291.476 295.057C291.107 294.805 290.755 294.529 290.423 294.23C290.172 294.018 289.937 293.788 289.718 293.544C289.529 293.351 289.354 293.147 289.191 292.933C289.944 293.642 290.745 294.299 291.588 294.897C293.976 296.409 296.71 297.289 299.531 297.454C301.472 297.597 303.422 297.537 305.35 297.275C307.57 296.938 309.767 296.467 311.93 295.865C316.498 294.681 321.556 292.97 327.12 293.045C332.685 293.121 337.771 294.418 342.424 295.226C346.523 296.104 350.735 296.339 354.907 295.922C357.716 295.619 360.427 294.718 362.859 293.28C364.448 292.152 365.209 291.316 365.256 291.4Z" fill="#263238"/>
<path d="M347.556 224.754C347.434 224.83 347.171 224.623 346.964 224.303C346.757 223.984 346.682 223.655 346.795 223.579C346.907 223.504 347.171 223.702 347.377 224.031C347.584 224.36 347.669 224.66 347.556 224.754Z" fill="#455A64"/>
<path d="M350.113 230C349.991 230.056 349.633 229.492 349.314 228.759C348.994 228.026 348.834 227.386 348.947 227.321C349.06 227.255 349.436 227.819 349.756 228.571C350.075 229.323 350.244 229.953 350.113 230Z" fill="#455A64"/>
<path d="M351.823 235.593C351.691 235.593 351.419 235.019 351.212 234.239C351.005 233.459 350.939 232.81 351.071 232.763C351.203 232.716 351.475 233.327 351.682 234.117C351.889 234.906 351.955 235.555 351.823 235.593Z" fill="#455A64"/>
<path d="M352.876 241.336C352.745 241.336 352.538 240.725 352.406 239.926C352.275 239.127 352.293 238.478 352.406 238.45C352.519 238.422 352.745 239.052 352.876 239.851C353.008 240.65 353.008 241.317 352.876 241.336Z" fill="#455A64"/>
<path d="M353.44 247.145C353.309 247.145 353.14 246.515 353.074 245.716C353.008 244.917 353.074 244.25 353.196 244.231C353.318 244.212 353.487 244.861 353.563 245.669C353.638 246.477 353.61 247.135 353.44 247.145Z" fill="#455A64"/>
<path d="M353.807 252.982C353.666 252.982 353.534 252.343 353.487 251.535C353.44 250.726 353.487 250.068 353.656 250.059C353.825 250.049 353.938 250.707 353.976 251.516C354.013 252.324 353.938 252.982 353.807 252.982Z" fill="#455A64"/>
<path d="M354.098 258.819C353.966 258.819 353.816 258.18 353.778 257.372C353.74 256.563 353.778 255.905 353.938 255.905C354.098 255.905 354.22 256.544 354.267 257.353C354.314 258.161 354.229 258.81 354.098 258.819Z" fill="#455A64"/>
<path d="M354.568 264.648C354.427 264.648 354.258 264.018 354.183 263.219C354.107 262.42 354.183 261.743 354.295 261.733C354.408 261.724 354.596 262.373 354.671 263.172C354.747 263.971 354.7 264.629 354.568 264.648Z" fill="#455A64"/>
<path d="M355.414 270.429C355.282 270.429 355.066 269.828 354.934 269.029C354.803 268.23 354.793 267.562 354.934 267.543C355.075 267.525 355.291 268.154 355.423 268.944C355.555 269.734 355.545 270.401 355.414 270.429Z" fill="#455A64"/>
<path d="M356.861 276.087C356.739 276.134 356.448 275.533 356.222 274.753C355.997 273.972 355.921 273.314 356.053 273.286C356.185 273.258 356.467 273.85 356.692 274.621C356.918 275.392 356.993 276.05 356.861 276.087Z" fill="#455A64"/>
<path d="M359.08 281.483C358.967 281.549 358.563 281.013 358.224 280.27C357.886 279.528 357.726 278.879 357.848 278.832C357.971 278.785 358.337 279.33 358.666 280.063C358.995 280.797 359.23 281.417 359.08 281.483Z" fill="#455A64"/>
<path d="M361.9 286.615C361.778 286.681 361.364 286.164 360.96 285.459C360.556 284.754 360.349 284.124 360.471 284.058C360.594 283.992 360.998 284.519 361.411 285.224C361.825 285.929 362.022 286.559 361.9 286.615Z" fill="#455A64"/>
<path d="M364.288 291.945C364.156 291.992 363.818 291.419 363.526 290.676C363.235 289.933 363.094 289.285 363.216 289.228C363.338 289.172 363.677 289.745 363.977 290.497C364.278 291.249 364.419 291.907 364.288 291.945Z" fill="#455A64"/>
<path d="M365.087 296.203C364.946 296.203 364.814 295.902 364.777 295.526C364.739 295.15 364.824 294.821 364.955 294.803C365.087 294.784 365.228 295.085 365.265 295.479C365.303 295.874 365.218 296.203 365.087 296.203Z" fill="#455A64"/>
<path d="M314.082 152.44C314.082 152.44 340.101 236.251 356.833 248.781L355.517 241.421C345.45 223.824 333.38 189.721 319.919 152.008C318.801 151.134 314.58 151.453 314.082 152.44Z" fill="#FF5400"/>
<path d="M347.725 183.47L356.739 203.529C343.683 203.454 329.395 200.446 323.397 198.829C322.937 198.388 322.457 197.889 321.884 197.316C321.25 196.641 320.732 195.866 320.352 195.022C319.839 193.993 319.469 192.899 319.252 191.77C319.158 190.727 317.861 190.313 317.372 191.121C316.883 191.93 317.09 194.834 318.754 197.795C320.418 200.756 315.52 198.735 313.725 198.077C311.929 197.419 306.261 195.492 305.622 195.878C304.682 196.451 305.133 197.589 306.947 198.237C308.762 198.886 314.073 201.236 313.678 202.176C313.283 203.116 304.184 199.431 304.184 199.431C304.184 199.431 302.304 198.331 301.872 199.431C300.997 201.367 310.952 204.545 311.911 204.817C312.569 205.015 312.183 206.049 311.488 205.804C310.792 205.56 302.473 201.931 301.561 203.924C300.866 205.428 309.73 206.613 311.065 208.323C312.4 210.034 304.41 206.735 303.808 208.201C303.582 208.746 303.488 209.141 308.329 210.42C312.261 211.226 316.234 211.819 320.23 212.196C327.91 214.443 346.803 218.776 360.546 218.372C360.546 218.372 380.032 218.71 376.658 206.923C373.029 194.289 362.652 175.01 362.652 175.01L347.725 183.47Z" fill="#E5BAAB"/>
<path d="M337.46 129.72C337.278 129.696 337.094 129.744 336.948 129.855C336.802 129.966 336.706 130.13 336.68 130.312C336.677 130.402 336.693 130.491 336.725 130.575C336.757 130.658 336.806 130.735 336.868 130.8C336.93 130.864 337.005 130.916 337.087 130.952C337.169 130.987 337.258 131.006 337.347 131.008C337.438 130.999 337.525 130.971 337.604 130.927C337.683 130.882 337.753 130.822 337.807 130.75C337.862 130.677 337.901 130.594 337.922 130.506C337.943 130.418 337.946 130.326 337.93 130.237C337.903 130.151 337.859 130.072 337.799 130.005C337.74 129.938 337.667 129.884 337.586 129.847C337.504 129.81 337.416 129.79 337.326 129.789C337.236 129.788 337.148 129.806 337.065 129.842" fill="#FF5400"/>
<path d="M425.707 356.927C424.579 357.014 423.48 357.329 422.477 357.853C421.473 358.376 420.587 359.097 419.869 359.972C418.449 361.74 417.446 363.806 416.937 366.017C415.846 370.247 416.589 375.219 417.82 379.412C422.379 377.738 425.152 372.832 426.412 370.265C428.386 366.205 429.495 357.651 425.707 356.927Z" fill="#FF5400"/>
<path opacity="0.2" d="M425.707 356.927C424.579 357.014 423.48 357.329 422.477 357.853C421.473 358.376 420.587 359.097 419.869 359.972C418.449 361.74 417.446 363.806 416.937 366.017C415.846 370.247 416.589 375.219 417.82 379.412C422.379 377.738 425.152 372.832 426.412 370.265C428.386 366.205 429.495 357.651 425.707 356.927Z" fill="#333333"/>
<path d="M411.297 384.582C411.972 383.512 412.353 382.282 412.401 381.018C412.448 379.754 412.162 378.499 411.57 377.381C410.957 376.275 410.13 375.302 409.137 374.518C408.145 373.734 407.007 373.154 405.789 372.813C405.246 372.598 404.663 372.505 404.08 372.539C403.497 372.573 402.929 372.734 402.414 373.01C401.981 373.344 401.645 373.788 401.442 374.295C401.238 374.803 401.175 375.356 401.258 375.896C401.434 376.978 401.895 377.993 402.593 378.838C404.84 381.828 407.566 384.309 411.297 384.582Z" fill="#FF5400"/>
<path d="M411.259 399.096C411.372 398.809 411.448 398.509 411.485 398.203C411.598 397.629 411.739 396.783 411.889 395.74C412.332 393.014 412.405 390.241 412.105 387.496C411.783 384.719 410.714 382.082 409.013 379.863C408.487 379.204 407.88 378.614 407.208 378.105C406.978 377.901 406.714 377.738 406.428 377.626C407.261 378.382 408.034 379.203 408.74 380.079C410.317 382.304 411.306 384.891 411.617 387.599C411.905 390.307 411.88 393.038 411.541 395.74C411.38 396.852 411.286 397.972 411.259 399.096Z" fill="#263238"/>
<path d="M424.297 363.356C424.033 363.79 423.806 364.246 423.621 364.719C423.216 365.603 422.681 366.891 421.966 368.479C420.603 371.675 418.789 376.131 416.909 381.104C415.029 386.076 413.45 390.616 412.35 393.916C411.805 395.57 411.41 396.914 411.09 397.845C410.916 398.317 410.787 398.805 410.705 399.302C410.927 398.85 411.115 398.381 411.269 397.901C411.636 396.905 412.106 395.608 412.679 394.029C413.854 390.757 415.499 386.236 417.379 381.273C419.259 376.31 421.017 371.873 422.295 368.602C422.906 367.051 423.414 365.782 423.809 364.776C424.009 364.316 424.172 363.842 424.297 363.356Z" fill="#263238"/>
<path d="M416.035 388.737C417.541 386.533 419.549 384.72 421.895 383.447C424.24 382.173 426.855 381.477 429.524 381.414C430.877 381.414 432.485 381.724 433.011 382.965C433.537 384.206 432.654 385.606 431.676 386.546C429.602 388.475 427.004 389.746 424.208 390.2C421.413 390.653 418.546 390.268 415.969 389.094" fill="#FF5400"/>
<path d="M427.192 384.741C426.899 384.697 426.601 384.697 426.308 384.741C425.964 384.76 425.622 384.804 425.284 384.873C424.834 384.937 424.388 385.028 423.949 385.146C422.795 385.438 421.674 385.848 420.603 386.368C419.292 387.015 418.053 387.799 416.908 388.708C415.787 389.643 414.767 390.692 413.863 391.838C413.137 392.786 412.507 393.803 411.983 394.875C411.774 395.279 411.592 395.697 411.438 396.125C411.302 396.428 411.192 396.743 411.109 397.065C411.003 397.339 410.937 397.627 410.911 397.92C411.005 397.92 411.353 396.745 412.293 394.987C412.85 393.965 413.494 392.993 414.22 392.083C416.003 389.847 418.247 388.023 420.8 386.734C421.84 386.208 422.925 385.777 424.043 385.446C425.951 384.929 427.201 384.835 427.192 384.741Z" fill="#263238"/>
<path d="M58.28 190.218C71.44 184.409 77.7286 225.816 78.5746 229.04C79.4206 232.264 81.6578 232.65 85.4836 227.818C89.3094 222.986 92.6088 224.857 92.6088 224.857C99.8092 229.247 90.0426 254.796 90.1366 256.873C90.2306 258.951 88.689 261.94 96.1714 257.71C103.654 253.48 109.933 251.224 111.023 257.71C112.02 263.613 104.378 280.655 104.443 283.09C104.509 285.525 112.236 279.405 115.488 277.375C119.7 274.762 124.193 274.94 124.982 280.195C126.007 287.085 112.311 307.239 112.311 307.239L105.731 317.503L93.7086 314.26C93.7086 314.26 70.2086 307.624 66.5332 301.721C63.7132 297.181 66.9938 294.126 71.8818 293.374C75.6418 292.8 85.4836 292.434 83.989 290.554C82.4944 288.674 65.612 280.712 62.5194 275.579C59.1354 269.939 65.3394 267.571 73.7994 265.916C82.2594 264.262 79.1292 262.993 77.8414 261.357C76.5536 259.722 52.5272 246.656 55.1498 238.637C55.1498 238.637 56.4376 235.084 62.4818 236.259C68.526 237.434 70.0018 235.695 68.5166 232.687C67.0314 229.679 44.9602 194.147 58.703 189.992" fill="#FF5400"/>
<path d="M112.716 336.726C112.462 336.82 101.229 306.731 87.6366 269.526C74.0442 232.32 63.1966 202.081 63.4598 201.987C63.723 201.893 74.9466 231.982 88.5484 269.197C102.15 306.411 112.97 336.632 112.716 336.726Z" fill="white"/>
<path d="M81.4884 251.308C81.244 251.214 82.2498 247.821 84.0358 243.864C85.8218 239.906 87.6642 236.879 87.8992 237.011C88.1342 237.143 86.6866 240.32 84.9288 244.258C83.171 248.197 81.7798 251.393 81.4884 251.308Z" fill="white"/>
<path d="M65.3107 244.503C65.3671 244.249 69.1835 245.001 73.6015 246.797C78.0195 248.592 81.3095 250.679 81.1779 250.895C81.0463 251.111 77.6059 249.457 73.2443 247.699C68.8827 245.941 65.2355 244.776 65.3107 244.503Z" fill="white"/>
<path d="M91.3398 278.757C91.133 278.578 93.9436 274.997 97.619 270.664C101.294 266.33 104.434 263.04 104.641 263.209C104.848 263.379 102.037 266.969 98.3616 271.303C94.6862 275.636 91.5466 278.936 91.3398 278.757Z" fill="white"/>
<path d="M69.5602 274.348C69.5602 274.094 74.702 274.517 80.8966 275.739C87.0912 276.961 91.9886 278.484 91.9228 278.738C91.857 278.992 86.875 277.901 80.7086 276.698C74.5422 275.495 69.4944 274.63 69.5602 274.348Z" fill="white"/>
<path d="M76.2902 300.649C76.2902 300.376 81.6858 300.94 88.2564 301.908C94.827 302.876 100.119 303.873 100.072 304.136C100.025 304.399 94.686 303.835 88.1154 302.876C81.5448 301.918 76.2526 300.912 76.2902 300.649Z" fill="white"/>
<path d="M100.665 303.694C100.486 303.459 104.124 300.536 107.903 296.25C111.681 291.963 114.172 288.025 114.417 288.175C114.661 288.325 112.537 292.546 108.636 296.898C104.735 301.25 100.796 303.901 100.665 303.694Z" fill="white"/>
<path d="M427.916 126.345C427.916 126.345 427.916 126.129 427.972 125.725C428.029 125.321 428.076 124.71 428.16 123.939C428.16 123.544 428.283 123.102 428.292 122.614C428.301 122.125 428.292 121.589 428.292 121.016C428.292 120.442 428.292 119.812 428.292 119.136C428.292 118.459 428.179 117.773 428.113 117.021C427.735 113.384 426.783 109.831 425.293 106.493C423.325 102.08 420.441 98.1357 416.833 94.9212L415.292 93.5864C414.747 93.1728 414.173 92.778 413.609 92.3738C412.44 91.5447 411.218 90.7912 409.953 90.1178C407.246 88.7115 404.362 87.6745 401.38 87.0346C399.831 86.6848 398.261 86.4398 396.68 86.3014C395.871 86.2074 395.044 86.245 394.217 86.2168H392.976C392.563 86.2168 392.149 86.2826 391.726 86.3108C388.269 86.4987 384.864 87.2381 381.64 88.501C374.676 91.1775 368.776 96.0519 364.833 102.385C360.647 109.214 358.947 117.279 360.02 125.217C360.095 125.744 360.18 126.261 360.274 126.768V126.872L360.217 126.956L349.144 142.335L348.918 141.959L365.256 139.43H365.397L365.481 139.552C370.186 146.597 377.343 151.64 385.56 153.699C386.794 154.025 388.051 154.258 389.32 154.395L391.2 154.63C391.82 154.705 392.44 154.677 393.08 154.705C397.738 154.837 402.374 154.011 406.7 152.28C410.392 150.794 413.806 148.693 416.796 146.067L418.723 144.252L420.377 142.372C420.896 141.777 421.376 141.149 421.815 140.492C422.238 139.863 422.755 139.299 423.066 138.678C424.344 136.633 425.412 134.463 426.252 132.202L427.098 129.72C427.267 128.987 427.418 128.366 427.531 127.84L427.813 126.712C427.878 126.449 427.916 126.327 427.916 126.327C427.903 126.456 427.881 126.585 427.85 126.712C427.794 126.985 427.719 127.37 427.615 127.859C427.512 128.348 427.371 128.996 427.211 129.739L426.393 132.239C425.581 134.535 424.532 136.741 423.263 138.819C422.915 139.449 422.436 140.022 422.013 140.699C421.574 141.356 421.093 141.984 420.575 142.579L418.92 144.459L416.993 146.339C413.99 149.007 410.553 151.143 406.832 152.656C402.475 154.398 397.808 155.229 393.117 155.1C392.497 155.1 391.858 155.1 391.237 155.034L389.357 154.799C388.06 154.663 386.775 154.431 385.513 154.104C382.891 153.454 380.353 152.507 377.946 151.284C372.8 148.589 368.403 144.658 365.152 139.844L365.378 139.938L349.041 142.485L348.477 142.57L348.815 142.1C352.396 137.118 356.1 131.976 359.869 126.721V126.909C359.775 126.392 359.681 125.866 359.606 125.34C358.532 117.283 360.269 109.103 364.522 102.178C368.517 95.7444 374.505 90.7929 381.574 88.078C384.828 86.8004 388.264 86.0484 391.754 85.8502C392.177 85.8502 392.6 85.775 393.023 85.7656H394.283C395.119 85.7656 395.947 85.7656 396.764 85.8502C398.378 85.9956 399.979 86.25 401.558 86.6116C405.977 87.5935 410.148 89.468 413.816 92.12C414.389 92.5336 414.963 92.9378 415.517 93.3514L417.059 94.7144C423.52 100.455 427.554 108.441 428.339 117.049C428.395 117.801 428.452 118.515 428.499 119.183C428.546 119.85 428.499 120.48 428.499 121.063C428.499 121.645 428.499 122.181 428.499 122.67C428.499 123.159 428.386 123.61 428.348 123.995C428.245 124.766 428.16 125.368 428.104 125.781C428.048 126.195 427.916 126.345 427.916 126.345Z" fill="#263238"/>
<path d="M405.178 107.264L409.295 138.519H378.735L383.182 107.264H405.178Z" fill="#FF5400"/>
<path d="M385.672 111.795C386.073 112.838 386.593 113.832 387.223 114.756C387.934 115.718 388.84 116.519 389.883 117.106C391.184 117.791 392.634 118.14 394.104 118.121C395.57 118.157 397.022 117.834 398.334 117.181C399.389 116.618 400.29 115.805 400.957 114.812C401.553 113.868 402.024 112.851 402.357 111.785C402.393 112.104 402.351 112.426 402.235 112.725C402.024 113.538 401.691 114.314 401.248 115.028C400.584 116.104 399.655 116.991 398.55 117.604C397.177 118.321 395.643 118.673 394.095 118.628C392.548 118.648 391.022 118.266 389.667 117.519C388.576 116.889 387.644 116.018 386.941 114.972C386.47 114.275 386.1 113.516 385.841 112.716C385.719 112.425 385.661 112.11 385.672 111.795Z" fill="white"/>
<path d="M215.955 36.0869V110.789L196.911 91.7443H58.2422V36.0869H215.955Z" fill="#FF5400"/>
<path d="M177.697 86.8659C189.305 86.8659 198.716 77.4556 198.716 65.8475C198.716 54.2394 189.305 44.8291 177.697 44.8291C166.089 44.8291 156.679 54.2394 156.679 65.8475C156.679 77.4556 166.089 86.8659 177.697 86.8659Z" fill="#FF5400"/>
<path opacity="0.2" d="M177.697 86.8659C189.305 86.8659 198.716 77.4556 198.716 65.8475C198.716 54.2394 189.305 44.8291 177.697 44.8291C166.089 44.8291 156.679 54.2394 156.679 65.8475C156.679 77.4556 166.089 86.8659 177.697 86.8659Z" fill="#333333"/>
<path d="M72.8213 59.0231C72.8213 58.8539 89.0833 58.7129 109.143 58.7129C129.202 58.7129 145.464 58.8539 145.464 59.0231C145.464 59.1923 129.212 59.3333 109.143 59.3333C89.0739 59.3333 72.8213 59.2205 72.8213 59.0231Z" fill="white"/>
<path d="M72.8213 67.0221C72.8213 66.8529 89.0833 66.7119 109.143 66.7119C129.202 66.7119 145.464 66.8529 145.464 67.0221C145.464 67.1913 129.212 67.3229 109.143 67.3229C89.0739 67.3229 72.8213 67.1913 72.8213 67.0221Z" fill="white"/>
<path d="M107.715 74.8903C107.715 74.7211 116.175 74.5801 126.59 74.5801C137.005 74.5801 145.465 74.7211 145.465 74.8903C145.465 75.0595 137.005 75.1911 126.59 75.1911C116.175 75.1911 107.715 75.0595 107.715 74.8903Z" fill="white"/>
<path d="M106.267 50.7604C106.267 50.5912 115.046 50.4502 125.866 50.4502C136.685 50.4502 145.465 50.5912 145.465 50.7604C145.465 50.9296 136.694 51.0706 125.866 51.0706C115.037 51.0706 106.267 50.9672 106.267 50.7604Z" fill="white"/>
<path d="M179.54 65.4896C180.465 65.0612 181.244 64.3705 181.781 63.5033C182.317 62.636 182.587 61.6303 182.557 60.611C182.588 59.9437 182.483 59.277 182.247 58.6519C182.011 58.0269 181.65 57.4567 181.186 56.9764C180.721 56.4962 180.163 56.116 179.547 55.8593C178.93 55.6026 178.267 55.4748 177.599 55.4838C176.931 55.4928 176.272 55.6384 175.662 55.9116C175.053 56.1848 174.505 56.5798 174.054 57.0724C173.603 57.565 173.257 58.1447 173.038 58.7759C172.819 59.4071 172.732 60.0764 172.781 60.7426C172.78 61.7718 173.084 62.7782 173.654 63.6348C174.225 64.4914 175.036 65.1597 175.986 65.5554C168.466 66.8244 168.974 74.9554 168.974 74.9554L186.768 74.711C186.768 74.711 186.994 66.4766 179.54 65.4896Z" fill="white"/>
<path d="M184.936 142.674V173.318L177.124 165.506H120.235V142.674H184.936Z" fill="#FF5400"/>
<path d="M148.436 149.996C148.436 149.855 154.743 149.752 162.536 149.752C170.328 149.752 176.636 149.855 176.636 149.996C176.636 150.137 170.328 150.241 162.536 150.241C154.743 150.241 148.436 150.128 148.436 149.996Z" fill="white"/>
<path d="M167.47 156.36C168.774 156.114 170.103 156.032 171.427 156.116C172.754 156.032 174.087 156.114 175.394 156.36C174.086 156.601 172.754 156.683 171.427 156.605C170.103 156.683 168.774 156.601 167.47 156.36Z" fill="white"/>
<path d="M165.6 158.117C165.468 158.117 165.242 157.713 164.979 157.177C164.716 156.641 164.5 156.237 164.613 156.124C164.725 156.012 165.13 156.388 165.412 156.961C165.694 157.534 165.731 158.089 165.6 158.117Z" fill="white"/>
<path d="M150.964 156.134C152.77 155.892 154.595 155.811 156.416 155.89C158.234 155.81 160.055 155.892 161.858 156.134C160.056 156.381 158.234 156.463 156.416 156.378C154.595 156.463 152.77 156.381 150.964 156.134Z" fill="white"/>
<path d="M149.648 158.005C149.525 158.071 149.187 157.657 148.877 157.065C148.567 156.473 148.426 155.975 148.548 155.909C148.67 155.843 149.008 156.266 149.319 156.849C149.629 157.432 149.77 157.921 149.648 158.005Z" fill="white"/>
<path d="M133.809 156.04C135.703 155.793 137.615 155.711 139.524 155.796C141.435 155.711 143.351 155.793 145.248 156.04C143.35 156.282 141.435 156.364 139.524 156.285C137.615 156.364 135.703 156.282 133.809 156.04Z" fill="white"/>
<path d="M132.389 156.98C132.276 157.055 131.928 156.707 131.609 156.209C131.289 155.711 131.129 155.269 131.242 155.185C131.355 155.1 131.703 155.448 132.022 155.946C132.342 156.444 132.539 156.98 132.389 156.98Z" fill="white"/>
<path d="M125.96 155.589C125.96 155.448 126.721 155.345 127.661 155.345C128.601 155.345 129.372 155.448 129.372 155.589C129.372 155.73 128.601 155.834 127.661 155.834C126.721 155.834 125.96 155.721 125.96 155.589Z" fill="white"/>
</svg>
