<svg width="437" height="437" viewBox="0 0 437 437" fill="none" xmlns="http://www.w3.org/2000/svg">
<g clip-path="url(#clip0_250_1161)">
<path d="M29.3591 89.3832C60.5934 39.3834 141.873 29.0476 183.829 75.2694C225.785 121.491 223.232 169.903 243.03 184.243C262.828 198.584 308.675 129.365 359.049 134.652C409.423 139.939 447.079 163.844 430.901 237.806C414.722 311.767 326.351 392.105 209.833 378.365C93.3139 364.626 -58.5007 230.023 29.3591 89.3832Z" fill="#FF5400"/>
<path opacity="0.9" d="M29.3591 89.3832C60.5934 39.3834 141.873 29.0476 183.829 75.2694C225.785 121.491 223.232 169.903 243.03 184.243C262.828 198.584 308.675 129.365 359.049 134.652C409.423 139.939 447.079 163.844 430.901 237.806C414.722 311.767 326.351 392.105 209.833 378.365C93.3139 364.626 -58.5007 230.023 29.3591 89.3832Z" fill="#FFCBB2"/>
<path d="M218.449 413.895C339.94 413.895 438.428 408.145 438.428 401.052C438.428 393.959 339.94 388.209 218.449 388.209C96.9585 388.209 -1.5293 393.959 -1.5293 401.052C-1.5293 408.145 96.9585 413.895 218.449 413.895Z" fill="#F5F5F5"/>
<path d="M42.2312 370.239H41.0967C41.0967 368.752 42.3447 333.57 48.4713 327.602C54.8021 321.441 62.2448 327.511 62.3128 327.602L61.5867 328.476C61.3144 328.249 54.8588 323.007 49.2655 328.476C43.4565 334.012 42.2426 369.876 42.2312 370.239Z" fill="#FF5400"/>
<path d="M41.732 377.294L40.5975 377.181C40.5975 376.761 44.5457 334.521 29.252 316.97L30.1142 316.232C45.7257 334.147 41.9022 375.536 41.732 377.294Z" fill="#FF5400"/>
<path d="M42.0838 372.78C41.959 370.784 39.0091 323.779 50.7972 312.933L51.5687 313.772C40.2231 324.244 43.1843 372.224 43.2183 372.701L42.0838 372.78Z" fill="#FF5400"/>
<path d="M40.5973 372.746C40.5973 372.428 40.2342 340.899 31.8953 336.122C31.1936 335.656 30.3893 335.367 29.5515 335.28C28.7136 335.193 27.8672 335.311 27.0848 335.623C22.1948 337.643 19.5967 346.969 19.574 347.071L18.4395 346.776C18.5529 346.367 21.2191 336.803 26.6082 334.579C27.552 334.199 28.5733 334.051 29.5861 334.148C30.599 334.245 31.5738 334.583 32.4285 335.135C41.3234 340.229 41.6865 371.441 41.6978 372.734L40.5973 372.746Z" fill="#FF5400"/>
<path d="M44.0359 372.767C44.0359 371.758 42.6858 347.807 49.4818 338.924C51.2971 336.553 53.3279 335.441 55.5176 335.588C60.3735 335.929 64.1289 342.486 64.2877 342.77L63.3007 343.326C63.3007 343.258 59.6814 337.018 55.4382 336.723C53.6569 336.598 51.9551 337.574 50.3894 339.616C43.8431 348.159 45.1591 372.518 45.1705 372.711L44.0359 372.767Z" fill="#FF5400"/>
<path d="M42.8196 376.081L41.6851 376.001C41.6851 375.423 45.951 318.434 38.9395 308.949L39.8471 308.269C47.1309 318.094 43.0012 373.721 42.8196 376.081Z" fill="#FF5400"/>
<path d="M24.7134 340.308C24.7134 340.308 29.0587 341.908 27.7653 345.686C26.4719 349.464 12.7438 355.693 12.7438 355.693C12.7438 355.693 6.99164 350.417 12.2673 341.84C17.543 333.263 24.5999 337.608 24.7134 340.308Z" fill="#FF5400"/>
<path opacity="0.2" d="M24.7134 340.308C24.7134 340.308 29.0587 341.908 27.7653 345.686C26.4719 349.464 12.7438 355.693 12.7438 355.693C12.7438 355.693 6.99164 350.417 12.2673 341.84C17.543 333.263 24.5999 337.608 24.7134 340.308Z" fill="white"/>
<path d="M43.6028 333.116C43.6028 333.116 38.9738 332.923 38.7129 336.905C38.4519 340.888 48.731 351.927 48.731 351.927C48.731 351.927 56.0716 349.272 54.4945 339.322C52.9175 329.372 44.7487 330.654 43.6028 333.116Z" fill="#FF5400"/>
<path opacity="0.2" d="M43.6028 333.116C43.6028 333.116 38.9738 332.923 38.7129 336.905C38.4519 340.888 48.731 351.927 48.731 351.927C48.731 351.927 56.0716 349.272 54.4945 339.322C52.9175 329.372 44.7487 330.654 43.6028 333.116Z" fill="white"/>
<path d="M47.5177 314.02C47.5177 314.02 44.4318 313.691 44.6814 311.819C44.931 309.947 56.6736 305.102 63.6057 312.953C63.6057 312.953 59.1696 320.577 52.7594 320.668C46.3492 320.759 47.5177 314.02 47.5177 314.02Z" fill="#FF5400"/>
<path opacity="0.2" d="M47.5177 314.02C47.5177 314.02 44.4318 313.691 44.6814 311.819C44.931 309.947 56.6736 305.102 63.6057 312.953C63.6057 312.953 59.1696 320.577 52.7594 320.668C46.3492 320.759 47.5177 314.02 47.5177 314.02Z" fill="white"/>
<path d="M41.7772 309.46C41.7772 309.46 44.5682 310.81 45.351 309.086C46.1339 307.361 38.7252 297.048 28.7071 300.009C28.7071 300.009 28.4462 308.825 33.8353 312.297C39.2244 315.768 41.7772 309.46 41.7772 309.46Z" fill="#FF5400"/>
<path opacity="0.2" d="M41.7772 309.46C41.7772 309.46 44.5682 310.81 45.351 309.086C46.1339 307.361 38.7252 297.048 28.7071 300.009C28.7071 300.009 28.4462 308.825 33.8353 312.297C39.2244 315.768 41.7772 309.46 41.7772 309.46Z" fill="white"/>
<path d="M56.3785 338.789C56.3785 338.789 54.2456 337.076 56.5487 336.236C58.8518 335.397 70.1633 335.635 70.2314 346.799C70.2314 346.799 57.1046 348.977 55.4822 344.723C53.8598 340.468 56.3785 338.789 56.3785 338.789Z" fill="#FF5400"/>
<path opacity="0.2" d="M56.3785 338.789C56.3785 338.789 54.2456 337.076 56.5487 336.236C58.8518 335.397 70.1633 335.635 70.2314 346.799C70.2314 346.799 57.1046 348.977 55.4822 344.723C53.8598 340.468 56.3785 338.789 56.3785 338.789Z" fill="white"/>
<path d="M29.6029 313.75C29.6029 313.75 31.7359 312.026 29.4327 311.186C27.1296 310.347 15.8181 310.585 15.75 321.76C15.75 321.76 28.8768 323.939 30.4992 319.684C32.1216 315.429 29.6029 313.75 29.6029 313.75Z" fill="#FF5400"/>
<path opacity="0.2" d="M29.6029 313.75C29.6029 313.75 31.7359 312.026 29.4327 311.186C27.1296 310.347 15.8181 310.585 15.75 321.76C15.75 321.76 28.8768 323.939 30.4992 319.684C32.1216 315.429 29.6029 313.75 29.6029 313.75Z" fill="white"/>
<path d="M36.5461 322.746C36.5461 322.746 36.7277 320.647 35.0485 321.476C33.3694 322.304 27.4811 328.635 33.5736 334.648C33.5736 334.648 41.7764 328.567 40.3015 325.413C38.8266 322.259 36.5461 322.746 36.5461 322.746Z" fill="#FF5400"/>
<path opacity="0.2" d="M36.5461 322.746C36.5461 322.746 36.7277 320.647 35.0485 321.476C33.3694 322.304 27.4811 328.635 33.5736 334.648C33.5736 334.648 41.7764 328.567 40.3015 325.413C38.8266 322.259 36.5461 322.746 36.5461 322.746Z" fill="white"/>
<path d="M58.2844 325.72C58.2844 325.72 57.0024 324.052 58.8744 323.848C60.7464 323.643 69.0854 325.867 67.1453 334.206C67.1453 334.206 56.9343 333.435 56.5259 329.974C56.1174 326.514 58.2844 325.72 58.2844 325.72Z" fill="#FF5400"/>
<path opacity="0.2" d="M58.2844 325.72C58.2844 325.72 57.0024 324.052 58.8744 323.848C60.7464 323.643 69.0854 325.867 67.1453 334.206C67.1453 334.206 56.9343 333.435 56.5259 329.974C56.1174 326.514 58.2844 325.72 58.2844 325.72Z" fill="white"/>
<path d="M23.9083 403.685H58.8186L62.5853 365.474H20.1416L23.9083 403.685Z" fill="#263238"/>
<path d="M18.2803 369.683H64.4453V361.253H18.2803V369.683Z" fill="#263238"/>
<path opacity="0.2" d="M18.2803 369.683H64.4453V361.253H18.2803V369.683Z" fill="white"/>
<path d="M131.757 92.0692H101.589L101.328 89.0172C101.319 88.9178 101.33 88.8175 101.362 88.7227C101.394 88.628 101.445 88.541 101.512 88.4672C101.579 88.3934 101.662 88.3346 101.753 88.2945C101.844 88.2544 101.943 88.2339 102.043 88.2344H130.702C130.915 88.2388 131.119 88.3207 131.276 88.4649C131.432 88.609 131.531 88.8055 131.553 89.0172L131.757 92.0692Z" fill="#263238"/>
<path d="M97.7201 92.0692H67.5523L67.2913 89.0172C67.2818 88.9178 67.2933 88.8175 67.3249 88.7227C67.3565 88.628 67.4077 88.541 67.475 88.4672C67.5424 88.3934 67.6244 88.3346 67.7159 88.2945C67.8074 88.2544 67.9062 88.2339 68.0061 88.2344H96.6649C96.8778 88.2388 97.0818 88.3207 97.2384 88.4649C97.3951 88.609 97.4938 88.8055 97.5159 89.0172L97.7201 92.0692Z" fill="#263238"/>
<path d="M338.223 89.7989H40.0625C39.108 89.7824 38.1607 89.9669 37.2822 90.3403C36.4036 90.7137 35.6134 91.2677 34.9629 91.9664C34.3124 92.6651 33.8161 93.4927 33.5062 94.3957C33.1964 95.2986 33.0799 96.2566 33.1644 97.2075L49.7402 293.247C49.9542 295.266 50.9021 297.135 52.4038 298.501C53.9055 299.867 55.8565 300.634 57.8863 300.656H356.047C357.002 300.672 357.949 300.488 358.827 300.114C359.706 299.741 360.496 299.187 361.147 298.488C361.797 297.79 362.294 296.962 362.603 296.059C362.913 295.156 363.03 294.198 362.945 293.247L346.369 97.2075C346.158 95.188 345.211 93.3168 343.708 91.9506C342.206 90.5843 340.254 89.8185 338.223 89.7989Z" fill="#263238"/>
<path opacity="0.2" d="M356.047 300.656H62.4244C60.3946 300.634 58.4436 299.867 56.9419 298.501C55.4402 297.135 54.4923 295.266 54.2783 293.247L37.7025 97.2075C37.618 96.2566 37.7345 95.2986 38.0443 94.3957C38.3542 93.4927 38.8505 92.6651 39.501 91.9664C40.1515 91.2677 40.9417 90.7137 41.8203 90.3403C42.6988 89.9669 43.6461 89.7824 44.6006 89.7989H338.223C340.254 89.8185 342.206 90.5843 343.708 91.9506C345.211 93.3168 346.158 95.188 346.369 97.2075L362.945 293.247C363.03 294.198 362.913 295.156 362.603 296.059C362.293 296.962 361.797 297.79 361.147 298.488C360.496 299.187 359.706 299.741 358.827 300.114C357.949 300.488 357.001 300.672 356.047 300.656Z" fill="white"/>
<path d="M341.832 294.564H66.3168L49.5254 95.8809H325.041L341.832 294.564Z" fill="#CACACA"/>
<g opacity="0.5">
<path opacity="0.6" d="M53.3937 191.321C53.3262 190.783 53.0682 190.287 52.6665 189.923C52.2649 189.559 51.746 189.35 51.204 189.335C50.9478 189.33 50.6932 189.378 50.457 189.477C50.2208 189.577 50.0083 189.725 49.8336 189.913C49.6589 190.101 49.5259 190.323 49.4434 190.566C49.3608 190.808 49.3306 191.066 49.3547 191.321C49.4198 191.861 49.6767 192.36 50.0786 192.726C50.4805 193.093 51.0007 193.303 51.5444 193.318C51.8017 193.324 52.0574 193.275 52.2945 193.175C52.5315 193.075 52.7446 192.925 52.9194 192.736C53.0943 192.548 53.2271 192.324 53.3088 192.08C53.3906 191.836 53.4195 191.577 53.3937 191.321Z" fill="#333333"/>
<path opacity="0.6" d="M52.0319 199.126C51.9038 199.124 51.7766 199.149 51.6587 199.199C51.5409 199.25 51.4351 199.325 51.3482 199.419C51.2614 199.513 51.1955 199.625 51.155 199.747C51.1144 199.868 51.1001 199.997 51.113 200.125C51.1464 200.401 51.2805 200.656 51.4898 200.84C51.6991 201.024 51.9688 201.125 52.2475 201.123C52.3761 201.125 52.5037 201.1 52.6221 201.05C52.7405 200.999 52.847 200.925 52.9346 200.831C53.0223 200.736 53.0893 200.625 53.1312 200.503C53.1731 200.382 53.189 200.253 53.1779 200.125C53.1442 199.846 53.0084 199.59 52.7968 199.405C52.5851 199.221 52.3126 199.121 52.0319 199.126Z" fill="#333333"/>
</g>
<path opacity="0.5" d="M349.807 195.223C349.883 196.007 349.791 196.798 349.539 197.544C349.286 198.29 348.879 198.973 348.343 199.55C347.807 200.127 347.154 200.584 346.429 200.89C345.704 201.196 344.922 201.345 344.134 201.327C342.462 201.311 340.854 200.68 339.618 199.554C338.381 198.428 337.602 196.887 337.429 195.223C337.353 194.44 337.445 193.65 337.697 192.904C337.95 192.159 338.358 191.476 338.894 190.9C339.43 190.324 340.083 189.868 340.808 189.563C341.533 189.258 342.315 189.111 343.102 189.131C344.772 189.146 346.379 189.776 347.615 190.899C348.852 192.023 349.632 193.562 349.807 195.223Z" fill="#333333"/>
<path d="M37.7251 122.611H35.785C35.5739 122.607 35.3714 122.527 35.215 122.385C35.0585 122.243 34.9588 122.049 34.9341 121.84L33.5159 105.502C33.508 105.403 33.521 105.303 33.554 105.208C33.5871 105.114 33.6395 105.028 33.7079 104.955C33.7763 104.883 33.8592 104.825 33.9512 104.786C34.0432 104.748 34.1423 104.729 34.2421 104.731H36.1821C36.3933 104.735 36.5958 104.815 36.7522 104.957C36.9086 105.099 37.0084 105.292 37.0331 105.502L38.4172 121.84C38.4266 121.937 38.4158 122.035 38.3854 122.127C38.3551 122.22 38.3058 122.305 38.2407 122.378C38.1756 122.45 38.0962 122.508 38.0075 122.548C37.9187 122.589 37.8226 122.61 37.7251 122.611Z" fill="#263238"/>
<path opacity="0.2" d="M37.7251 122.611H35.785C35.5739 122.607 35.3714 122.527 35.215 122.385C35.0585 122.243 34.9588 122.049 34.9341 121.84L33.5159 105.502C33.508 105.403 33.521 105.303 33.554 105.208C33.5871 105.114 33.6395 105.028 33.7079 104.955C33.7763 104.883 33.8592 104.825 33.9512 104.786C34.0432 104.748 34.1423 104.729 34.2421 104.731H36.1821C36.3933 104.735 36.5958 104.815 36.7522 104.957C36.9086 105.099 37.0084 105.292 37.0331 105.502L38.4172 121.84C38.4266 121.937 38.4158 122.035 38.3854 122.127C38.3551 122.22 38.3058 122.305 38.2407 122.378C38.1756 122.45 38.0962 122.508 38.0075 122.548C37.9187 122.589 37.8226 122.61 37.7251 122.611Z" fill="white"/>
<path opacity="0.7" d="M341.991 294.269H66.476L49.6846 95.5859H325.2L341.991 294.269Z" fill="white"/>
<path opacity="0.1" d="M233.8 143.794L238.962 204.845H334.253L336.261 228.614H278.626L284.208 294.565H273.43L267.848 228.614H187.056L192.638 294.565H168.495L162.913 228.614H104.926L108.08 265.952L97.7212 270.819L65.5793 285.909L64.5923 274.234L96.7342 259.145L94.1474 228.614H60.7348L58.7266 204.845H160.905L157.058 159.258L49.9679 101.181L49.5254 95.8936H61.7445L156.015 147.017L151.703 95.8936H175.847L185.048 204.845H228.184L218.982 95.8936H229.761L232.903 133.175H328.195L329.091 143.794H233.8Z" fill="#333333"/>
<path opacity="0.4" d="M116.044 199.126H155.242L153.064 173.36H113.865L116.044 199.126Z" fill="white"/>
<path opacity="0.4" d="M111.28 182.561H94.4541L95.8496 199.125H112.686L111.28 182.561Z" fill="white"/>
<path opacity="0.4" d="M75.6523 199.125H92.4778L91.0823 182.561H74.2568L75.6523 199.125Z" fill="white"/>
<path opacity="0.4" d="M83.357 125.334L63.7632 114.806L59.4746 123.428L79.057 133.968L83.357 125.334Z" fill="white"/>
<path opacity="0.4" d="M101.066 145.8L105.355 137.178L85.7726 126.638L81.4727 135.26L101.066 145.8Z" fill="white"/>
<path opacity="0.4" d="M123.067 157.646L127.355 149.012L107.773 138.483L103.484 147.106L123.067 157.646Z" fill="white"/>
<path opacity="0.4" d="M74.4745 144.645H69.0854C68.0936 144.619 67.1077 144.805 66.193 145.189C65.2783 145.573 64.4558 146.148 63.7799 146.874C63.104 147.6 62.5903 148.462 62.2727 149.402C61.9551 150.342 61.8409 151.338 61.9377 152.326L63.2424 167.79C63.4674 169.882 64.4524 171.818 66.0104 173.232C67.5684 174.645 69.5912 175.438 71.6949 175.459H77.0727C78.0638 175.485 79.0491 175.299 79.9634 174.916C80.8777 174.532 81.7003 173.959 82.3769 173.235C83.0534 172.51 83.5686 171.65 83.8883 170.711C84.208 169.773 84.3251 168.777 84.2317 167.79L82.9156 152.314C82.6932 150.224 81.7106 148.287 80.1545 146.874C78.5983 145.46 76.577 144.666 74.4745 144.645Z" fill="white"/>
<path opacity="0.4" d="M219.492 173.36H188.076L190.118 197.515H221.534L219.492 173.36Z" fill="white"/>
<path opacity="0.4" d="M198.969 164.079H218.711L217.065 144.645H197.324L198.969 164.079Z" fill="white"/>
<path opacity="0.4" d="M204.175 117.075H183.322L185.058 137.611H205.911L204.175 117.075Z" fill="white"/>
<path opacity="0.4" d="M257.466 106.808H236.613L238.349 127.343H259.214L257.466 106.808Z" fill="white"/>
<path opacity="0.4" d="M244.282 197.514H270.91L269.957 186.248H243.329L244.282 197.514Z" fill="white"/>
<path opacity="0.4" d="M275.098 197.514H301.726L300.773 186.248H274.145L275.098 197.514Z" fill="white"/>
<path opacity="0.4" d="M305.923 197.514H325.369L324.416 186.248H304.97L305.923 197.514Z" fill="white"/>
<path opacity="0.4" d="M238.542 249.942C236.027 249.87 233.525 250.335 231.204 251.305C228.882 252.275 226.793 253.728 225.076 255.567C223.359 257.406 222.053 259.59 221.245 261.973C220.437 264.356 220.145 266.884 220.389 269.388C220.951 274.686 223.44 279.593 227.383 283.176C231.326 286.76 236.448 288.769 241.776 288.823C244.29 288.896 246.792 288.433 249.114 287.464C251.435 286.496 253.524 285.044 255.242 283.205C256.959 281.367 258.265 279.184 259.073 276.801C259.881 274.419 260.173 271.892 259.929 269.388C259.369 264.088 256.882 259.178 252.938 255.592C248.995 252.007 243.872 249.996 238.542 249.942Z" fill="white"/>
<path opacity="0.4" d="M317.497 175.642C321.762 170.276 320.48 162.158 314.633 157.511C308.786 152.863 300.588 153.446 296.323 158.812C292.057 164.178 293.339 172.296 299.186 176.943C305.033 181.591 313.231 181.008 317.497 175.642Z" fill="white"/>
<path opacity="0.4" d="M217.496 234.728H193.262L194.555 249.942H218.789L217.496 234.728Z" fill="white"/>
<path opacity="0.4" d="M290.423 272.622H304.185L300.986 234.728H287.224L290.423 272.622Z" fill="white"/>
<path opacity="0.4" d="M307.862 234.728L309.156 249.942H333.446L332.164 234.728H307.862Z" fill="white"/>
<path opacity="0.4" d="M73.9627 249.942H89.4267L88.1446 234.728H72.6807L73.9627 249.942Z" fill="white"/>
<path opacity="0.4" d="M117.53 256.42H142.433L140.743 236.396H115.828L117.53 256.42Z" fill="white"/>
<path opacity="0.4" d="M115.771 288.959H161.346L160.166 274.981H114.591L115.771 288.959Z" fill="white"/>
<path opacity="0.4" d="M120.763 116.792L145.655 129.907L143.76 107.5H119.969L120.763 116.792Z" fill="white"/>
<path d="M166.667 100.567C164.747 98.7832 162.21 97.8129 159.589 97.86C156.968 97.9072 154.468 98.9682 152.613 100.82C150.758 102.672 149.693 105.171 149.642 107.792C149.59 110.412 150.557 112.951 152.337 114.874L159.496 122.033L166.667 114.874C168.56 112.975 169.624 110.402 169.624 107.72C169.624 105.039 168.56 102.466 166.667 100.567ZM162.288 110.517C161.735 111.07 161.032 111.446 160.266 111.598C159.5 111.751 158.706 111.673 157.984 111.374C157.263 111.075 156.646 110.569 156.212 109.92C155.778 109.271 155.547 108.507 155.547 107.726C155.547 106.945 155.778 106.182 156.212 105.532C156.646 104.883 157.263 104.377 157.984 104.078C158.706 103.779 159.5 103.701 160.266 103.854C161.032 104.006 161.735 104.383 162.288 104.935C162.655 105.301 162.947 105.736 163.146 106.215C163.345 106.694 163.448 107.207 163.448 107.726C163.448 108.245 163.345 108.758 163.146 109.237C162.947 109.716 162.655 110.151 162.288 110.517Z" fill="#263238"/>
<path opacity="0.2" d="M166.667 114.874L159.451 122.055V111.674C160.504 111.674 161.514 111.256 162.259 110.511C163.004 109.766 163.422 108.756 163.422 107.703C163.422 106.65 163.004 105.64 162.259 104.895C161.514 104.151 160.504 103.732 159.451 103.732V97.549C161.463 97.5384 163.432 98.1263 165.109 99.2379C166.786 100.35 168.094 101.935 168.868 103.792C169.641 105.649 169.845 107.694 169.453 109.668C169.061 111.641 168.091 113.453 166.667 114.874Z" fill="white"/>
<path d="M299.953 169.616C299.013 168.675 297.896 167.929 296.666 167.42C295.437 166.911 294.119 166.648 292.789 166.648C291.458 166.648 290.141 166.911 288.911 167.42C287.682 167.929 286.565 168.675 285.624 169.616C284.683 170.557 283.937 171.674 283.428 172.903C282.918 174.133 282.656 175.45 282.656 176.781C282.656 178.111 282.918 179.429 283.428 180.658C283.937 181.888 284.683 183.005 285.624 183.946L292.783 191.105L299.953 183.946C300.894 183.005 301.641 181.888 302.15 180.658C302.659 179.429 302.921 178.112 302.921 176.781C302.921 175.45 302.659 174.133 302.15 172.903C301.641 171.674 300.894 170.557 299.953 169.616ZM295.597 179.543C295.045 180.096 294.341 180.472 293.575 180.625C292.809 180.777 292.015 180.699 291.294 180.4C290.572 180.102 289.955 179.596 289.521 178.946C289.087 178.297 288.856 177.533 288.856 176.752C288.856 175.971 289.087 175.208 289.521 174.559C289.955 173.909 290.572 173.403 291.294 173.105C292.015 172.806 292.809 172.728 293.575 172.88C294.341 173.033 295.045 173.409 295.597 173.961C295.964 174.327 296.256 174.762 296.455 175.241C296.654 175.72 296.757 176.234 296.757 176.752C296.757 177.271 296.654 177.785 296.455 178.264C296.256 178.743 295.964 179.178 295.597 179.543Z" fill="#263238"/>
<path opacity="0.2" d="M299.955 183.945L292.784 191.104V180.678C293.837 180.678 294.847 180.26 295.592 179.515C296.337 178.77 296.755 177.76 296.755 176.707C296.755 175.654 296.337 174.644 295.592 173.899C294.847 173.154 293.837 172.736 292.784 172.736V166.553C294.787 166.556 296.745 167.152 298.41 168.266C300.075 169.38 301.373 170.962 302.14 172.812C302.906 174.663 303.108 176.699 302.719 178.664C302.331 180.63 301.368 182.436 299.955 183.855V183.945Z" fill="white"/>
<path d="M163.468 262.934C161.568 261.033 158.991 259.966 156.303 259.966C153.616 259.966 151.039 261.033 149.139 262.934C147.238 264.834 146.171 267.411 146.171 270.098C146.171 272.786 147.238 275.363 149.139 277.263L156.298 284.422L163.468 277.263C164.409 276.322 165.155 275.205 165.665 273.976C166.174 272.747 166.436 271.429 166.436 270.098C166.436 268.768 166.174 267.45 165.665 266.221C165.155 264.991 164.409 263.874 163.468 262.934ZM159.089 272.884C158.537 273.436 157.833 273.812 157.067 273.965C156.301 274.117 155.507 274.039 154.786 273.741C154.064 273.442 153.447 272.936 153.013 272.286C152.579 271.637 152.348 270.874 152.348 270.093C152.348 269.312 152.579 268.548 153.013 267.899C153.447 267.249 154.064 266.743 154.786 266.445C155.507 266.146 156.301 266.068 157.067 266.22C157.833 266.373 158.537 266.749 159.089 267.302C159.456 267.667 159.748 268.102 159.947 268.581C160.146 269.06 160.249 269.574 160.249 270.093C160.249 270.611 160.146 271.125 159.947 271.604C159.748 272.083 159.456 272.518 159.089 272.884Z" fill="#263238"/>
<path opacity="0.2" d="M163.468 277.262L156.298 284.421V274.04C157.351 274.04 158.361 273.622 159.106 272.877C159.85 272.132 160.269 271.122 160.269 270.069C160.269 269.016 159.85 268.006 159.106 267.261C158.361 266.517 157.351 266.098 156.298 266.098V259.915C158.301 259.918 160.259 260.514 161.924 261.628C163.588 262.742 164.886 264.324 165.653 266.175C166.42 268.025 166.622 270.062 166.233 272.027C165.844 273.992 164.882 275.798 163.468 277.217V277.262Z" fill="white"/>
<path opacity="0.2" d="M311.414 105.797H193.216C191.533 105.8 189.92 106.471 188.731 107.662C187.542 108.853 186.874 110.468 186.874 112.151V154.878C186.874 156.56 187.542 158.173 188.732 159.363C189.921 160.552 191.534 161.22 193.216 161.22H279.612L291.06 170.081L287.656 161.186H311.482C313.164 161.186 314.777 160.518 315.967 159.328C317.156 158.139 317.824 156.526 317.824 154.844V112.117C317.82 111.28 317.65 110.453 317.325 109.683C317.001 108.912 316.527 108.213 315.931 107.626C315.336 107.039 314.63 106.575 313.855 106.261C313.08 105.947 312.25 105.79 311.414 105.797Z" fill="#333333"/>
<path d="M314.818 102.393H196.62C194.937 102.396 193.324 103.067 192.135 104.258C190.946 105.449 190.278 107.063 190.278 108.746V151.474C190.278 153.156 190.947 154.769 192.136 155.958C193.325 157.148 194.938 157.816 196.62 157.816H283.017L291.061 170.08V157.782H314.886C316.568 157.782 318.182 157.114 319.371 155.924C320.56 154.735 321.229 153.122 321.229 151.44V108.712C321.224 107.876 321.055 107.049 320.73 106.278C320.405 105.508 319.931 104.809 319.336 104.222C318.74 103.634 318.034 103.171 317.259 102.857C316.484 102.543 315.655 102.385 314.818 102.393Z" fill="#FF5400"/>
<path opacity="0.7" d="M237.293 114.362V145.789C237.296 146.277 237.183 146.759 236.964 147.196C236.968 147.23 236.968 147.264 236.964 147.298C236.9 147.416 236.828 147.53 236.748 147.638C236.454 148.052 236.065 148.391 235.614 148.625C235.278 148.806 234.913 148.926 234.536 148.977C234.43 148.989 234.324 148.989 234.218 148.977H202.451C202.236 148.967 202.023 148.933 201.815 148.875H201.725C201.495 148.8 201.275 148.701 201.066 148.58C200.922 148.503 200.785 148.411 200.658 148.308C200.392 148.102 200.161 147.852 199.977 147.57C199.665 147.105 199.485 146.564 199.455 146.004C199.45 145.933 199.45 145.861 199.455 145.789V114.362C199.455 113.525 199.78 112.72 200.363 112.119C200.945 111.517 201.739 111.166 202.575 111.14H234.093C234.944 111.146 235.758 111.488 236.357 112.091C236.956 112.695 237.293 113.511 237.293 114.362Z" fill="white"/>
<path d="M304.881 124.585H251.421C251.236 124.585 251.053 124.548 250.882 124.477C250.711 124.407 250.556 124.303 250.426 124.173C250.295 124.042 250.191 123.887 250.121 123.716C250.05 123.545 250.014 123.362 250.014 123.178C250.017 122.807 250.166 122.452 250.43 122.19C250.693 121.929 251.049 121.782 251.421 121.782H304.881C305.251 121.782 305.606 121.929 305.867 122.191C306.129 122.453 306.276 122.808 306.276 123.178C306.278 123.362 306.243 123.545 306.173 123.715C306.104 123.886 306.001 124.041 305.871 124.172C305.742 124.303 305.587 124.406 305.417 124.477C305.247 124.548 305.065 124.585 304.881 124.585Z" fill="white"/>
<path d="M287.713 111.14H252.009C251.734 111.12 251.459 111.156 251.199 111.247C250.94 111.337 250.702 111.48 250.5 111.667C250.299 111.854 250.138 112.081 250.028 112.333C249.918 112.585 249.861 112.857 249.861 113.132C249.861 113.406 249.918 113.678 250.028 113.93C250.138 114.182 250.299 114.409 250.5 114.596C250.702 114.783 250.94 114.926 251.199 115.017C251.459 115.107 251.734 115.143 252.009 115.123H287.713C288.215 115.085 288.684 114.859 289.027 114.489C289.369 114.12 289.559 113.635 289.559 113.132C289.559 112.628 289.369 112.143 289.027 111.774C288.684 111.405 288.215 111.178 287.713 111.14Z" fill="white"/>
<path d="M283.324 130.349H251.421C251.048 130.346 250.692 130.197 250.429 129.934C250.166 129.67 250.017 129.314 250.014 128.942C250.017 128.57 250.166 128.214 250.429 127.95C250.692 127.687 251.048 127.538 251.421 127.535H283.324C283.695 127.538 284.05 127.688 284.312 127.951C284.573 128.215 284.72 128.571 284.72 128.942C284.72 129.313 284.573 129.669 284.312 129.933C284.05 130.196 283.695 130.346 283.324 130.349Z" fill="white"/>
<path d="M212.89 111.821C214.765 110.181 217.023 109.039 219.456 108.501C221.889 107.964 224.419 108.048 226.811 108.747C234.877 111.254 231.349 126.264 231.349 126.264C232.697 127.786 233.6 129.65 233.959 131.652C234.317 133.653 234.117 135.715 233.38 137.61C230.861 144.27 211.596 145.745 205.072 139.992C198.549 134.24 206.139 119.797 209.872 118.118C213.604 116.439 212.89 111.821 212.89 111.821Z" fill="#263238"/>
<path d="M235.592 148.626C235.257 148.807 234.891 148.927 234.514 148.978C234.408 148.99 234.302 148.99 234.196 148.978H202.429C202.214 148.968 202.001 148.934 201.793 148.876H201.703C201.473 148.801 201.253 148.702 201.045 148.581C200.9 148.503 200.763 148.412 200.636 148.309C200.37 148.102 200.14 147.853 199.955 147.571C199.853 147.072 199.751 146.55 199.638 146.028C201.907 145.642 204.085 145.336 206.332 145.132C207.988 144.973 209.656 144.871 211.335 144.814C212.14 144.814 212.957 144.814 213.763 144.746C216.509 144.746 219.265 144.746 222 145.018L223.758 145.177C226.334 145.495 229.057 145.994 231.19 146.425C233.323 146.856 235.093 147.265 235.093 147.265C235.093 147.265 235.399 147.378 235.592 148.626Z" fill="#FF5400"/>
<path opacity="0.3" d="M235.592 148.626C235.257 148.807 234.891 148.927 234.514 148.978C234.408 148.99 234.302 148.99 234.196 148.978H202.429C202.214 148.968 202.001 148.934 201.793 148.876H201.703C201.473 148.801 201.253 148.702 201.045 148.581C200.9 148.503 200.763 148.412 200.636 148.309C200.37 148.102 200.14 147.853 199.955 147.571C199.853 147.072 199.751 146.55 199.638 146.028C201.907 145.642 204.085 145.336 206.332 145.132C207.988 144.973 209.656 144.871 211.335 144.814C212.14 144.814 212.957 144.814 213.763 144.746C216.509 144.746 219.265 144.746 222 145.018L223.758 145.177C226.334 145.495 229.057 145.994 231.19 146.425C233.323 146.856 235.093 147.265 235.093 147.265C235.093 147.265 235.399 147.378 235.592 148.626Z" fill="#333333"/>
<path d="M222.987 149.012H215.976C214.598 148.319 213.425 147.279 212.572 145.994C213.065 145.643 213.505 145.223 213.877 144.746C214.215 144.33 214.497 143.873 214.717 143.384C215.55 141.249 215.713 138.909 215.182 136.679C215.012 135.828 214.819 135.238 214.785 135.113L222.727 137.711C222.568 138.245 222.443 138.744 222.329 139.209C222.159 139.901 222.046 140.525 221.955 141.081C221.834 141.831 221.792 142.592 221.83 143.35C221.842 143.919 221.962 144.481 222.182 145.007C222.658 146.141 223.453 146.289 223.453 146.289C223.611 146.745 223.652 147.234 223.571 147.71C223.489 148.186 223.289 148.634 222.987 149.012Z" fill="#E4897B"/>
<path opacity="0.2" d="M222.556 137.677C222.225 138.794 221.967 139.931 221.785 141.081C218.006 139.652 214.671 135.113 214.671 135.113L222.556 137.677Z" fill="#333333"/>
<path d="M218.358 114.305C225.426 113.602 228.092 117.164 229.329 124.403C230.883 133.479 229.511 140.128 220.468 139.061C208.238 137.563 206.604 115.474 218.358 114.305Z" fill="#E4897B"/>
<path d="M224.71 124.461C225.383 125.465 226.175 126.383 227.07 127.195C226.891 127.509 226.629 127.767 226.312 127.941C225.996 128.115 225.638 128.199 225.277 128.182L224.71 124.461Z" fill="#DE5753"/>
<path d="M220.321 124.313C220.4 124.892 220.139 125.448 219.753 125.448C219.368 125.448 218.993 125.062 218.925 124.483C218.857 123.905 219.107 123.349 219.493 123.349C219.878 123.349 220.253 123.734 220.321 124.313Z" fill="#263238"/>
<path d="M219.334 123.393L220.537 122.746C220.537 122.746 220.037 123.881 219.334 123.393Z" fill="#263238"/>
<path d="M227.525 123.302C227.593 123.881 227.344 124.437 226.947 124.437C226.549 124.437 226.198 124.062 226.118 123.472C226.039 122.882 226.311 122.338 226.697 122.338C227.083 122.338 227.446 122.724 227.525 123.302Z" fill="#263238"/>
<path d="M226.538 122.394L227.741 121.736C227.741 121.736 227.242 122.882 226.538 122.394Z" fill="#263238"/>
<path d="M216.804 121.216C216.723 121.216 216.644 121.192 216.577 121.148C216.489 121.086 216.428 120.992 216.407 120.887C216.385 120.781 216.406 120.671 216.463 120.58C216.856 120.081 217.36 119.68 217.935 119.41C218.51 119.14 219.141 119.009 219.776 119.026C219.885 119.029 219.989 119.074 220.066 119.153C220.142 119.231 220.185 119.336 220.185 119.446C220.171 119.552 220.121 119.65 220.042 119.723C219.963 119.796 219.861 119.838 219.753 119.843C219.257 119.834 218.765 119.936 218.314 120.142C217.862 120.349 217.462 120.653 217.144 121.034C217.108 121.092 217.058 121.139 216.998 121.17C216.938 121.202 216.871 121.218 216.804 121.216Z" fill="#263238"/>
<path d="M227.763 119.333C227.7 119.349 227.634 119.349 227.571 119.333C227.202 119.098 226.785 118.95 226.351 118.898C225.916 118.847 225.476 118.895 225.063 119.038C224.965 119.086 224.853 119.093 224.749 119.058C224.646 119.023 224.561 118.948 224.513 118.85C224.465 118.753 224.457 118.64 224.493 118.537C224.528 118.433 224.602 118.348 224.7 118.3C225.23 118.098 225.799 118.021 226.364 118.074C226.929 118.127 227.473 118.309 227.956 118.606C228.004 118.632 228.047 118.666 228.081 118.708C228.116 118.749 228.142 118.797 228.158 118.849C228.173 118.901 228.179 118.955 228.174 119.009C228.168 119.063 228.152 119.115 228.127 119.162C228.085 119.219 228.03 119.264 227.967 119.294C227.903 119.323 227.833 119.337 227.763 119.333Z" fill="#263238"/>
<path d="M224.53 131.062C224.271 131.894 224.074 132.743 223.94 133.604C223.792 133.604 223.633 133.604 223.486 133.604C221.398 133.604 220.434 132.912 220.003 132.152C219.796 131.776 219.683 131.355 219.674 130.926C219.64 130.685 219.64 130.441 219.674 130.2C220.959 130.772 222.352 131.062 223.758 131.051C224.246 131.074 224.53 131.062 224.53 131.062Z" fill="#263238"/>
<path d="M223.815 131.051L223.622 131.8C221.671 131.8 220.286 131.516 219.674 130.926C219.64 130.685 219.64 130.441 219.674 130.2C220.976 130.78 222.389 131.07 223.815 131.051Z" fill="white"/>
<path d="M223.486 133.605C221.398 133.605 220.434 132.912 220.003 132.152C220.78 132.178 221.547 132.335 222.272 132.618C222.772 132.807 223.198 133.153 223.486 133.605Z" fill="#DE5753"/>
<path d="M211.801 127.001C211.801 127.001 214.535 120.852 213.593 116.415C213.593 116.415 227.049 109.29 229.148 123.461C229.148 123.461 229.261 110.686 217.076 111.605C204.891 112.524 206.695 130.336 213.514 135.011C213.514 135.011 210.122 130.836 211.801 127.001Z" fill="#263238"/>
<path d="M213.105 128.375C213.031 127.974 212.879 127.591 212.657 127.248C212.435 126.905 212.148 126.609 211.812 126.378C211.476 126.146 211.098 125.983 210.698 125.897C210.299 125.812 209.887 125.806 209.486 125.879C207.319 126.333 206.717 130.939 212.277 131.484C213.082 131.552 213.445 130.758 213.105 128.375Z" fill="#E4897B"/>
<path d="M235.592 148.626C235.257 148.807 234.891 148.927 234.514 148.978C234.408 148.99 234.302 148.99 234.196 148.978H202.429C202.214 148.968 202.001 148.934 201.793 148.876H201.703C201.473 148.801 201.253 148.702 201.045 148.581C200.9 148.503 200.763 148.412 200.636 148.309C200.37 148.102 200.14 147.853 199.955 147.571C199.853 147.072 199.751 146.55 199.638 146.028C201.907 145.642 204.085 145.336 206.332 145.132C207.988 144.973 209.656 144.871 211.335 144.814C212.14 144.814 212.957 144.814 213.763 144.746C216.509 144.746 219.265 144.746 222 145.018L223.758 145.177C226.334 145.495 229.057 145.994 231.19 146.425C233.323 146.856 235.093 147.265 235.093 147.265C235.093 147.265 235.399 147.378 235.592 148.626Z" fill="#E4897B"/>
<path d="M208.09 149.012H202.417C202.202 149.002 201.989 148.968 201.782 148.91H201.691C201.462 148.836 201.241 148.737 201.033 148.615C200.888 148.538 200.752 148.447 200.624 148.343C200.358 148.137 200.128 147.888 199.944 147.606C199.632 147.14 199.452 146.599 199.422 146.04L205.73 144.077C205.73 144.077 205.957 144.463 206.32 145.212C206.683 145.961 207.42 147.345 208.09 149.012Z" fill="white"/>
<path d="M236.964 147.197C236.969 147.231 236.969 147.266 236.964 147.3C236.901 147.418 236.829 147.532 236.749 147.64C236.454 148.054 236.065 148.392 235.614 148.627C235.279 148.808 234.914 148.927 234.536 148.979C234.431 148.99 234.324 148.99 234.219 148.979H229.079C228.886 147.197 228.693 144.917 228.693 144.917L236.964 147.197Z" fill="white"/>
<path d="M218.358 114.306C218.358 114.306 219.731 123.281 211.472 126.151C201.499 129.623 201.011 139.97 209.951 142.489C209.951 142.489 200.875 140.333 199.888 134.07C198.901 127.807 205.231 119.253 205.231 119.253C205.231 119.253 203.11 113.796 211.199 110.812C215.76 109.133 218.358 114.306 218.358 114.306Z" fill="#263238"/>
<path d="M217.315 122.724C217.27 122.734 217.224 122.734 217.179 122.724C217.115 122.686 217.067 122.625 217.046 122.553C217.025 122.482 217.032 122.405 217.065 122.338C220.412 116.348 217.576 113.511 217.451 113.386C217.399 113.333 217.37 113.262 217.37 113.188C217.37 113.114 217.399 113.042 217.451 112.989C217.506 112.937 217.579 112.907 217.655 112.907C217.731 112.907 217.805 112.937 217.86 112.989C217.996 113.125 221.15 116.223 217.576 122.622C217.544 122.659 217.504 122.688 217.458 122.706C217.413 122.724 217.364 122.73 217.315 122.724Z" fill="#263238"/>
<path d="M232.132 140.661C232.094 140.66 232.056 140.652 232.021 140.636C231.986 140.621 231.954 140.598 231.928 140.57C231.901 140.544 231.879 140.514 231.864 140.479C231.85 140.445 231.842 140.408 231.842 140.371C231.842 140.334 231.85 140.297 231.864 140.263C231.879 140.229 231.901 140.198 231.928 140.173C232.826 139.387 233.544 138.417 234.034 137.328C234.523 136.239 234.773 135.058 234.764 133.865C234.617 129.417 230.51 125.843 230.476 125.809C230.448 125.784 230.427 125.753 230.412 125.719C230.397 125.685 230.39 125.648 230.39 125.611C230.39 125.573 230.397 125.537 230.412 125.503C230.427 125.468 230.448 125.438 230.476 125.412C230.529 125.36 230.6 125.331 230.674 125.331C230.748 125.331 230.82 125.36 230.873 125.412C231.054 125.571 235.207 129.179 235.411 133.876C235.423 135.149 235.16 136.41 234.642 137.573C234.123 138.736 233.36 139.773 232.404 140.615C232.368 140.647 232.323 140.669 232.275 140.677C232.227 140.685 232.177 140.679 232.132 140.661Z" fill="#263238"/>
<path opacity="0.2" d="M204.552 27.002H86.3539C84.6708 27.005 83.0577 27.6757 81.8686 28.8669C80.6795 30.058 80.0117 31.6724 80.0117 33.3555V76.0828C80.0117 77.7658 80.6795 79.3802 81.8686 80.5714C83.0577 81.7625 84.6708 82.4333 86.3539 82.4363H146.281L156.05 100.419L154.087 82.4363H204.506C206.191 82.4363 207.807 81.7669 208.999 80.5754C210.19 79.3838 210.86 77.7678 210.86 76.0828V33.3555C210.86 31.6782 210.197 30.069 209.015 28.8788C207.833 27.6886 206.229 27.0139 204.552 27.002Z" fill="#333333"/>
<path d="M207.956 23.5977H89.7582C88.0751 23.6007 86.462 24.2714 85.2729 25.4626C84.0838 26.6537 83.416 28.2681 83.416 29.9512V72.6785C83.416 74.3616 84.0838 75.9759 85.2729 77.1671C86.462 78.3583 88.0751 79.029 89.7582 79.032H149.685L156.05 100.418L157.491 79.032H207.911C209.596 79.032 211.212 78.3626 212.403 77.1711C213.595 75.9796 214.264 74.3635 214.264 72.6785V29.9512C214.264 28.2739 213.601 26.6647 212.419 25.4745C211.238 24.2843 209.633 23.6096 207.956 23.5977Z" fill="#FF5400"/>
<path opacity="0.7" d="M130.442 35.602V67.0292C130.448 67.0705 130.448 67.1126 130.442 67.154C130.428 67.637 130.304 68.1104 130.079 68.5381C130.015 68.6566 129.943 68.7703 129.864 68.8785C129.466 69.4508 128.892 69.8772 128.23 70.0925C128.049 70.1514 127.863 70.1932 127.674 70.2173C127.568 70.229 127.462 70.229 127.356 70.2173H95.5887C95.3738 70.2072 95.1606 70.173 94.9534 70.1152H94.8626C94.6334 70.0404 94.4128 69.9415 94.2046 69.8202C94.06 69.7427 93.9232 69.6516 93.7961 69.5479C93.5926 69.3897 93.4097 69.2068 93.2515 69.0033C93.1441 68.8667 93.0528 68.7182 92.9792 68.5608C92.7145 68.0941 92.5776 67.5657 92.5821 67.0292V35.602C92.5817 34.7649 92.9071 33.9604 93.4895 33.359C94.0719 32.7576 94.8654 32.4064 95.7022 32.3799H127.22C127.643 32.3799 128.062 32.4632 128.453 32.6251C128.844 32.7871 129.199 33.0244 129.498 33.3236C129.798 33.6228 130.035 33.978 130.197 34.369C130.359 34.7599 130.442 35.1789 130.442 35.602Z" fill="white"/>
<path d="M198.03 45.8238H144.558C144.187 45.8238 143.831 45.6772 143.567 45.4158C143.304 45.1544 143.154 44.7995 143.151 44.4283C143.151 44.0552 143.3 43.6974 143.563 43.4335C143.827 43.1697 144.185 43.0215 144.558 43.0215H198.03C198.403 43.0215 198.761 43.1697 199.025 43.4335C199.288 43.6974 199.437 44.0552 199.437 44.4283C199.434 44.7995 199.284 45.1544 199.021 45.4158C198.757 45.6772 198.401 45.8238 198.03 45.8238Z" fill="white"/>
<path d="M180.851 32.3797H145.146C144.872 32.359 144.597 32.3951 144.337 32.4858C144.078 32.5765 143.84 32.7197 143.638 32.9067C143.437 33.0936 143.276 33.3201 143.166 33.5721C143.056 33.824 142.999 34.0959 142.999 34.3708C142.999 34.6457 143.056 34.9177 143.166 35.1696C143.276 35.4216 143.437 35.6481 143.638 35.835C143.84 36.0219 144.078 36.1652 144.337 36.2559C144.597 36.3466 144.872 36.3827 145.146 36.362H180.851C181.125 36.3827 181.4 36.3466 181.66 36.2559C181.919 36.1652 182.157 36.0219 182.359 35.835C182.56 35.6481 182.721 35.4216 182.831 35.1696C182.941 34.9177 182.998 34.6457 182.998 34.3708C182.998 34.0959 182.941 33.824 182.831 33.5721C182.721 33.3201 182.56 33.0936 182.359 32.9067C182.157 32.7197 181.919 32.5765 181.66 32.4858C181.4 32.3951 181.125 32.359 180.851 32.3797Z" fill="white"/>
<path d="M176.473 51.5871H144.558C144.186 51.5842 143.83 51.435 143.567 51.1718C143.304 50.9086 143.154 50.5525 143.151 50.1803C143.154 49.8081 143.304 49.452 143.567 49.1888C143.83 48.9256 144.186 48.7764 144.558 48.7734H176.473C176.845 48.7764 177.202 48.9256 177.465 49.1888C177.728 49.452 177.877 49.8081 177.88 50.1803C177.877 50.5525 177.728 50.9086 177.465 51.1718C177.202 51.435 176.845 51.5842 176.473 51.5871Z" fill="white"/>
<path d="M124.281 70.2523H102.497C102.441 69.7244 102.441 69.1919 102.497 68.6639C102.497 68.5051 102.497 68.3576 102.497 68.2215C102.516 68.0951 102.543 67.9701 102.577 67.8471C102.657 67.2735 102.868 66.7259 103.192 66.2461C103.517 65.7663 103.947 65.367 104.449 65.0787C104.88 64.9766 105.402 64.8745 105.992 64.7611L107.013 64.5909L108.045 64.4321C110.257 64.105 112.492 63.9533 114.728 63.9782C115.441 63.9879 116.153 64.0333 116.861 64.1144C117.067 64.1327 117.271 64.163 117.474 64.2051C118.622 64.3377 119.727 64.7253 120.707 65.3397C121.416 65.8659 122.036 66.5017 122.545 67.2231C122.841 67.6272 123.113 68.0477 123.362 68.4824C123.709 69.0502 124.016 69.6416 124.281 70.2523Z" fill="#263238"/>
<path d="M130.432 67.154C130.418 67.637 130.294 68.1104 130.069 68.5381C130.005 68.6566 129.933 68.7703 129.853 68.8785C129.456 69.4508 128.882 69.8772 128.22 70.0925C128.039 70.1514 127.852 70.1932 127.664 70.2173C127.558 70.229 127.451 70.229 127.346 70.2173H95.5784C95.3634 70.2072 95.1503 70.173 94.943 70.1152H94.8523C94.6231 70.0404 94.4025 69.9415 94.1942 69.8202C94.0497 69.7427 93.9129 69.6516 93.7858 69.5479C93.5823 69.3897 93.3994 69.2068 93.2412 69.0033C94.6594 68.8671 96.6449 68.6856 99.0501 68.4927L101.319 68.3112L102.147 68.2431H102.511L104.904 68.073C105.075 68.073 105.256 68.073 105.449 68.073C107.718 67.9028 110.26 67.7553 112.858 67.6191L117.01 67.4376L119.926 67.3355H120.8H121.662H122.581H122.932H124.294C126.393 67.1426 128.424 67.1313 130.432 67.154Z" fill="#263238"/>
<path opacity="0.8" d="M130.432 67.154C130.418 67.637 130.294 68.1104 130.069 68.5381C130.005 68.6566 129.933 68.7703 129.853 68.8785C129.456 69.4508 128.882 69.8772 128.22 70.0925C128.039 70.1514 127.852 70.1932 127.664 70.2173C127.558 70.229 127.451 70.229 127.346 70.2173H95.5784C95.3634 70.2072 95.1503 70.173 94.943 70.1152H94.8523C94.6231 70.0404 94.4025 69.9415 94.1942 69.8202C94.0497 69.7427 93.9129 69.6516 93.7858 69.5479C93.5823 69.3897 93.3994 69.2068 93.2412 69.0033C94.6594 68.8671 96.6449 68.6856 99.0501 68.4927L101.319 68.3112L102.147 68.2431H102.511L104.904 68.073C105.075 68.073 105.256 68.073 105.449 68.073C107.718 67.9028 110.26 67.7553 112.858 67.6191L117.01 67.4376L119.926 67.3355H120.8H121.662H122.581H122.932H124.294C126.393 67.1426 128.424 67.1313 130.432 67.154Z" fill="white"/>
<path d="M119.268 70.2503H110.509L110.123 70.1708C108.427 69.8541 106.838 69.1124 105.506 68.0152L105.233 67.7542C106.112 66.8738 106.752 65.7846 107.094 64.5888C107.162 64.3619 107.242 64.1237 107.298 63.8854C107.689 62.3264 107.899 60.7274 107.922 59.1203C107.928 59.0296 107.928 58.9387 107.922 58.848C107.951 57.4246 107.906 56.0007 107.786 54.5821C107.673 53.3227 107.537 52.1201 107.366 51.0082C107.264 50.3275 107.162 49.6808 107.049 49.0908L108.036 49.9531L108.126 50.0212L112.052 53.4248L113.187 54.4005L117.18 57.8723C117.015 58.4813 116.883 59.0986 116.783 59.7216V59.8918C116.597 60.9256 116.574 61.9822 116.715 63.0232C116.738 63.2066 116.772 63.3885 116.817 63.5677C116.862 63.7565 116.919 63.9422 116.987 64.1237C116.983 64.1651 116.983 64.207 116.987 64.2485C117.194 64.7854 117.49 65.2839 117.861 65.7234C118.45 66.3933 119.178 66.9275 119.994 67.2891C120.584 67.5605 121.2 67.7733 121.832 67.9244C122.411 68.9796 120.743 69.7737 119.268 70.2503Z" fill="#E4897B"/>
<path opacity="0.2" d="M109.136 54.3105C109.045 60.7889 114.207 62.9899 116.772 63.5572C116.527 62.3441 116.527 61.0943 116.772 59.8812L109.136 54.3105Z" fill="#333333"/>
<path d="M122.546 70.2511H104.779L102.51 68.6628L102.079 68.3564L102.204 68.243L102.646 67.8459L104.507 66.1667L106.061 64.7599L107.139 63.7842L107.298 63.8863L108.126 64.4309L112.937 67.5622L116.17 69.6839L117.089 67.4147L117.77 65.6902H117.872L120.879 67.2219L121.185 67.3807C121.431 67.5079 121.654 67.6768 121.843 67.8799C122.04 68.088 122.198 68.3302 122.308 68.5947C122.34 68.6608 122.366 68.729 122.388 68.7989C122.56 69.2623 122.615 69.7614 122.546 70.2511Z" fill="white"/>
<path d="M123.498 33.9679C126.72 35.8399 127.435 43.7024 122.988 48.8646C118.54 54.0268 114.093 35.25 114.093 35.25C114.093 35.25 121.445 32.7767 123.498 33.9679Z" fill="#263238"/>
<path d="M109.328 60.5955C110.847 61.9817 112.776 62.8347 114.824 63.0252C116.871 63.2156 118.925 62.733 120.674 61.6506C122.962 60.2758 124.642 58.0812 125.371 55.5127C125.473 55.161 125.552 54.7979 125.632 54.3781C126.766 47.5708 125.076 36.577 117.588 34.0696C115.935 33.5053 114.166 33.374 112.449 33.6884C110.731 34.0028 109.123 34.7523 107.778 35.8653C106.433 36.9784 105.395 38.4177 104.765 40.046C104.135 41.6742 103.932 43.4368 104.177 45.1655C105.13 52.6309 105.312 57.0103 109.328 60.5955Z" fill="#E4897B"/>
<path d="M115.66 46.5846C115.66 47.1859 116.046 47.7191 116.443 47.6284C116.84 47.5376 117.123 47.0951 117.089 46.4938C117.055 45.8925 116.692 45.4273 116.307 45.45C115.921 45.4727 115.626 45.9719 115.66 46.5846Z" fill="#263238"/>
<path d="M122.513 46.1423C122.513 46.755 122.91 47.2768 123.307 47.1974C123.704 47.118 123.987 46.6528 123.953 46.0629C123.919 45.4729 123.556 44.9283 123.159 45.0077C122.762 45.0872 122.478 45.575 122.513 46.1423Z" fill="#263238"/>
<path d="M120.355 46.583C121.193 48.3918 122.277 50.0756 123.578 51.5864C123.179 51.9104 122.715 52.1433 122.217 52.2688C121.719 52.3942 121.2 52.4091 120.696 52.3125L120.355 46.583Z" fill="#DE5753"/>
<path d="M124.861 43.0556C124.806 43.0886 124.743 43.1061 124.679 43.1061C124.615 43.1061 124.552 43.0886 124.498 43.0556C124.108 42.8361 123.673 42.7096 123.226 42.686C122.779 42.6624 122.333 42.7423 121.922 42.9195C121.882 42.9467 121.836 42.9652 121.788 42.9738C121.74 42.9825 121.691 42.9811 121.644 42.9697C121.596 42.9583 121.552 42.9372 121.513 42.9078C121.474 42.8783 121.442 42.8411 121.418 42.7985C121.395 42.7559 121.38 42.7089 121.376 42.6604C121.371 42.6119 121.377 42.563 121.392 42.5167C121.407 42.4705 121.432 42.428 121.465 42.3918C121.498 42.3557 121.537 42.3267 121.582 42.3068C122.095 42.0707 122.656 41.9599 123.221 41.9836C123.785 42.0073 124.335 42.1647 124.827 42.4429C124.869 42.4634 124.906 42.4921 124.937 42.5273C124.968 42.5625 124.991 42.6035 125.006 42.6478C125.021 42.6922 125.027 42.7391 125.023 42.7857C125.02 42.8324 125.007 42.8778 124.985 42.9195C124.951 42.9706 124.909 43.0164 124.861 43.0556Z" fill="#263238"/>
<path d="M114.128 43.9283C114.062 43.9461 113.991 43.9461 113.924 43.9283C113.891 43.8956 113.865 43.8568 113.847 43.8139C113.83 43.7711 113.82 43.7251 113.82 43.6787C113.82 43.6323 113.83 43.5864 113.847 43.5435C113.865 43.5007 113.891 43.4618 113.924 43.4291C114.323 43.0266 114.812 42.7251 115.351 42.5495C115.889 42.3739 116.462 42.3293 117.022 42.4194C117.115 42.441 117.195 42.4984 117.246 42.5791C117.297 42.6598 117.314 42.7573 117.294 42.8505C117.27 42.9413 117.211 43.0193 117.131 43.068C117.051 43.1166 116.954 43.1322 116.863 43.1115C116.419 43.0549 115.968 43.1012 115.545 43.2468C115.122 43.3924 114.738 43.6333 114.423 43.951C114.376 43.9697 114.324 43.9773 114.273 43.9734C114.222 43.9695 114.173 43.9541 114.128 43.9283Z" fill="#263238"/>
<path d="M109.09 35.5791L109.34 36.7137C108.341 37.4057 108.33 40.8207 108.976 42.0574C110.338 44.6896 109.249 49.1257 107.331 51.0658C107.331 51.0658 107.138 49.9312 106.197 50.2829C105.255 50.6346 106.197 56.852 108.466 59.5863C108.466 59.5863 105.198 57.2377 102.793 50.9183C100.524 45.064 99.8093 40.0719 100.796 37.5986L109.09 35.5791Z" fill="#263238"/>
<path d="M101.353 51.542C102.285 53.1748 103.828 54.3705 105.642 54.8662C108.047 55.5015 109.227 53.3345 108.535 51.0768C107.9 49.08 105.903 46.2663 103.486 46.652C102.961 46.7353 102.466 46.9493 102.045 47.2746C101.625 47.5998 101.293 48.0256 101.08 48.5128C100.868 49 100.781 49.5329 100.829 50.0623C100.877 50.5917 101.057 51.1006 101.353 51.542Z" fill="#E4897B"/>
<path d="M120.357 54.2649C120.028 55.1557 119.767 56.0696 119.574 56.9992H119.075C116.806 56.8744 115.807 56.0688 115.376 55.2179C115.18 54.7952 115.083 54.3335 115.092 53.8678C115.091 53.6026 115.129 53.3387 115.206 53.085C116.567 53.7726 118.061 54.1596 119.585 54.2195C119.841 54.2484 120.099 54.2635 120.357 54.2649Z" fill="#263238"/>
<path d="M119.585 54.2076L119.335 55.0131C117.202 54.8883 115.727 54.5139 115.092 53.8785C115.09 53.6134 115.128 53.3495 115.205 53.0957C116.569 53.7755 118.062 54.1547 119.585 54.2076Z" fill="white"/>
<path d="M119.075 57.0098C116.806 56.885 115.807 56.0794 115.376 55.2285C116.235 55.2922 117.076 55.5072 117.861 55.8639C118.375 56.1093 118.8 56.5101 119.075 57.0098Z" fill="#DE5753"/>
<path d="M122.954 54.6175C122.516 54.0033 121.882 53.5564 121.156 53.3502C120.431 53.144 119.656 53.1908 118.961 53.483C118.224 52.6343 117.204 52.082 116.09 51.9286C115.353 51.8979 114.617 52.0145 113.926 52.2717C113.234 52.5288 112.601 52.9213 112.063 53.4263C111.928 53.5695 111.803 53.7211 111.688 53.8801C111.333 54.4167 111.075 55.0121 110.928 55.6386C110.567 57.1357 110.61 58.7019 111.053 60.1769C111.278 61.014 111.689 61.7897 112.255 62.446C112.75 63.0094 113.367 63.4519 114.059 63.7394C114.309 63.8415 114.547 63.9209 114.797 64.0003C115.503 64.209 116.24 64.2972 116.975 64.2613C117.168 64.2613 117.35 64.2613 117.542 64.2613C118.549 64.1452 119.513 63.7927 120.357 63.2328C121.201 62.6728 121.9 61.9211 122.398 61.0391C122.591 60.6732 122.758 60.294 122.898 59.9046C123.669 57.8397 123.76 55.5025 122.954 54.6175ZM113.174 54.3906C113.278 54.0073 113.48 53.6579 113.761 53.3772C114.041 53.0965 114.391 52.8943 114.774 52.7909C115.478 52.5993 116.221 52.6036 116.923 52.8036C117.625 53.0036 118.259 53.3915 118.756 53.9255C118.756 53.9255 121.945 52.6548 122.376 56.1038C122.807 59.5528 120.47 61.2206 119.097 60.347C117.724 59.4734 118.893 57.9078 118.893 57.9078L117.395 57.488C117.47 58.2668 117.247 59.0451 116.771 59.6663L116.669 59.7911C116.525 59.9738 116.345 60.1238 116.139 60.2312C115.933 60.3385 115.706 60.4007 115.474 60.4136C115.242 60.4265 115.01 60.3898 114.794 60.3059C114.577 60.222 114.381 60.093 114.218 59.9273C113.477 59.1506 113.032 58.139 112.959 57.0682C112.822 56.171 112.896 55.2544 113.174 54.3906Z" fill="#263238"/>
<path d="M107.581 37.5867C108.727 36.7919 110.052 36.2922 111.437 36.1319C112.823 35.9716 114.226 36.1556 115.523 36.6677C119.642 38.0973 120.833 38.5284 122.206 35.4538C123.579 32.3791 121.151 25.3335 115.546 25.118C109.941 24.9024 106.526 32.1976 106.526 32.1976C106.526 32.1976 97.7109 35.4424 100.74 43.6452L107.581 37.5867Z" fill="#263238"/>
<path d="M93.2508 69.0028C93.1434 68.8662 93.052 68.7178 92.9785 68.5603L100.455 67.1081L100.818 67.04L101.42 68.3107C101.669 68.8213 101.976 69.4453 102.361 70.2508H95.6561C95.4411 70.2408 95.228 70.2066 95.0207 70.1487H94.9299C94.7008 70.074 94.4802 69.9751 94.2719 69.8537C94.1273 69.7763 93.9905 69.6851 93.8635 69.5814C93.6338 69.4174 93.4277 69.2227 93.2508 69.0028Z" fill="#263238"/>
<path d="M130.442 66.5753V67.0291C130.449 67.0705 130.449 67.1125 130.442 67.1539C130.428 67.6369 130.304 68.1103 130.079 68.5381C130.016 68.6565 129.944 68.7703 129.864 68.8784C129.466 69.4507 128.893 69.8771 128.23 70.0924C128.049 70.1513 127.863 70.1931 127.674 70.2172C127.568 70.2289 127.462 70.2289 127.356 70.2172H124.066C123.851 69.5478 123.658 68.9465 123.476 68.436C123.295 67.9254 123.147 67.5056 123.011 67.1653C122.784 66.5639 122.637 66.2122 122.603 66.1328L130.442 66.5753Z" fill="#263238"/>
<path d="M105.687 70.2507H97.9268C98.2492 69.6304 98.6291 69.0416 99.0613 68.4922C99.4785 67.9848 99.946 67.521 100.457 67.108C101.621 66.0782 103.039 65.3772 104.564 65.0771C104.494 65.4521 104.494 65.8368 104.564 66.2117C104.671 66.8494 104.822 67.4787 105.018 68.0951C105.131 68.7077 105.381 69.4906 105.687 70.2507Z" fill="#263238"/>
<path d="M128.22 70.0927C128.039 70.1516 127.853 70.1934 127.664 70.2175C127.559 70.2292 127.452 70.2292 127.347 70.2175H122.888C122.729 69.741 122.57 69.2759 122.4 68.822C122.379 68.7521 122.352 68.6839 122.321 68.6178C122.139 68.13 121.946 67.6648 121.731 67.1996C121.451 66.5442 121.137 65.9042 120.789 65.2822C121.393 65.5281 121.983 65.8045 122.559 66.1104C123.07 66.3714 123.694 66.7004 124.329 67.1202C125.71 67.9965 127.012 68.9911 128.22 70.0927Z" fill="#263238"/>
<path opacity="0.2" d="M172.965 200.328H54.7783C53.0952 200.328 51.4809 200.996 50.2897 202.185C49.0985 203.374 48.4278 204.987 48.4248 206.67V249.409C48.4278 251.092 49.0985 252.705 50.2897 253.894C51.4809 255.083 53.0952 255.751 54.7783 255.751H141.163L152.577 262.468L149.173 255.751H172.999C174.682 255.751 176.296 255.083 177.487 253.894C178.679 252.705 179.349 251.092 179.352 249.409V206.67C179.351 205.834 179.184 205.006 178.862 204.235C178.54 203.463 178.069 202.762 177.475 202.173C176.882 201.584 176.178 201.118 175.404 200.801C174.63 200.484 173.801 200.324 172.965 200.328Z" fill="#333333"/>
<path d="M176.369 196.924H58.1826C56.4995 196.924 54.8852 197.592 53.694 198.781C52.5028 199.97 51.8321 201.583 51.8291 203.266V246.005C51.8321 247.688 52.5028 249.301 53.694 250.49C54.8852 251.679 56.4995 252.347 58.1826 252.347H144.568L152.578 264.634V252.347H176.403C178.086 252.347 179.701 251.679 180.892 250.49C182.083 249.301 182.754 247.688 182.757 246.005V203.266C182.755 202.43 182.589 201.602 182.267 200.83C181.944 200.059 181.473 199.358 180.88 198.769C180.286 198.18 179.582 197.713 178.808 197.397C178.034 197.08 177.205 196.919 176.369 196.924Z" fill="#FF5400"/>
<path opacity="0.7" d="M98.8441 208.928V240.355C98.8439 240.881 98.7154 241.399 98.4697 241.864C98.4061 241.983 98.334 242.097 98.2541 242.205C98.0013 242.567 97.6763 242.873 97.2994 243.103C96.9226 243.334 96.5021 243.484 96.0645 243.543C95.9589 243.555 95.8524 243.555 95.7468 243.543H63.9793C63.7643 243.533 63.5512 243.499 63.3439 243.441H63.2531C63.024 243.367 62.8034 243.268 62.5951 243.146C62.4505 243.069 62.3137 242.978 62.1867 242.874C61.8062 242.574 61.4992 242.191 61.2888 241.755C61.0785 241.318 60.9704 240.84 60.9727 240.355V208.928C60.9723 208.091 61.2977 207.287 61.8801 206.685C62.4624 206.084 63.256 205.733 64.0927 205.706H95.6106C96.0347 205.705 96.4549 205.787 96.8472 205.948C97.2394 206.109 97.596 206.346 97.8964 206.646C98.1968 206.945 98.4351 207.301 98.5978 207.693C98.7604 208.084 98.8441 208.504 98.8441 208.928Z" fill="white"/>
<path d="M96.0655 243.544C95.9599 243.556 95.8534 243.556 95.7478 243.544H94.1367V243.067H94.2388C94.8741 243.113 95.4983 243.258 96.0882 243.499L96.0655 243.544Z" fill="#263238"/>
<path opacity="0.4" d="M96.0655 243.544C95.9599 243.556 95.8534 243.556 95.7478 243.544H94.1367V243.067H94.2388C94.8741 243.113 95.4983 243.258 96.0882 243.499L96.0655 243.544Z" fill="white"/>
<path d="M95.7365 243.565H83.438H67.7131L67.7925 243.724C67.758 243.673 67.7276 243.62 67.7017 243.565H64.0371C65.0922 243.395 66.2495 243.225 67.4408 243.088L68.2009 242.998C69.2107 242.873 70.2431 242.771 71.2642 242.691H71.5479C73.3858 242.544 75.2125 242.43 77.0504 242.351H77.4702C78.3438 242.351 79.2061 242.283 80.0684 242.271C81.3504 242.271 82.6324 242.271 83.9145 242.271H84.652C85.5936 242.271 86.5467 242.271 87.4883 242.328L88.5435 242.419C88.8498 242.419 89.1448 242.476 89.4511 242.487C90.2907 242.578 91.1076 242.68 91.8904 242.793L93.025 242.964L93.5809 243.054L94.1028 243.134H94.1936C94.6773 243.212 95.1497 243.35 95.6004 243.542L95.7365 243.565Z" fill="#263238"/>
<path d="M88.9193 243.576H83.4394H72.6611C72.2622 243.301 71.8831 242.997 71.5266 242.669L71.0273 242.204C71.7712 241.578 72.3777 240.806 72.8086 239.935C74.1701 237.257 73.9432 233.933 73.5914 231.562C73.4439 230.427 73.2624 229.565 73.217 229.031C73.2122 228.971 73.2122 228.91 73.217 228.85C73.217 228.68 73.217 228.566 73.2851 228.532L73.5007 228.612L74.0339 228.805L74.2949 228.895L83.3032 232.129C83.2352 232.424 83.1784 232.719 83.1217 233.014C83.065 233.309 83.0082 233.615 82.9742 233.91L82.9061 234.466C82.8612 234.865 82.8384 235.267 82.8381 235.669C82.8226 236.435 82.9182 237.199 83.1217 237.938C83.3201 238.683 83.6848 239.373 84.1882 239.957C84.3369 240.144 84.5041 240.315 84.6874 240.468C85.7521 241.325 87.0168 241.899 88.3633 242.136C88.423 242.234 88.4761 242.336 88.5222 242.442C88.7125 242.797 88.8465 243.18 88.9193 243.576Z" fill="#EBB376"/>
<path opacity="0.2" d="M83.1434 237.859C79.7398 237.156 75.8596 234.796 74.8385 231.892C74.4426 230.89 74.1794 229.841 74.0557 228.771L83.325 232.096C82.7925 233.973 82.7301 235.952 83.1434 237.859Z" fill="#333333"/>
<path d="M71.957 217.743C72.581 225.027 72.5924 229.327 76.3932 232.957C82.0659 238.448 91.0062 234.875 92.5832 227.534C93.9901 220.931 92.708 210.119 85.4809 207.396C83.0161 206.442 80.2739 206.504 77.8543 207.567C75.4348 208.63 73.5347 210.608 72.5697 213.069C72.0037 214.558 71.7939 216.158 71.957 217.743Z" fill="#EBB376"/>
<path d="M83.097 219.502C83.097 220.092 83.426 220.557 83.8231 220.557C84.2202 220.557 84.5152 220.047 84.5038 219.423C84.4925 218.799 84.1521 218.356 83.7664 218.367C83.3806 218.379 83.0857 218.889 83.097 219.502Z" fill="#263238"/>
<path d="M89.8138 219.32C89.8138 219.91 90.1541 220.387 90.5399 220.375C90.9256 220.364 91.232 219.876 91.2206 219.241C91.2093 218.606 90.8803 218.174 90.4945 218.186C90.1088 218.197 89.8024 218.764 89.8138 219.32Z" fill="#263238"/>
<path d="M87.6816 219.672C88.4408 221.47 89.4408 223.157 90.6542 224.687C90.2548 224.99 89.7935 225.2 89.3032 225.304C88.8129 225.408 88.3057 225.403 87.8178 225.288L87.6816 219.672Z" fill="#D58745"/>
<path d="M80.9529 217.369C81.015 217.378 81.0786 217.371 81.1367 217.347C81.1948 217.323 81.2451 217.283 81.282 217.232C81.5338 216.861 81.8715 216.555 82.2665 216.342C82.6615 216.129 83.1022 216.014 83.5511 216.007C83.6436 216.007 83.7326 215.972 83.8001 215.909C83.8676 215.846 83.9084 215.759 83.9141 215.667C83.9117 215.575 83.8757 215.487 83.813 215.42C83.7503 215.354 83.6651 215.312 83.5738 215.304C83.02 215.311 82.4763 215.453 81.9899 215.718C81.5036 215.983 81.0892 216.363 80.7828 216.824C80.7505 216.855 80.7248 216.892 80.7073 216.933C80.6897 216.974 80.6807 217.018 80.6807 217.062C80.6807 217.107 80.6897 217.151 80.7073 217.192C80.7248 217.233 80.7505 217.27 80.7828 217.301L80.9529 217.369Z" fill="#263238"/>
<path d="M85.1066 228.067C84.2473 228.016 83.4133 227.757 82.6763 227.312C81.9392 226.868 81.321 226.251 80.8747 225.515C80.8541 225.471 80.8508 225.421 80.8655 225.374C80.8802 225.328 80.9119 225.289 80.9541 225.265C80.995 225.244 81.0424 225.239 81.0867 225.252C81.1309 225.265 81.1687 225.294 81.1924 225.333C81.6201 226.004 82.1988 226.566 82.8824 226.974C83.566 227.382 84.3354 227.624 85.1293 227.682C85.1531 227.683 85.1764 227.689 85.1979 227.7C85.2194 227.71 85.2386 227.725 85.2544 227.743C85.2702 227.761 85.2823 227.782 85.2901 227.804C85.2978 227.827 85.301 227.851 85.2994 227.875C85.2994 227.898 85.2947 227.922 85.2856 227.944C85.2765 227.966 85.2631 227.986 85.2463 228.003C85.2294 228.02 85.2094 228.033 85.1874 228.042C85.1654 228.051 85.1417 228.056 85.1179 228.056L85.1066 228.067Z" fill="#263238"/>
<path d="M92.6384 216.982C92.6707 216.996 92.7054 217.003 92.7405 217.003C92.7756 217.003 92.8103 216.996 92.8426 216.982C92.8843 216.963 92.9216 216.936 92.9523 216.901C92.983 216.867 93.0065 216.827 93.0213 216.784C93.0361 216.74 93.042 216.694 93.0386 216.648C93.0352 216.603 93.0226 216.558 93.0015 216.517C92.7579 216.017 92.3979 215.583 91.9517 215.252C91.5055 214.92 90.9861 214.7 90.4374 214.611C90.3446 214.605 90.2529 214.634 90.1811 214.693C90.1094 214.752 90.063 214.837 90.0516 214.929C90.0453 215.02 90.075 215.111 90.1343 215.181C90.1936 215.251 90.278 215.295 90.3693 215.303C90.8007 215.387 91.2066 215.57 91.5551 215.838C91.9036 216.106 92.1852 216.451 92.3775 216.846C92.4067 216.888 92.4458 216.923 92.4912 216.946C92.5367 216.97 92.5871 216.982 92.6384 216.982Z" fill="#263238"/>
<path d="M74.0093 223.7C74.0093 223.7 77.7987 217.153 75.8926 211.866C78.3471 211.197 80.9615 211.447 83.2445 212.57C83.1755 211.721 83.008 210.884 82.7453 210.074C82.7453 210.074 89.269 209.654 93.0358 213.353C92.6806 210.948 91.5444 208.728 89.8023 207.033C90.742 206.75 91.7443 206.75 92.684 207.033C92.684 207.033 86.7503 202.257 77.4356 204.98C68.1209 207.703 65.2165 213.353 67.3494 221.658C69.4824 229.962 73.9752 231.778 73.9752 231.778C73.9752 231.778 72.1146 225.458 72.523 224.04C72.9314 222.622 74.0093 223.7 74.0093 223.7Z" fill="#263238"/>
<path d="M68.8709 225.877C69.8968 227.403 71.4825 228.463 73.2843 228.827C75.6782 229.292 76.688 227.103 75.8484 224.936C75.0996 223.03 72.9553 220.398 70.6295 220.953C70.1227 221.071 69.6536 221.315 69.2653 221.661C68.8769 222.007 68.5817 222.446 68.4067 222.936C68.2317 223.426 68.1825 223.952 68.2636 224.466C68.3447 224.98 68.5535 225.465 68.8709 225.877Z" fill="#EBB376"/>
<path d="M80.2159 243.418L80.6357 243.577H67.7017C67.611 243.418 67.5316 243.259 67.4521 243.089L71.6046 239.106C72.0048 239.413 72.4214 239.697 72.8526 239.957C74.3389 240.857 75.8856 241.653 77.4816 242.34C77.9581 242.555 78.4573 242.76 78.9906 242.975L80.2159 243.418Z" fill="#263238"/>
<path d="M89.461 242.442V243.577H83.4365L83.516 243.395C83.6796 243.03 83.8088 242.65 83.9017 242.26C83.907 242.238 83.907 242.215 83.9017 242.192C83.9584 241.943 84.0151 241.682 84.0605 241.387C84.1317 240.879 84.1696 240.368 84.174 239.855C84.174 239.481 84.174 239.072 84.174 238.63L89.461 242.442Z" fill="#263238"/>
<path opacity="0.2" d="M84.6618 242.227C84.5813 242.62 84.4517 243.001 84.2761 243.362V243.532H83.4365L83.5273 243.35C83.691 242.985 83.8201 242.605 83.913 242.216C83.913 242.216 83.913 242.216 83.913 242.148C83.9821 241.883 84.0352 241.614 84.0719 241.342C84.1524 240.84 84.1942 240.331 84.1967 239.822C84.1967 239.436 84.1967 239.028 84.1967 238.597C84.5036 239.128 84.6895 239.721 84.7413 240.333C84.8181 240.964 84.7913 241.604 84.6618 242.227Z" fill="#333333"/>
<path d="M166.43 219.15H112.936C112.751 219.15 112.569 219.114 112.399 219.043C112.229 218.972 112.075 218.868 111.945 218.737C111.815 218.606 111.712 218.451 111.643 218.281C111.574 218.11 111.539 217.927 111.54 217.743C111.54 217.373 111.687 217.018 111.949 216.756C112.211 216.495 112.565 216.348 112.936 216.348H166.396C166.767 216.348 167.123 216.494 167.387 216.756C167.65 217.017 167.8 217.372 167.803 217.743C167.803 218.11 167.659 218.463 167.403 218.726C167.146 218.989 166.797 219.141 166.43 219.15Z" fill="white"/>
<path d="M149.24 205.705H113.558C113.056 205.743 112.587 205.969 112.245 206.338C111.902 206.708 111.712 207.192 111.712 207.696C111.712 208.2 111.902 208.685 112.245 209.054C112.587 209.423 113.056 209.649 113.558 209.687H149.24C149.514 209.708 149.79 209.672 150.049 209.581C150.309 209.49 150.547 209.347 150.748 209.16C150.95 208.973 151.111 208.747 151.221 208.495C151.331 208.243 151.387 207.971 151.387 207.696C151.387 207.421 151.331 207.149 151.221 206.897C151.111 206.645 150.95 206.419 150.748 206.232C150.547 206.045 150.309 205.902 150.049 205.811C149.79 205.72 149.514 205.684 149.24 205.705Z" fill="white"/>
<path d="M144.873 224.924H112.936C112.565 224.924 112.211 224.777 111.949 224.516C111.687 224.254 111.54 223.899 111.54 223.529C111.539 223.345 111.574 223.162 111.643 222.991C111.712 222.821 111.815 222.666 111.945 222.535C112.075 222.404 112.229 222.3 112.399 222.229C112.569 222.159 112.751 222.122 112.936 222.122H144.839C145.212 222.122 145.57 222.27 145.834 222.534C146.098 222.798 146.246 223.156 146.246 223.529C146.243 223.894 146.098 224.244 145.842 224.505C145.586 224.765 145.239 224.916 144.873 224.924Z" fill="white"/>
<path d="M268.619 352.664C268.619 352.664 273.554 346.311 280.146 346.311C286.738 346.311 292.025 352.664 292.025 352.664H287.203C285.445 350.382 282.952 348.779 280.146 348.126C275.699 347.264 272.862 352.664 272.862 352.664H268.619Z" fill="#263238"/>
<path d="M312.378 351.554H254.584C251.489 351.554 248.979 354.063 248.979 357.158V398.093C248.979 401.189 251.489 403.698 254.584 403.698H312.378C315.474 403.698 317.983 401.189 317.983 398.093V357.158C317.983 354.063 315.474 351.554 312.378 351.554Z" fill="#263238"/>
<path opacity="0.2" d="M317.983 357.521V397.73C317.983 398.513 317.829 399.289 317.529 400.012C317.229 400.736 316.789 401.393 316.235 401.946C315.681 402.499 315.023 402.938 314.299 403.236C313.575 403.535 312.799 403.688 312.016 403.686H254.959C254.176 403.688 253.4 403.535 252.676 403.236C251.952 402.938 251.294 402.499 250.74 401.946C250.185 401.393 249.746 400.736 249.446 400.012C249.146 399.289 248.991 398.513 248.991 397.73V357.521C248.991 355.939 249.62 354.421 250.739 353.302C251.858 352.182 253.376 351.554 254.959 351.554H312.016C313.598 351.554 315.116 352.182 316.236 353.302C317.355 354.421 317.983 355.939 317.983 357.521Z" fill="white"/>
<path opacity="0.2" d="M313.525 357.521V397.73C313.525 398.513 313.37 399.289 313.07 400.012C312.77 400.736 312.33 401.393 311.776 401.946C311.222 402.499 310.564 402.938 309.84 403.236C309.116 403.535 308.34 403.688 307.557 403.686H254.959C254.176 403.688 253.4 403.535 252.676 403.236C251.952 402.938 251.294 402.499 250.74 401.946C250.185 401.393 249.746 400.736 249.446 400.012C249.146 399.289 248.991 398.513 248.991 397.73V357.521C248.991 355.939 249.62 354.421 250.739 353.302C251.858 352.182 253.376 351.554 254.959 351.554H307.557C309.14 351.554 310.658 352.182 311.777 353.302C312.896 354.421 313.525 355.939 313.525 357.521Z" fill="white"/>
<path d="M314.887 352.291C313.783 352.849 312.856 353.702 312.209 354.756C311.561 355.809 311.22 357.022 311.222 358.259V379.452C311.222 379.805 311.153 380.154 311.017 380.48C310.882 380.805 310.684 381.101 310.434 381.35C310.184 381.599 309.888 381.796 309.562 381.929C309.235 382.063 308.886 382.131 308.533 382.13H250.058C249.706 382.133 249.357 382.066 249.03 381.932C248.704 381.799 248.408 381.602 248.158 381.352C247.909 381.103 247.712 380.807 247.579 380.481C247.445 380.154 247.378 379.805 247.381 379.452V358.259C247.379 357.378 247.552 356.505 247.888 355.691C248.225 354.877 248.719 354.137 249.342 353.514C249.964 352.891 250.704 352.398 251.518 352.061C252.333 351.725 253.205 351.552 254.086 351.554H312.017C313.02 351.554 314.007 351.808 314.887 352.291Z" fill="#263238"/>
<path opacity="0.2" d="M314.887 352.291C313.783 352.849 312.856 353.702 312.209 354.756C311.561 355.809 311.22 357.022 311.222 358.259V379.452C311.222 379.805 311.153 380.154 311.017 380.48C310.882 380.805 310.684 381.101 310.434 381.35C310.184 381.599 309.888 381.796 309.562 381.929C309.235 382.063 308.886 382.131 308.533 382.13H250.058C249.706 382.133 249.357 382.066 249.03 381.932C248.704 381.799 248.408 381.602 248.158 381.352C247.909 381.103 247.712 380.807 247.579 380.481C247.445 380.154 247.378 379.805 247.381 379.452V358.259C247.379 357.378 247.552 356.505 247.888 355.691C248.225 354.877 248.719 354.137 249.342 353.514C249.964 352.891 250.704 352.398 251.518 352.061C252.333 351.725 253.205 351.552 254.086 351.554H312.017C313.02 351.554 314.007 351.808 314.887 352.291Z" fill="white"/>
<path d="M274.667 380.677H279.125V387.564C279.125 387.839 279.071 388.112 278.966 388.367C278.86 388.621 278.706 388.853 278.511 389.048C278.316 389.243 278.084 389.397 277.83 389.503C277.575 389.608 277.302 389.662 277.026 389.662H276.754C276.479 389.662 276.206 389.608 275.951 389.503C275.696 389.397 275.465 389.243 275.27 389.048C275.075 388.853 274.921 388.621 274.815 388.367C274.71 388.112 274.655 387.839 274.655 387.564V380.677H274.667Z" fill="#263238"/>
<path d="M279.409 380.677H274.405C273.998 380.677 273.668 381.007 273.668 381.414V385.669C273.668 386.076 273.998 386.406 274.405 386.406H279.409C279.816 386.406 280.146 386.076 280.146 385.669V381.414C280.146 381.007 279.816 380.677 279.409 380.677Z" fill="white"/>
<path d="M279.126 376.184H274.667V385.169H279.126V376.184Z" fill="#263238"/>
<path d="M399.445 197.411L392.83 204.037C391.809 205.058 392.49 211.173 392.83 213.215C393.171 215.258 401.351 218.99 401.85 218.65C402.349 218.31 403.881 211.23 403.881 211.23L397.074 207.736L401.839 202.165L399.445 197.411Z" fill="#9F5B53"/>
<path d="M398.774 149.748C402.677 151.325 417.812 181.323 417.88 186.746C417.948 192.169 398.774 206.532 398.774 206.532L394.554 202.493C394.554 202.493 408.52 186.054 408.963 183.955C409.405 181.856 393.691 161.264 393.691 161.264L398.774 149.748Z" fill="#FF5400"/>
<path d="M395.348 199.953L401.191 206.534L398.774 208.326L393.691 202.642L395.348 199.953Z" fill="#FF5400"/>
<path opacity="0.2" d="M400.873 170.964C397.209 165.892 393.691 161.286 393.691 161.286L395.178 157.883C395.45 157.724 395.722 157.576 396.017 157.429C396.017 157.463 401.259 163.385 400.873 170.964Z" fill="#333333"/>
<path d="M366.292 124.811C365.44 126.213 364.423 127.508 363.263 128.668C363.523 129.082 363.893 129.416 364.332 129.632C364.77 129.849 365.26 129.939 365.747 129.893L366.292 124.811Z" fill="#A24E3F"/>
<path d="M365.328 123.301C365.26 124.096 365.635 124.776 366.168 124.81C366.701 124.844 367.178 124.243 367.234 123.449C367.291 122.655 366.917 121.985 366.395 121.94C365.873 121.894 365.385 122.507 365.328 123.301Z" fill="#2E353A"/>
<path d="M366.224 132.854C366.322 133.239 366.444 133.618 366.587 133.989C367.362 136.165 368.778 138.056 370.649 139.412C371.124 139.75 371.62 140.057 372.135 140.331C373.497 141.056 375.003 141.466 376.545 141.533C378.086 141.6 379.622 141.321 381.041 140.716C382.324 140.174 383.483 139.375 384.445 138.368C388.564 134.204 388.461 129.405 388.927 121.27C389.063 119.373 388.712 117.471 387.907 115.748C387.102 114.024 385.87 112.534 384.327 111.42C382.785 110.306 380.983 109.605 379.094 109.383C377.204 109.161 375.289 109.426 373.531 110.152C365.555 113.442 364.466 125.536 366.224 132.854Z" fill="#9F5B53"/>
<path opacity="0.2" d="M370.649 139.447C371.124 139.785 371.621 140.092 372.136 140.366C373.497 141.091 375.004 141.502 376.545 141.568C378.086 141.635 379.623 141.356 381.042 140.752C380.679 139.774 380.191 138.847 379.59 137.995C376.532 137.608 373.428 138.112 370.649 139.447Z" fill="#333333"/>
<path d="M387.02 150.042C383.004 153.684 373.19 152.311 373.19 152.311C373.19 152.311 367.064 150.644 368.357 148.726C371.965 148.125 373.712 146.457 374.438 144.29C374.826 142.954 374.949 141.555 374.801 140.172C374.737 139.411 374.635 138.653 374.495 137.903L386.623 128.917C385.035 134.783 383.095 145.686 387.02 150.042Z" fill="#9F5B53"/>
<path d="M375.845 106.68C375.845 106.68 373.701 105.364 370.025 108.824C366.939 111.74 370.025 114.077 368.175 117.821C366.326 121.565 368.833 125.253 368.833 125.253C368.833 125.253 370.615 129.088 373.723 128.849C373.723 128.849 376.253 131.913 375.845 135.089C375.437 138.266 379.997 140.762 386.203 140.694C392.409 140.626 389.925 136.734 389.925 136.734C391.724 134.661 393.179 132.313 394.236 129.78C395.487 126.695 396.086 123.384 395.995 120.057C396.052 118.329 395.765 116.608 395.149 114.993C394.534 113.378 393.602 111.902 392.409 110.651C388.268 105.988 378.42 103.64 375.845 106.68Z" fill="#263238"/>
<path d="M375.267 127.079C375.114 127.845 374.792 128.568 374.325 129.194C373.858 129.82 373.257 130.334 372.566 130.699C370.91 131.402 369.821 129.065 370.059 126.614C370.286 124.447 371.409 121.395 373.179 121.804C374.949 122.212 375.845 124.89 375.267 127.079Z" fill="#9F5B53"/>
<path d="M368.812 115.36C368.812 115.36 362.73 109.687 365.499 103.549C368.267 97.4115 368.812 103.549 368.812 103.549C368.812 103.549 373.407 99.8962 375.846 100.826C378.285 101.757 374.303 103.856 374.303 103.856C374.303 103.856 391.627 100.758 393.17 111.469C394.713 122.179 368.812 115.36 368.812 115.36Z" fill="#263238"/>
<path d="M367.302 121.35C367.239 121.352 367.176 121.338 367.119 121.31C367.061 121.283 367.012 121.242 366.973 121.191C366.88 121.05 366.758 120.929 366.615 120.837C366.473 120.746 366.313 120.684 366.145 120.658C366.039 120.661 365.935 120.622 365.857 120.55C365.778 120.478 365.731 120.378 365.725 120.272C365.719 120.167 365.753 120.064 365.821 119.984C365.888 119.903 365.984 119.852 366.088 119.841C366.393 119.849 366.692 119.93 366.959 120.079C367.225 120.227 367.452 120.437 367.62 120.692C367.654 120.734 367.679 120.783 367.694 120.835C367.709 120.887 367.714 120.941 367.707 120.995C367.701 121.049 367.684 121.101 367.657 121.148C367.631 121.196 367.595 121.237 367.552 121.27C367.481 121.325 367.392 121.353 367.302 121.35Z" fill="#2E353A"/>
<path d="M388.008 149.227L386.215 144.598C386.215 144.598 374.121 142.329 370.025 148.297C365.93 154.265 388.008 149.227 388.008 149.227Z" fill="#FF5400"/>
<path d="M355.741 395.902L347.254 396.787L346.823 391.874L345.666 378.498L354.152 377.602L355.435 392.373L355.741 395.902Z" fill="#9F5B53"/>
<path d="M398.083 394.824H389.857L389.789 392.964L389.778 392.737L389.358 380.812L389.347 380.574L389.177 376.002H397.414L398.083 394.824Z" fill="#9F5B53"/>
<path opacity="0.2" d="M354.152 377.602L355.435 392.373L346.823 391.874L345.666 378.498L354.152 377.602Z" fill="#333333"/>
<path opacity="0.2" d="M398.026 393.779H398.015L389.789 392.735H389.778L389.347 381.22H389.358L397.606 381.889L398.015 393.416L398.026 393.779Z" fill="#333333"/>
<path d="M388.723 394.325H398.707C398.871 394.326 399.03 394.383 399.157 394.486C399.285 394.589 399.374 394.732 399.41 394.892L401.032 402.221C401.096 402.536 401.033 402.863 400.856 403.13C400.68 403.398 400.405 403.585 400.091 403.651C400.004 403.663 399.916 403.663 399.83 403.651C396.596 403.594 394.248 403.39 390.186 403.39C387.69 403.39 380.145 403.662 376.696 403.662C373.247 403.662 372.793 400.259 374.2 399.93C380.542 398.557 385.307 396.639 387.338 394.824C387.721 394.49 388.215 394.311 388.723 394.325Z" fill="#263238"/>
<path d="M346.358 394.062H356.354C356.516 394.066 356.672 394.124 356.797 394.226C356.923 394.329 357.01 394.471 357.046 394.629L358.668 401.947C358.736 402.262 358.675 402.59 358.501 402.86C358.327 403.13 358.052 403.32 357.738 403.388H357.466C354.232 403.331 351.884 403.127 347.822 403.127C345.326 403.127 337.781 403.388 334.332 403.388C330.883 403.388 330.429 399.984 331.836 399.667C338.178 398.294 342.955 396.377 344.974 394.55C345.361 394.224 345.853 394.051 346.358 394.062Z" fill="#263238"/>
<path d="M344.895 390.637H356.955C356.955 390.637 355.968 286.825 369.016 251.756C369.935 263.351 370.967 275.377 371.977 285.395C372.624 291.601 373.248 296.922 373.838 300.984C377.638 327.079 387.225 391.68 387.225 391.68H399.138C399.138 391.68 397.72 329.836 396.313 304.127C394.747 276.239 394.044 214.917 394.044 209.687H350.386C346.234 231.651 335.58 319.511 344.895 390.637Z" fill="#263238"/>
<path opacity="0.2" d="M369.016 251.711C369.935 263.306 370.967 275.355 371.977 285.373C373.463 270.907 375.29 260.594 375.29 260.594C375.29 260.594 376.992 259.187 381.677 251.711C386.363 244.234 381.677 230.268 381.677 230.268C381.825 243.236 369.016 251.711 369.016 251.711Z" fill="#333333"/>
<path d="M343.533 387.244L344.123 390.636H358.373V387.505L343.533 387.244Z" fill="#FF5400"/>
<path d="M385.852 388.549L387.224 391.692H399.171L399.954 388.549H385.852Z" fill="#FF5400"/>
<path d="M395.099 212.591C395.099 212.591 393.42 202.697 395.916 173.846C396.562 166.414 397.481 158.336 398.775 149.748C398.775 149.748 375.051 144.506 358.498 149.748C358.498 149.748 357.817 153.265 356.887 159.244C356.308 162.84 355.65 167.333 354.992 172.495L354.924 173.074C353.279 185.645 350.148 194.96 349.83 211.842L395.099 212.591Z" fill="#FF5400"/>
<path opacity="0.2" d="M359.304 161.695C359.304 161.695 358.896 171.725 354.301 177.273C354.516 175.911 354.732 174.516 354.913 173.086L354.982 172.508C355.526 168.23 356.116 164.418 356.581 161.162C357.504 161.249 358.416 161.428 359.304 161.695Z" fill="#333333"/>
<path d="M350.329 142.306L353.676 138.097C354.026 137.145 354.495 136.242 355.072 135.408C355.559 134.977 361.641 132.004 362.049 132.186C363.177 134.068 364.192 136.015 365.09 138.017C365.407 138.675 360.551 140.979 359.258 141.308C358.439 141.498 357.581 141.439 356.796 141.137L354.164 145.403" fill="#9F5B53"/>
<path d="M358.646 149.794C355.242 151.178 351.475 154.979 346.166 160.391L355.435 143.656L350.647 140.831C350.647 140.831 331.462 167.663 331.462 171.385C331.462 175.106 336.499 178.022 355.741 167.981C355.741 167.981 360.858 160.663 360.858 156.363C360.961 153.975 360.173 151.633 358.646 149.794Z" fill="#FF5400"/>
<path d="M351.147 139.844L356.729 142.986L355.583 146.277L348.197 142.17L351.147 139.844Z" fill="#FF5400"/>
</g>
<defs>
<clipPath id="clip0_250_1161">
<rect width="437" height="437" fill="white"/>
</clipPath>
</defs>
</svg>
