<svg width="78" height="75" viewBox="0 0 78 75" fill="none" xmlns="http://www.w3.org/2000/svg">
<path d="M55.6753 65.6554C55.6753 65.6554 55.4783 71.4755 55.1125 72.0552C54.7466 72.635 52.0054 74.7739 50.2605 74.3855C48.5156 73.9971 49.0953 72.2522 49.0953 71.2841V55.957H55.6922L55.6753 65.6554Z" fill="#263238" stroke="#263238" stroke-linecap="round" stroke-linejoin="round"/>
<path d="M18.2334 60.6128C18.2334 60.6128 36.1497 51.2185 68.8526 56.9767C70.3563 57.2403 71.9032 56.8973 73.1545 56.0227C74.4058 55.1481 75.2594 53.8132 75.5283 52.3104L76.0012 49.6706C76.2284 48.4037 76.0255 47.0973 75.4247 45.9591C74.824 44.8208 73.8599 43.9161 72.6858 43.3889C64.0007 39.4882 43.7935 28.6697 33.1721 8.62012L18.2334 60.6128Z" fill="#FF5400" stroke="#263238" stroke-width="2" stroke-linecap="round" stroke-linejoin="round"/>
<path d="M34.2354 19.5059C34.2354 19.5059 42.9824 33.2287 57.5046 38.1989" stroke="white" stroke-width="2" stroke-linecap="round" stroke-linejoin="round"/>
<path d="M72.6853 43.3882C67.604 41.0895 62.7254 38.3668 58.1012 35.249C59.6266 40.1235 60.0657 47.4915 53.7559 55.2536C58.8189 55.5126 63.8609 56.0878 68.8521 56.976C70.3558 57.2396 71.9027 56.8966 73.154 56.022C74.4052 55.1474 75.2588 53.8125 75.5278 52.3097L76.0006 49.6699C76.2279 48.403 76.025 47.0966 75.4242 45.9584C74.8235 44.8201 73.8594 43.9154 72.6853 43.3882Z" fill="#263238" stroke="#263238" stroke-linecap="round" stroke-linejoin="round"/>
<path d="M32.5852 36.8006C37.6867 20.4818 36.7231 5.65865 30.4329 3.69225C24.1427 1.72585 14.9079 13.3608 9.80643 29.6797C4.70492 45.9985 5.66853 60.8216 11.9587 62.788C18.2489 64.7544 27.4837 53.1195 32.5852 36.8006Z" fill="#263238" stroke="#263238" stroke-linecap="round" stroke-linejoin="round"/>
<path d="M30.043 36.0095C34.6325 21.3285 34.0788 8.091 28.8064 6.44275C23.5339 4.7945 15.5392 15.3597 10.9497 30.0407C6.36018 44.7217 6.91384 57.9592 12.1863 59.6075C17.4588 61.2557 25.4535 50.6906 30.043 36.0095Z" fill="white" stroke="#263238" stroke-linecap="round" stroke-linejoin="round"/>
<path d="M32.1641 27.6059L26.9294 27.3301L22.9893 40.7377L27.1489 43.7379C28.2498 41.2201 29.2118 38.6439 30.0308 36.0209C30.9023 33.259 31.6146 30.4494 32.1641 27.6059Z" fill="#263238" stroke="#263238" stroke-linecap="round" stroke-linejoin="round"/>
<path d="M27.2278 34.6924C26.147 38.3961 24.2614 41.1035 23.0118 40.7377C21.7622 40.3718 21.6328 37.079 22.7135 33.3753C23.7942 29.6716 25.6855 26.9641 26.9294 27.33C28.1734 27.6959 28.3085 30.9943 27.2278 34.6924Z" fill="white" stroke="#263238" stroke-linecap="round" stroke-linejoin="round"/>
</svg>
