<svg width="96" height="96" viewBox="0 0 96 96" fill="none" xmlns="http://www.w3.org/2000/svg">
<path d="M94.6292 59.4153C92.3983 68.4445 87.5999 76.6353 80.8134 82.9988C74.0268 89.3624 65.5423 93.6267 56.384 95.2769H56.0174H55.8341C49.4372 96.361 42.8852 96.1116 36.5893 94.5442C34.5395 94.0567 32.5309 93.4103 30.5817 92.6107C30.2371 92.4981 29.9031 92.355 29.5838 92.1833C29.282 92.0782 28.9891 91.9488 28.7081 91.7966C26.6211 90.9913 24.6217 89.9752 22.7412 88.764C15.2145 84.1089 9.12226 77.4646 5.13794 69.5653C1.15362 61.666 -0.56763 52.8195 0.164496 44.0037C0.896622 35.1879 4.05358 26.746 9.28642 19.6113C14.5193 12.4766 21.6242 6.92691 29.8158 3.57566C38.0075 0.224411 46.9668 -0.797865 55.7034 0.621838C64.4401 2.04154 72.6138 5.84794 79.3211 11.6203C86.0284 17.3926 91.0081 24.906 93.7096 33.3301C96.4112 41.7541 96.7294 50.7607 94.6292 59.3542V59.4153Z" fill="white"/>
<path d="M57.565 72.8884L57.3817 73.56C57.3817 73.7432 57.2596 74.0689 57.1985 74.3131C57.1374 74.5573 56.9541 75.3715 56.7708 75.982C56.5875 76.9183 56.3228 78.0173 56.1395 79.1571C56.0216 79.625 55.94 80.1013 55.8951 80.5818C55.7729 81.4366 55.5896 82.3117 55.4674 83.248C55.3229 84.2732 55.2413 85.3064 55.2231 86.3416C55.106 87.3548 55.0584 88.3748 55.0805 89.3945C55.0718 89.9776 55.1403 90.5594 55.2842 91.1245V91.4298C55.4064 92.305 55.6507 93.6686 55.834 95.3375C49.4371 96.4217 42.885 96.1722 36.5892 94.6048C34.5394 94.1174 32.5308 93.4709 30.5816 92.6713C30.2369 92.5587 29.903 92.4157 29.5837 92.2439C29.2819 92.1388 28.989 92.0095 28.708 91.8572C28.708 89.8219 29.4615 85.2222 29.8892 79.6455C30.1336 76.8572 30.3168 73.8246 30.439 70.8328C30.439 70.1611 30.439 69.5913 30.439 68.9196V66.5587C30.439 66.3755 30.5816 66.3145 30.7649 66.3145C31.3301 66.3594 31.8789 66.526 32.3737 66.8029C32.7351 66.9467 33.0886 67.1098 33.4327 67.2914L35.1026 67.6781L39.0127 68.594L56.4653 72.6645L57.0152 72.7866L57.565 72.8884Z" fill="#FFCBB2"/>
<path d="M55.264 91.1451C55.264 91.1451 55.264 91.3283 55.264 91.4301C54.3474 91.5675 53.421 91.6287 52.4944 91.6132C34.3289 91.3486 31.8647 68.2686 31.8647 68.2686L39.0535 68.5332L57.5041 72.8479C56.0048 78.2349 55.1705 83.785 55.0196 89.3744C55.0458 89.971 55.1276 90.5638 55.264 91.1451Z" fill="#263238"/>
<path d="M25.7552 37.9022C23.4133 47.6308 30.1337 74.9036 37.3021 80.6431C47.6678 88.9674 63.7765 88.7842 70.7209 76.5725C77.3598 64.6661 67.992 29.2726 60.07 24.1437C48.401 16.5725 29.2172 23.5535 25.7552 37.9022Z" fill="#FFCBB2"/>
<path d="M52.0462 55.4258C52.0462 55.4258 51.924 55.5479 51.9444 55.6293C52.4535 57.4407 52.7183 59.6999 51.1909 60.6361C53.2478 59.9645 52.8608 57.0744 52.0462 55.4258Z" fill="#263238"/>
<path d="M50.0097 53.8992C46.9957 54.3877 48.1768 60.3714 50.9872 60.0051C53.7975 59.6387 52.5145 53.4922 50.0097 53.8992Z" fill="#263238"/>
<path d="M63.2266 52.7803C63.2266 52.7803 63.3895 52.7803 63.4098 52.9024C63.7153 54.7748 64.3874 56.973 66.1795 57.1358C66.1795 57.1358 66.1795 57.1358 66.1795 57.2579C64.0819 57.38 63.2266 54.5917 63.2266 52.7803Z" fill="#263238"/>
<path d="M64.4893 50.5012C67.4422 49.6871 68.8678 55.6301 66.1389 56.3832C63.41 57.1362 62.0251 51.1932 64.4893 50.5012Z" fill="#263238"/>
<path d="M47.0775 51.6408C47.8197 51.2528 48.5403 50.8247 49.2362 50.3586C50.0508 49.8498 50.7636 49.5445 51.1709 48.6286C51.2703 48.3603 51.274 48.0658 51.1812 47.795C51.0884 47.5243 50.9049 47.2939 50.6617 47.1429C50.1471 46.9014 49.5771 46.8023 49.0112 46.856C48.4452 46.9097 47.904 47.1142 47.4441 47.4482C46.4042 47.9811 45.5988 48.8802 45.1836 49.9719C45.105 50.2266 45.1016 50.4985 45.1739 50.755C45.2462 51.0115 45.391 51.2417 45.591 51.4179C45.791 51.5941 46.0377 51.7089 46.3014 51.7485C46.565 51.788 46.8345 51.7506 47.0775 51.6408Z" fill="#263238"/>
<path d="M66.3016 47.0406C65.4463 47.0406 64.6317 47.0406 63.7967 46.8982C62.9063 46.9635 62.0191 46.7347 61.2715 46.2469C61.0624 46.0542 60.9246 45.7967 60.8802 45.516C60.8358 45.2352 60.8876 44.9477 61.0271 44.7001C61.3757 44.2473 61.8386 43.8955 62.3684 43.6809C62.8981 43.4663 63.4755 43.3966 64.0411 43.4789C65.2114 43.4775 66.3416 43.9047 67.2181 44.6797C67.4079 44.8695 67.5384 45.1103 67.5937 45.3729C67.649 45.6355 67.6267 45.9085 67.5296 46.1586C67.4325 46.4088 67.2647 46.6254 67.0467 46.782C66.8287 46.9385 66.5698 47.0284 66.3016 47.0406Z" fill="#263238"/>
<path d="M53.6349 72.2171C54.1644 72.5631 54.7346 73.072 55.4066 72.9906C56.1001 72.8505 56.7539 72.5586 57.3209 72.1357C57.3209 72.1357 57.4431 72.1357 57.3209 72.1357C57.1251 72.5506 56.8216 72.9054 56.4419 73.1632C56.0622 73.4209 55.6203 73.5722 55.1622 73.6011C54.7648 73.5768 54.3833 73.4366 54.0648 73.1979C53.7463 72.9591 53.5047 72.6323 53.3701 72.2579C53.4312 72.2375 53.5534 72.1764 53.6349 72.2171Z" fill="#263238"/>
<path d="M54.4699 66.274C55.085 66.9235 55.8274 67.4393 56.6508 67.7895C57.4741 68.1397 58.3608 68.3166 59.2556 68.3093C60.0353 68.3046 60.8103 68.1881 61.5569 67.9633L61.9845 67.8208L62.3715 67.6784C62.4638 67.6366 62.5408 67.5671 62.5919 67.4796C62.643 67.392 62.6656 67.2908 62.6565 67.1899C62.6652 67.1291 62.6652 67.0675 62.6565 67.0067V66.8439C62.4122 65.4192 61.8419 63.2822 61.8419 63.2822C62.4122 63.4246 65.3244 64.0963 65.1207 63.2822C63.6771 56.8779 61.5822 50.6378 58.8687 44.6594C58.7669 44.4558 58.4614 44.6593 58.5225 44.7611C59.8462 50.6838 62.1882 56.3418 63.5934 62.2849C62.5548 62.0298 61.4846 61.927 60.4164 61.9796C60.2331 61.9796 61.5976 66.0501 61.6587 66.7421C60.5112 67.0919 59.305 67.2073 58.1119 67.0814C56.9189 66.9555 55.7634 66.591 54.7142 66.0094C54.4495 65.9891 54.3273 66.1519 54.4699 66.274Z" fill="#263238"/>
<path d="M60.5586 67.3325C59.9865 68.5125 59.1161 69.5227 58.0334 70.2633C57.4305 70.6571 56.7153 70.8429 55.9969 70.7924C54.4491 70.7924 54.1436 69.3474 54.164 68.1466C54.1959 67.4981 54.3053 66.8559 54.4899 66.2334C56.3426 67.2405 58.4701 67.6258 60.5586 67.3325Z" fill="#263238"/>
<path d="M58.0334 70.2631C57.4305 70.6569 56.7153 70.8427 55.9969 70.7923C54.4491 70.7923 54.1436 69.3472 54.164 68.1464C54.9534 68.0101 55.7657 68.1452 56.4684 68.5296C57.1711 68.9141 57.7228 69.5251 58.0334 70.2631Z" fill="#FF98B9"/>
<path d="M28.3617 61.674C28.3617 61.674 18.6069 46.2873 19.2994 37.2506C19.6048 33.18 25.1033 30.3103 25.1033 30.3103C24.6404 28.6587 24.6487 26.9106 25.1273 25.2634C25.6059 23.6163 26.5358 22.1356 27.8119 20.9887C32.5365 16.3686 44.226 17.142 44.226 17.142C44.226 17.142 51.5573 6.04973 62.3507 10.161C73.1441 14.2723 66.4236 26.4432 66.4236 26.4432C66.4236 26.4432 70.4966 31.9385 60.9659 36.4975C51.4351 41.0566 32.4551 37.1692 32.4551 37.1692C33.4833 43.7136 33.5245 50.3751 32.5773 56.9318C32.3767 58.0323 31.8774 59.0566 31.134 59.8929C30.3906 60.7292 29.4316 61.3453 28.3617 61.674Z" fill="#263238"/>
<path d="M46.0589 17.2646C43.6519 16.34 41.0794 15.9242 38.5035 16.0434C36.2044 16.0554 33.9244 16.4616 31.7627 17.2442C29.8115 17.8405 28.0599 18.9572 26.6964 20.4741C25.3328 21.9911 24.4089 23.8509 24.0241 25.8535C23.8842 26.8916 23.9545 27.9473 24.2309 28.9577C24.5072 29.9682 24.984 30.9128 25.6329 31.7354C25.6329 31.7354 25.7959 31.7354 25.7348 31.7354C23.1891 28.7436 24.3907 23.9403 26.8955 21.3351C29.9651 18.5469 33.9486 16.9762 38.0962 16.9186C40.7475 16.8259 43.4003 17.0514 45.9978 17.5902C46.041 17.5983 46.0856 17.5889 46.1219 17.5641C46.1582 17.5393 46.1832 17.5011 46.1913 17.4579C46.1994 17.4147 46.19 17.3701 46.1652 17.3339C46.1403 17.2976 46.1021 17.2727 46.0589 17.2646Z" fill="#263238"/>
<path d="M70.1101 15.1889C69.5799 13.7796 68.7125 12.5215 67.5836 11.5245C66.4547 10.5276 65.0987 9.82209 63.634 9.46972C60.271 8.52206 56.6878 8.7226 53.4516 10.0396C50.2275 11.3887 47.4173 13.5653 45.3057 16.349C45.3057 16.349 45.3057 16.4914 45.4075 16.349C47.3104 13.8963 49.8379 11.9997 52.7254 10.8575C55.613 9.71535 58.7545 9.36959 61.8215 9.85643C63.2474 10.038 64.6134 10.5408 65.8164 11.327C67.0194 12.1133 68.0279 13.1624 68.766 14.3951C69.3491 15.637 69.6515 16.9921 69.6515 18.3639C69.6515 19.7358 69.3491 21.0908 68.766 22.3327C67.225 25.2659 64.889 27.7063 62.0252 29.3748C62.0252 29.3748 62.0252 29.5172 62.0252 29.3748C64.7356 27.9722 67.0526 25.9154 68.766 23.391C69.5549 22.1954 70.0825 20.8468 70.3141 19.4334C70.5457 18.0199 70.4762 16.5736 70.1101 15.1889Z" fill="#263238"/>
<path d="M63.2878 37.0476C59.0568 38.8589 54.4899 39.7537 49.8878 39.6731C45.0905 39.6371 40.3111 39.0844 35.6324 38.0245C32.9239 37.4343 30.2357 36.7423 27.4864 35.9893C27.4864 35.9893 27.3642 36.091 27.4864 36.1114C32.1918 38.0157 37.0866 39.4143 42.088 40.2837C46.7278 41.0583 51.4747 40.9131 56.0583 39.8563C58.5716 39.2586 61.0003 38.3493 63.2878 37.1494C63.2878 37.1494 63.3489 37.0273 63.2878 37.0476Z" fill="#263238"/>
<path d="M33.0053 60.0258C33.0053 60.0258 26.0609 51.6201 22.2119 54.1642C18.363 56.7083 24.0651 69.2456 28.9527 70.6296C29.5669 70.8514 30.2198 70.9463 30.8717 70.9086C31.5237 70.8709 32.1612 70.7014 32.7457 70.4103C33.3302 70.1191 33.8496 69.7125 34.2722 69.2149C34.6949 68.7174 35.0121 68.1393 35.2047 67.5156L33.0053 60.0258Z" fill="#FFCBB2"/>
<path d="M23.9429 57.7256C23.9429 57.7256 23.9429 57.8273 23.9429 57.8477C25.5319 58.4841 26.9694 59.4471 28.1622 60.6742C29.355 61.9014 30.2765 63.3653 30.8669 64.9712C30.6453 64.6514 30.3568 64.3835 30.0215 64.186C29.6861 63.9886 29.3118 63.8663 28.9245 63.8276C28.5372 63.7889 28.1461 63.8347 27.7782 63.9618C27.4104 64.089 27.0746 64.2945 26.794 64.5641C26.794 64.5641 26.7939 64.7677 26.8958 64.727C27.4678 64.4969 28.0966 64.4477 28.6975 64.586C29.2983 64.7243 29.8423 65.0434 30.256 65.5003C30.9284 66.2811 31.5219 67.1265 32.0277 68.0241C32.211 68.309 32.7201 68.0241 32.5979 67.7799C32.2925 63.4447 28.525 57.7866 23.9429 57.7256Z" fill="#263238"/>
</svg>
