<svg width="48" height="48" viewBox="0 0 48 48" fill="none" xmlns="http://www.w3.org/2000/svg">
<g clip-path="url(#clip0_573_17270)">
<path d="M44.8598 21.1799L26.8398 3.15986C25.3398 1.65986 22.6998 1.63986 21.1798 3.15986L3.17977 21.1599C1.61977 22.7199 1.61977 25.2399 3.17977 26.7999L21.1798 44.7999C21.9598 45.5799 22.9798 45.9599 23.9998 45.9599C25.0198 45.9599 26.0398 45.5799 26.8198 44.7999L44.7998 26.8199C46.3798 25.2999 46.3998 22.7799 44.8598 21.1799ZM24.0198 41.9799L6.01977 23.9799L24.0198 5.97986L42.0198 23.9799L24.0198 41.9799ZM15.9998 21.9999V29.9999H19.9998V23.9999H27.9998V28.9999L34.9998 21.9999L27.9998 14.9999V19.9999H17.9998C16.8998 19.9999 15.9998 20.8999 15.9998 21.9999Z" fill="#FF5400"/>
</g>
<defs>
<clipPath id="clip0_573_17270">
<rect width="48" height="48" fill="white"/>
</clipPath>
</defs>
</svg>
