<svg width="52" height="71" viewBox="0 0 52 71" fill="none" xmlns="http://www.w3.org/2000/svg">
<path d="M51.8629 0V62.7967L44.307 70.3527H0.56543V0H51.8629Z" fill="#FF5400"/>
<path opacity="0.8" d="M51.8629 0V62.7967L44.307 70.3527H0.56543V0H51.8629Z" fill="white"/>
<path opacity="0.2" d="M44.3076 70.3521V63.0186H51.8635L44.4559 70.4262" fill="#333333"/>
<path opacity="0.1" d="M19.9771 6.09833H5.829C5.63011 6.09833 5.43938 6.01932 5.29875 5.87869C5.15812 5.73806 5.07911 5.54732 5.07911 5.34844C5.07873 5.24973 5.09785 5.15191 5.13537 5.0606C5.17289 4.96929 5.22807 4.88628 5.29774 4.81635C5.36741 4.74641 5.4502 4.69092 5.54137 4.65306C5.63254 4.61519 5.73028 4.5957 5.829 4.5957H19.9771C20.1762 4.59646 20.3669 4.6761 20.5075 4.81718C20.648 4.95826 20.727 5.1493 20.727 5.34844C20.727 5.54732 20.6479 5.73806 20.5073 5.87869C20.3667 6.01932 20.1759 6.09833 19.9771 6.09833Z" fill="#333333"/>
<path opacity="0.1" d="M45.6382 12.1843H11.5311C11.4324 12.1843 11.3347 12.1648 11.2435 12.1269C11.1524 12.089 11.0696 12.0336 10.9999 11.9636C10.9302 11.8937 10.875 11.8107 10.8375 11.7194C10.8 11.6281 10.7809 11.5302 10.7813 11.4315C10.7813 11.2326 10.8603 11.0419 11.0009 10.9013C11.1415 10.7606 11.3323 10.6816 11.5311 10.6816H45.6382C45.8371 10.6816 46.0278 10.7606 46.1684 10.9013C46.3091 11.0419 46.3881 11.2326 46.3881 11.4315C46.3881 11.6307 46.3092 11.8217 46.1686 11.9628C46.0281 12.1039 45.8373 12.1835 45.6382 12.1843Z" fill="#333333"/>
<path opacity="0.1" d="M45.6387 15.1403H5.829C5.63011 15.1403 5.43938 15.0613 5.29875 14.9207C5.15812 14.7801 5.07911 14.5893 5.07911 14.3904C5.07873 14.2917 5.09785 14.1939 5.13537 14.1026C5.17289 14.0113 5.22807 13.9283 5.29774 13.8583C5.36741 13.7884 5.4502 13.7329 5.54137 13.695C5.63254 13.6572 5.73028 13.6377 5.829 13.6377H45.6387C45.8378 13.6384 46.0285 13.7181 46.1691 13.8592C46.3097 14.0003 46.3886 14.1913 46.3886 14.3904C46.3886 14.5893 46.3096 14.7801 46.1689 14.9207C46.0283 15.0613 45.8376 15.1403 45.6387 15.1403Z" fill="#333333"/>
<path opacity="0.1" d="M45.6387 18.4821H5.829C5.73028 18.4821 5.63254 18.4626 5.54137 18.4248C5.4502 18.3869 5.36741 18.3314 5.29774 18.2615C5.22807 18.1915 5.17289 18.1085 5.13537 18.0172C5.09785 17.9259 5.07873 17.8281 5.07911 17.7294C5.07911 17.5305 5.15812 17.3398 5.29875 17.1991C5.43938 17.0585 5.63011 16.9795 5.829 16.9795H45.6387C45.8376 16.9795 46.0283 17.0585 46.1689 17.1991C46.3096 17.3398 46.3886 17.5305 46.3886 17.7294C46.3886 17.9285 46.3097 18.1196 46.1691 18.2606C46.0285 18.4017 45.8378 18.4814 45.6387 18.4821Z" fill="#333333"/>
<path opacity="0.1" d="M45.6387 21.8211H5.82899C5.63011 21.8211 5.43937 21.7421 5.29874 21.6014C5.15811 21.4608 5.0791 21.2701 5.0791 21.0712C5.0791 20.8723 5.15811 20.6816 5.29874 20.5409C5.43937 20.4003 5.63011 20.3213 5.82899 20.3213H45.6387C45.8376 20.3213 46.0283 20.4003 46.1689 20.5409C46.3096 20.6816 46.3886 20.8723 46.3886 21.0712C46.3886 21.2701 46.3096 21.4608 46.1689 21.6014C46.0283 21.7421 45.8376 21.8211 45.6387 21.8211Z" fill="#333333"/>
<path opacity="0.1" d="M45.6387 25.1629H5.829C5.63011 25.1629 5.43938 25.0839 5.29875 24.9432C5.15812 24.8026 5.07911 24.6119 5.07911 24.413C5.07873 24.3144 5.09787 24.2167 5.13542 24.1256C5.17297 24.0344 5.2282 23.9516 5.2979 23.8819C5.36761 23.8122 5.45043 23.757 5.54158 23.7194C5.63273 23.6819 5.73041 23.6627 5.829 23.6631H45.6387C45.8376 23.6631 46.0283 23.7421 46.1689 23.8827C46.3096 24.0234 46.3886 24.2141 46.3886 24.413C46.3886 24.6119 46.3096 24.8026 46.1689 24.9432C46.0283 25.0839 45.8376 25.1629 45.6387 25.1629Z" fill="#333333"/>
<path opacity="0.1" d="M45.6387 28.5046H5.829C5.63011 28.5046 5.43938 28.4256 5.29875 28.2849C5.15812 28.1443 5.07911 27.9536 5.07911 27.7547C5.07873 27.656 5.09785 27.5582 5.13537 27.4668C5.17289 27.3755 5.22807 27.2925 5.29774 27.2226C5.36741 27.1527 5.4502 27.0972 5.54137 27.0593C5.63254 27.0214 5.73028 27.002 5.829 27.002H45.6387C45.8378 27.0027 46.0285 27.0823 46.1691 27.2234C46.3097 27.3645 46.3886 27.5555 46.3886 27.7547C46.3886 27.9536 46.3096 28.1443 46.1689 28.2849C46.0283 28.4256 45.8376 28.5046 45.6387 28.5046Z" fill="#333333"/>
<path opacity="0.1" d="M45.6415 30.3438H5.82899C5.41484 30.3438 5.0791 30.6795 5.0791 31.0936V31.0965C5.0791 31.5106 5.41484 31.8464 5.82899 31.8464H45.6415C46.0556 31.8464 46.3914 31.5106 46.3914 31.0965V31.0936C46.3914 30.6795 46.0556 30.3438 45.6415 30.3438Z" fill="#333333"/>
<path opacity="0.1" d="M45.6387 35.1824H5.82899C5.63011 35.1824 5.43937 35.1034 5.29874 34.9628C5.15811 34.8221 5.0791 34.6314 5.0791 34.4325C5.0791 34.2336 5.15811 34.0429 5.29874 33.9023C5.43937 33.7616 5.63011 33.6826 5.82899 33.6826H45.6387C45.8376 33.6826 46.0283 33.7616 46.1689 33.9023C46.3096 34.0429 46.3886 34.2336 46.3886 34.4325C46.3886 34.6314 46.3096 34.8221 46.1689 34.9628C46.0283 35.1034 45.8376 35.1824 45.6387 35.1824Z" fill="#333333"/>
<path opacity="0.1" d="M45.6387 38.5271H5.829C5.63011 38.5271 5.43938 38.4481 5.29875 38.3075C5.15812 38.1669 5.07911 37.9761 5.07911 37.7772C5.07873 37.6787 5.09787 37.581 5.13542 37.4898C5.17297 37.3987 5.2282 37.3159 5.2979 37.2461C5.36761 37.1764 5.45043 37.1212 5.54158 37.0837C5.63273 37.0461 5.73041 37.027 5.829 37.0273H45.6387C45.8376 37.0273 46.0283 37.1064 46.1689 37.247C46.3096 37.3876 46.3886 37.5784 46.3886 37.7772C46.3886 37.9761 46.3096 38.1669 46.1689 38.3075C46.0283 38.4481 45.8376 38.5271 45.6387 38.5271Z" fill="#333333"/>
<path opacity="0.1" d="M45.6387 41.8688H5.829C5.63011 41.8688 5.43938 41.7898 5.29875 41.6492C5.15812 41.5086 5.07911 41.3178 5.07911 41.119C5.07873 41.0202 5.09785 40.9224 5.13537 40.8311C5.17289 40.7398 5.22807 40.6568 5.29774 40.5869C5.36741 40.5169 5.4502 40.4614 5.54137 40.4236C5.63254 40.3857 5.73028 40.3662 5.829 40.3662H45.6387C45.8378 40.367 46.0285 40.4466 46.1691 40.5877C46.3097 40.7288 46.3886 40.9198 46.3886 41.119C46.3886 41.3178 46.3096 41.5086 46.1689 41.6492C46.0283 41.7898 45.8376 41.8688 45.6387 41.8688Z" fill="#333333"/>
<path opacity="0.1" d="M45.6387 45.2097H5.829C5.73028 45.2097 5.63254 45.1902 5.54137 45.1523C5.4502 45.1144 5.36741 45.059 5.29774 44.989C5.22807 44.9191 5.17289 44.8361 5.13537 44.7448C5.09785 44.6535 5.07873 44.5556 5.07911 44.4569C5.07911 44.258 5.15812 44.0673 5.29875 43.9267C5.43938 43.786 5.63011 43.707 5.829 43.707H45.6387C45.8376 43.707 46.0283 43.786 46.1689 43.9267C46.3096 44.0673 46.3886 44.258 46.3886 44.4569C46.3886 44.6561 46.3097 44.8471 46.1691 44.9882C46.0285 45.1293 45.8378 45.2089 45.6387 45.2097Z" fill="#333333"/>
<path opacity="0.1" d="M22.8283 48.5496H5.82899C5.63011 48.5496 5.43937 48.4706 5.29874 48.3299C5.15811 48.1893 5.0791 47.9986 5.0791 47.7997C5.0791 47.6008 5.15811 47.4101 5.29874 47.2694C5.43937 47.1288 5.63011 47.0498 5.82899 47.0498H22.8283C23.0272 47.0498 23.218 47.1288 23.3586 47.2694C23.4992 47.4101 23.5782 47.6008 23.5782 47.7997C23.5782 47.9986 23.4992 48.1893 23.3586 48.3299C23.218 48.4706 23.0272 48.5496 22.8283 48.5496Z" fill="#333333"/>
<path d="M42.5761 15.3889L42.5219 15.3433C42.368 15.2264 42.2796 15.2663 42.2083 15.041C42.157 14.8785 42.2083 14.696 42.1484 14.5278C42.0126 14.2382 41.8573 13.9582 41.6836 13.6895L40.9822 12.4264C40.8256 12.1467 40.5646 11.9405 40.2562 11.8528C39.9479 11.7652 39.6174 11.8033 39.337 11.9588L32.8789 15.5571C32.8532 15.7738 32.6736 15.9221 32.6365 16.1274C32.6238 16.188 32.627 16.251 32.646 16.31C32.665 16.369 32.6991 16.422 32.7449 16.4638C32.6724 16.4624 32.6023 16.4374 32.5453 16.3925C32.1604 16.1787 32.0577 16.0076 31.6614 16.2243C31.4903 16.3156 31.3221 16.4125 31.1538 16.5094L29.4431 17.4646L24.0827 20.4499L17.8098 23.9513L12.5834 26.8625C11.8706 27.2588 11.0067 27.6066 10.3708 28.1113C10.5476 28.2026 10.579 28.3423 10.4222 28.4791L10.137 28.7386C10.137 28.8099 10.2397 28.8099 10.3052 28.7814L10.6588 28.6303C10.4132 28.9422 10.1173 29.211 9.78346 29.4258C9.22282 29.7513 8.62039 29.9988 7.99285 30.1614L8.29508 29.7822C8.3179 29.7508 8.34641 29.7109 8.32645 29.6738C8.30649 29.6368 8.26943 29.6339 8.23521 29.6311C8.08409 29.614 7.93297 29.6311 7.82177 29.5199C6.84663 30.0901 5.82588 30.6319 4.83363 31.185C4.55393 31.3416 4.34768 31.6027 4.26004 31.911C4.1724 32.2194 4.2105 32.5499 4.36601 32.8302L10.8783 44.5205C10.9554 44.6592 11.0589 44.7813 11.1832 44.8799C11.3075 44.9784 11.45 45.0515 11.6025 45.095C11.7551 45.1384 11.9147 45.1513 12.0723 45.133C12.2298 45.1146 12.3822 45.0654 12.5207 44.9881L14.2343 44.0215C14.2343 43.8191 14.394 43.5938 14.2742 43.4085C14.2573 43.386 14.2465 43.3594 14.2429 43.3315C14.2429 43.2944 14.2771 43.2659 14.3084 43.246C14.4841 43.1344 14.6853 43.0696 14.893 43.0578C14.9642 43.0578 15.0583 43.0891 15.0469 43.1576C15.0469 43.0948 15.4148 42.9637 15.4746 42.9437C15.5031 43.0977 15.3976 43.2631 15.5773 43.2944C15.7569 43.3258 16.0306 43.0093 16.1475 42.9523L17.8583 41.9971L23.2757 38.9833L29.2178 35.6729L33.1669 33.4717C33.3094 33.3891 33.4776 33.2921 33.6145 33.2237C33.664 32.9622 33.7912 32.7217 33.9795 32.5337C34.2646 32.3369 34.7151 32.5536 34.9518 32.2742C34.9974 32.22 35.0259 32.1544 35.0658 32.0974C35.1455 32.0047 35.2423 31.9282 35.3509 31.8722C35.4198 31.818 35.5031 31.7853 35.5904 31.7781C35.676 31.7781 35.7672 31.8494 35.7558 31.9349C36.3432 31.798 36.8735 31.4017 37.3925 31.108C37.5807 31.0025 39.2315 30.227 39.2258 30.1044C39.203 29.7252 39.434 29.4001 39.4226 29.0095C39.4226 28.9353 39.2772 28.4392 39.3427 28.4022C37.8601 29.2861 36.3204 30.0901 34.8092 30.9284C34.7579 30.9598 34.564 31.0253 34.5241 31.0824C34.5241 31.0824 34.5098 31.108 34.5041 31.1223L34.4613 31.2164V31.2392C34.4 31.4332 34.3276 31.6236 34.2446 31.8094C34.2446 31.8351 33.9224 32.2343 33.8968 32.1402C33.7713 31.6811 33.6117 31.6099 33.2609 31.798L32.7591 32.0832L31.1653 32.9699L25.7963 35.9638L19.4693 39.488L14.1972 42.4248L11.9875 43.6537C11.5465 42.8553 11.1027 42.0579 10.6559 41.2615L9.80056 39.7246C9.71398 39.5115 9.58607 39.3177 9.4242 39.1544C9.3016 39.0631 9.09345 39.0859 8.9851 39.0032C8.71993 38.8008 8.52889 38.433 8.27798 38.1963C8.1069 38.0367 7.84744 37.5576 7.91872 37.2925C8.00426 37.3267 8.0898 37.3638 8.17534 37.3894C8.13062 37.2139 8.14057 37.0288 8.20385 36.8591C7.34846 35.4192 6.56151 33.9137 5.74319 32.4424L5.68901 32.3483L7.68491 31.2363L9.14192 30.4237C9.44158 30.2949 9.72805 30.1374 9.9973 29.9533C10.1826 29.7936 10.3708 29.594 10.5676 29.4229C10.6996 29.3225 10.8432 29.2382 10.9953 29.172L11.5342 28.9097C11.5619 28.893 11.5931 28.8833 11.6254 28.8812C11.6576 28.8847 11.6892 28.8924 11.7195 28.904C12.0046 28.9639 12.7117 28.4364 12.9683 28.2938L14.6278 27.37L19.6347 24.5786L25.8733 21.1057L32.1176 17.6243L37.1415 14.8272L39.7077 13.4015L39.8275 13.336L42.6018 18.3172C42.7734 18.6529 43.0482 18.9247 43.3859 19.0927C43.4999 19.1298 43.6282 19.2096 43.614 19.3265C43.5997 19.4434 43.4286 19.5404 43.4686 19.6601C43.5085 19.7799 43.728 19.7342 43.7793 19.8426C43.8307 19.9509 43.691 20.1277 43.7081 20.276C43.767 20.4535 43.8547 20.6201 43.9675 20.7693L44.7744 22.2206C45.2249 23.0246 45.6726 23.8315 46.126 24.6442L41.1932 27.3928C41.2176 27.4125 41.2379 27.4367 41.2531 27.4641L41.2788 27.5297C41.3768 27.5644 41.4721 27.6063 41.5639 27.6551C41.6032 27.6771 41.6357 27.7095 41.6579 27.7487C41.68 27.7879 41.6909 27.8325 41.6894 27.8775C41.6887 27.922 41.6762 27.9656 41.6531 28.0036C41.6301 28.0417 41.5973 28.073 41.5582 28.0942L41.256 28.2653C41.2452 28.3314 41.2147 28.3927 41.1683 28.4411C41.122 28.4894 41.0621 28.5226 40.9965 28.5362C40.9614 28.5391 40.9261 28.5391 40.891 28.5362C40.861 28.5582 40.8266 28.5734 40.7902 28.5807C40.7538 28.5881 40.7162 28.5875 40.68 28.5789C40.6155 28.5591 40.5611 28.5151 40.5281 28.4561C40.4952 28.3972 40.4863 28.3278 40.5032 28.2624C40.515 28.2331 40.5303 28.2053 40.5488 28.1798C40.5272 28.1382 40.5174 28.0915 40.5204 28.0448C40.5234 27.998 40.5392 27.953 40.5659 27.9146H40.4747C40.4234 27.9146 40.3778 27.8861 40.3293 27.8718C40.0728 28.0302 39.8732 28.2658 39.759 28.5447C39.7466 28.5599 39.7405 28.5793 39.7419 28.5989C39.7419 28.6388 39.8046 28.6417 39.8417 28.6588C39.9273 28.6987 39.9073 28.8241 39.8645 28.9068C39.8218 28.9895 39.7704 29.095 39.8275 29.1692C39.8491 29.1941 39.8729 29.217 39.8987 29.2376C40.0213 29.3773 39.8332 29.7822 40.1325 29.6168C40.1115 29.5287 40.1248 29.436 40.1696 29.3573C40.2203 29.278 40.2985 29.2201 40.3892 29.1948C40.6108 29.141 40.8371 29.1086 41.0649 29.0979L47.0098 25.7733C47.2895 25.6167 47.4958 25.3556 47.5834 25.0472C47.6711 24.7389 47.633 24.4084 47.4775 24.1281L47.4432 24.0682L44.7573 19.2467L43.2062 16.4581C43.0551 16.1929 42.9211 15.9164 42.7557 15.6541C42.7103 15.5567 42.6496 15.4672 42.5761 15.3889Z" fill="#FF5400"/>
<path d="M15.1076 31.1417C14.9109 30.9022 14.9708 30.8965 14.9337 30.6399C14.9337 30.6399 14.9337 30.6399 14.9337 30.6228L14.9109 30.5971L14.8767 30.5572C14.7427 30.6171 14.6087 30.6826 14.4747 30.7568L11.8486 32.2195L12.9065 34.1156C12.7582 33.8533 13.2828 33.9303 13.3028 33.9274C13.3584 33.911 13.4159 33.9014 13.4739 33.8989C13.5308 33.911 13.5809 33.9447 13.6136 33.993C13.7233 34.1847 13.7559 34.4111 13.7048 34.626C13.6734 34.9111 13.8246 35.1962 13.662 35.4814C13.8018 35.7095 15.0649 38.0076 15.0706 38.0047L17.6966 36.542C17.8477 36.4565 18.207 36.3054 18.2954 36.1543C18.3838 36.0031 18.2441 35.7665 18.4009 35.6952C18.46 35.6735 18.5232 35.6654 18.5858 35.6713C18.6485 35.6772 18.709 35.6971 18.763 35.7294C19.2631 35.2342 19.5847 34.5869 19.677 33.8892C19.7694 33.1914 19.6274 32.4828 19.2734 31.8745C18.5349 30.5486 16.8583 29.7588 15.3899 30.3747C15.2873 30.4175 15.4241 30.8765 15.1789 30.9279C15.2258 30.8359 15.2931 30.7559 15.3757 30.6941M17.0123 35.4671L15.7891 36.1486C15.6893 35.9689 15.5924 35.7893 15.4897 35.6154C15.618 35.8321 15.2645 35.7636 15.1903 35.7152C15.0107 35.5954 14.9622 35.2504 14.9565 35.0565C14.9522 34.724 14.8533 34.3996 14.6714 34.1213C14.3844 33.6024 14.0992 33.0834 13.816 32.5645L15.0392 31.883C16.1797 31.2443 17.3202 31.5095 17.9361 32.6158C18.552 33.7221 18.1614 34.837 17.0123 35.4671Z" fill="#FF5400"/>
<path d="M23.7887 26.2853C23.8511 26.4207 23.869 26.5724 23.84 26.7187C23.8258 26.7985 23.6975 27.0038 23.7146 27.0551C23.7602 27.1692 23.8058 27.2832 23.8486 27.3973C23.8562 27.4159 23.8668 27.4333 23.8799 27.4486C23.9019 27.4633 23.9276 27.4713 23.9541 27.4714C24.4074 27.5113 24.3875 27.5569 24.416 27.939C24.4416 28.2669 24.7239 28.4551 24.8836 28.7402C25.098 29.1149 25.1912 29.5467 25.1503 29.9764C25.1094 30.4061 24.9365 30.8126 24.6553 31.1401C24.374 31.4676 23.9983 31.6999 23.5797 31.8053C23.1611 31.9106 22.7202 31.8837 22.3174 31.7284C22.3067 31.7387 22.2953 31.7482 22.2832 31.7569C22.2233 31.7871 22.1546 31.7951 22.0893 31.7797C21.9411 31.7377 21.8069 31.6565 21.701 31.5446C21.5951 31.4326 21.5214 31.2942 21.4877 31.1439C21.4835 31.1212 21.4835 31.098 21.4877 31.0754C21.407 30.9756 21.3355 30.8687 21.2739 30.7561C21.1273 30.5205 21.031 30.2572 20.991 29.9826C20.9509 29.7081 20.9679 29.4283 21.041 29.1606C21.1141 28.893 21.2416 28.6433 21.4156 28.4272C21.5896 28.2111 21.8063 28.0333 22.0523 27.9048C22.4088 27.7014 22.8175 27.6082 23.227 27.6368L23.2042 27.6026C22.959 27.2775 23.8429 27.1464 23.4437 26.9268C23.2755 26.8356 23.304 26.4221 23.2612 26.2539C22.6135 26.2685 21.9796 26.4439 21.4164 26.7643C19.5916 27.7822 18.9615 29.7981 19.9195 31.5174C20.3226 32.2571 20.9893 32.8179 21.7871 33.0884C21.9747 33.1701 22.1757 33.2165 22.3802 33.2253C22.614 33.2053 22.4999 33.2253 22.5997 33.0856C22.6995 32.9459 22.6396 32.886 22.7907 32.7377C22.9419 32.5895 23.1186 32.5011 23.15 32.273C23.15 32.3756 23.2641 32.4497 23.2641 32.5581C23.2641 32.5895 23.2641 32.6208 23.2641 32.6493C23.2701 32.6866 23.287 32.7213 23.3125 32.7491C23.4095 32.8803 23.572 33.0343 23.5748 33.1854C23.992 33.1162 24.3924 32.9692 24.7553 32.752C26.5715 31.7398 27.2159 29.7268 26.2522 28.0017C25.7532 27.1207 24.8152 26.3423 23.7887 26.2853Z" fill="#FF5400"/>
<path d="M29.62 22.3174L31.576 25.8273L26.7459 23.9169L25.6396 24.5357C26.3867 25.8758 27.1793 27.2016 27.8808 28.5674C27.9292 28.4191 28.0433 28.3906 28.1801 28.3706C28.4368 28.3364 28.4282 28.4647 28.5679 28.7185C28.585 28.7499 28.605 28.7812 28.6363 28.7869C28.6677 28.7926 28.7304 28.7413 28.7818 28.747C28.8331 28.7527 28.853 28.8154 28.8388 28.8639C28.8208 28.9114 28.7968 28.9564 28.7675 28.9979C28.6848 29.1547 28.8217 29.2545 28.8046 29.3971C28.8046 29.4712 28.5565 29.7735 28.585 29.8248L28.8701 30.3152L30.1931 29.5796L29.8396 28.9466H29.774C29.3891 28.9979 29.5602 28.4932 29.4746 28.2851C29.3362 27.9902 29.179 27.7045 29.0042 27.4297L28.2258 26.0582L32.152 27.6036C32.1418 27.4909 32.1554 27.3772 32.1919 27.27C32.2233 27.2102 32.477 27.099 32.477 27.0419C32.4917 27.2258 32.5776 27.3967 32.7165 27.5181C32.8677 27.6521 32.8677 27.6321 32.8391 27.8688L33.0729 27.9629L34.1735 27.3499L30.9516 21.5703L29.62 22.3174Z" fill="#FF5400"/>
<path d="M36.2671 24.783L35.5201 23.4457L38.206 21.9488L37.6357 20.9081L34.9527 22.405L34.2541 21.1476L36.0675 20.1382C36.1441 20.0395 36.2415 19.9587 36.3527 19.9016C36.4089 19.8726 36.4739 19.8655 36.5351 19.8816L37.3021 19.4568C37.3021 19.4568 36.7575 18.4845 36.7062 18.3818C36.4439 18.5016 36.7062 18.8323 36.4411 18.992C36.4952 19.049 36.5751 19.2515 36.4411 19.2771C36.3641 19.2771 36.307 19.1802 36.2301 19.1887C36.1531 19.1973 36.1502 19.2344 36.1103 19.223C36.0982 19.2195 36.087 19.2134 36.0776 19.205C36.0682 19.1966 36.0609 19.1862 36.0561 19.1745C36.0192 19.0885 35.9723 19.0072 35.9164 18.9321C35.7368 18.7582 34.0973 19.8502 33.8692 19.9786L32.3438 20.8339L35.5629 26.6135L36.8488 25.8978L36.8744 25.8636C36.9685 25.7439 37.0598 25.6212 37.1596 25.51C37.2001 25.4715 37.2519 25.4471 37.3074 25.4404C37.3629 25.4338 37.419 25.4452 37.4675 25.473C37.4905 25.485 37.5109 25.5015 37.5274 25.5215L40.0394 24.1215L39.4406 23.0465L36.2671 24.783Z" fill="#FF5400"/>
</svg>
