<svg width="80" height="80" viewBox="0 0 80 80" fill="none" xmlns="http://www.w3.org/2000/svg">
<path d="M19.1402 46.8819L19.0901 34.945C19.0317 32.6328 21.0101 30.3038 25.0335 28.5258C32.9803 25.0115 45.9022 24.9615 53.8574 28.4173C57.8976 30.1619 59.8926 32.4742 59.8509 34.7781L59.901 46.6733C59.901 48.9772 57.9644 52.5165 53.9576 54.2778C46.0108 57.7921 33.0889 57.8422 25.1337 54.3863C21.152 52.6667 19.1486 49.1775 19.1319 46.8736L19.1402 46.8819Z" fill="#B33B00"/>
<path d="M39.4332 18L69 34.9204L39.5668 52.0661L10 35.1457L39.4332 18Z" fill="#FF5400"/>
<path d="M69.0001 34.9199V36.1303L39.5669 53.2844V52.0657L69.0001 34.9199Z" fill="#922401"/>
<path d="M10 35.1455V36.3642L39.5668 53.2846V52.0659L10 35.1455Z" fill="#B33B00"/>
<path opacity="0.1" d="M57.4389 42.876L39.5753 55.105L21.6616 43.0429L39.567 53.2853L57.4389 42.876Z" fill="#333333"/>
<path d="M32.4717 40.3211L45.5856 32.5746C45.7265 32.4989 45.8907 32.4792 46.0455 32.5194C46.2003 32.5597 46.3342 32.6569 46.4203 32.7916C46.501 32.9239 46.5319 33.0806 46.5075 33.2336C46.483 33.3866 46.4047 33.5259 46.2868 33.6264L46.1866 33.7015L33.0811 41.4563" fill="#E0E0E0"/>
<path d="M30.5599 51.3818C30.868 51.5421 31.2101 51.6257 31.5574 51.6257C31.9047 51.6257 32.2468 51.5421 32.5549 51.3818L34.2244 59.5958C34.2244 61.5908 29.0323 61.6158 29.0239 59.5958L30.5599 51.3818Z" fill="#FF5400"/>
<path opacity="0.15" d="M30.4679 57.4414L30.159 60.8722C30.05 60.8392 29.9439 60.7973 29.8418 60.747L30.4679 57.4414Z" fill="#333333"/>
<path opacity="0.15" d="M32.9474 60.9057L32.2212 53.8438L33.2813 60.7805C33.1734 60.8309 33.0618 60.8727 32.9474 60.9057Z" fill="#333333"/>
<path opacity="0.15" d="M31.7787 61.1229H31.4531L31.595 56.0059L31.7787 61.1229Z" fill="#333333"/>
<path d="M31.5699 51.2643C31.7389 51.2621 31.9002 51.1934 32.019 51.0731C32.1377 50.9528 32.2043 50.7906 32.2043 50.6215L32.1458 43.1088C32.1455 42.7708 32.234 42.4387 32.4025 42.1456C32.571 41.8526 32.8135 41.609 33.1058 41.4393L32.4714 40.3291C31.9824 40.6094 31.5765 41.0144 31.2949 41.5027C31.0134 41.991 30.8663 42.5452 30.8687 43.1088L30.9271 50.6215C30.9271 50.792 30.9948 50.9555 31.1154 51.076C31.2359 51.1966 31.3994 51.2643 31.5699 51.2643Z" fill="#E0E0E0"/>
<path d="M32.9723 50.6138C32.9723 50.3345 32.8894 50.0614 32.734 49.8292C32.5786 49.597 32.3578 49.4162 32.0995 49.3097C31.8413 49.2032 31.5572 49.1757 31.2833 49.2308C31.0094 49.286 30.7581 49.4211 30.5611 49.6193C30.3642 49.8174 30.2305 50.0696 30.177 50.3438C30.1235 50.618 30.1526 50.9019 30.2607 51.1595C30.3687 51.4171 30.5508 51.6369 30.7839 51.7909C31.017 51.9449 31.2906 52.0262 31.57 52.0245C31.7551 52.0257 31.9387 51.9899 32.1099 51.9193C32.2811 51.8487 32.4365 51.7447 32.567 51.6133C32.6976 51.482 32.8007 51.326 32.8703 51.1544C32.9399 50.9828 32.9746 50.799 32.9723 50.6138Z" fill="#FF5400"/>
<path opacity="0.15" d="M30.1676 50.7055C30.2283 50.8499 30.319 50.9797 30.4338 51.0862C30.5486 51.1928 30.6848 51.2736 30.8333 51.3234C30.9818 51.3731 31.1392 51.3907 31.295 51.3748C31.4508 51.359 31.6015 51.3101 31.7369 51.2314C31.9079 51.127 32.0492 50.9805 32.1472 50.8058C32.2452 50.6311 32.2967 50.4342 32.2967 50.2339C32.2967 50.0335 32.2452 49.8366 32.1472 49.6619C32.0492 49.4872 31.9079 49.3407 31.7369 49.2363C32.0006 49.2716 32.2489 49.3811 32.4527 49.5522C32.6564 49.7233 32.8073 49.9488 32.8878 50.2024C32.9682 50.456 32.9748 50.7273 32.9069 50.9845C32.8389 51.2417 32.6992 51.4743 32.504 51.6551C32.3088 51.8359 32.0662 51.9575 31.8046 52.0056C31.5429 52.0537 31.2729 52.0264 31.0262 51.9268C30.7795 51.8272 30.5662 51.6595 30.4112 51.4433C30.2562 51.227 30.1659 50.9711 30.1509 50.7055H30.1676Z" fill="#333333"/>
</svg>
