<svg width="80" height="76" viewBox="0 0 80 76" fill="none" xmlns="http://www.w3.org/2000/svg">
<path d="M65.1947 30.7132C64.6829 29.0212 64.0057 27.3837 63.1731 25.8244L64.4327 21.702L56.298 13.5673L52.1712 14.8313C50.6174 13.9891 48.9805 13.3102 47.2868 12.8053L45.2652 9H33.748L31.722 12.8053C30.0289 13.3118 28.3922 13.9907 26.8376 14.8313L22.7152 13.5673L14.5717 21.7108L15.8313 25.8332C14.995 27.3908 14.3177 29.0287 13.8097 30.722L10 32.7436V44.2608L13.8053 46.2868C14.3125 47.979 14.9898 49.6155 15.8269 51.1712L14.5673 55.2892L22.7108 63.4327L26.8332 62.1731C28.3895 63.0111 30.0277 63.687 31.722 64.1903L33.748 68H45.2652L47.2868 64.1947C48.9791 63.686 50.6156 63.0072 52.1712 62.1687L56.298 63.4283L64.4415 55.2848L63.1819 51.1624C64.0123 49.6046 64.6865 47.9685 65.1947 46.278L69 44.252V32.7348L65.1947 30.7132ZM39.5044 59.372C35.3746 59.372 31.3375 58.1473 27.9037 55.8529C24.4698 53.5585 21.7935 50.2974 20.2131 46.4819C18.6327 42.6665 18.2191 38.468 19.0248 34.4176C19.8305 30.3671 21.8192 26.6465 24.7395 23.7262C27.6597 20.806 31.3803 18.8173 35.4308 18.0116C39.4812 17.2059 43.6797 17.6194 47.4951 19.1999C51.3106 20.7803 54.5717 23.4566 56.8661 26.8904C59.1605 30.3243 60.3852 34.3614 60.3852 38.4912C60.3852 41.2333 59.8451 43.9485 58.7957 46.4819C57.7464 49.0153 56.2083 51.3172 54.2693 53.2561C52.3304 55.1951 50.0285 56.7332 47.4951 57.7825C44.9618 58.8319 42.2465 59.372 39.5044 59.372Z" fill="#FF5400"/>
<path d="M39.5044 20.5391C35.9532 20.5399 32.4819 21.5938 29.5296 23.5674C26.5773 25.541 24.2765 28.3457 22.9181 31.6269C21.5597 34.908 21.2047 38.5183 21.8981 42.0012C22.5914 45.4841 24.3019 48.6832 26.8133 51.194C29.3248 53.7048 32.5243 55.4145 36.0073 56.107C39.4904 56.7995 43.1006 56.4436 46.3814 55.0844C49.6623 53.7252 52.4664 51.4237 54.4393 48.4709C56.4121 45.5181 57.4652 42.0466 57.4652 38.4954C57.4593 33.7341 55.565 29.1696 52.1979 25.8032C48.8307 22.4369 44.2657 20.5437 39.5044 20.5391ZM39.5044 54.0602C36.4258 54.0611 33.4161 53.1489 30.8559 51.4392C28.2957 49.7294 26.3 47.2988 25.1213 44.4548C23.9425 41.6108 23.6337 38.4811 24.2338 35.4615C24.8338 32.442 26.3159 29.6682 28.4925 27.491C30.6691 25.3138 33.4425 23.8309 36.4619 23.23C39.4813 22.6291 42.611 22.937 45.4554 24.115C48.2997 25.2929 50.7309 27.2879 52.4414 29.8476C54.1518 32.4073 55.0648 35.4168 55.0648 38.4954C55.0601 42.6212 53.4194 46.5768 50.5024 49.4947C47.5854 52.4125 43.6303 54.0544 39.5044 54.0602Z" fill="#FF5400"/>
<path opacity="0.2" d="M39.5044 20.5391C35.9532 20.5399 32.4819 21.5938 29.5296 23.5674C26.5773 25.541 24.2765 28.3457 22.9181 31.6269C21.5597 34.908 21.2047 38.5183 21.8981 42.0012C22.5914 45.4841 24.3019 48.6832 26.8133 51.194C29.3248 53.7048 32.5243 55.4145 36.0073 56.107C39.4904 56.7995 43.1006 56.4436 46.3814 55.0844C49.6623 53.7252 52.4664 51.4237 54.4393 48.4709C56.4121 45.5181 57.4652 42.0466 57.4652 38.4954C57.4593 33.7341 55.565 29.1696 52.1979 25.8032C48.8307 22.4369 44.2657 20.5437 39.5044 20.5391ZM39.5044 54.0602C36.4258 54.0611 33.4161 53.1489 30.8559 51.4392C28.2957 49.7294 26.3 47.2988 25.1213 44.4548C23.9425 41.6108 23.6337 38.4811 24.2338 35.4615C24.8338 32.442 26.3159 29.6682 28.4925 27.491C30.6691 25.3138 33.4425 23.8309 36.4619 23.23C39.4813 22.6291 42.611 22.937 45.4554 24.115C48.2997 25.2929 50.7309 27.2879 52.4414 29.8476C54.1518 32.4073 55.0648 35.4168 55.0648 38.4954C55.0601 42.6212 53.4194 46.5768 50.5024 49.4947C47.5854 52.4125 43.6303 54.0544 39.5044 54.0602Z" fill="#333333"/>
</svg>
