<svg width="579" height="386" viewBox="0 0 579 386" fill="none" xmlns="http://www.w3.org/2000/svg">
<path d="M218.762 53.3926H178.85V103.781H218.762V53.3926Z" fill="#EBEBEB"/>
<path d="M201.824 102.652H196.289V103.996H201.824V102.652Z" fill="#E0E0E0"/>
<path d="M200.087 70.7383L192.73 71.8191L189.989 78.7208L194.59 84.5494L201.948 83.4763L204.688 76.5669L200.087 70.7383Z" fill="#E0E0E0"/>
<path d="M203.523 75.209L196.165 76.2821L193.425 83.1837L198.034 89.0201L205.383 87.9393L208.131 81.0376L203.523 75.209Z" fill="#F5F5F5"/>
<path d="M202.604 52.7129H197.068V53.8632H202.604V52.7129Z" fill="#E0E0E0"/>
<path d="M248.608 39.8281H227.424V66.5702H248.608V39.8281Z" fill="#EBEBEB"/>
<path d="M239.621 65.9668H236.68V66.677H239.621V65.9668Z" fill="#E0E0E0"/>
<path d="M238.695 49.0293L234.788 49.6006L233.337 53.2676L235.784 56.3633L239.683 55.792L241.142 52.125L238.695 49.0293Z" fill="#E0E0E0"/>
<path d="M240.517 51.4004L236.618 51.9717L235.159 55.6387L237.606 58.7344L241.505 58.1631L242.964 54.4961L240.517 51.4004Z" fill="#F5F5F5"/>
<path d="M240.038 39.4648H237.097V40.0747H240.038V39.4648Z" fill="#E0E0E0"/>
<path d="M144.124 45.7559H51.0752V209.976H144.124V45.7559Z" fill="#F5F5F5"/>
<path d="M145.036 85.5761V84.5416H125.219V44.8377H123.875V84.5416H100.607V43.6797H95.4116V84.5416H71.4796V44.8377H70.1209V84.5416H50.9521V85.5761H70.1209V125.272H50.9521V130.468H70.1209V171.793H50.9521V172.82H70.1209V209.984H71.4565V172.812H95.3885V208.795H100.584V172.812H123.852V209.984H125.195V172.812H145.013V171.785H125.219V130.468H145.036V125.28H125.219V85.5761H145.036ZM71.4565 85.5761H95.3885V125.272H71.4565V85.5761ZM71.4565 171.785V130.468H95.3885V171.793L71.4565 171.785ZM123.875 171.785H100.607V130.468H123.875V171.785ZM123.875 125.272H100.607V85.5761H123.875V125.272Z" fill="white"/>
<path d="M512.917 50.4434H419.868V214.663H512.917V50.4434Z" fill="#F5F5F5"/>
<path d="M513.828 90.2617V89.2272H494.011V49.5232H492.675V89.2272H469.376V48.3652H464.204V89.2272H440.272V49.5232H438.936V89.2272H419.775V90.2617H438.913V129.958H419.775V135.146H438.913V176.463H419.775V177.498H438.913V214.615H440.249V177.498H464.181V213.481H469.376V177.498H492.652V214.615H493.988V177.498H513.805V176.463H494.011V135.146H513.828V129.958H494.011V90.2617H513.828ZM440.249 90.2617H464.181V129.958H440.249V90.2617ZM440.249 176.463V135.146H464.181V176.463H440.249ZM492.675 176.463H469.376V135.146H492.652L492.675 176.463ZM492.675 129.958H469.376V90.2617H492.652L492.675 129.958Z" fill="white"/>
<path d="M557.878 324.718C557.878 324.826 437.361 324.919 288.744 324.919C140.126 324.919 19.5781 324.826 19.5781 324.718C19.5781 324.61 140.064 324.51 288.744 324.51C437.423 324.51 557.878 324.602 557.878 324.718Z" fill="#263238"/>
<path d="M405.979 116.465H118.101C111.888 116.465 106.853 121.501 106.853 127.713V310.461C106.853 316.673 111.888 321.709 118.101 321.709H405.979C412.191 321.709 417.227 316.673 417.227 310.461V127.713C417.227 121.501 412.191 116.465 405.979 116.465Z" fill="#263238"/>
<path d="M94.3076 306.531H430.568V310.754C430.568 314.399 429.12 317.894 426.543 320.471C423.966 323.048 420.471 324.496 416.826 324.496H108.08C104.436 324.496 100.94 323.048 98.3633 320.471C95.7863 317.894 94.3385 314.399 94.3385 310.754V306.531H94.3076Z" fill="#455A64"/>
<path d="M408.458 124.617H115.615V297.947H408.458V124.617Z" fill="#EBEBEB"/>
<path d="M231.87 306.531H232.194H233.182H237.004L251.193 306.477L298.632 306.377H298.988L298.81 306.678L296.926 309.905L294.904 313.271L294.842 313.364H294.726L236.016 313.255H235.962L232.874 308.253L232.102 306.987L231.854 306.57C231.854 306.57 231.963 306.717 232.148 307.01C232.333 307.303 232.619 307.728 232.966 308.276L236.108 313.155H236.031L294.742 313.039L294.572 313.14L296.564 309.727L298.447 306.508L298.617 306.809L251.371 306.701L237.12 306.647H233.26H231.885L231.87 306.531Z" fill="#263238"/>
<path fill-rule="evenodd" clip-rule="evenodd" d="M222.777 156.864C223.306 156.148 223.932 155.509 224.637 154.965L224.189 152.533L227.941 150.935L229.385 152.935C230.269 152.815 231.165 152.815 232.048 152.935L233.446 150.904L237.228 152.448L236.842 154.888C237.557 155.419 238.195 156.045 238.742 156.748L241.166 156.301L242.764 160.053L240.772 161.496C240.892 162.38 240.892 163.276 240.772 164.16L242.802 165.557L241.258 169.34L238.826 168.954C238.293 169.666 237.667 170.305 236.966 170.853L237.406 173.277L233.654 174.875L232.21 172.883C231.329 173.003 230.436 173.003 229.555 172.883L228.15 174.913L224.367 173.37L224.761 170.938C224.047 170.406 223.408 169.78 222.861 169.077L220.43 169.517L218.832 165.765L220.831 164.322C220.711 163.44 220.711 162.547 220.831 161.666L218.801 160.261L220.345 156.478L222.784 156.872L222.777 156.864ZM226.83 161.079C226.507 161.883 226.43 162.764 226.608 163.611C226.786 164.459 227.211 165.234 227.83 165.84C228.449 166.445 229.234 166.854 230.085 167.013C230.936 167.173 231.816 167.076 232.612 166.736C233.408 166.395 234.085 165.827 234.558 165.101C235.031 164.376 235.278 163.527 235.268 162.661C235.258 161.795 234.992 160.951 234.503 160.237C234.013 159.523 233.323 158.969 232.519 158.647C231.442 158.216 230.238 158.23 229.171 158.686C228.104 159.142 227.262 160.003 226.83 161.079Z" fill="#E0E0E0"/>
<path fill-rule="evenodd" clip-rule="evenodd" d="M207.568 235.523C209.117 233.457 210.934 231.606 212.972 230.018L211.69 222.993L222.56 218.361L226.744 224.151C229.302 223.782 231.898 223.753 234.464 224.066L238.525 218.191L249.495 222.6L248.36 229.648C250.428 231.196 252.279 233.013 253.864 235.052L260.89 233.763L265.522 244.632L259.739 248.824C260.11 251.383 260.136 253.979 259.816 256.544L265.691 260.605L261.291 271.567L254.235 270.433C252.688 272.501 250.87 274.352 248.831 275.937L250.128 282.939L239.258 287.571L235.074 281.781C232.516 282.151 229.92 282.179 227.354 281.866L223.293 287.741L212.3 283.325L213.435 276.277C211.367 274.729 209.516 272.911 207.93 270.873L200.905 272.154L196.273 261.284L202.063 257.1C201.69 254.542 201.661 251.946 201.978 249.38L196.088 245.358L200.496 234.396L207.544 235.523H207.568ZM219.325 247.744C218.391 250.07 218.168 252.621 218.684 255.075C219.2 257.528 220.432 259.773 222.224 261.526C224.016 263.279 226.288 264.462 228.752 264.924C231.215 265.386 233.761 265.108 236.067 264.123C238.372 263.139 240.334 261.493 241.704 259.394C243.075 257.294 243.792 254.836 243.765 252.329C243.738 249.822 242.968 247.38 241.553 245.31C240.138 243.241 238.141 241.638 235.815 240.703C234.27 240.082 232.618 239.772 230.953 239.79C229.288 239.808 227.643 240.153 226.112 240.807C224.58 241.461 223.193 242.41 222.028 243.6C220.864 244.79 219.945 246.198 219.325 247.744Z" fill="#F5F5F5"/>
<path d="M159.148 256.923C159.316 256.368 159.577 255.846 159.92 255.379C160.851 254.05 162.216 253.087 163.78 252.654C164.935 252.324 166.155 252.293 167.325 252.563C168.496 252.833 169.579 253.395 170.473 254.198C170.994 254.654 171.441 255.188 171.801 255.78C172.192 256.39 172.479 257.06 172.65 257.764C173.04 259.249 172.942 260.82 172.37 262.245C171.799 263.67 170.785 264.873 169.477 265.677C168.862 266.062 168.19 266.346 167.485 266.519C166.817 266.703 166.124 266.779 165.432 266.743C164.231 266.701 163.06 266.356 162.028 265.739C160.997 265.122 160.139 264.253 159.534 263.215C158.713 261.819 158.401 260.182 158.654 258.583C158.734 258.005 158.909 257.444 159.171 256.923C159.021 257.477 158.899 258.039 158.808 258.606C158.629 260.157 158.971 261.724 159.781 263.06C160.333 263.972 161.092 264.741 161.996 265.307C163.031 265.955 164.219 266.317 165.44 266.357C166.8 266.403 168.144 266.043 169.3 265.322C170.533 264.561 171.491 263.425 172.031 262.08C172.572 260.735 172.667 259.252 172.303 257.849C172.149 257.184 171.889 256.547 171.531 255.965C171.194 255.391 170.772 254.87 170.28 254.421C169.369 253.604 168.259 253.043 167.061 252.793C166.017 252.58 164.939 252.614 163.911 252.893C162.4 253.29 161.068 254.185 160.128 255.433C159.775 255.911 159.448 256.409 159.148 256.923Z" fill="#263238"/>
<path d="M152.64 250.167H152.393L151.621 250.059L148.695 249.627L148.765 249.588C148.155 251.132 147.344 253.194 146.364 255.664V255.548L149.622 257.779L149.684 257.818V257.849C149.516 259.255 149.537 260.678 149.745 262.079V262.157L149.684 262.203L146.487 264.519L146.534 264.341L149.112 270.355L148.942 270.255L152.802 269.545H152.903L152.965 269.622C153.835 270.735 154.85 271.726 155.983 272.571L156.068 272.633V272.741C155.875 273.945 155.659 275.281 155.443 276.639L155.335 276.446L161.402 278.878L161.179 278.94L163.425 275.69L163.487 275.597H163.603C165.004 275.767 166.421 275.749 167.818 275.543H167.934L168.003 275.636L170.319 278.839L170.08 278.77L176.094 276.207L175.978 276.423C175.754 275.196 175.507 273.868 175.268 272.563V272.44L175.36 272.362C176.473 271.498 177.465 270.488 178.309 269.359L178.379 269.259H178.502L182.401 269.884L182.185 270.008L184.624 263.94L184.694 264.179L181.42 261.94L181.32 261.871V261.755C181.509 260.356 181.509 258.939 181.32 257.54V257.424L181.413 257.355L184.617 255.039L184.555 255.27C183.675 253.217 182.825 251.21 181.992 249.256L182.192 249.365L178.332 250.075H178.224L178.155 249.99C177.269 248.875 176.238 247.883 175.09 247.041L175.005 246.979V246.879C175.221 245.535 175.43 244.238 175.638 242.98L175.739 243.158L169.678 240.71L169.864 240.649L167.609 243.899L167.555 243.968H167.524C166.123 243.778 164.703 243.778 163.302 243.968H163.217L163.17 243.899L160.854 240.687L160.993 240.734L154.972 243.266L155.026 243.173L155.705 247.033V247.072C154.862 247.724 154.086 248.458 153.389 249.264L152.872 249.866L152.702 250.067C152.744 249.988 152.793 249.913 152.849 249.843C152.949 249.704 153.111 249.488 153.335 249.218C154.028 248.392 154.804 247.639 155.651 246.971V247.033L154.918 243.173V243.104H154.987L160.986 240.51L161.071 240.471L161.132 240.548L163.448 243.744L163.325 243.69C164.749 243.481 166.195 243.463 167.625 243.636L167.486 243.69L169.725 240.44L169.794 240.34L169.91 240.386L175.978 242.81L176.101 242.857V242.988C175.893 244.254 175.692 245.551 175.476 246.894L175.414 246.724C176.571 247.588 177.61 248.6 178.502 249.735L178.325 249.673L182.185 248.955H182.331L182.385 249.087C183.219 251.04 184.084 253.047 184.956 255.1L185.018 255.239L184.894 255.332L181.691 257.648L181.776 257.463C181.98 258.893 181.996 260.344 181.822 261.778L181.737 261.593L184.987 263.832L185.118 263.924L185.064 264.071C184.179 266.099 183.335 268.142 182.532 270.201L182.47 270.355H182.316L178.456 269.73L178.649 269.653C177.786 270.813 176.771 271.852 175.63 272.741L175.708 272.548C175.947 273.883 176.194 275.211 176.418 276.408V276.562L176.271 276.624L170.257 279.187L170.111 279.249L170.026 279.125L167.71 275.921L167.895 275.999C166.465 276.202 165.014 276.218 163.58 276.045L163.757 275.96C162.985 277.087 162.213 278.199 161.511 279.21L161.426 279.334L161.287 279.28L155.172 276.786L155.033 276.732V276.593C155.257 275.234 155.474 273.899 155.667 272.733L155.736 272.895C154.576 272.032 153.537 271.017 152.648 269.877L152.81 269.938L148.95 270.641H148.827L148.773 270.525L146.225 264.503L146.179 264.395L146.271 264.334L149.483 262.018L149.429 262.141C149.236 260.717 149.236 259.273 149.429 257.849L149.475 257.957L146.233 255.695L146.171 255.649V255.579L148.649 249.527V249.473H148.703L151.59 249.974L152.362 250.113L152.64 250.167Z" fill="#263238"/>
<path fill-rule="evenodd" clip-rule="evenodd" d="M137.787 169.894C139.014 166.556 140.68 163.396 142.743 160.499L138.289 151.714L150.834 141.315L158.638 147.313C161.868 145.821 165.282 144.767 168.79 144.179L171.878 134.814L188.09 136.358L189.364 146.124C192.704 147.351 195.864 149.02 198.759 151.088L207.545 146.626L217.943 159.171L211.937 166.976C213.435 170.204 214.492 173.618 215.079 177.128L224.444 180.216L222.9 196.428L213.149 197.632C211.923 200.972 210.253 204.132 208.185 207.027L212.648 215.813L200.103 226.235L192.298 220.229C189.07 221.726 185.655 222.783 182.146 223.371L179.058 232.735L162.846 231.191L161.572 221.425C158.232 220.199 155.072 218.529 152.177 216.461L143.391 220.923L133.008 208.44L139.006 200.635C137.512 197.396 136.458 193.971 135.872 190.452L126.508 187.364L128.052 171.152L137.818 169.879L137.787 169.894ZM158.129 181.42C157.806 184.864 158.512 188.326 160.158 191.368C161.803 194.411 164.313 196.897 167.372 198.512C170.43 200.128 173.899 200.8 177.339 200.444C180.78 200.088 184.037 198.719 186.7 196.511C189.362 194.303 191.31 191.356 192.297 188.041C193.284 184.726 193.266 181.192 192.245 177.888C191.223 174.583 189.245 171.656 186.56 169.476C183.874 167.296 180.603 165.961 177.159 165.64C174.873 165.427 172.568 165.665 170.374 166.343C168.181 167.02 166.142 168.123 164.375 169.588C162.608 171.054 161.147 172.853 160.075 174.883C159.003 176.913 158.342 179.134 158.129 181.42Z" fill="#E0E0E0"/>
<path d="M490.328 111.939H241.96C240.566 111.939 239.436 113.07 239.436 114.464V282.521C239.436 283.915 240.566 285.045 241.96 285.045H490.328C491.722 285.045 492.852 283.915 492.852 282.521V114.464C492.852 113.07 491.722 111.939 490.328 111.939Z" fill="#FF5400"/>
<path d="M493.092 285.23L238.548 286.18L239.173 124.508H493.092V285.23Z" fill="#FAFAFA"/>
<path d="M257.508 118.81C257.502 119.127 257.402 119.435 257.222 119.695C257.042 119.955 256.788 120.156 256.494 120.273C256.2 120.389 255.877 120.416 255.568 120.35C255.258 120.284 254.975 120.128 254.754 119.901C254.533 119.675 254.383 119.388 254.325 119.077C254.266 118.766 254.301 118.444 254.424 118.153C254.548 117.861 254.755 117.613 255.019 117.439C255.284 117.265 255.593 117.172 255.91 117.174C256.339 117.18 256.747 117.356 257.047 117.662C257.346 117.969 257.512 118.382 257.508 118.81Z" fill="#263238"/>
<path d="M248.275 118.865C248.27 119.182 248.172 119.49 247.993 119.751C247.814 120.012 247.561 120.214 247.268 120.332C246.974 120.45 246.652 120.479 246.342 120.414C246.032 120.35 245.748 120.195 245.526 119.969C245.303 119.744 245.153 119.458 245.093 119.147C245.033 118.836 245.066 118.514 245.188 118.222C245.31 117.93 245.516 117.681 245.779 117.505C246.043 117.33 246.352 117.236 246.669 117.236C247.098 117.24 247.507 117.414 247.808 117.719C248.109 118.025 248.277 118.437 248.275 118.865Z" fill="#263238"/>
<path d="M252.999 118.81C252.993 119.127 252.894 119.434 252.714 119.694C252.534 119.954 252.281 120.155 251.987 120.272C251.693 120.389 251.371 120.416 251.062 120.351C250.752 120.285 250.469 120.13 250.248 119.904C250.026 119.678 249.876 119.392 249.817 119.082C249.757 118.771 249.791 118.45 249.913 118.158C250.036 117.867 250.241 117.618 250.505 117.442C250.768 117.267 251.077 117.174 251.394 117.174C251.606 117.176 251.817 117.22 252.013 117.303C252.209 117.386 252.386 117.508 252.535 117.66C252.685 117.812 252.802 117.991 252.882 118.189C252.961 118.386 253.001 118.598 252.999 118.81Z" fill="#263238"/>
<path d="M479.466 227.105H254.821V274.969H479.466V227.105Z" fill="#EBEBEB"/>
<path d="M458.459 235.707C458.459 235.815 414.857 235.907 361.079 235.907C307.302 235.907 263.691 235.815 263.691 235.707C263.691 235.599 307.286 235.506 361.079 235.506C414.872 235.506 458.459 235.583 458.459 235.707Z" fill="#263238"/>
<path d="M356.024 263.444C356.024 263.405 356.579 263.444 357.568 263.243C359.074 262.93 360.458 262.187 361.551 261.104C362.399 260.261 363.044 259.235 363.436 258.104C363.828 256.974 363.957 255.769 363.813 254.581C363.721 253.868 363.537 253.17 363.265 252.504C362.959 251.802 362.559 251.145 362.076 250.551C361.007 249.264 359.554 248.353 357.93 247.95C357.054 247.754 356.156 247.676 355.259 247.718H352.418H346.374H333.041H302.501C301.183 247.728 299.889 248.065 298.733 248.698C297.599 249.336 296.641 250.246 295.946 251.346C295.277 252.405 294.875 253.61 294.776 254.859C294.676 256.107 294.882 257.361 295.375 258.512C295.868 259.663 296.634 260.677 297.607 261.466C298.579 262.256 299.729 262.796 300.957 263.042C302.149 263.201 303.353 263.255 304.554 263.204H308.113L333.064 263.251L349.878 263.312L354.449 263.351H349.878L333.064 263.42L308.113 263.459H304.554C303.327 263.512 302.097 263.458 300.88 263.297C299.253 262.963 297.767 262.14 296.623 260.937C295.478 259.734 294.729 258.209 294.477 256.568C294.225 254.927 294.481 253.248 295.212 251.757C295.942 250.266 297.112 249.034 298.564 248.227C299.777 247.557 301.138 247.202 302.524 247.193H333.064H346.397H352.441H355.282C356.203 247.149 357.126 247.234 358.023 247.448C359.702 247.87 361.201 248.819 362.3 250.157C362.791 250.775 363.199 251.455 363.512 252.18C363.785 252.869 363.969 253.591 364.06 254.326C364.294 256.325 363.765 258.339 362.578 259.965C361.392 261.591 359.635 262.709 357.66 263.096C357.267 263.166 356.87 263.204 356.471 263.212L356.024 263.444Z" fill="#263238"/>
<path d="M440.094 263.445C440.094 263.407 440.649 263.445 441.638 263.245C443.127 262.922 444.493 262.18 445.575 261.106C446.422 260.262 447.065 259.235 447.456 258.105C447.846 256.975 447.974 255.77 447.829 254.583C447.737 253.87 447.553 253.172 447.281 252.506C446.975 251.806 446.578 251.149 446.1 250.553C445.03 249.266 443.578 248.355 441.954 247.951C441.078 247.756 440.18 247.678 439.283 247.72H436.434H430.39H417.065H386.517C385.199 247.731 383.905 248.067 382.749 248.7C381.359 249.463 380.237 250.635 379.536 252.058C378.836 253.48 378.59 255.084 378.833 256.651C379.076 258.219 379.796 259.673 380.894 260.817C381.993 261.96 383.417 262.738 384.973 263.044C386.165 263.203 387.369 263.257 388.57 263.206H392.137L417.08 263.252L433.894 263.314L438.472 263.353H433.894L417.08 263.422L392.137 263.461H388.57C387.343 263.514 386.113 263.459 384.896 263.299C383.607 263.038 382.402 262.469 381.382 261.64C380.363 260.81 379.559 259.746 379.042 258.538C378.524 257.33 378.307 256.015 378.41 254.705C378.512 253.395 378.931 252.129 379.631 251.016C380.355 249.855 381.362 248.896 382.556 248.229C383.77 247.56 385.131 247.205 386.517 247.195H417.065H430.39H436.434H439.283C440.204 247.151 441.127 247.237 442.024 247.45C443.7 247.873 445.196 248.823 446.293 250.159C446.787 250.775 447.195 251.456 447.505 252.182C447.777 252.871 447.962 253.592 448.053 254.328C448.287 256.327 447.758 258.341 446.571 259.967C445.385 261.593 443.628 262.711 441.653 263.098C441.263 263.167 440.868 263.206 440.472 263.214L440.094 263.445Z" fill="#263238"/>
<path d="M334.045 138.002H253V215.256H334.045V138.002Z" fill="#FF5400"/>
<path d="M332.145 211.774C332.145 211.774 332.145 211.318 332.145 210.469C332.145 209.62 332.145 208.339 332.145 206.694C332.145 203.39 332.145 198.557 332.099 192.412C332.099 180.114 332.045 162.551 332.014 141.46L332.184 141.638H256.219L256.42 141.437C256.42 167.083 256.42 191.177 256.42 211.774L256.242 211.596L311.216 211.681L326.695 211.728H330.794H331.852H332.215H330.833H326.772L311.332 211.774L256.25 211.867H256.072V211.774C256.072 191.177 256.072 167.083 256.072 141.437V141.236H256.281H332.246H332.415V141.406C332.377 162.567 332.346 180.168 332.33 192.489C332.33 198.619 332.33 203.436 332.284 206.733C332.284 208.362 332.284 209.62 332.284 210.469C332.284 211.318 332.145 211.774 332.145 211.774Z" fill="#263238"/>
<path d="M332.145 174.619C332.035 174.554 331.932 174.479 331.836 174.395L330.971 173.708L327.706 171.052L316.002 161.379H316.211L293.993 179.567L290.202 182.655L290.071 182.763L289.94 182.647L278.313 172.056H278.56L262.711 185.735L258.18 189.595L256.968 190.614L256.659 190.869L256.543 190.946C256.543 190.946 256.543 190.908 256.636 190.846L256.929 190.568L258.102 189.51L262.565 185.566L278.321 171.778L278.445 171.67L278.56 171.778L290.21 182.346H289.955L293.738 179.258L316.002 161.124L316.11 161.039L316.211 161.132L327.86 170.905L331.072 173.638L331.906 174.356C331.991 174.438 332.071 174.526 332.145 174.619Z" fill="#263238"/>
<path d="M298.78 156.747C298.733 156.747 298.78 156.238 298.525 155.365C298.186 154.13 297.444 153.043 296.417 152.277C295.722 151.753 294.913 151.401 294.055 151.25C293.074 151.076 292.065 151.164 291.129 151.505C290.06 151.899 289.136 152.611 288.484 153.546C287.831 154.48 287.48 155.592 287.477 156.732C287.479 157.914 287.855 159.065 288.551 160.02C289.198 160.91 290.096 161.587 291.129 161.966C292.065 162.307 293.074 162.395 294.055 162.221C294.913 162.07 295.722 161.718 296.417 161.194C297.444 160.428 298.186 159.341 298.525 158.106C298.756 157.233 298.733 156.716 298.78 156.716C298.789 156.84 298.789 156.963 298.78 157.087C298.774 157.443 298.73 157.798 298.648 158.144C298.356 159.439 297.622 160.591 296.572 161.402C295.847 161.97 294.998 162.357 294.094 162.529C293.235 162.699 292.35 162.676 291.502 162.462C290.654 162.249 289.863 161.85 289.188 161.294C288.512 160.739 287.968 160.04 287.594 159.25C287.22 158.459 287.026 157.595 287.026 156.72C287.026 155.845 287.22 154.981 287.594 154.191C287.968 153.4 288.512 152.701 289.188 152.146C289.863 151.59 290.654 151.192 291.502 150.978C292.35 150.764 293.235 150.741 294.094 150.911C294.997 151.085 295.846 151.471 296.572 152.038C297.622 152.849 298.356 154.001 298.648 155.296C298.73 155.643 298.774 155.997 298.78 156.353C298.792 156.484 298.792 156.616 298.78 156.747Z" fill="#263238"/>
<path d="M500.611 195.858L491.91 184.988C491.91 184.988 477.868 195.943 476.324 195.109C467.508 190.477 460.382 181.985 457.966 178.897C457.881 178.341 457.796 177.677 457.726 176.897C457.676 176.223 457.739 175.544 457.912 174.89C458.099 174.082 458.395 173.303 458.792 172.574C458.895 172.449 458.956 172.296 458.967 172.134C458.977 171.973 458.937 171.813 458.852 171.675C458.767 171.538 458.641 171.431 458.491 171.369C458.342 171.308 458.177 171.294 458.02 171.331C457.356 171.563 456.113 173.292 455.704 175.739C455.295 178.187 453.388 174.782 452.616 173.555C451.844 172.327 449.481 168.629 448.926 168.552C448.115 168.444 447.845 169.324 448.601 170.505C449.358 171.686 451.342 175.5 450.678 175.847C450.014 176.195 446.424 169.888 446.424 169.888C446.424 169.888 445.876 168.421 445.089 168.799C443.676 169.486 447.991 175.901 448.416 176.519C448.709 176.936 447.999 177.337 447.706 176.874C447.412 176.411 444.27 170.505 442.819 171.192C441.707 171.709 446.316 176.504 446.293 178.086C446.27 179.669 443.166 174.095 442.124 174.643C441.738 174.844 441.476 175.052 443.715 177.994C445.41 180.044 447.214 182.003 449.119 183.861C449.119 183.861 469.878 215.767 484.299 207.252C499.592 198.174 500.611 195.858 500.611 195.858Z" fill="#EB996E"/>
<path d="M534.316 331.188L529.823 327.699L536.293 319.207L542.924 324.233L542.554 324.789C540.901 327.22 533.961 337.048 532.294 338.245C530.441 339.634 534.316 331.188 534.316 331.188Z" fill="#FF5400"/>
<g opacity="0.4">
<path d="M532.549 335.428C532.549 335.428 531.344 338.516 532 338.516C532.657 338.516 540.045 328.858 542.924 324.303L542.723 324.18L534.231 335.52C534.231 335.52 532.942 334.949 532.549 335.428Z" fill="white"/>
</g>
<path d="M542.824 324.024L542.723 324.179L542.43 324.619L541.326 326.209C540.376 327.544 539.01 329.366 537.528 331.358C536.046 333.35 534.602 335.11 533.567 336.376C533.081 336.963 532.664 337.457 532.332 337.866L531.985 338.26L531.861 338.399C531.861 338.399 531.861 338.345 531.962 338.244L532.294 337.835L533.498 336.291C534.517 335.017 535.914 333.242 537.427 331.25C538.941 329.258 540.284 327.452 541.287 326.132L542.43 324.588L542.747 324.163C542.777 324.07 542.816 324.016 542.824 324.024Z" fill="#263238"/>
<path d="M534.34 335.604C534.035 335.477 533.716 335.387 533.39 335.334C533.06 335.32 532.728 335.344 532.402 335.403C532.699 335.217 533.053 335.146 533.398 335.203C533.752 335.21 534.09 335.354 534.34 335.604Z" fill="#263238"/>
<path d="M534.995 332.138C534.995 332.138 534.756 332.184 534.471 332.138C534.185 332.091 533.946 332.061 533.953 332.022C534.126 331.985 534.305 331.985 534.478 332.022C534.657 332.019 534.835 332.059 534.995 332.138Z" fill="#263238"/>
<path d="M535.142 331.189C535.142 331.189 534.957 331.289 534.717 331.336C534.478 331.382 534.27 331.39 534.262 331.336C534.254 331.282 534.447 331.235 534.694 331.189C534.941 331.143 535.134 331.143 535.142 331.189Z" fill="#263238"/>
<path d="M534.679 330.132C534.619 330.312 534.522 330.478 534.394 330.618C534.209 330.865 534.039 331.05 534.008 331.027C534.068 330.847 534.165 330.681 534.293 330.541C534.479 330.294 534.649 330.116 534.679 330.132Z" fill="#263238"/>
<path d="M534.224 329.553C534.224 329.553 534.224 329.854 533.993 330.155C533.761 330.456 533.56 330.641 533.537 330.618C533.637 330.431 533.753 330.253 533.885 330.085C533.987 329.901 534.101 329.723 534.224 329.553Z" fill="#263238"/>
<path d="M534.023 331.86C533.918 332.064 533.777 332.247 533.606 332.401C533.432 332.581 533.241 332.744 533.035 332.887C532.915 332.976 532.786 333.051 532.649 333.111C532.56 333.146 532.46 333.146 532.371 333.111C532.326 333.087 532.287 333.052 532.26 333.009C532.233 332.965 532.218 332.915 532.217 332.864C532.254 332.68 532.332 332.507 532.445 332.357C532.558 332.207 532.703 332.084 532.869 331.996C533.035 331.909 533.219 331.86 533.407 331.853C533.594 331.845 533.781 331.879 533.954 331.953C534.062 331.999 534.116 332.046 534.108 332.053C533.897 331.981 533.675 331.95 533.452 331.961C533.215 331.971 532.987 332.051 532.796 332.192C532.678 332.269 532.577 332.369 532.499 332.485C532.42 332.602 532.366 332.734 532.34 332.872C532.34 333.011 532.464 333.057 532.595 333.003C532.723 332.947 532.845 332.877 532.958 332.794C533.161 332.659 533.355 332.51 533.537 332.347C533.846 332.053 534.008 331.853 534.023 331.86Z" fill="#263238"/>
<path d="M533.946 332.022C533.782 332.003 533.63 331.923 533.521 331.798C533.387 331.675 533.289 331.517 533.236 331.343C533.189 331.236 533.171 331.118 533.183 331.002C533.196 330.886 533.238 330.774 533.305 330.679C533.357 330.633 533.425 330.607 533.494 330.607C533.564 330.607 533.631 330.633 533.684 330.679C533.759 330.759 533.817 330.853 533.853 330.957C533.921 331.12 533.966 331.291 533.985 331.466C534.026 331.623 534.026 331.788 533.985 331.945C533.985 331.945 533.985 331.768 533.915 331.482C533.879 331.318 533.828 331.157 533.761 331.003C533.707 330.841 533.537 330.633 533.406 330.756C533.365 330.839 533.344 330.93 533.344 331.023C533.344 331.115 533.365 331.206 533.406 331.289C533.449 331.446 533.529 331.592 533.637 331.713C533.729 331.827 533.833 331.931 533.946 332.022Z" fill="#263238"/>
<path d="M540.4 322.427C540.4 322.427 540.191 322.651 539.944 323.067C539.623 323.612 539.455 324.234 539.458 324.866C539.478 325.495 539.671 326.107 540.014 326.634C540.276 327.043 540.516 327.244 540.493 327.259C540.431 327.223 540.374 327.179 540.323 327.128C540.18 326.994 540.051 326.847 539.937 326.688C539.563 326.152 539.353 325.519 539.335 324.866C539.322 324.211 539.508 323.568 539.867 323.021C539.969 322.855 540.09 322.702 540.23 322.566C540.307 322.465 540.4 322.419 540.4 322.427Z" fill="#263238"/>
<path d="M536.177 320.611C536.802 320.993 537.403 321.413 537.975 321.87C538.576 322.284 539.149 322.738 539.689 323.228C539.689 323.228 538.871 322.688 537.898 321.97C537.3 321.549 536.725 321.095 536.177 320.611Z" fill="#263238"/>
<path d="M538.856 327.745C538.641 328.221 538.366 328.667 538.037 329.073C537.743 329.506 537.39 329.896 536.987 330.231C536.987 330.231 537.42 329.683 537.929 328.995C538.439 328.308 538.856 327.722 538.856 327.745Z" fill="#263238"/>
<path d="M540.137 326.078C540.176 326.078 540.222 326.217 540.307 326.371C540.392 326.526 540.477 326.642 540.454 326.665C540.431 326.688 540.284 326.611 540.191 326.433C540.099 326.256 540.106 326.086 540.137 326.078Z" fill="#263238"/>
<path d="M539.837 324.857C539.875 324.857 539.922 324.981 539.945 325.135C539.968 325.29 539.945 325.421 539.945 325.421C539.945 325.421 539.868 325.305 539.844 325.151C539.821 324.996 539.806 324.865 539.837 324.857Z" fill="#263238"/>
<path d="M540.168 323.693C540.168 323.693 540.099 323.832 540.052 323.994C540.006 324.156 539.998 324.295 539.96 324.295C539.921 324.295 539.859 324.148 539.96 323.955C540.06 323.762 540.145 323.67 540.168 323.693Z" fill="#263238"/>
<path d="M540.485 322.928C540.485 322.928 540.485 323.021 540.485 323.114C540.485 323.206 540.407 323.268 540.369 323.26C540.33 323.253 540.33 323.168 540.369 323.075C540.407 322.982 540.446 322.921 540.485 322.928Z" fill="#263238"/>
<g opacity="0.3">
<path d="M540.137 322.264L533.537 330.617L532.525 329.822L539.651 321.785L540.137 322.264Z" fill="#333333"/>
</g>
<path d="M499.414 347.849L498.696 342.206L509.257 340.801L510.392 349.046L509.743 349.177C506.848 349.725 494.998 351.771 492.968 351.439C490.706 351.068 499.414 347.849 499.414 347.849Z" fill="#FF5400"/>
<g opacity="0.4">
<path d="M495.184 349.577C495.184 349.577 492.157 350.905 492.62 351.368C493.084 351.831 505.135 350.218 510.376 349.052L510.33 348.82L496.28 350.82C496.28 350.82 495.801 349.523 495.184 349.577Z" fill="white"/>
</g>
<path d="M510.508 348.783L510.33 348.83L509.813 348.93L507.906 349.27C506.293 349.54 504.046 349.895 501.584 350.227C499.121 350.559 496.859 350.814 495.23 350.999L493.3 351.176L492.775 351.215L493.292 351.153L495.222 350.937C496.844 350.752 499.082 350.489 501.56 350.165C504.039 349.841 506.27 349.493 507.891 349.239L509.805 348.938L510.323 348.86C510.38 348.826 510.443 348.8 510.508 348.783Z" fill="#263238"/>
<path d="M496.319 350.976C496.19 350.672 496.029 350.382 495.84 350.111C495.608 349.867 495.349 349.649 495.068 349.463C495.413 349.54 495.718 349.741 495.925 350.026C496.17 350.283 496.311 350.621 496.319 350.976Z" fill="#263238"/>
<path d="M499.221 348.983C499.068 348.891 498.937 348.767 498.835 348.62C498.65 348.396 498.519 348.195 498.549 348.172C498.58 348.149 498.75 348.311 498.935 348.535C499.121 348.759 499.252 348.944 499.221 348.983Z" fill="#263238"/>
<path d="M500.017 348.412C500.017 348.412 499.816 348.35 499.616 348.211C499.415 348.072 499.26 347.941 499.284 347.91C499.307 347.879 499.484 347.972 499.685 348.111C499.886 348.25 500.04 348.381 500.017 348.412Z" fill="#263238"/>
<path d="M500.425 347.347C500.258 347.433 500.073 347.48 499.885 347.486C499.7 347.531 499.506 347.531 499.321 347.486C499.492 347.4 499.679 347.353 499.869 347.347C500.052 347.301 500.243 347.301 500.425 347.347Z" fill="#263238"/>
<path d="M500.518 346.629C500.353 346.777 500.145 346.868 499.924 346.891C499.716 346.962 499.491 346.962 499.283 346.891C499.484 346.829 499.691 346.788 499.901 346.768C500.103 346.706 500.309 346.66 500.518 346.629Z" fill="#263238"/>
<path d="M498.712 348.103C498.493 348.174 498.263 348.205 498.033 348.195C497.774 348.198 497.515 348.175 497.261 348.126C497.11 348.11 496.962 348.074 496.821 348.018C496.736 347.979 496.667 347.91 496.628 347.825C496.609 347.776 496.604 347.723 496.615 347.673C496.626 347.622 496.652 347.575 496.69 347.539C496.847 347.438 497.025 347.372 497.211 347.347C497.397 347.322 497.586 347.338 497.765 347.394C497.944 347.45 498.108 347.545 498.246 347.671C498.385 347.798 498.494 347.953 498.566 348.126C498.592 348.181 498.606 348.242 498.604 348.303C498.505 348.104 498.374 347.922 498.218 347.763C498.039 347.607 497.82 347.505 497.585 347.47C497.316 347.42 497.039 347.479 496.813 347.632C496.713 347.724 496.775 347.848 496.898 347.902C497.031 347.95 497.168 347.986 497.307 348.01C497.544 348.06 497.784 348.091 498.025 348.103C498.481 348.118 498.712 348.087 498.712 348.103Z" fill="#263238"/>
<path d="M498.573 348.173C498.473 348.04 498.423 347.875 498.434 347.709C498.426 347.53 498.466 347.351 498.55 347.192C498.593 347.083 498.663 346.987 498.753 346.913C498.844 346.838 498.952 346.788 499.067 346.768C499.138 346.773 499.204 346.806 499.251 346.86C499.299 346.913 499.324 346.982 499.322 347.053C499.319 347.163 499.293 347.271 499.245 347.37C499.175 347.531 499.087 347.684 498.982 347.825C498.797 348.065 498.635 348.165 498.627 348.149C498.619 348.134 498.743 348.011 498.905 347.771C498.996 347.632 499.074 347.485 499.137 347.331C499.206 347.169 499.237 346.907 499.067 346.899C498.897 346.891 498.743 347.1 498.658 347.246C498.576 347.388 498.529 347.546 498.519 347.709C498.522 347.865 498.54 348.02 498.573 348.173Z" fill="#263238"/>
<path d="M509.906 345.927C509.906 345.927 509.597 345.927 509.134 346.058C508.523 346.213 507.968 346.534 507.528 346.984C507.096 347.444 506.797 348.012 506.663 348.629C506.563 349.107 506.594 349.401 506.563 349.401C506.553 349.332 506.553 349.261 506.563 349.192C506.543 348.997 506.543 348.801 506.563 348.606C506.666 347.958 506.965 347.358 507.419 346.884C507.872 346.411 508.46 346.088 509.103 345.958C509.293 345.919 509.487 345.899 509.682 345.896C509.758 345.891 509.834 345.901 509.906 345.927Z" fill="#263238"/>
<path d="M508.223 341.672C508.515 343.102 508.726 344.548 508.856 346.003C508.692 345.292 508.565 344.573 508.477 343.849C508.347 343.129 508.262 342.402 508.223 341.672Z" fill="#263238"/>
<path d="M505.081 348.62C504.585 348.808 504.066 348.93 503.537 348.982C503.028 349.079 502.509 349.105 501.993 349.06C501.993 349.06 502.688 348.975 503.537 348.851C504.386 348.728 505.073 348.581 505.081 348.62Z" fill="#263238"/>
<path d="M507.149 348.343C507.149 348.343 507.149 348.497 507.064 348.659C506.98 348.821 506.995 348.976 506.964 348.976C506.933 348.976 506.887 348.821 506.964 348.628C507.041 348.435 507.126 348.32 507.149 348.343Z" fill="#263238"/>
<path d="M507.806 347.269C507.806 347.269 507.806 347.408 507.682 347.532C507.559 347.655 507.489 347.74 507.458 347.717C507.428 347.694 507.458 347.578 507.582 347.455C507.705 347.331 507.775 347.246 507.806 347.269Z" fill="#263238"/>
<path d="M508.864 346.674C508.864 346.674 508.717 346.728 508.57 346.806C508.424 346.883 508.323 346.975 508.292 346.952C508.261 346.929 508.331 346.775 508.508 346.69C508.686 346.605 508.864 346.628 508.864 346.674Z" fill="#263238"/>
<path d="M509.628 346.359C509.628 346.359 509.628 346.452 509.505 346.498C509.381 346.545 509.343 346.552 509.327 346.498C509.312 346.444 509.327 346.406 509.443 346.359C509.559 346.313 509.613 346.328 509.628 346.359Z" fill="#263238"/>
<g opacity="0.3">
<path d="M509.852 345.64L499.283 346.875L499.129 345.601L509.736 344.258L509.852 345.64Z" fill="#333333"/>
</g>
<path d="M514.237 177.515C515.892 177.396 517.553 177.627 519.113 178.192C520.674 178.757 522.097 179.644 523.292 180.796L525.469 191.526L521.741 206.565C520.644 210.965 523.848 217.11 524.705 224.321L495.246 229.501L495.161 211.845L492.073 202.45L487.225 205.592L476.872 193.595L486.476 185.945C491.091 181.451 497.15 178.738 503.576 178.287" fill="#FF5400"/>
<path d="M495.161 192.43C495.161 192.491 494.52 192.723 493.617 193.395C492.485 194.277 491.655 195.488 491.239 196.861C490.864 198.248 490.937 199.718 491.447 201.061C491.833 202.095 492.281 202.643 492.219 202.682C491.738 202.27 491.376 201.737 491.169 201.138C490.547 199.746 490.439 198.179 490.863 196.715C491.287 195.251 492.216 193.984 493.485 193.14C493.975 192.766 494.551 192.521 495.161 192.43Z" fill="#263238"/>
<path d="M502.696 178.194C502.779 179.168 503.041 180.117 503.468 180.996C503.946 181.927 504.649 182.723 505.513 183.312C506.589 184.005 507.858 184.335 509.134 184.255C510.411 184.174 511.628 183.687 512.608 182.865C513.393 182.173 513.99 181.294 514.345 180.309C514.646 179.383 514.776 178.41 514.731 177.438C514.826 177.684 514.878 177.945 514.885 178.21C514.932 178.946 514.84 179.684 514.615 180.387C514.279 181.44 513.669 182.386 512.847 183.127C511.817 184.024 510.519 184.556 509.156 184.641C507.793 184.726 506.439 184.359 505.305 183.598C504.4 182.962 503.679 182.1 503.213 181.097C502.899 180.43 502.718 179.709 502.68 178.974C502.631 178.716 502.636 178.45 502.696 178.194Z" fill="#263238"/>
<path d="M474.417 217.457C473.591 216.307 467.816 215.326 468.31 214.369C468.943 213.103 474.285 215.666 474.756 215.851C475.227 216.037 475.482 215.357 475.05 215.211C474.432 215.01 467.994 212.694 468.611 211.451C468.951 210.764 470.155 211.528 470.155 211.528C470.155 211.528 476.03 214.138 476.331 213.543C476.632 212.949 473.205 211.281 472.016 210.81C470.827 210.339 470.58 209.591 471.205 209.266C471.63 209.027 475.289 210.393 476.447 210.895C477.605 211.397 480.778 212.81 479.751 210.826L479.705 210.733C478.647 208.811 478.47 206.981 478.779 206.418C478.86 206.304 478.971 206.214 479.099 206.158C479.227 206.103 479.369 206.083 479.507 206.101C479.646 206.119 479.777 206.175 479.887 206.262C479.997 206.349 480.08 206.464 480.13 206.595C480.179 206.688 480.208 206.791 480.214 206.896C480.214 206.95 480.214 207.012 480.214 207.066C480.427 207.786 480.715 208.482 481.071 209.143C481.382 209.741 481.789 210.283 482.276 210.749C482.847 211.281 483.357 211.721 483.82 212.076C487.68 212.771 498.688 214.331 508.331 211.868C510.075 211.42 516.251 191.881 516.251 191.881L528.04 197.617C527.561 199.933 525.438 205.723 522.366 215.512C517.34 231.492 480.678 220.283 480.678 220.283L480.353 220.244C477.756 219.902 475.179 219.42 472.633 218.801C469.499 217.882 469.545 217.596 469.731 217.257C470.148 216.261 475.251 218.615 474.417 217.457Z" fill="#FFBE9D"/>
<path d="M509.173 208.44C509.343 207.627 509.577 206.829 509.875 206.054L511.705 200.365C512.369 198.188 512.971 196.219 513.457 194.644C513.658 193.854 513.916 193.08 514.229 192.328C514.126 193.151 513.955 193.964 513.72 194.76C513.342 196.25 512.778 198.288 512.076 200.519C511.373 202.75 510.671 204.757 510.122 206.186C509.867 206.961 509.55 207.715 509.173 208.44Z" fill="#263238"/>
<path d="M520.027 178.611C520.027 178.611 528.118 180.055 528.442 193.279C528.608 201.329 526.887 209.306 523.416 216.57L509.173 209.113C512.37 202.715 514.776 195.951 516.337 188.971L520.019 178.604L520.027 178.611Z" fill="#FF5400"/>
<path d="M508.879 208.92C509.606 209.223 510.311 209.58 510.986 209.985C512.276 210.665 514.074 211.599 516.051 212.571C518.027 213.544 519.911 214.355 521.223 214.942C521.96 215.219 522.675 215.552 523.362 215.937C522.591 215.764 521.839 215.518 521.115 215.204C519.749 214.687 517.88 213.899 515.873 212.934C513.866 211.969 512.098 210.981 510.847 210.232C510.151 209.859 509.491 209.42 508.879 208.92Z" fill="#263238"/>
<path d="M528.141 199.986C528.113 200.789 528.01 201.588 527.832 202.372C527.569 203.831 527.129 205.838 526.535 208.023C525.94 210.208 525.315 212.168 524.844 213.574C524.624 214.346 524.337 215.097 523.987 215.82C524.117 215.033 524.313 214.258 524.574 213.504L526.118 207.93C526.712 205.753 527.199 203.769 527.531 202.325C527.677 201.532 527.881 200.75 528.141 199.986Z" fill="#263238"/>
<path d="M517.696 152.902C518.599 153.257 519.355 153.909 519.836 154.752C520.318 155.594 520.497 156.576 520.344 157.534C521.328 157.615 522.262 158.001 523.016 158.639C523.77 159.277 524.305 160.135 524.546 161.093C524.788 162.05 524.724 163.059 524.364 163.978C524.003 164.898 523.364 165.681 522.536 166.219C523.248 167.201 523.582 168.407 523.478 169.615C523.373 170.823 522.836 171.953 521.965 172.798C521.094 173.642 519.948 174.144 518.737 174.212C517.526 174.28 516.332 173.909 515.372 173.167C514.898 174.039 514.17 174.745 513.284 175.192C512.399 175.639 511.398 175.805 510.416 175.669C508.442 175.355 506.663 174.297 505.444 172.712C504.616 173.721 503.458 174.405 502.174 174.642C500.89 174.878 499.564 174.653 498.43 174.006C497.296 173.359 496.428 172.331 495.98 171.105C495.531 169.879 495.531 168.534 495.979 167.308C495.191 167.209 494.462 166.84 493.915 166.265C493.368 165.689 493.036 164.942 492.976 164.15C492.941 163.356 493.11 162.566 493.469 161.856C493.827 161.146 494.362 160.541 495.022 160.097C495.022 160.097 491.162 153.674 498.473 154.13" fill="#263238"/>
<path d="M514.746 178.842L515.696 156.322L506.663 149.482L498.457 153.497C498.457 153.497 498.187 163.803 498.457 168.273C498.727 172.743 503.236 173.214 503.236 173.214C503.236 173.214 503.104 175.684 502.966 178.278C502.887 179.818 503.415 181.327 504.437 182.482C505.459 183.637 506.893 184.345 508.431 184.454C509.217 184.513 510.007 184.413 510.753 184.16C511.5 183.908 512.188 183.508 512.777 182.985C513.366 182.461 513.844 181.825 514.182 181.113C514.52 180.401 514.712 179.629 514.746 178.842Z" fill="#FFBE9D"/>
<path d="M499.384 160.847C499.384 160.96 499.417 161.07 499.48 161.164C499.543 161.258 499.632 161.331 499.736 161.374C499.841 161.418 499.956 161.429 500.067 161.407C500.177 161.385 500.279 161.331 500.359 161.251C500.439 161.171 500.493 161.069 500.515 160.958C500.537 160.847 500.526 160.732 500.483 160.628C500.44 160.524 500.366 160.434 500.272 160.372C500.179 160.309 500.068 160.275 499.955 160.275C499.804 160.275 499.658 160.336 499.551 160.443C499.444 160.55 499.384 160.695 499.384 160.847Z" fill="#263238"/>
<path d="M498.828 160.222C498.905 160.299 499.329 159.944 499.939 159.905C500.549 159.867 501.02 160.168 501.082 160.091C501.143 160.013 501.035 159.913 500.835 159.774C500.563 159.597 500.24 159.513 499.916 159.535C499.594 159.556 499.286 159.677 499.036 159.882C498.851 160.052 498.797 160.191 498.828 160.222Z" fill="#263238"/>
<path d="M506.007 160.847C506.005 160.962 506.038 161.074 506.101 161.17C506.163 161.267 506.253 161.342 506.359 161.387C506.465 161.432 506.581 161.445 506.694 161.423C506.807 161.402 506.911 161.347 506.992 161.267C507.074 161.186 507.13 161.083 507.153 160.97C507.176 160.858 507.165 160.741 507.121 160.635C507.078 160.528 507.004 160.437 506.908 160.374C506.813 160.31 506.701 160.275 506.586 160.275C506.434 160.275 506.288 160.335 506.179 160.442C506.071 160.549 506.009 160.694 506.007 160.847Z" fill="#263238"/>
<path d="M505.66 160.384C505.737 160.461 506.162 160.099 506.772 160.068C507.382 160.037 507.853 160.33 507.914 160.245C507.976 160.16 507.914 160.075 507.667 159.936C507.396 159.758 507.073 159.674 506.749 159.697C506.426 159.718 506.118 159.839 505.869 160.045C505.66 160.207 505.66 160.353 505.66 160.384Z" fill="#263238"/>
<path d="M503.267 173.214C505.391 173.129 507.447 172.435 509.188 171.215C509.188 171.215 507.69 174.504 503.205 174.303L503.267 173.214Z" fill="#EB996E"/>
<path d="M503.436 165.586C503.105 165.507 502.766 165.466 502.425 165.463C502.271 165.463 502.116 165.463 502.085 165.316C502.062 165.144 502.091 164.969 502.17 164.814C502.301 164.413 502.44 163.988 502.595 163.54C502.888 162.63 503.135 161.803 503.305 161.224C503.42 160.905 503.498 160.573 503.537 160.236C503.363 160.528 503.23 160.842 503.143 161.17C502.927 161.765 502.649 162.575 502.371 163.486L501.97 164.768C501.879 164.972 501.857 165.199 501.908 165.416C501.932 165.47 501.968 165.518 502.014 165.555C502.059 165.592 502.113 165.619 502.17 165.633C502.257 165.648 502.346 165.648 502.433 165.633C502.768 165.658 503.105 165.643 503.436 165.586Z" fill="#263238"/>
<path d="M500.418 149.159C500.111 149.086 499.799 149.032 499.484 148.997C499.133 148.989 498.786 149.083 498.487 149.268C498.188 149.453 497.949 149.721 497.8 150.039C497.65 150.357 497.596 150.712 497.644 151.06C497.692 151.408 497.841 151.735 498.071 152C498.434 152.425 498.797 152.541 498.774 152.603C498.751 152.664 498.349 152.603 497.871 152.193C497.634 151.965 497.456 151.683 497.351 151.371C497.247 151.058 497.219 150.726 497.27 150.401C497.322 150.076 497.451 149.768 497.647 149.503C497.843 149.239 498.1 149.026 498.396 148.882C498.741 148.725 499.124 148.668 499.5 148.719C500.163 148.812 500.449 149.129 500.418 149.159Z" fill="#263238"/>
<path d="M493.401 167.995C493.401 167.995 493.462 167.864 493.455 167.648C493.451 167.504 493.398 167.365 493.306 167.254C493.213 167.144 493.086 167.067 492.945 167.038C492.843 167.026 492.74 167.035 492.641 167.064C492.542 167.092 492.451 167.141 492.371 167.205C492.291 167.27 492.225 167.35 492.176 167.441C492.128 167.531 492.098 167.63 492.088 167.733C492.079 167.999 492.16 168.261 492.319 168.475C492.477 168.69 492.703 168.844 492.961 168.914C493.224 168.994 493.502 169.007 493.771 168.953C494.041 168.899 494.293 168.78 494.505 168.605C494.862 168.303 495.103 167.885 495.184 167.424C495.23 167.276 495.243 167.121 495.223 166.967C495.203 166.814 495.15 166.667 495.068 166.536C494.937 166.359 494.798 166.335 494.806 166.305C494.813 166.274 494.968 166.243 495.184 166.428C495.309 166.566 495.401 166.732 495.45 166.911C495.5 167.091 495.506 167.28 495.47 167.463C495.412 168.01 495.157 168.518 494.752 168.891C494.492 169.117 494.18 169.272 493.843 169.343C493.506 169.413 493.157 169.396 492.829 169.292C492.487 169.194 492.19 168.98 491.987 168.687C491.785 168.395 491.69 168.041 491.718 167.686C491.741 167.531 491.796 167.382 491.879 167.249C491.963 167.116 492.074 167.002 492.204 166.914C492.434 166.77 492.712 166.723 492.976 166.783C493.088 166.812 493.193 166.864 493.283 166.935C493.374 167.007 493.448 167.098 493.501 167.2C493.578 167.347 493.605 167.515 493.578 167.679C493.563 167.934 493.416 168.018 493.401 167.995Z" fill="#263238"/>
<path d="M522.103 164.073C522.227 164.305 522.388 164.513 522.582 164.691C522.812 164.886 523.093 165.009 523.392 165.046C523.787 165.089 524.185 164.996 524.52 164.783C524.943 164.48 525.275 164.066 525.479 163.587C525.684 163.108 525.752 162.581 525.678 162.066C525.643 161.448 525.455 160.848 525.129 160.321C524.959 160.049 524.734 159.814 524.468 159.634C524.202 159.453 523.902 159.33 523.585 159.271C523.29 159.205 522.982 159.212 522.69 159.293C522.398 159.374 522.13 159.526 521.91 159.734L520.93 160.746L521.594 159.511C522.151 158.582 522.402 157.502 522.312 156.423C522.268 156.008 522.121 155.611 521.884 155.268C521.646 154.925 521.326 154.648 520.953 154.462C520.699 154.349 520.424 154.291 520.146 154.291C519.868 154.291 519.593 154.349 519.339 154.462C518.984 154.639 518.853 154.84 518.822 154.817C518.791 154.794 518.907 154.577 519.27 154.346C519.535 154.187 519.832 154.091 520.14 154.064C520.448 154.038 520.757 154.081 521.046 154.191C521.476 154.38 521.85 154.677 522.131 155.053C522.413 155.429 522.592 155.872 522.651 156.338C522.772 157.484 522.523 158.639 521.941 159.634L521.625 159.41C521.889 159.154 522.212 158.966 522.566 158.862C522.92 158.758 523.294 158.743 523.655 158.816C524.025 158.885 524.377 159.031 524.687 159.245C524.997 159.46 525.258 159.737 525.454 160.059C525.813 160.641 526.017 161.305 526.048 161.989C526.088 162.605 525.979 163.222 525.732 163.787C525.512 164.289 525.135 164.707 524.658 164.976C524.266 165.208 523.803 165.293 523.354 165.216C523.022 165.15 522.716 164.989 522.474 164.752C522.08 164.436 522.088 164.065 522.103 164.073Z" fill="#263238"/>
<path d="M517.641 161.078C518.21 159.637 518.38 158.069 518.135 156.539C518.037 155.259 517.582 154.031 516.823 152.996C516.435 152.485 515.912 152.094 515.313 151.864C514.714 151.635 514.063 151.578 513.434 151.699C513.418 150.857 513.144 150.041 512.65 149.359C512.156 148.678 511.464 148.165 510.669 147.889C509.874 147.613 509.013 147.587 508.203 147.816C507.393 148.044 506.672 148.516 506.138 149.167C505.151 148.243 503.88 147.683 502.533 147.576C501.865 147.53 501.196 147.647 500.583 147.916C499.97 148.184 499.431 148.598 499.013 149.12C498.607 149.655 498.381 150.304 498.366 150.975C498.35 151.646 498.547 152.304 498.928 152.857C498.528 152.993 498.17 153.229 497.885 153.542C497.601 153.854 497.401 154.234 497.303 154.645C497.205 155.056 497.213 155.485 497.326 155.892C497.439 156.299 497.653 156.671 497.949 156.973C498.244 157.275 498.611 157.497 499.016 157.619C499.421 157.741 499.849 157.758 500.262 157.669C500.675 157.58 501.059 157.388 501.378 157.111C501.697 156.834 501.94 156.48 502.085 156.084C502.212 156.664 502.55 157.177 503.033 157.523C503.517 157.868 504.112 158.021 504.703 157.952C505.29 157.856 505.843 157.61 506.309 157.238C506.774 156.866 507.135 156.381 507.358 155.829C507.385 156.689 507.715 157.512 508.29 158.152C508.865 158.792 509.648 159.208 510.5 159.326C510.924 159.366 511.351 159.324 511.759 159.203C511.432 159.546 511.191 159.963 511.058 160.419C510.925 160.874 510.902 161.355 510.992 161.821C511.082 162.287 511.281 162.724 511.575 163.097C511.868 163.471 512.246 163.768 512.677 163.966C512.349 164.088 512.058 164.296 511.836 164.567C511.613 164.838 511.467 165.163 511.411 165.51C511.299 166.199 511.363 166.905 511.596 167.563C512.168 169.478 513.519 172.45 515.372 173.199C517.224 173.948 519.579 172.203 520.544 170.451L517.641 161.078Z" fill="#263238"/>
<path d="M505.66 166.351C505.536 166.243 505.391 166.162 505.235 166.113C505.078 166.064 504.912 166.048 504.749 166.066C504.586 166.086 504.429 166.141 504.288 166.226C504.147 166.311 504.025 166.425 503.931 166.56C503.803 166.728 503.743 166.937 503.761 167.146C503.781 167.279 503.83 167.405 503.905 167.515C503.98 167.626 504.078 167.719 504.193 167.787C504.357 167.897 504.545 167.966 504.741 167.989C504.937 168.012 505.136 167.988 505.32 167.918C505.504 167.846 505.664 167.726 505.784 167.569C505.904 167.413 505.978 167.227 506 167.031C506.017 166.855 505.974 166.679 505.877 166.531C505.78 166.384 505.635 166.274 505.467 166.22" fill="#EB996E"/>
<path d="M505.992 165.896C506.092 165.935 505.853 166.668 505.127 167.132C504.401 167.595 503.652 167.579 503.66 167.471C503.668 167.363 504.278 167.224 504.903 166.792C505.528 166.36 505.891 165.842 505.992 165.896Z" fill="#263238"/>
<path d="M496.643 229.237C496.643 229.237 485.549 285.702 486.761 288.38C487.974 291.059 529.052 334.7 529.052 334.7L541.404 319.716C541.404 319.716 507.219 281.564 507.436 280.537C507.652 279.51 519.548 225.092 519.548 225.092L496.643 229.237Z" fill="#263238"/>
<path d="M526.049 332.647C526.17 332.399 526.323 332.168 526.504 331.96L527.817 330.215C528.928 328.748 530.472 326.718 532.132 324.456C533.792 322.194 535.274 320.117 536.34 318.612C536.841 317.925 537.266 317.33 537.613 316.844C537.757 316.615 537.928 316.405 538.123 316.219C538.029 316.471 537.902 316.71 537.745 316.929C537.482 317.369 537.081 318.002 536.579 318.774C535.568 320.318 534.124 322.426 532.456 324.695C530.789 326.965 529.214 328.972 528.041 330.393C527.454 331.103 526.968 331.674 526.62 332.06C526.458 332.281 526.266 332.479 526.049 332.647Z" fill="#455A64"/>
<path d="M499.955 228.181L498.364 228.59L499.059 237.785C496.264 252.885 490.675 284.776 491.393 294.449C492.343 307.28 494.589 346.583 494.589 346.583L512.947 343.765L511.573 296.287L515.526 276.848L526.033 241.637C527.815 235.659 527.223 229.225 524.381 223.672L523.416 221.766" fill="#263238"/>
<path d="M512.5 226.744C512.569 226.744 512.608 227.362 512.94 228.288C513.372 229.498 514.128 230.566 515.124 231.376C516.009 232.064 517.048 232.528 518.151 232.727C518.778 232.833 519.414 232.874 520.05 232.851C520.181 232.851 520.235 232.905 520.235 232.928C520.235 232.951 520.166 232.928 520.042 232.928C519.402 233.079 518.739 233.107 518.089 233.013C516.833 232.857 515.651 232.334 514.69 231.51C513.729 230.687 513.031 229.598 512.685 228.381C512.489 227.859 512.426 227.297 512.5 226.744Z" fill="#455A64"/>
<path d="M494.265 342.314C494.488 342.208 494.724 342.13 494.967 342.082C495.423 341.951 496.087 341.789 496.913 341.603C498.557 341.225 500.85 340.754 503.397 340.337C505.945 339.92 508.261 339.627 509.944 339.457C510.785 339.372 511.488 339.318 511.936 339.295C512.192 339.261 512.452 339.261 512.708 339.295C511.819 339.512 510.916 339.665 510.006 339.751C508.338 339.99 506.03 340.33 503.49 340.747C500.95 341.163 498.657 341.58 496.998 341.889C496.097 342.089 495.184 342.23 494.265 342.314Z" fill="#455A64"/>
<path d="M499.059 237.777C499.057 237.967 499.034 238.156 498.99 238.341C498.92 238.75 498.828 239.283 498.72 239.954C498.457 241.39 498.094 243.398 497.646 245.86C496.743 250.855 495.5 257.741 494.365 265.392C493.231 273.042 492.489 280.006 492.049 285.062C491.841 287.587 491.694 289.633 491.602 291.045C491.548 291.725 491.509 292.265 491.478 292.674C491.475 292.864 491.451 293.053 491.409 293.238C491.395 293.048 491.395 292.857 491.409 292.667C491.409 292.257 491.409 291.717 491.455 291.038C491.455 289.617 491.602 287.571 491.779 285.039C492.119 279.975 492.821 272.996 493.956 265.338C495.091 257.68 496.38 250.786 497.353 245.806C497.839 243.32 498.249 241.313 498.55 239.924C498.689 239.26 498.812 238.735 498.897 238.325C498.934 238.138 498.988 237.955 499.059 237.777Z" fill="#455A64"/>
<path d="M515.742 276.137C515.736 276.275 515.715 276.412 515.681 276.546C515.611 276.855 515.534 277.233 515.434 277.704C515.21 278.762 514.909 280.197 514.546 281.95C513.774 285.547 512.847 290.527 511.828 296.023C511.828 296.132 511.828 296.232 511.774 296.325L511.574 296.085C511.604 296.087 511.635 296.094 511.662 296.107C511.69 296.121 511.715 296.139 511.736 296.162C511.74 296.178 511.74 296.194 511.736 296.209V296.27C511.738 296.299 511.738 296.327 511.736 296.355V296.502V296.765L511.782 297.282L511.851 298.301C511.882 298.975 511.913 299.639 511.944 300.293C511.944 301.59 512.021 302.848 512.06 304.045C512.106 306.422 512.153 308.568 512.183 310.39C512.214 312.212 512.183 313.602 512.222 314.667C512.222 315.13 512.222 315.516 512.222 315.825C512.24 315.961 512.24 316.099 512.222 316.234C512.187 316.104 512.172 315.968 512.176 315.833C512.176 315.516 512.137 315.138 512.114 314.667C512.068 313.602 512.014 312.158 511.952 310.398C511.828 306.747 511.658 301.79 511.473 296.301L511.272 296.255L511.334 295.954C512.353 290.45 513.365 285.478 514.167 281.896C514.569 280.105 514.939 278.653 515.179 277.665C515.31 277.163 515.426 276.785 515.503 276.523C515.561 276.382 515.642 276.251 515.742 276.137Z" fill="#455A64"/>
<path d="M372.205 164.621C372.274 165.394 372.235 166.174 372.089 166.937C371.999 167.556 371.801 168.155 371.502 168.705C371.068 169.531 370.584 170.331 370.051 171.098C370.051 171.098 350.295 181.782 346.667 182.902C343.039 184.021 326.356 176.726 326.356 176.726C324.805 180.913 322.73 184.887 320.18 188.553C320.18 188.553 335.072 194.049 346.598 194.999C353.932 195.609 376.281 177.722 376.304 177.706C378.591 176.843 380.831 175.859 383.013 174.757C386.008 173.09 385.861 172.812 385.607 172.503C384.92 171.654 380.203 175.243 380.789 173.885C381.376 172.526 387.043 170.164 386.294 169.307C385.313 168.195 380.473 172.04 380.033 172.341C379.593 172.642 379.16 172.016 379.562 171.769C380.149 171.414 386.186 167.554 385.236 166.45C384.711 165.84 383.692 166.883 383.692 166.883C383.692 166.883 378.288 170.913 377.879 170.38C377.47 169.847 380.519 167.361 381.615 166.605C382.712 165.848 382.789 165.061 382.056 164.821C381.554 164.682 378.141 166.937 377.068 167.709C375.995 168.481 373.108 170.673 373.656 168.434C374.204 166.196 373.787 164.273 373.316 163.802C372.846 163.331 372.104 163.918 372.205 164.621Z" fill="#B78876"/>
<path d="M461.525 226.266L333.442 193.232L348.921 134.529L476.942 167.772L461.525 226.266Z" fill="#E0E0E0"/>
<path d="M458.298 189.95L458.028 189.888L457.256 189.695L454.23 188.923L443.082 185.904L406.342 175.93C391.983 172.07 378.975 168.573 369.549 166.102L358.386 163.177L355.352 162.405L354.58 162.188L354.317 162.104C354.409 162.109 354.5 162.124 354.588 162.15L355.36 162.327L358.448 163.061C361.096 163.694 364.917 164.659 369.642 165.855C379.091 168.264 392.107 171.692 406.466 175.575C420.825 179.458 433.756 182.963 443.128 185.595L454.237 188.738L457.248 189.61L458.02 189.849C458.116 189.871 458.21 189.905 458.298 189.95Z" fill="#263238"/>
<path d="M454.346 200.781L454.075 200.727L453.303 200.526L450.269 199.754L439.13 196.736L402.367 186.731C388.008 182.871 374.999 179.381 365.573 176.903L354.41 173.985L351.376 173.213L350.604 172.997C350.513 172.978 350.425 172.947 350.342 172.904C350.433 172.914 350.523 172.93 350.612 172.951L351.384 173.136L354.472 173.862C357.12 174.495 360.941 175.46 365.666 176.656C375.115 179.065 388.131 182.5 402.49 186.376C416.85 190.251 429.827 193.841 439.207 196.466L450.316 199.6L453.327 200.48L454.099 200.719C454.183 200.73 454.266 200.751 454.346 200.781Z" fill="#263238"/>
<path d="M387.344 194.203C387.207 194.201 387.072 194.177 386.943 194.134L385.808 193.871L381.631 192.813L367.859 189.177L354.094 185.433L349.925 184.252L348.798 183.912C348.661 183.88 348.529 183.83 348.404 183.766C348.538 183.767 348.67 183.788 348.798 183.827L349.941 184.098L354.117 185.155L367.89 188.784L381.647 192.536L385.815 193.717L386.95 194.056C387.086 194.091 387.218 194.14 387.344 194.203Z" fill="#263238"/>
<path d="M410.573 166.69C410.379 166.673 410.188 166.637 410.002 166.582L408.38 166.196L402.444 164.698L382.912 159.626L363.388 154.438L357.436 152.856L355.838 152.392C355.647 152.349 355.461 152.287 355.282 152.207C355.475 152.228 355.666 152.264 355.854 152.315L357.475 152.701L363.411 154.199L382.966 159.279L402.521 164.436L408.427 166.049L410.025 166.512C410.213 166.552 410.397 166.611 410.573 166.69Z" fill="#263238"/>
<path d="M263.777 337.302L268.409 332.986L260.381 324.193L253.518 330.416L253.981 330.995C256.057 333.542 264.742 343.81 266.719 344.983C268.919 346.311 263.777 337.302 263.777 337.302Z" fill="#FF5400"/>
<g opacity="0.4">
<path d="M266.155 341.826C266.155 341.826 267.792 345.13 267.066 345.2C266.34 345.269 257.169 335.225 253.518 330.416L253.726 330.246L264.318 342.058C264.318 342.058 265.669 341.332 266.155 341.826Z" fill="white"/>
</g>
<path d="M253.603 330.131C253.64 330.188 253.681 330.242 253.726 330.293L254.097 330.756L255.486 332.416C256.667 333.813 258.335 335.72 260.211 337.82C262.087 339.92 263.832 341.68 265.113 343.023L266.657 344.567L267.074 344.984L267.228 345.115C267.191 345.059 267.147 345.007 267.097 344.961L266.696 344.529L265.206 342.985C263.94 341.657 262.21 339.819 260.334 337.75C258.458 335.682 256.783 333.798 255.579 332.416L254.158 330.787L253.765 330.347L253.603 330.131Z" fill="#263238"/>
<path d="M264.179 342.205C264.508 342.035 264.855 341.901 265.213 341.804C265.582 341.76 265.956 341.76 266.325 341.804C265.974 341.619 265.566 341.573 265.182 341.672C264.792 341.716 264.433 341.906 264.179 342.205Z" fill="#263238"/>
<path d="M263.129 338.406C263.322 338.452 263.523 338.452 263.716 338.406C264.032 338.352 264.287 338.275 264.279 338.236C264.087 338.187 263.885 338.187 263.693 338.236C263.368 338.291 263.121 338.368 263.129 338.406Z" fill="#263238"/>
<path d="M262.851 337.364C262.851 337.364 263.067 337.457 263.345 337.488C263.623 337.519 263.839 337.488 263.846 337.488C263.854 337.488 263.63 337.395 263.352 337.364C263.074 337.334 262.858 337.31 262.851 337.364Z" fill="#263238"/>
<path d="M263.253 336.144C263.253 336.144 263.384 336.399 263.608 336.653C263.832 336.908 264.048 337.093 264.079 337.07C264.11 337.047 263.948 336.815 263.716 336.561C263.485 336.306 263.299 336.113 263.253 336.144Z" fill="#263238"/>
<path d="M263.716 335.45C263.752 335.694 263.862 335.92 264.032 336.098C264.287 336.423 264.565 336.6 264.588 336.569C264.611 336.538 264.387 336.314 264.148 336.013C263.909 335.712 263.754 335.434 263.716 335.45Z" fill="#263238"/>
<path d="M264.163 338.005C264.309 338.218 264.486 338.408 264.688 338.569C264.899 338.75 265.126 338.91 265.367 339.047C265.51 339.138 265.663 339.21 265.823 339.263C265.87 339.284 265.922 339.295 265.973 339.295C266.025 339.295 266.077 339.284 266.124 339.263C266.175 339.235 266.216 339.191 266.242 339.139C266.268 339.087 266.278 339.028 266.271 338.97C266.181 338.659 265.985 338.388 265.717 338.205C265.45 338.022 265.127 337.938 264.804 337.966C264.612 337.984 264.426 338.039 264.256 338.129C264.191 338.157 264.133 338.199 264.086 338.252C264.314 338.152 264.556 338.09 264.804 338.067C265.075 338.056 265.344 338.126 265.576 338.268C265.853 338.423 266.058 338.681 266.147 338.986C266.147 339.132 266.024 339.194 265.869 339.148C265.722 339.096 265.58 339.032 265.445 338.955C265.206 338.825 264.978 338.675 264.765 338.507C264.379 338.206 264.186 337.99 264.163 338.005Z" fill="#263238"/>
<path d="M264.272 338.174C264.272 338.174 264.496 338.174 264.719 337.881C264.856 337.73 264.951 337.546 264.997 337.348C265.044 337.218 265.055 337.078 265.03 336.942C265.004 336.806 264.942 336.68 264.851 336.576C264.786 336.531 264.706 336.513 264.628 336.526C264.55 336.539 264.48 336.582 264.434 336.646C264.355 336.739 264.299 336.851 264.272 336.97C264.212 337.158 264.178 337.352 264.171 337.549C264.144 337.73 264.168 337.914 264.241 338.082C264.241 338.082 264.241 337.873 264.241 337.557C264.264 337.37 264.305 337.187 264.364 337.009C264.411 336.823 264.581 336.576 264.735 336.692C264.794 336.778 264.834 336.875 264.851 336.978C264.869 337.081 264.863 337.186 264.835 337.287C264.799 337.466 264.722 337.635 264.611 337.781C264.449 338.074 264.256 338.136 264.272 338.174Z" fill="#263238"/>
<path d="M256.173 328.1C256.173 328.1 256.428 328.331 256.744 328.771C257.156 329.342 257.402 330.015 257.454 330.717C257.496 331.421 257.344 332.123 257.014 332.747C256.76 333.226 256.513 333.473 256.536 333.519C256.559 333.565 256.605 333.473 256.713 333.357C256.861 333.197 256.991 333.021 257.099 332.832C257.474 332.203 257.649 331.475 257.601 330.744C257.553 330.013 257.283 329.315 256.829 328.74C256.693 328.567 256.54 328.407 256.374 328.262C256.25 328.154 256.181 328.1 256.173 328.1Z" fill="#263238"/>
<path d="M260.666 325.684C260.011 326.161 259.385 326.677 258.79 327.228C258.165 327.75 257.572 328.309 257.015 328.903C257.669 328.424 258.295 327.909 258.891 327.359C259.514 326.835 260.107 326.276 260.666 325.684Z" fill="#263238"/>
<path d="M258.366 333.889C258.65 334.4 259 334.87 259.408 335.287C259.782 335.739 260.213 336.141 260.69 336.483C260.69 336.483 260.157 335.904 259.516 335.194C258.876 334.484 258.397 333.866 258.366 333.889Z" fill="#263238"/>
<path d="M256.79 332.16C256.752 332.16 256.713 332.322 256.636 332.5C256.559 332.677 256.474 332.816 256.497 332.847C256.52 332.878 256.682 332.762 256.767 332.554C256.852 332.345 256.829 332.16 256.79 332.16Z" fill="#263238"/>
<path d="M257.007 330.771C256.969 330.771 256.93 330.91 256.922 331.088C256.915 331.266 256.922 331.405 256.977 331.412C257.031 331.42 257.054 331.273 257.069 331.096C257.085 330.918 257.077 330.779 257.007 330.771Z" fill="#263238"/>
<path d="M256.528 329.504C256.528 329.543 256.613 329.659 256.69 329.828C256.768 329.998 256.775 330.153 256.814 330.16C256.853 330.168 256.914 329.975 256.814 329.767C256.714 329.558 256.551 329.473 256.528 329.504Z" fill="#263238"/>
<path d="M256.104 328.686C256.066 328.686 256.066 328.794 256.104 328.886C256.143 328.979 256.205 329.056 256.243 329.041C256.282 329.025 256.243 328.933 256.243 328.84C256.243 328.747 256.143 328.67 256.104 328.686Z" fill="#263238"/>
<g opacity="0.3">
<path d="M256.42 327.907L264.588 336.569L265.63 335.588L257.516 326.811L256.42 327.907Z" fill="#333333"/>
</g>
<path d="M354.634 344.35L352.032 338.545L341.124 343.324L344.822 351.862L345.524 351.607C348.612 350.457 361.119 345.532 362.864 344.034C364.817 342.374 354.634 344.35 354.634 344.35Z" fill="#FF5400"/>
<g opacity="0.4">
<path d="M359.676 343.539C359.676 343.539 363.335 343.053 363.165 343.763C362.995 344.474 350.535 349.939 344.83 351.854L344.745 351.599L359.328 345.361C359.328 345.361 359.058 343.848 359.676 343.539Z" fill="white"/>
</g>
<path d="M344.567 351.677C344.637 351.665 344.704 351.645 344.768 351.615L345.316 351.414L347.339 350.642C349.037 349.971 351.376 349.013 353.939 347.894C356.503 346.775 358.788 345.717 360.44 344.922L362.385 343.972L362.91 343.702C363.034 343.64 363.095 343.609 363.088 343.602L362.902 343.679L362.362 343.918L360.393 344.829C358.734 345.601 356.441 346.643 353.878 347.763C351.315 348.882 348.991 349.855 347.3 350.55L345.301 351.376L344.753 351.607C344.688 351.621 344.625 351.644 344.567 351.677Z" fill="#263238"/>
<path d="M359.398 345.546C359.345 345.178 359.332 344.805 359.359 344.435C359.433 344.071 359.547 343.716 359.699 343.377C359.415 343.65 359.242 344.018 359.212 344.411C359.14 344.8 359.205 345.201 359.398 345.546Z" fill="#263238"/>
<path d="M355.468 345.316C355.506 345.316 355.576 345.069 355.63 344.753C355.675 344.557 355.675 344.354 355.63 344.158C355.591 344.158 355.514 344.405 355.468 344.729C355.422 344.922 355.422 345.123 355.468 345.316Z" fill="#263238"/>
<path d="M354.349 345.238C354.349 345.238 354.503 345.068 354.619 344.813C354.735 344.559 354.796 344.342 354.758 344.327C354.719 344.312 354.603 344.505 354.488 344.752C354.372 344.999 354.349 345.223 354.349 345.238Z" fill="#263238"/>
<path d="M353.368 344.451C353.58 344.442 353.787 344.381 353.97 344.274C354.287 344.142 354.526 344.003 354.511 343.965C354.303 343.983 354.1 344.044 353.916 344.142C353.715 344.208 353.529 344.313 353.368 344.451Z" fill="#263238"/>
<path d="M352.858 343.811C353.101 343.857 353.353 343.825 353.576 343.718C353.815 343.66 354.03 343.531 354.194 343.348C353.965 343.402 353.743 343.479 353.53 343.579C353.301 343.639 353.076 343.717 352.858 343.811Z" fill="#263238"/>
<path d="M355.422 344.204C355.669 344.141 355.904 344.036 356.116 343.895C356.357 343.751 356.585 343.586 356.796 343.401C356.925 343.293 357.041 343.172 357.143 343.038C357.205 342.954 357.233 342.849 357.22 342.745C357.208 342.688 357.18 342.636 357.139 342.595C357.098 342.553 357.046 342.525 356.989 342.513C356.664 342.499 356.345 342.598 356.085 342.794C355.826 342.99 355.643 343.27 355.568 343.586C355.527 343.772 355.527 343.964 355.568 344.15C355.574 344.22 355.595 344.289 355.63 344.35C355.607 344.091 355.628 343.83 355.692 343.578C355.768 343.326 355.915 343.101 356.116 342.93C356.233 342.824 356.369 342.742 356.518 342.689C356.666 342.636 356.824 342.613 356.981 342.621C357.128 342.621 357.135 342.806 357.05 342.93C356.954 343.054 356.846 343.168 356.726 343.27C356.526 343.455 356.312 343.626 356.085 343.779C355.676 344.065 355.406 344.181 355.422 344.204Z" fill="#263238"/>
<path d="M355.614 344.157C355.634 343.975 355.587 343.792 355.483 343.64C355.38 343.465 355.237 343.317 355.066 343.208C354.958 343.124 354.83 343.071 354.694 343.053C354.558 343.036 354.42 343.054 354.294 343.108C354.232 343.155 354.19 343.225 354.177 343.302C354.164 343.38 354.181 343.459 354.225 343.524C354.287 343.631 354.375 343.721 354.48 343.787C354.637 343.904 354.812 343.998 354.997 344.065C355.159 344.146 355.34 344.183 355.522 344.173C355.522 344.173 355.329 344.111 355.035 343.972C354.866 343.892 354.705 343.794 354.557 343.679C354.395 343.578 354.217 343.339 354.379 343.231C354.478 343.201 354.582 343.194 354.683 343.21C354.785 343.226 354.882 343.265 354.966 343.324C355.125 343.416 355.263 343.543 355.367 343.694C355.465 343.84 355.547 343.995 355.614 344.157Z" fill="#263238"/>
<path d="M343.486 348.597C343.486 348.597 343.787 348.427 344.304 348.273C344.979 348.059 345.7 348.043 346.384 348.224C347.067 348.406 347.685 348.779 348.164 349.3C348.535 349.693 348.689 350.002 348.712 349.987C348.694 349.908 348.662 349.832 348.62 349.763C348.509 349.575 348.383 349.396 348.242 349.23C347.768 348.68 347.14 348.286 346.439 348.097C345.739 347.909 344.998 347.935 344.312 348.173C344.105 348.246 343.906 348.339 343.718 348.45C343.54 348.535 343.478 348.589 343.486 348.597Z" fill="#263238"/>
<path d="M342.63 343.539C342.879 344.328 343.175 345.102 343.518 345.855C343.812 346.616 344.152 347.359 344.537 348.078C343.987 346.541 343.35 345.035 342.63 343.57V343.539Z" fill="#263238"/>
<path d="M349.654 348.373C350.231 348.271 350.792 348.092 351.322 347.841C351.87 347.634 352.389 347.356 352.866 347.015C352.866 346.976 352.156 347.331 351.268 347.702C350.38 348.072 349.647 348.335 349.654 348.373Z" fill="#263238"/>
<path d="M347.517 349.306C347.517 349.306 347.64 349.429 347.787 349.568C347.933 349.707 348.034 349.823 348.072 349.808C348.111 349.792 348.072 349.607 347.887 349.46C347.702 349.314 347.532 349.267 347.517 349.306Z" fill="#263238"/>
<path d="M346.273 348.658C346.273 348.696 346.382 348.781 346.544 348.843C346.706 348.905 346.852 348.928 346.86 348.897C346.868 348.866 346.76 348.773 346.598 348.712C346.436 348.65 346.289 348.619 346.273 348.658Z" fill="#263238"/>
<path d="M344.922 348.704C344.922 348.704 345.084 348.704 345.269 348.657C345.455 348.611 345.609 348.657 345.625 348.657C345.64 348.657 345.486 348.511 345.262 348.534C345.038 348.557 344.891 348.673 344.922 348.704Z" fill="#263238"/>
<path d="M344.004 348.851C344.004 348.89 344.097 348.913 344.197 348.913C344.297 348.913 344.39 348.913 344.39 348.828C344.39 348.743 344.297 348.767 344.197 348.767C344.097 348.767 344.004 348.805 344.004 348.851Z" fill="#263238"/>
<g opacity="0.3">
<path d="M343.371 348.296L354.194 343.348L353.6 342.035L342.684 346.906L343.371 348.296Z" fill="#333333"/>
</g>
<path d="M289.917 148.394C290.226 146.278 288.875 143.136 289.446 141.206C289.624 140.596 288.952 140.017 288.867 139.384C288.802 139.071 288.821 138.747 288.921 138.443C289.021 138.14 289.2 137.868 289.438 137.655C289.561 137.565 289.703 137.504 289.852 137.475C290.001 137.447 290.155 137.451 290.303 137.489C290.45 137.526 290.588 137.596 290.705 137.693C290.823 137.79 290.917 137.911 290.982 138.049C291.101 137.059 291.377 136.095 291.801 135.192C292.015 134.736 292.339 134.338 292.742 134.036C293.146 133.733 293.618 133.534 294.117 133.455C294.61 133.392 295.109 133.523 295.509 133.819C295.909 134.116 296.179 134.555 296.263 135.046C296.822 134 297.665 133.133 298.695 132.544C299.119 132.263 299.602 132.084 300.107 132.021C300.612 131.958 301.125 132.013 301.605 132.182C302.531 132.598 303.049 133.903 302.377 134.683C302.966 134.103 303.654 133.633 304.407 133.293C304.783 133.132 305.194 133.072 305.6 133.118C306.006 133.164 306.393 133.315 306.723 133.556C306.879 133.687 307.006 133.851 307.094 134.034C307.183 134.218 307.231 134.419 307.237 134.623C307.243 134.827 307.206 135.03 307.128 135.218C307.05 135.407 306.933 135.577 306.785 135.717C307.602 135.315 308.473 135.034 309.371 134.884C309.821 134.808 310.281 134.827 310.722 134.94C311.164 135.053 311.577 135.257 311.934 135.54C312.282 135.835 312.518 136.24 312.604 136.688C312.689 137.136 312.619 137.6 312.405 138.002C311.962 138.531 311.387 138.933 310.738 139.168C310.415 139.29 310.125 139.485 309.89 139.738C309.656 139.991 309.483 140.296 309.387 140.627C309.34 140.982 309.449 141.353 309.387 141.7C309.319 141.932 309.191 142.142 309.016 142.309C308.841 142.475 308.626 142.593 308.391 142.65C307.922 142.756 307.439 142.776 306.963 142.712C304.546 142.503 302.145 142.109 299.721 142.133C297.273 142.061 294.858 142.708 292.773 143.993" fill="#263238"/>
<path d="M287.663 238.547C287.663 238.547 292.766 265.567 291.832 280.397C290.898 295.227 280.654 301.125 274.539 307.224C268.711 313.053 255.324 324.617 255.324 324.617L267.321 337.54C267.321 337.54 305.296 310.158 309.148 292.517C312.105 278.969 313.263 255.021 313.263 255.021L287.663 238.547Z" fill="#263238"/>
<path d="M288.219 218.291C287.848 218.291 283.718 230.458 287.663 238.533C288.057 239.305 291.152 243.798 291.152 243.798C302.084 256.729 316.482 284.22 317.949 288.327C322.195 300.239 339.402 348.597 339.402 348.597L357.351 340.939L339.047 281.17L315.254 228.173L288.219 218.291Z" fill="#263238"/>
<path d="M310.685 228.172C310.901 228.718 310.98 229.309 310.916 229.893C310.867 231.329 310.35 232.709 309.444 233.824C308.538 234.939 307.293 235.727 305.898 236.069C305.34 236.249 304.746 236.288 304.169 236.185C304.169 236.116 304.825 236.108 305.821 235.792C307.11 235.386 308.257 234.62 309.125 233.584C309.978 232.527 310.514 231.25 310.669 229.901C310.746 228.836 310.623 228.187 310.685 228.172Z" fill="#455A64"/>
<path d="M339.403 348.596L357.352 340.938L356.464 338.027L338.538 346.164L339.403 348.596Z" fill="#455A64"/>
<path d="M296.811 175.7C297.654 175.765 298.501 175.659 299.303 175.389C300.104 175.119 300.842 174.69 301.473 174.128C302.105 173.565 302.616 172.882 302.977 172.117C303.338 171.353 303.541 170.523 303.574 169.678C303.705 166.258 303.821 162.807 303.821 162.807C303.821 162.807 309.009 162.321 309.387 157.195C309.765 152.069 309.171 140.867 309.171 140.867L309.603 140.226C303.821 137.308 297.398 138.266 292.032 141.894L290.913 144.025L291.013 169.501C291.028 171.072 291.632 172.581 292.706 173.729C293.779 174.877 295.244 175.58 296.811 175.7Z" fill="#B78876"/>
<path d="M307.905 149.213C307.803 149.153 307.716 149.07 307.651 148.97C307.586 148.871 307.544 148.758 307.53 148.641C307.516 148.523 307.529 148.404 307.568 148.292C307.607 148.18 307.672 148.078 307.757 147.996C307.841 147.913 307.944 147.85 308.057 147.814C308.17 147.777 308.289 147.766 308.407 147.783C308.524 147.8 308.636 147.844 308.734 147.911C308.831 147.978 308.912 148.067 308.97 148.17C309.103 148.313 309.176 148.501 309.176 148.695C309.176 148.89 309.103 149.078 308.97 149.22C308.826 149.356 308.634 149.431 308.436 149.43C308.238 149.428 308.047 149.351 307.905 149.213Z" fill="#263238"/>
<path d="M309.155 148.385C309.07 148.47 308.592 148.045 307.881 147.999C307.171 147.953 306.639 148.285 306.569 148.192C306.5 148.1 306.623 147.991 306.855 147.837C307.171 147.639 307.542 147.547 307.915 147.575C308.287 147.603 308.64 147.749 308.924 147.991C309.132 148.177 309.194 148.347 309.155 148.385Z" fill="#263238"/>
<path d="M301.204 148.277C301.333 148.363 301.434 148.485 301.492 148.628C301.551 148.771 301.565 148.929 301.533 149.08C301.501 149.232 301.424 149.37 301.313 149.477C301.201 149.584 301.06 149.655 300.908 149.681C300.755 149.707 300.598 149.687 300.457 149.623C300.317 149.559 300.198 149.453 300.118 149.321C300.038 149.189 299.999 149.036 300.007 148.881C300.015 148.727 300.069 148.578 300.162 148.455C300.281 148.298 300.455 148.192 300.648 148.159C300.842 148.126 301.041 148.168 301.204 148.277Z" fill="#263238"/>
<path d="M301.443 148.541C301.358 148.626 300.88 148.209 300.17 148.162C299.459 148.116 298.927 148.448 298.857 148.355C298.788 148.263 298.911 148.155 299.143 148C299.455 147.795 299.828 147.703 300.2 147.738C300.573 147.763 300.927 147.906 301.212 148.147C301.42 148.34 301.49 148.51 301.443 148.541Z" fill="#263238"/>
<path d="M303.953 154.037C304.324 153.906 304.717 153.846 305.111 153.86C305.296 153.86 305.443 153.821 305.466 153.721C305.48 153.537 305.445 153.354 305.365 153.188L304.894 151.714C304.441 150.463 304.112 149.17 303.914 147.854C304.495 149.049 304.953 150.301 305.28 151.59C305.435 152.1 305.574 152.586 305.721 153.065C305.824 153.309 305.843 153.58 305.775 153.837C305.743 153.905 305.695 153.965 305.637 154.012C305.578 154.058 305.509 154.091 305.435 154.107C305.33 154.121 305.223 154.121 305.118 154.107C304.729 154.149 304.335 154.126 303.953 154.037Z" fill="#263238"/>
<path d="M301.606 154.67C302.03 154.863 303.567 155.874 305.01 155.897C304.751 156.247 304.381 156.499 303.961 156.614C303.542 156.729 303.095 156.699 302.694 156.53C301.158 155.874 301.606 154.67 301.606 154.67Z" fill="white"/>
<path d="M303.836 162.73C301.463 162.627 299.173 161.821 297.259 160.414C297.259 160.414 298.618 164.205 303.767 164.058L303.836 162.73Z" fill="#A36957"/>
<path d="M291.045 148.223C291.045 148.018 290.963 147.822 290.818 147.677C290.674 147.533 290.477 147.451 290.273 147.451C289.315 147.451 287.748 147.806 287.601 150.447C287.393 154.222 291.021 153.28 291.037 153.172C291.052 153.064 291.045 149.721 291.045 148.223Z" fill="#B78876"/>
<path d="M290.218 151.713C290.218 151.713 290.149 151.76 290.041 151.806C289.882 151.867 289.706 151.867 289.547 151.806C289.311 151.639 289.124 151.412 289.006 151.149C288.888 150.886 288.843 150.595 288.875 150.308C288.883 149.984 288.962 149.665 289.107 149.374C289.149 149.258 289.219 149.154 289.311 149.071C289.402 148.988 289.512 148.927 289.632 148.896C289.708 148.881 289.787 148.892 289.856 148.929C289.925 148.965 289.979 149.024 290.01 149.096C290.056 149.204 290.01 149.282 290.01 149.289C290.01 149.297 290.095 149.228 290.072 149.073C290.053 148.978 290.004 148.891 289.933 148.826C289.834 148.742 289.706 148.701 289.577 148.71C289.421 148.733 289.273 148.796 289.148 148.892C289.022 148.988 288.923 149.114 288.86 149.258C288.679 149.576 288.58 149.935 288.574 150.301C288.537 150.635 288.599 150.973 288.753 151.272C288.907 151.571 289.145 151.819 289.439 151.984C289.539 152.019 289.646 152.031 289.751 152.019C289.857 152.007 289.959 151.971 290.048 151.914C290.211 151.806 290.272 151.721 290.218 151.713Z" fill="#A36957"/>
<path d="M280.847 192.228C281.472 197.246 283.163 201.647 283.209 209.869L282.823 228.929L318.837 230.96L316.884 207.668L315.587 187.828L323.631 189.912L326.989 176.503C326.989 176.503 318.497 172.403 315.579 171.099C306.029 166.76 306.083 168.543 304.431 168.335C300.16 169.68 295.578 169.68 291.307 168.335C291.307 168.335 284.213 166.374 280.584 174.974C278.693 179.398 280.847 192.228 280.847 192.228Z" fill="#455A64"/>
<path d="M283.162 170.758C283.162 170.758 283.263 170.758 283.448 170.758C283.712 170.793 283.971 170.858 284.22 170.951C285.203 171.284 286.042 171.943 286.598 172.819C287.005 173.475 287.25 174.218 287.311 174.988C287.373 175.757 287.25 176.53 286.953 177.243C286.566 177.995 286.393 178.838 286.451 179.682C286.621 180.516 287.408 181.087 288.111 181.774C288.484 182.117 288.778 182.536 288.976 183.002C289.163 183.457 289.255 183.946 289.246 184.438C289.221 185.36 288.928 186.256 288.404 187.016C288.163 187.366 287.881 187.684 287.563 187.966C287.246 188.213 286.902 188.423 286.536 188.591C285.891 188.872 285.218 189.085 284.529 189.224C283.54 189.434 282.536 189.558 281.526 189.595C281.159 189.638 280.789 189.638 280.422 189.595C280.784 189.528 281.15 189.486 281.518 189.471C282.511 189.373 283.496 189.211 284.467 188.985C285.648 188.66 287.223 188.251 288.096 186.839C288.572 186.138 288.84 185.316 288.868 184.469C288.879 184.021 288.793 183.577 288.616 183.167C288.438 182.756 288.174 182.389 287.841 182.091C287.509 181.759 287.138 181.45 286.806 181.087C286.451 180.729 286.2 180.28 286.081 179.79C286.007 178.874 286.194 177.956 286.621 177.142C286.868 176.589 287.001 175.991 287.011 175.385C287.022 174.779 286.91 174.177 286.682 173.616C286.454 173.054 286.115 172.544 285.685 172.117C285.256 171.69 284.744 171.353 284.182 171.128C283.556 170.827 283.155 170.796 283.162 170.758Z" fill="#FAFAFA"/>
<path d="M325.306 174.666C325.304 174.794 325.283 174.921 325.244 175.044C325.153 175.402 325.029 175.751 324.874 176.086C324.299 177.336 323.377 178.394 322.218 179.135C321.356 179.688 320.384 180.047 319.37 180.187C318.355 180.327 317.322 180.245 316.343 179.946C315.177 179.608 314.115 178.982 313.255 178.124C312.367 177.267 311.603 176.194 310.468 175.715C309.905 175.492 309.284 175.46 308.7 175.623C308.114 175.791 307.545 176.016 307.002 176.294C305.931 176.863 304.74 177.165 303.528 177.175C302.502 177.184 301.488 176.962 300.561 176.525C299.633 176.087 298.816 175.447 298.17 174.65C297.31 173.575 296.789 172.27 296.672 170.898C296.635 170.529 296.635 170.156 296.672 169.786C296.682 169.658 296.705 169.531 296.742 169.408C296.788 169.408 296.688 169.941 296.811 170.883C296.98 172.2 297.515 173.444 298.355 174.473C298.988 175.214 299.777 175.807 300.666 176.207C301.555 176.608 302.522 176.806 303.497 176.789C304.652 176.771 305.786 176.475 306.801 175.924C307.366 175.632 307.958 175.397 308.569 175.221C309.234 175.035 309.941 175.07 310.584 175.322C311.881 175.878 312.637 176.997 313.502 177.823C314.604 178.928 316.044 179.633 317.593 179.825C319.142 180.017 320.71 179.684 322.048 178.881C323.179 178.179 324.1 177.184 324.711 176.001C325.167 175.175 325.267 174.65 325.306 174.666Z" fill="#FAFAFA"/>
<path d="M323.33 189.348C322.935 188.293 322.346 187.322 321.593 186.484C320.774 185.609 319.688 185.03 318.505 184.84C317.783 184.754 317.052 184.838 316.369 185.085C315.685 185.331 315.069 185.734 314.568 186.26C314.053 186.807 313.721 187.5 313.618 188.244C313.573 188.996 313.393 189.733 313.086 190.421C312.708 191.013 312.174 191.489 311.542 191.795C310.993 192.096 310.453 192.32 309.998 192.567C309.255 192.906 308.639 193.47 308.237 194.181C308.128 194.458 308.056 194.749 308.021 195.045C307.991 194.969 307.975 194.888 307.975 194.806C307.971 194.572 308.01 194.339 308.091 194.119C308.459 193.336 309.082 192.702 309.859 192.32C310.33 192.05 310.854 191.818 311.403 191.51C311.965 191.223 312.437 190.788 312.769 190.251C313.042 189.596 313.199 188.899 313.232 188.19C313.348 187.37 313.712 186.605 314.274 185.998C314.816 185.418 315.488 184.975 316.234 184.707C316.98 184.438 317.78 184.352 318.567 184.454C319.834 184.663 320.991 185.304 321.84 186.268C322.41 186.899 322.856 187.632 323.152 188.429C323.268 188.722 323.328 189.033 323.33 189.348Z" fill="#FAFAFA"/>
<path d="M311.95 211.851C311.97 211.971 311.97 212.094 311.95 212.214C311.904 212.563 311.808 212.904 311.664 213.225C311.184 214.228 310.409 215.06 309.444 215.612C308.479 216.164 307.368 216.408 306.26 216.313C305.225 216.217 304.229 215.87 303.358 215.302C302.393 214.686 301.571 213.87 300.949 212.909C300.27 211.913 299.961 210.709 299.251 209.767C298.908 209.31 298.434 208.968 297.892 208.786C297.339 208.631 296.773 208.53 296.201 208.485C295.106 208.42 294.046 208.076 293.121 207.487C292.196 206.898 291.436 206.083 290.913 205.119C290.486 204.322 290.246 203.437 290.21 202.533C290.162 201.227 290.518 199.939 291.23 198.843C291.419 198.551 291.639 198.279 291.886 198.032C291.968 197.941 292.061 197.86 292.164 197.793C292.164 197.793 291.816 198.156 291.392 198.928C290.757 200.014 290.457 201.262 290.527 202.518C290.575 203.374 290.818 204.209 291.237 204.957C291.745 205.861 292.472 206.623 293.352 207.172C294.232 207.721 295.235 208.04 296.271 208.099C296.875 208.137 297.473 208.24 298.054 208.408C298.672 208.612 299.212 209.003 299.598 209.527C300.37 210.562 300.671 211.758 301.312 212.693C301.895 213.62 302.672 214.41 303.589 215.009C304.408 215.553 305.345 215.895 306.322 216.004C307.176 216.096 308.039 215.971 308.831 215.642C309.998 215.176 310.961 214.312 311.549 213.202C311.716 212.762 311.85 212.311 311.95 211.851Z" fill="#FAFAFA"/>
<path d="M313.741 230.395C313.844 229.918 313.857 229.426 313.779 228.944C313.629 228.3 313.323 227.702 312.886 227.206C312.45 226.709 311.897 226.327 311.278 226.095C310.419 225.782 309.505 225.643 308.592 225.686C307.53 225.736 306.475 225.886 305.442 226.134C304.281 226.42 303.098 226.608 301.906 226.697C300.588 226.793 299.271 226.494 298.123 225.84C297.056 225.072 296.229 224.018 295.738 222.799C295.255 221.735 294.607 220.755 293.816 219.896C292.451 218.451 290.655 217.487 288.697 217.148C287.374 216.93 286.02 216.991 284.721 217.325C283.803 217.564 283.324 217.804 283.309 217.765C283.413 217.687 283.527 217.622 283.648 217.572C283.984 217.418 284.329 217.286 284.683 217.178C285.997 216.776 287.384 216.67 288.743 216.87C290.779 217.179 292.657 218.151 294.086 219.633C294.91 220.514 295.585 221.523 296.085 222.621C296.551 223.773 297.333 224.771 298.339 225.501C299.422 226.099 300.657 226.367 301.891 226.273C303.061 226.19 304.223 226.012 305.365 225.74C306.422 225.498 307.5 225.356 308.584 225.315C309.541 225.286 310.495 225.451 311.386 225.802C312.125 226.102 312.765 226.605 313.231 227.253C313.589 227.733 313.827 228.292 313.926 228.882C313.987 229.254 313.971 229.635 313.88 230.001C313.861 230.141 313.814 230.275 313.741 230.395Z" fill="#FAFAFA"/>
<path d="M346.86 192.691C346.634 193.435 346.307 194.145 345.887 194.799C345.57 195.338 345.162 195.818 344.683 196.219C343.969 196.821 343.222 197.38 342.444 197.895C342.444 197.895 320.125 200.427 316.335 200.11C312.544 199.794 299.798 186.824 299.798 186.824C296.797 190.13 293.391 193.045 289.662 195.502C289.662 195.502 301.42 206.155 311.757 211.343C318.334 214.647 345.725 206.41 345.771 206.402C348.216 206.455 350.661 206.378 353.097 206.171C356.502 205.738 356.463 205.399 356.347 205.043C356.031 204.001 350.334 205.584 351.36 204.534C352.387 203.484 358.555 203.415 358.177 202.341C357.683 200.936 351.754 202.704 351.229 202.812C350.704 202.92 350.534 202.187 351.005 202.11C351.677 202.002 358.725 200.674 358.254 199.292C357.992 198.52 356.664 199.122 356.664 199.122C356.664 199.122 350.164 200.851 349.963 200.195C349.762 199.539 353.545 198.381 354.842 198.088C356.139 197.794 356.517 197.061 355.915 196.605C355.506 196.289 351.492 197.1 350.21 197.416C348.929 197.733 345.431 198.682 346.775 196.814C348.118 194.946 348.45 193 348.172 192.414C348.093 192.291 347.979 192.196 347.845 192.14C347.71 192.084 347.562 192.07 347.42 192.101C347.278 192.131 347.148 192.203 347.048 192.309C346.948 192.414 346.882 192.548 346.86 192.691Z" fill="#B78876"/>
<path d="M290.497 149.119C290.652 149.398 290.909 149.606 291.214 149.7C291.519 149.793 291.848 149.765 292.133 149.621C292.712 149.335 293.392 148.888 293.492 148.255C293.592 147.622 293.631 146.811 293.693 146.17C293.764 145.444 293.901 144.726 294.102 144.024C296.418 144.487 297.962 143.846 299.506 142.079C300.288 142.821 301.268 143.322 302.328 143.521C303.387 143.721 304.482 143.612 305.481 143.206C305.956 142.936 306.482 142.771 307.025 142.719C307.843 142.719 308.569 143.437 309.341 143.437C309.761 143.394 310.15 143.198 310.435 142.886C310.72 142.574 310.88 142.169 310.885 141.747C310.87 141.32 310.753 140.903 310.543 140.531C310.333 140.159 310.038 139.842 309.681 139.608C308.957 139.152 308.148 138.85 307.303 138.72C304.348 138.205 301.329 138.171 298.363 138.62C296.957 138.752 295.575 139.077 294.256 139.585C292.932 140.105 291.81 141.039 291.06 142.248C289.995 144.124 290.234 146.44 290.512 148.587" fill="#263238"/>
<path d="M317.948 288.326C317.832 288.167 317.734 287.997 317.655 287.817L316.883 286.327C316.235 285.022 315.254 283.161 314.019 280.876C311.541 276.306 307.928 270.068 303.682 263.39C299.436 256.713 295.468 250.699 292.588 246.352L289.238 241.18C288.867 240.593 288.566 240.122 288.342 239.76C288.232 239.599 288.136 239.428 288.057 239.25C288.19 239.395 288.309 239.553 288.412 239.721L289.361 241.095L292.828 246.19C295.738 250.506 299.776 256.458 303.998 263.174C308.221 269.891 311.888 276.128 314.281 280.745C315.486 283.061 316.428 284.937 317.03 286.257L317.732 287.801C317.822 287.968 317.895 288.144 317.948 288.326Z" fill="#455A64"/>
<path d="M255.324 324.603L268.062 338.028L271.019 336.16L257.455 322.75L255.324 324.603Z" fill="#455A64"/>
<path d="M300.748 185.449C300.296 186.107 299.778 186.717 299.204 187.271C298.208 188.352 296.78 189.803 295.128 191.316C293.476 192.83 291.901 194.126 290.728 195.022C290.125 195.541 289.471 195.997 288.774 196.381C289.331 195.826 289.924 195.311 290.55 194.837C291.669 193.887 293.206 192.567 294.858 191.062C296.51 189.556 297.946 188.144 299.003 187.117C299.543 186.519 300.127 185.962 300.748 185.449Z" fill="#263238"/>
<path d="M288.782 168.164C289.05 168.258 289.298 168.399 289.516 168.581C290.124 169.044 290.666 169.586 291.129 170.194C292.31 171.738 293.738 173.939 295.282 176.417C296.826 178.895 298.131 181.049 299.142 182.786L300.324 184.716C300.483 184.944 300.615 185.19 300.717 185.449C300.516 185.256 300.34 185.038 300.192 184.801C299.876 184.368 299.42 183.735 298.903 182.94C297.845 181.342 296.448 179.08 294.912 176.625C293.376 174.17 291.978 171.908 290.874 170.364C290.281 169.538 289.577 168.798 288.782 168.164Z" fill="#263238"/>
<path d="M281.287 180.4C281.348 180.4 281.503 181.358 281.85 182.902C282.312 184.907 282.937 186.872 283.718 188.777C284.513 190.676 285.458 192.509 286.544 194.258C287.385 195.601 287.964 196.389 287.918 196.435C287.872 196.481 287.725 196.265 287.439 195.925C287.154 195.586 286.76 195.068 286.312 194.381C285.137 192.662 284.143 190.825 283.348 188.9C282.555 186.976 281.96 184.977 281.572 182.933C281.433 182.161 281.341 181.504 281.31 181.057C281.27 180.84 281.262 180.619 281.287 180.4Z" fill="#263238"/>
<path d="M59.1896 222.335C54.8124 223.038 52.8592 228.411 53.2375 232.819C53.6158 237.227 55.4377 241.551 54.9513 245.943C54.3337 251.532 50.1109 256.257 49.6168 261.862C49.0378 268.47 53.7084 274.33 55.1057 280.814C55.7851 283.972 55.6925 287.307 56.8659 290.318C57.867 292.877 59.7246 295.009 62.1219 296.351C64.5193 297.694 67.308 298.163 70.0128 297.68C72.7175 297.196 75.1709 295.789 76.9545 293.699C78.7382 291.609 79.7418 288.966 79.7943 286.218C79.8947 281.146 76.7603 276.368 77.1386 271.303C77.4243 267.567 79.6167 264.023 79.1458 260.302C78.59 255.871 74.5138 252.729 73.0393 248.506C71.5648 244.283 72.9775 239.628 72.4757 235.189C71.5802 227.245 67.1644 221.695 59.1896 222.335Z" fill="#FF5400"/>
<path d="M36.8555 260.865C36.0835 268.238 39.3722 276.915 43.1628 283.253C46.9998 289.674 52.7844 294.704 59.6759 297.612C60.4479 297.937 61.4051 298.207 62.0536 297.682C62.2834 297.428 62.4561 297.128 62.56 296.802C62.6639 296.475 62.6966 296.131 62.6558 295.791C62.709 287.962 60.2235 280.328 55.5721 274.031C50.9206 267.735 44.3536 263.115 36.8555 260.865Z" fill="#FF5400"/>
<g opacity="0.2">
<path d="M36.8555 260.865C36.0835 268.238 39.3722 276.915 43.1628 283.253C46.9998 289.674 52.7844 294.704 59.6759 297.612C60.4479 297.937 61.4051 298.207 62.0536 297.682C62.2834 297.428 62.4561 297.128 62.56 296.802C62.6639 296.475 62.6966 296.131 62.6558 295.791C62.709 287.962 60.2235 280.328 55.5721 274.031C50.9206 267.735 44.3536 263.115 36.8555 260.865Z" fill="#333333"/>
</g>
<path d="M68.9787 313.031C68.8898 312.905 68.8196 312.767 68.7702 312.621C68.6313 312.305 68.4537 311.903 68.2453 311.417C67.7975 310.359 67.1413 308.846 66.2921 306.986C64.0943 302.14 61.6516 297.409 58.9735 292.812C56.2692 288.217 53.3344 283.762 50.1805 279.464C48.9761 277.82 47.9803 276.492 47.2777 275.604L46.5057 274.554C46.4044 274.44 46.3187 274.313 46.251 274.176C46.251 274.176 46.3668 274.276 46.5675 274.5C46.7682 274.724 47.077 275.102 47.4244 275.504C48.1964 276.376 49.2 277.673 50.4352 279.302C53.6636 283.55 56.6359 287.986 59.3364 292.588C62.0257 297.196 64.4386 301.96 66.5623 306.855C67.3343 308.738 67.9982 310.274 68.3919 311.348C68.5772 311.849 68.7316 312.259 68.8474 312.583C68.9103 312.726 68.9544 312.876 68.9787 313.031Z" fill="#263238"/>
<path d="M64.2307 242.732C64.2797 242.966 64.3081 243.204 64.3156 243.443C64.3156 243.944 64.4005 244.616 64.4623 245.473L64.9409 252.946C65.3347 259.253 65.8982 267.969 66.5776 277.596C67.2569 287.223 67.9209 295.923 68.4072 302.23C68.6465 305.318 68.8395 307.889 68.9785 309.696C69.0403 310.545 69.0866 311.24 69.1175 311.726C69.138 311.962 69.138 312.2 69.1175 312.436C69.0605 312.206 69.0244 311.971 69.0094 311.734C68.9553 311.232 68.8859 310.56 68.7932 309.711L68.0907 302.254C67.5271 295.954 66.8092 287.246 66.1298 277.619C65.4505 267.992 64.9409 259.276 64.5858 252.961C64.4391 249.835 64.3156 247.287 64.2384 245.481C64.2384 244.624 64.1844 243.937 64.1689 243.45C64.1691 243.21 64.1897 242.97 64.2307 242.732Z" fill="#263238"/>
<path d="M57.4521 302.516H75.9184V316.072C75.9194 317.237 75.6907 318.391 75.2452 319.468C74.7998 320.544 74.1465 321.523 73.3226 322.346C72.4987 323.17 71.5205 323.824 70.4438 324.269C69.3672 324.715 68.2133 324.943 67.0481 324.942C64.7746 324.941 62.5884 324.066 60.9418 322.499C59.2951 320.931 58.3139 318.79 58.201 316.52L57.4521 302.516Z" fill="#263238"/>
</svg>
