<svg width="441" height="442" viewBox="0 0 441 442" fill="none" xmlns="http://www.w3.org/2000/svg">
<path d="M220.65 426.506C335.419 426.506 428.458 372.79 428.458 306.527C428.458 240.265 335.419 186.549 220.65 186.549C105.881 186.549 12.842 240.265 12.842 306.527C12.842 372.79 105.881 426.506 220.65 426.506Z" fill="#F0F0F0"/>
<path d="M62.8337 349.252L26.9892 328.604C24.9694 327.431 24.9694 325.544 26.9892 324.379L235.494 203.96C236.627 203.382 237.882 203.08 239.154 203.08C240.427 203.08 241.681 203.382 242.815 203.96L278.659 224.652C280.679 225.816 280.679 227.712 278.659 228.877L70.1543 349.252C69.0196 349.826 67.7657 350.125 66.494 350.125C65.2222 350.125 63.9684 349.826 62.8337 349.252Z" fill="#E0E0E0"/>
<path d="M216.91 357.817L130.818 308.116L238.405 246.12L324.391 295.759L216.91 357.817Z" fill="#E0E0E0"/>
<path d="M335.768 379.981C358.244 379.981 376.464 369.461 376.464 356.485C376.464 343.508 358.244 332.988 335.768 332.988C313.293 332.988 295.073 343.508 295.073 356.485C295.073 369.461 313.293 379.981 335.768 379.981Z" fill="#E0E0E0"/>
<path d="M390.373 328.19C394.783 330.739 394.783 334.867 390.373 337.416C385.963 339.965 378.81 339.956 374.4 337.416C369.99 334.876 369.99 330.739 374.4 328.19C378.81 325.641 385.963 325.641 390.373 328.19Z" fill="#E0E0E0"/>
<path d="M191.676 312.367L222.493 294.55C225.669 292.716 227.256 290.317 227.256 287.909C227.256 285.501 227.256 283.622 227.256 283.622L195.284 265.594C194.393 265.015 193.651 264.234 193.118 263.315C192.584 262.395 192.275 261.363 192.214 260.302V222.297L138.412 253.396V291.384C138.474 292.445 138.784 293.476 139.317 294.395C139.851 295.314 140.592 296.095 141.482 296.676L168.683 312.34C175.024 316.036 185.326 316.036 191.676 312.367Z" fill="#FF5400"/>
<g opacity="0.6">
<path d="M191.676 312.367L222.493 294.55C225.669 292.716 227.256 290.317 227.256 287.909C227.256 285.501 227.256 283.622 227.256 283.622L195.284 265.594C194.393 265.015 193.651 264.234 193.118 263.315C192.584 262.395 192.275 261.363 192.214 260.302V222.297L138.412 253.396V291.384C138.474 292.445 138.784 293.476 139.317 294.395C139.851 295.314 140.592 296.095 141.482 296.676L168.683 312.34C175.024 316.036 185.326 316.036 191.676 312.367Z" fill="#333333"/>
</g>
<path opacity="0.3" d="M151.334 298.113V302.382L141.464 296.693C140.574 296.113 139.834 295.332 139.302 294.413C138.77 293.493 138.462 292.462 138.404 291.401V253.396L148.652 247.46C148.864 250.106 149.102 252.752 149.314 255.398L142.117 259.561V289.24C142.174 290.302 142.482 291.335 143.015 292.255C143.549 293.175 144.293 293.955 145.186 294.532L151.334 298.113Z" fill="#333333"/>
<path d="M142.117 289.249C142.177 290.31 142.487 291.342 143.02 292.262C143.553 293.181 144.295 293.962 145.186 294.541L168.665 308.071C175.015 311.732 185.317 311.74 191.676 308.071L222.546 290.255C228.905 286.586 228.905 280.641 222.546 276.972L199.059 263.442C198.167 262.863 197.425 262.082 196.892 261.163C196.358 260.243 196.049 259.211 195.989 258.15V228.462L142.187 259.561L142.117 289.249Z" fill="#FF5400"/>
<path opacity="0.3" d="M142.117 289.249C142.177 290.31 142.487 291.342 143.02 292.262C143.553 293.181 144.295 293.962 145.186 294.541L168.665 308.071C175.015 311.732 185.317 311.74 191.676 308.071L222.546 290.255C228.905 286.586 228.905 280.641 222.546 276.972L199.059 263.442C198.167 262.863 197.425 262.082 196.892 261.163C196.358 260.243 196.049 259.211 195.989 258.15V228.462L142.187 259.561L142.117 289.249Z" fill="#333333"/>
<path opacity="0.5" d="M205.259 267.067L199.015 263.46C198.123 262.881 197.381 262.1 196.848 261.18C196.314 260.261 196.005 259.229 195.945 258.168V228.462L142.143 259.561V289.249C142.204 290.31 142.513 291.342 143.047 292.262C143.58 293.181 144.322 293.962 145.213 294.541L151.387 298.069L205.259 267.067Z" fill="#333333"/>
<path d="M227.265 283.622V287.909C227.265 290.316 225.669 292.707 222.502 294.55L191.632 312.358C188.254 314.161 184.481 315.097 180.651 315.083V310.814C184.481 310.828 188.254 309.892 191.632 308.089L222.502 290.264C225.669 288.447 227.265 286.039 227.265 283.622Z" fill="#FF5400"/>
<path opacity="0.5" d="M227.265 283.622V287.909C227.265 290.316 225.669 292.707 222.502 294.55L191.632 312.358C188.254 314.161 184.481 315.097 180.651 315.083V310.814C184.481 310.828 188.254 309.892 191.632 308.089L222.502 290.264C225.669 288.447 227.265 286.039 227.265 283.622Z" fill="#333333"/>
<path d="M55.6984 326.143C56.8615 326.705 58.1403 326.986 59.4318 326.963C60.7232 326.94 61.9913 326.614 63.1336 326.011L271.286 205.838C272.402 205.11 273.331 204.13 273.997 202.976C274.664 201.822 275.049 200.527 275.122 199.197V30.8054C275.073 29.5161 274.72 28.2567 274.094 27.129C273.467 26.0013 272.583 25.0369 271.515 24.3138C270.353 23.7514 269.075 23.4711 267.785 23.4956C266.494 23.5201 265.228 23.8488 264.089 24.455L55.9365 144.619C54.8212 145.345 53.8932 146.324 53.228 147.476C52.5629 148.629 52.1793 149.922 52.1086 151.251V319.643C52.155 320.932 52.5041 322.192 53.1277 323.321C53.7513 324.451 54.6319 325.417 55.6984 326.143Z" fill="#FF5400"/>
<path d="M63.1336 326.003L271.286 205.83C272.402 205.103 273.331 204.122 273.998 202.968C274.665 201.814 275.05 200.519 275.122 199.189V30.806C275.122 28.3628 273.402 27.3662 271.286 28.5921L63.1336 148.765C62.017 149.492 61.0876 150.473 60.421 151.627C59.7544 152.781 59.3693 154.075 59.2969 155.406V323.789C59.2969 326.232 61.0168 327.229 63.1336 326.003Z" fill="#FF5400"/>
<path opacity="0.5" d="M63.1336 326.003L271.286 205.83C272.402 205.103 273.331 204.122 273.998 202.968C274.665 201.814 275.05 200.519 275.122 199.189V30.806C275.122 28.3628 273.402 27.3662 271.286 28.5921L63.1336 148.765C62.017 149.492 61.0876 150.473 60.421 151.627C59.7544 152.781 59.3693 154.075 59.2969 155.406V323.789C59.2969 326.232 61.0168 327.229 63.1336 326.003Z" fill="#333333"/>
<path d="M62.5692 330.368C61.4813 330.841 60.3042 331.073 59.1184 331.048C57.9326 331.024 56.766 330.744 55.6984 330.227C54.6285 329.5 53.7451 328.531 53.1198 327.398C52.4946 326.266 52.1451 325.002 52.0999 323.709V308.389L59.2882 312.552V327.881C59.2882 330.112 60.7082 331.127 62.5692 330.368Z" fill="#FF5400"/>
<path opacity="0.5" d="M62.5692 330.368C61.4813 330.841 60.3042 331.073 59.1184 331.048C57.9326 331.024 56.766 330.744 55.6984 330.227C54.6285 329.5 53.7451 328.531 53.1198 327.398C52.4946 326.266 52.1451 325.002 52.0999 323.709V308.389L59.2882 312.552V327.881C59.2882 330.112 60.7082 331.127 62.5692 330.368Z" fill="#333333"/>
<path d="M59.2881 312.551V327.881C59.2881 330.324 61.0521 331.312 63.1248 330.094L271.277 209.922C272.393 209.194 273.322 208.213 273.988 207.059C274.655 205.906 275.04 204.611 275.113 203.28V187.916L59.2881 312.551Z" fill="#FF5400"/>
<path opacity="0.3" d="M59.2969 312.516V327.881C59.2969 330.324 61.0609 331.312 63.1336 330.094L271.286 209.922C272.402 209.194 273.331 208.213 273.997 207.059C274.664 205.906 275.049 204.611 275.122 203.28V187.916L59.2969 312.516Z" fill="#333333"/>
<path d="M66.4854 293.324V157.787C66.5278 156.99 66.7575 156.215 67.156 155.524C67.5545 154.833 68.1104 154.245 68.7786 153.809L265.614 40.1901C266.885 39.458 267.917 40.0489 267.917 41.5131V177.024C267.874 177.822 267.643 178.6 267.243 179.293C266.843 179.985 266.285 180.574 265.614 181.01L68.7962 294.647C67.5173 295.379 66.4854 294.779 66.4854 293.324Z" fill="#FF5400"/>
<path d="M66.4854 293.324V157.787C66.5278 156.99 66.7575 156.215 67.156 155.524C67.5545 154.833 68.1104 154.245 68.7786 153.809L265.614 40.1901C266.885 39.458 267.917 40.0489 267.917 41.5131V177.024C267.874 177.822 267.643 178.6 267.243 179.293C266.843 179.985 266.285 180.574 265.614 181.01L68.7962 294.647C67.5173 295.379 66.4854 294.779 66.4854 293.324Z" fill="#263238"/>
<path opacity="0.7" d="M60.4259 151.613C59.7424 152.762 59.3517 154.062 59.2882 155.397V312.552L52.0999 308.389V151.252C52.1472 149.915 52.5359 148.612 53.2288 147.468L60.4259 151.613Z" fill="#333333"/>
<path opacity="0.3" d="M275.078 30.1704C274.805 28.1948 273.208 27.4803 271.277 28.5828L63.1336 148.764C62.005 149.47 61.0735 150.45 60.4259 151.613L53.2288 147.459C53.8807 146.296 54.815 145.316 55.9453 144.61L264.097 24.4463C265.238 23.8401 266.506 23.5114 267.798 23.4868C269.09 23.4623 270.369 23.7427 271.533 24.3051C272.509 24.9723 273.33 25.8411 273.942 26.8529C274.554 27.8648 274.941 28.9961 275.078 30.1704Z" fill="#333333"/>
<path d="M82.564 183.736C82.0378 183.372 81.6042 182.889 81.2979 182.327C80.9916 181.765 80.8211 181.139 80.8 180.499V165.585C80.8381 164.922 81.0311 164.278 81.3635 163.703C81.6959 163.129 82.1585 162.64 82.714 162.277L278.597 49.1608C279.149 48.8136 279.785 48.6235 280.436 48.611C281.088 48.5985 281.731 48.7641 282.295 49.0899C282.86 49.4157 283.324 49.8893 283.64 50.4598C283.955 51.0303 284.108 51.6759 284.083 52.3272V67.233C284.051 67.896 283.862 68.5417 283.53 69.1169C283.199 69.692 282.736 70.18 282.178 70.5405L86.2596 183.666C85.6928 183.968 85.0625 184.132 84.4203 184.144C83.7781 184.156 83.142 184.017 82.564 183.736Z" fill="#FF5400"/>
<path opacity="0.4" d="M284.066 52.0181C283.933 51.0302 283.131 50.6686 282.178 51.2243L86.2595 164.35C85.6994 164.708 85.2359 165.199 84.91 165.778L81.3291 163.67C81.6523 163.089 82.1163 162.598 82.6786 162.242L278.597 49.1604C279.123 48.814 279.732 48.6145 280.36 48.5826C280.989 48.5508 281.615 48.6878 282.173 48.9793C282.731 49.2709 283.2 49.7064 283.533 50.2408C283.866 50.7751 284.05 51.3887 284.066 52.0181Z" fill="white"/>
<path d="M86.2596 305.002C85.8056 305.277 85.2903 305.435 84.7602 305.461C84.0058 305.557 83.24 305.422 82.564 305.073C82.0363 304.71 81.6016 304.228 81.2951 303.665C80.9886 303.103 80.819 302.476 80.8 301.836V188.208L84.3898 190.281V303.909C84.3898 304.791 84.822 305.276 85.4482 305.276C85.7364 305.25 86.0145 305.156 86.2596 305.002Z" fill="#F0F0F0"/>
<path opacity="0.1" d="M84.91 165.779C84.5672 166.347 84.3759 166.994 84.3544 167.657V190.281L80.7646 188.208V165.585C80.7646 165.505 80.7646 165.435 80.7646 165.355C80.7811 165.198 80.8076 165.042 80.844 164.888C80.9426 164.472 81.1032 164.074 81.3203 163.706L84.91 165.779Z" fill="#333333"/>
<path d="M284.083 52.3269V62.5317L143.581 143.676C142.531 144.284 141.676 143.79 141.676 142.573V138.71C141.676 137.493 140.794 136.999 139.762 137.608L93.4302 164.359C92.8732 164.72 92.4095 165.208 92.0769 165.783C91.7443 166.358 91.5522 167.003 91.5162 167.666V171.529C91.4798 172.191 91.2885 172.835 90.9575 173.41C90.6266 173.984 90.1654 174.473 89.6111 174.837L84.3191 177.871V167.657C84.3555 166.995 84.5469 166.351 84.8778 165.777C85.2087 165.202 85.6699 164.713 86.2242 164.35L282.178 51.2244C283.228 50.6158 284.083 51.1098 284.083 52.3269Z" fill="#FF5400"/>
<path d="M284.083 188.569C284.049 189.233 283.859 189.879 283.528 190.455C283.197 191.031 282.734 191.521 282.178 191.885L86.2596 305.002C85.21 305.61 84.3545 305.117 84.3545 303.899V177.862L89.6465 174.828C90.6961 174.219 92.4072 164.958 93.4656 164.349L139.021 138.039C140.079 137.431 142.549 144.275 143.616 143.666L284.119 62.5225V188.56L284.083 188.569Z" fill="#FAFAFA"/>
<path d="M283.201 64.0571V188.569C283.168 189.077 283.018 189.571 282.764 190.013C282.511 190.455 282.159 190.833 281.737 191.118L85.8185 304.243C85.697 304.323 85.5576 304.372 85.4128 304.384C85.2364 304.384 85.2364 303.926 85.2364 303.899V178.364L90.0521 175.586C90.8194 175.145 91.2957 173.663 92.3629 169.844C92.7462 168.21 93.2746 166.613 93.9417 165.073L139.091 138.974C139.62 139.706 140.101 140.472 140.529 141.267C141.755 143.428 142.443 144.557 143.44 144.557C143.644 144.558 143.846 144.503 144.022 144.398L283.201 64.0306M284.083 62.5312L143.581 143.675C143.535 143.688 143.486 143.688 143.44 143.675C142.372 143.675 140.203 137.978 139.127 137.978C139.08 137.966 139.032 137.966 138.985 137.978L93.4302 164.288C92.3718 164.896 90.6607 174.157 89.6111 174.766L84.3191 177.8V303.908C84.3191 304.79 84.7513 305.275 85.3775 305.275C85.6902 305.269 85.9952 305.178 86.2595 305.011L282.178 191.894C282.734 191.53 283.196 191.04 283.527 190.464C283.859 189.888 284.049 189.242 284.083 188.578V62.5312Z" fill="#E0E0E0"/>
<path d="M117.87 232.969L143.978 217.896C144.683 217.49 145.248 217.817 145.248 218.628V262.596C145.225 263.037 145.098 263.467 144.877 263.851C144.656 264.234 144.348 264.559 143.978 264.801L117.87 279.874C117.165 280.28 116.6 279.945 116.6 279.133V235.174C116.623 234.733 116.75 234.303 116.971 233.92C117.192 233.536 117.5 233.211 117.87 232.969Z" fill="#F0F0F0"/>
<path d="M122.642 235.721L139.206 226.16C139.903 225.754 140.476 226.045 140.476 226.804C140.444 227.231 140.313 227.645 140.092 228.013C139.872 228.381 139.568 228.691 139.206 228.921L122.642 238.481C121.945 238.887 121.372 238.596 121.372 237.838C121.404 237.41 121.536 236.996 121.756 236.629C121.977 236.261 122.28 235.95 122.642 235.721Z" fill="#E0E0E0"/>
<path d="M121.372 242.857V243.853C121.372 244.338 121.716 244.532 122.139 244.294L123.021 243.792C123.245 243.648 123.432 243.453 123.566 243.223C123.699 242.993 123.775 242.734 123.789 242.469V241.481C123.789 240.987 123.445 240.793 123.021 241.04L122.139 241.534C121.916 241.678 121.731 241.874 121.598 242.104C121.464 242.333 121.387 242.591 121.372 242.857Z" fill="#FF5400"/>
<path d="M126.126 240.598C126.126 241.357 126.699 241.648 127.405 241.242L139.188 234.433C139.55 234.205 139.853 233.896 140.074 233.53C140.295 233.164 140.426 232.751 140.458 232.325C140.458 231.558 139.885 231.275 139.188 231.681L127.405 238.481C127.04 238.708 126.734 239.018 126.511 239.386C126.289 239.754 126.157 240.169 126.126 240.598Z" fill="#E0E0E0"/>
<path d="M121.372 248.343V249.34C121.372 249.825 121.716 250.019 122.139 249.781L123.021 249.278C123.244 249.133 123.43 248.938 123.564 248.708C123.697 248.478 123.774 248.22 123.789 247.955V246.967C123.789 246.473 123.445 246.279 123.021 246.526L122.139 247.02C121.916 247.165 121.731 247.36 121.598 247.59C121.464 247.82 121.387 248.078 121.372 248.343Z" fill="#FF5400"/>
<path d="M126.126 246.12C126.126 246.878 126.699 247.169 127.405 246.763L139.188 239.954C139.55 239.727 139.853 239.418 140.074 239.051C140.295 238.685 140.426 238.273 140.458 237.846C140.458 237.079 139.885 236.797 139.188 237.203L127.405 244.003C127.04 244.23 126.734 244.54 126.511 244.908C126.289 245.276 126.157 245.691 126.126 246.12Z" fill="#E0E0E0"/>
<path d="M121.372 253.89V254.878C121.372 255.372 121.716 255.566 122.139 255.319L123.021 254.825C123.244 254.68 123.429 254.485 123.563 254.255C123.696 254.025 123.773 253.767 123.789 253.502V252.505C123.789 252.02 123.445 251.826 123.021 252.064L122.139 252.567C121.916 252.712 121.73 252.907 121.597 253.137C121.463 253.367 121.386 253.625 121.372 253.89Z" fill="#FF5400"/>
<path d="M126.126 251.624C126.126 252.391 126.699 252.673 127.405 252.267L139.188 245.467C139.55 245.239 139.853 244.93 140.074 244.564C140.295 244.198 140.426 243.785 140.458 243.359C140.458 242.592 139.885 242.31 139.188 242.715L127.405 249.516C127.041 249.742 126.736 250.05 126.513 250.417C126.291 250.783 126.158 251.196 126.126 251.624Z" fill="#E0E0E0"/>
<path d="M121.372 259.394V260.391C121.372 260.876 121.716 261.079 122.139 260.832L123.021 260.338C123.244 260.193 123.429 259.998 123.563 259.768C123.696 259.538 123.773 259.28 123.789 259.015V258.044C123.789 257.559 123.445 257.357 123.021 257.603L122.139 258.097C121.92 258.24 121.736 258.431 121.603 258.656C121.47 258.881 121.391 259.133 121.372 259.394Z" fill="#FF5400"/>
<path d="M126.126 257.163C126.126 257.921 126.699 258.212 127.405 257.807L139.206 250.989C139.568 250.759 139.871 250.448 140.092 250.081C140.312 249.713 140.444 249.299 140.476 248.872C140.476 248.114 139.903 247.822 139.206 248.228L127.423 255.028C127.053 255.256 126.743 255.568 126.517 255.94C126.292 256.311 126.158 256.73 126.126 257.163Z" fill="#E0E0E0"/>
<path d="M122.545 266.115L139.1 256.554C139.806 256.148 140.379 256.431 140.379 257.198C140.347 257.625 140.214 258.039 139.992 258.405C139.769 258.771 139.464 259.08 139.1 259.306L122.545 268.867C121.839 269.273 121.266 268.99 121.275 268.223C121.306 267.796 121.437 267.383 121.658 267.017C121.878 266.651 122.182 266.342 122.545 266.115Z" fill="#E0E0E0"/>
<path d="M121.266 273.242V274.238C121.266 274.723 121.61 274.926 122.033 274.679L122.915 274.185C123.137 274.04 123.321 273.845 123.453 273.615C123.585 273.385 123.66 273.127 123.674 272.862V271.866C123.674 271.381 123.33 271.178 122.915 271.425L122.033 271.919C121.811 272.064 121.625 272.259 121.492 272.489C121.359 272.718 121.281 272.976 121.266 273.242Z" fill="#FF5400"/>
<path d="M126.047 270.983C126.047 271.742 126.62 272.033 127.317 271.627L139.1 264.827C139.464 264.599 139.77 264.288 139.992 263.921C140.214 263.553 140.347 263.138 140.379 262.71C140.379 261.951 139.806 261.66 139.1 262.066L127.317 268.866C126.955 269.096 126.651 269.407 126.431 269.774C126.21 270.142 126.079 270.556 126.047 270.983Z" fill="#E0E0E0"/>
<path d="M275.131 58.7126C276.463 57.9452 277.539 58.5715 277.539 60.1061C277.495 60.9409 277.254 61.7534 276.835 62.477C276.417 63.2006 275.833 63.8148 275.131 64.2692C273.808 65.0277 272.732 64.4103 272.732 62.8756C272.775 62.0416 273.015 61.2297 273.432 60.5061C273.849 59.7826 274.431 59.168 275.131 58.7126Z" fill="white"/>
<path d="M266.479 63.7134C267.81 62.9461 268.886 63.5635 268.886 65.0982C268.848 65.939 268.609 66.7585 268.191 67.4887C267.772 68.2189 267.185 68.8386 266.479 69.2965C265.156 70.0638 264.08 69.4376 264.08 67.9117C264.117 67.0717 264.354 66.2527 264.772 65.5226C265.189 64.7924 265.774 64.1723 266.479 63.7134Z" fill="white"/>
<path d="M259.53 72.4616C260.468 70.8375 260.469 69.0825 259.532 68.5418C258.596 68.0011 257.076 68.8794 256.139 70.5036C255.201 72.1277 255.2 73.8827 256.136 74.4234C257.073 74.9641 258.592 74.0857 259.53 72.4616Z" fill="white"/>
<path d="M284.083 62.5312V74.9498L84.3545 190.28V177.862L88.2794 175.586C89.329 174.977 89.6818 174.051 90.1845 172.279L91.5163 167.657C91.9397 166.052 92.3983 164.958 93.4303 164.349L138.986 138.039C140.044 137.431 140.873 137.369 141.632 138.701L143.263 141.664C143.863 142.696 144.145 143.305 145.212 142.696L284.083 62.5312Z" fill="#E6E6E6"/>
<path d="M84.3544 177.862V190.28L80.7646 188.208V175.798L84.3544 177.862Z" fill="#E0E0E0"/>
<path opacity="0.5" d="M93.1126 178.753L90.1138 180.517L91.2604 178.321C91.3052 178.238 91.3286 178.146 91.3286 178.052C91.3286 177.958 91.3052 177.865 91.2604 177.783C91.1722 177.677 91.0135 177.783 90.9164 177.95L89.2936 181.073C89.2936 181.073 89.2936 181.143 89.2495 181.187C89.241 181.24 89.241 181.293 89.2495 181.346C89.2394 181.392 89.2394 181.441 89.2495 181.487C89.2621 181.512 89.2769 181.535 89.2936 181.558L90.9164 182.801C90.9393 182.818 90.9672 182.828 90.9958 182.828C91.0244 182.828 91.0523 182.818 91.0752 182.801C91.1605 182.747 91.2256 182.667 91.2604 182.572C91.3081 182.495 91.3333 182.407 91.3333 182.316C91.3333 182.226 91.3081 182.137 91.2604 182.06L90.1138 181.178L93.1126 179.414C93.1912 179.355 93.2545 179.277 93.2974 179.188C93.3404 179.099 93.3616 179.001 93.3596 178.903C93.3596 178.779 93.2449 178.665 93.1126 178.753Z" fill="#455A64"/>
<path opacity="0.5" d="M95.6175 177.306L98.6163 175.542L97.4697 174.66C97.3727 174.59 97.3639 174.36 97.4697 174.149C97.5756 173.937 97.7079 173.849 97.8049 173.919L99.4366 175.172C99.4422 175.192 99.4422 175.213 99.4366 175.234C99.442 175.278 99.442 175.322 99.4366 175.366C99.4409 175.422 99.4409 175.478 99.4366 175.533C99.4402 175.572 99.4402 175.61 99.4366 175.648L97.8049 178.779C97.7713 178.855 97.7161 178.92 97.6461 178.964C97.6346 178.976 97.6209 178.986 97.6058 178.992C97.5906 178.998 97.5744 179.002 97.5579 179.002C97.5415 179.002 97.5252 178.998 97.5101 178.992C97.495 178.986 97.4812 178.976 97.4697 178.964C97.4242 178.882 97.4003 178.79 97.4003 178.695C97.4003 178.601 97.4242 178.509 97.4697 178.426L98.6163 176.23L95.6175 177.994C95.4852 178.074 95.3794 177.994 95.3794 177.765C95.3853 177.676 95.4094 177.59 95.4504 177.511C95.4914 177.432 95.5483 177.362 95.6175 177.306Z" fill="#455A64"/>
<path opacity="0.5" d="M105.452 168.672C105.452 168.495 105.276 168.522 105.196 168.716L104.79 169.721C104.085 169.642 103.238 170.33 102.665 171.538C101.924 173.108 101.924 174.969 102.665 175.684C102.845 175.852 103.079 175.952 103.325 175.967C103.572 175.981 103.815 175.909 104.014 175.763C104.611 175.362 105.077 174.795 105.355 174.131C105.403 174.052 105.429 173.96 105.429 173.867C105.429 173.774 105.403 173.682 105.355 173.602C105.267 173.514 105.108 173.602 105.02 173.805C104.464 174.978 103.564 175.499 103.009 174.96C102.453 174.422 102.453 173.038 103.009 171.865C103.397 171.036 103.97 170.542 104.464 170.506L104.155 171.265C104.076 171.459 104.155 171.644 104.27 171.565L105.496 170.762C105.545 170.722 105.583 170.67 105.606 170.612C105.629 170.553 105.637 170.49 105.628 170.427L105.452 168.672Z" fill="#455A64"/>
<path opacity="0.5" d="M137.671 143.711L138.765 141.4C138.831 141.291 138.866 141.166 138.866 141.038C138.866 140.911 138.831 140.786 138.765 140.677C138.633 140.553 138.43 140.677 138.298 140.95L137.204 143.261L136.11 142.212C135.987 142.088 135.775 142.212 135.643 142.476C135.581 142.587 135.549 142.711 135.549 142.838C135.549 142.964 135.581 143.089 135.643 143.199L136.71 144.267L135.616 146.586C135.554 146.695 135.522 146.818 135.522 146.943C135.522 147.069 135.554 147.192 135.616 147.301C135.65 147.327 135.692 147.342 135.735 147.342C135.779 147.342 135.82 147.327 135.854 147.301C135.955 147.229 136.034 147.131 136.084 147.018L137.177 144.699L138.271 145.757C138.305 145.785 138.347 145.801 138.39 145.801C138.434 145.801 138.476 145.785 138.509 145.757C138.611 145.687 138.691 145.589 138.739 145.475C138.805 145.366 138.84 145.241 138.84 145.113C138.84 144.986 138.805 144.861 138.739 144.752L137.671 143.711Z" fill="#455A64"/>
<path d="M109.43 171.52V167.657C109.466 166.994 109.658 166.349 109.99 165.774C110.323 165.199 110.787 164.711 111.344 164.349L271.435 71.9422C272.485 71.3336 273.341 71.8275 273.341 73.0447V76.9079C273.304 77.5698 273.113 78.214 272.782 78.7885C272.451 79.363 271.99 79.8517 271.435 80.2154L111.344 172.622C110.25 173.231 109.43 172.737 109.43 171.52Z" fill="#FAFAFA"/>
<path d="M268.833 80.5248C268.778 80.5349 268.721 80.5349 268.666 80.5248C268.56 80.4756 268.474 80.3924 268.421 80.2884C268.368 80.1845 268.352 80.0658 268.375 79.9515L268.56 78.3815L267.828 77.8523C267.762 77.8022 267.708 77.7366 267.673 77.6613C267.638 77.586 267.621 77.5032 267.625 77.4201C267.627 77.2935 267.657 77.1689 267.712 77.0548C267.767 76.9406 267.845 76.8396 267.943 76.7586L269.063 75.8766C269.085 75.8515 269.1 75.8211 269.107 75.7884L269.61 74.1391C269.642 74.0055 269.713 73.8842 269.813 73.7902C269.913 73.6962 270.039 73.6335 270.174 73.6099C270.266 73.6023 270.358 73.6238 270.437 73.6712C270.516 73.7187 270.578 73.7898 270.615 73.8745L271.038 74.7565L271.982 74.3949C272.069 74.3594 272.164 74.3514 272.256 74.3719C272.347 74.3924 272.43 74.4404 272.494 74.5095C272.569 74.6251 272.608 74.7599 272.608 74.8976C272.608 75.0353 272.569 75.1701 272.494 75.2857L271.682 76.8027C271.682 76.8027 271.682 76.8909 271.682 76.8997L271.867 78.2757C271.888 78.4044 271.879 78.536 271.843 78.661C271.806 78.7861 271.742 78.9015 271.656 78.9989C271.601 79.0601 271.532 79.1078 271.456 79.1384C271.379 79.169 271.297 79.1816 271.215 79.1753L270.333 79.0606L269.345 80.3219C269.284 80.3966 269.205 80.4544 269.116 80.4899C269.026 80.5254 268.929 80.5374 268.833 80.5248ZM268.295 77.3319L269.027 77.8611C269.103 77.9246 269.161 78.0069 269.195 78.0998C269.229 78.1927 269.238 78.2928 269.221 78.3903L269.098 79.4311L269.76 78.5932C269.815 78.5125 269.891 78.4474 269.979 78.4041C270.067 78.3609 270.164 78.341 270.262 78.3462L271.144 78.4609C271.151 78.4259 271.151 78.39 271.144 78.355L270.95 76.9791C270.934 76.8086 270.968 76.6369 271.047 76.4852L271.762 75.1534L271.03 75.4356C270.921 75.4799 270.799 75.4797 270.69 75.4352C270.581 75.3907 270.494 75.3054 270.447 75.1975L270.121 74.5007L269.671 75.9648C269.622 76.1263 269.527 76.2702 269.398 76.3794L268.269 77.2614C268.273 77.2863 268.282 77.3103 268.295 77.3319Z" fill="#E0E0E0"/>
<g opacity="0.5">
<path d="M275.59 71.4837C275.444 71.4829 275.303 71.4342 275.188 71.3452C275.073 71.2562 274.991 71.1318 274.954 70.9912C274.917 70.8507 274.927 70.7018 274.983 70.5676C275.039 70.4334 275.137 70.3214 275.263 70.2489L280.635 67.1442C280.787 67.0565 280.967 67.0328 281.137 67.0783C281.307 67.1238 281.451 67.2347 281.539 67.3868C281.627 67.5388 281.65 67.7195 281.605 67.889C281.559 68.0586 281.448 68.2031 281.296 68.2908L275.925 71.3955C275.823 71.4541 275.707 71.4846 275.59 71.4837Z" fill="#455A64"/>
<path d="M275.59 74.5882C275.444 74.5874 275.303 74.5387 275.188 74.4497C275.073 74.3607 274.991 74.2362 274.954 74.0957C274.917 73.9551 274.927 73.8063 274.983 73.6721C275.039 73.5379 275.137 73.4259 275.263 73.3534L280.635 70.2487C280.787 70.161 280.967 70.1373 281.137 70.1828C281.307 70.2283 281.451 70.3392 281.539 70.4913C281.627 70.6433 281.65 70.824 281.605 70.9935C281.559 71.1631 281.448 71.3076 281.296 71.3953L275.925 74.5C275.821 74.5548 275.707 74.585 275.59 74.5882Z" fill="#455A64"/>
<path d="M275.59 77.6925C275.444 77.6917 275.303 77.643 275.188 77.554C275.073 77.465 274.991 77.3406 274.954 77.2C274.917 77.0595 274.927 76.9106 274.983 76.7764C275.039 76.6422 275.137 76.5302 275.263 76.4577L280.635 73.3531C280.784 73.2695 280.959 73.2476 281.124 73.2921C281.289 73.3366 281.43 73.444 281.517 73.5912C281.598 73.7406 281.619 73.9157 281.574 74.0799C281.53 74.2442 281.424 74.385 281.279 74.4732L275.907 77.569C275.814 77.6368 275.704 77.6794 275.59 77.6925Z" fill="#455A64"/>
</g>
<path d="M84.3543 190.281L84.3455 202.681L284.066 87.3776L284.083 74.9502L84.3543 190.281Z" fill="#455A64"/>
<path d="M106.722 182.369V184.768C106.722 185.262 107.066 185.456 107.489 185.209L137.477 167.878V163.671L107.489 181.002C107.262 181.152 107.073 181.355 106.94 181.593C106.806 181.831 106.732 182.097 106.722 182.369Z" fill="#FAFAFA"/>
<path d="M141.561 161.35C141.993 161.103 142.337 161.306 142.337 161.8V164.199C142.323 164.467 142.245 164.727 142.11 164.959C141.975 165.191 141.787 165.387 141.561 165.531L137.504 167.877V163.67L141.561 161.35Z" fill="#FF5400"/>
<path d="M141.261 164.641L140.811 164.5C140.856 164.309 140.88 164.113 140.882 163.917C140.902 163.735 140.874 163.55 140.802 163.382C140.729 163.213 140.614 163.067 140.467 162.956C140.369 162.896 140.256 162.864 140.141 162.864C140.026 162.864 139.913 162.896 139.815 162.956C139.531 163.178 139.303 163.464 139.15 163.79C138.997 164.117 138.922 164.474 138.933 164.835C138.911 165.019 138.938 165.205 139.01 165.375C139.083 165.545 139.199 165.694 139.347 165.805C139.435 165.858 139.536 165.885 139.638 165.884C139.77 165.882 139.899 165.842 140.009 165.77C140.351 165.53 140.607 165.187 140.741 164.791L141.191 164.932H141.243C141.279 164.932 141.313 164.921 141.341 164.9C141.37 164.879 141.391 164.85 141.402 164.817C141.403 164.776 141.389 164.736 141.364 164.703C141.338 164.671 141.302 164.649 141.261 164.641ZM139.815 165.523C139.766 165.554 139.709 165.571 139.651 165.571C139.594 165.571 139.537 165.554 139.488 165.523C139.396 165.437 139.326 165.331 139.283 165.213C139.24 165.095 139.226 164.968 139.241 164.843C139.236 164.54 139.301 164.239 139.429 163.964C139.557 163.689 139.746 163.447 139.982 163.256C140.043 163.216 140.113 163.195 140.185 163.194C140.223 163.185 140.262 163.185 140.3 163.194C140.393 163.279 140.464 163.385 140.507 163.503C140.55 163.622 140.564 163.749 140.547 163.873C140.559 164.183 140.499 164.492 140.372 164.775C140.245 165.058 140.054 165.308 139.815 165.505V165.523Z" fill="#FAFAFA"/>
<path d="M101.492 184.512L99.4453 185.72C99.2226 185.865 99.0371 186.06 98.9038 186.29C98.7705 186.52 98.6931 186.778 98.678 187.043V189.416C98.678 189.91 99.022 190.104 99.4453 189.857L101.492 188.675C101.715 188.531 101.901 188.336 102.034 188.106C102.167 187.876 102.244 187.618 102.259 187.352V184.98C102.259 184.468 101.915 184.265 101.492 184.512Z" fill="#FAFAFA"/>
<path d="M172.607 142.44C171.811 142.961 171.148 143.662 170.673 144.486C170.198 145.311 169.924 146.235 169.873 147.185C169.873 148.949 171.099 149.637 172.607 148.764C173.404 148.243 174.066 147.543 174.541 146.718C175.016 145.894 175.29 144.969 175.341 144.019C175.341 142.282 174.115 141.567 172.607 142.44Z" fill="#FF5400"/>
<path d="M172.29 145.228C172.204 145.229 172.118 145.208 172.043 145.166C171.954 145.107 171.883 145.025 171.836 144.929C171.79 144.832 171.77 144.726 171.778 144.619C171.791 144.368 171.863 144.124 171.989 143.906C172.115 143.688 172.29 143.503 172.502 143.367C172.594 143.313 172.699 143.285 172.806 143.285C172.913 143.285 173.018 143.313 173.11 143.367C173.199 143.426 173.27 143.508 173.317 143.604C173.363 143.7 173.383 143.807 173.375 143.914C173.362 144.165 173.29 144.409 173.164 144.627C173.038 144.845 172.863 145.029 172.651 145.166C172.538 145.217 172.414 145.238 172.29 145.228Z" fill="white"/>
<path d="M173.692 145.413C173.539 145.336 173.368 145.303 173.197 145.315C173.027 145.327 172.862 145.386 172.722 145.483L172.325 145.713C171.963 145.943 171.662 146.257 171.449 146.629C171.235 147.001 171.115 147.419 171.099 147.847V148.129C171.343 148.235 171.61 148.276 171.874 148.248C172.138 148.22 172.391 148.125 172.607 147.971C173.236 147.577 173.754 147.031 174.116 146.383V146.313C174.132 146.138 174.101 145.963 174.027 145.805C173.952 145.647 173.837 145.511 173.692 145.413Z" fill="white"/>
<path d="M178.87 140.324L197.612 129.493C198.371 129.061 198.988 129.387 198.988 130.243C198.959 130.712 198.819 131.168 198.58 131.573C198.341 131.977 198.009 132.32 197.612 132.571L178.87 143.385C178.111 143.826 177.494 143.49 177.494 142.644C177.525 142.176 177.665 141.722 177.904 141.319C178.143 140.916 178.474 140.575 178.87 140.324Z" fill="#E0E0E0"/>
<path d="M207.482 123.822L219.115 117.048C219.874 116.607 220.482 116.942 220.491 117.789C220.46 118.258 220.32 118.713 220.081 119.117C219.842 119.521 219.511 119.864 219.115 120.117L207.482 126.9C206.723 127.332 206.106 127.006 206.106 126.15C206.137 125.681 206.277 125.227 206.516 124.822C206.755 124.418 207.086 124.075 207.482 123.822Z" fill="#E0E0E0"/>
<path d="M229.002 111.456L237.029 106.799C237.787 106.358 238.405 106.693 238.405 107.54C238.375 108.009 238.235 108.464 237.996 108.869C237.757 109.274 237.425 109.616 237.029 109.868L229.002 114.534C228.244 114.966 227.626 114.64 227.626 113.793C227.656 113.323 227.796 112.866 228.035 112.46C228.274 112.054 228.606 111.71 229.002 111.456Z" fill="#E0E0E0"/>
<path d="M202.578 130.622C202.489 130.622 202.403 130.587 202.341 130.524C202.278 130.461 202.242 130.376 202.242 130.287V126.15C202.255 126.072 202.296 126 202.356 125.949C202.417 125.897 202.494 125.869 202.573 125.869C202.653 125.869 202.73 125.897 202.79 125.949C202.851 126 202.891 126.072 202.904 126.15V130.287C202.904 130.374 202.87 130.458 202.809 130.521C202.748 130.583 202.665 130.62 202.578 130.622Z" fill="#263238"/>
<path d="M224.072 118.212C223.983 118.212 223.898 118.176 223.835 118.114C223.772 118.051 223.737 117.965 223.737 117.877V113.74C223.75 113.662 223.79 113.59 223.851 113.539C223.911 113.487 223.988 113.459 224.068 113.459C224.147 113.459 224.224 113.487 224.285 113.539C224.345 113.59 224.385 113.662 224.398 113.74V117.877C224.398 117.964 224.364 118.048 224.303 118.11C224.242 118.173 224.159 118.209 224.072 118.212Z" fill="#263238"/>
<path d="M241.985 107.866C241.898 107.866 241.814 107.832 241.751 107.771C241.689 107.71 241.652 107.627 241.65 107.54V103.403C241.642 103.355 241.645 103.306 241.658 103.259C241.671 103.212 241.694 103.169 241.725 103.132C241.757 103.095 241.796 103.065 241.84 103.045C241.884 103.024 241.932 103.014 241.981 103.014C242.03 103.014 242.078 103.024 242.122 103.045C242.166 103.065 242.205 103.095 242.236 103.132C242.268 103.169 242.291 103.212 242.304 103.259C242.317 103.306 242.32 103.355 242.312 103.403V107.54C242.309 107.625 242.274 107.707 242.214 107.768C242.153 107.829 242.071 107.864 241.985 107.866Z" fill="#263238"/>
<path d="M248.874 101.489V100.731C248.874 99.8485 248.345 99.4604 247.692 99.8485C247.335 100.106 247.043 100.444 246.839 100.834C246.636 101.225 246.526 101.657 246.519 102.098V102.812C246.505 103.283 246.368 103.742 246.122 104.144C246.06 104.248 246.027 104.367 246.025 104.488C246.025 104.708 246.157 104.805 246.316 104.717L249.077 103.13C249.166 103.062 249.238 102.976 249.288 102.877C249.339 102.777 249.366 102.668 249.368 102.556C249.371 102.514 249.364 102.471 249.349 102.432C249.334 102.392 249.31 102.356 249.279 102.327C249.134 102.246 249.017 102.122 248.945 101.972C248.872 101.822 248.847 101.653 248.874 101.489Z" fill="#FF5400"/>
<path d="M248.265 103.782C248.261 103.995 248.207 104.204 248.107 104.393C248.008 104.581 247.865 104.743 247.692 104.867C247.383 105.043 247.127 104.867 247.127 104.435L248.265 103.782Z" fill="#FF5400"/>
<path d="M253.91 98.1553C253.814 98.155 253.72 98.1307 253.637 98.0848C253.536 98.0178 253.456 97.9253 253.403 97.8167C253.35 97.7082 253.327 97.5876 253.337 97.4674C253.349 97.1843 253.429 96.9082 253.57 96.6626C253.711 96.4169 253.91 96.2089 254.148 96.0562C254.248 95.9884 254.365 95.9479 254.485 95.9386C254.606 95.9293 254.727 95.9516 254.836 96.0032C254.936 96.0703 255.017 96.1628 255.07 96.2713C255.123 96.3798 255.145 96.5004 255.136 96.6207C255.124 96.9038 255.044 97.1798 254.903 97.4255C254.762 97.6711 254.563 97.8791 254.325 98.0319C254.199 98.1068 254.056 98.1492 253.91 98.1553Z" fill="#FF5400"/>
<path d="M255.489 98.4021C255.317 98.3181 255.125 98.2819 254.934 98.2975C254.743 98.313 254.56 98.3796 254.404 98.4903L253.954 98.746C253.548 99.0081 253.211 99.3634 252.97 99.7822C252.729 100.201 252.592 100.671 252.569 101.154V101.471C252.845 101.589 253.146 101.634 253.443 101.603C253.741 101.573 254.026 101.466 254.272 101.295C254.975 100.856 255.56 100.25 255.974 99.531V99.4516C255.995 99.2492 255.961 99.0448 255.876 98.86C255.79 98.6753 255.657 98.517 255.489 98.4021Z" fill="#FF5400"/>
<path d="M256.097 96.1088C256.001 96.1129 255.906 96.0884 255.824 96.0383C255.722 95.9726 255.641 95.8804 255.588 95.7715C255.535 95.6626 255.513 95.5414 255.524 95.4209C255.536 95.1378 255.616 94.8617 255.757 94.6161C255.899 94.3704 256.097 94.1624 256.336 94.0097C256.432 93.9334 256.549 93.8881 256.671 93.8794C256.793 93.8708 256.915 93.8994 257.021 93.9613C257.127 94.0233 257.212 94.1158 257.264 94.2268C257.316 94.3377 257.334 94.4619 257.315 94.583C257.301 94.8645 257.221 95.1388 257.079 95.3828C256.938 95.6268 256.741 95.8334 256.503 95.9853C256.382 96.0638 256.242 96.1066 256.097 96.1088Z" fill="#FF5400"/>
<path d="M257.676 96.3209C257.503 96.2349 257.311 96.1969 257.118 96.2108C256.926 96.2248 256.741 96.2902 256.582 96.4003L256.141 96.6649C255.63 96.9806 255.232 97.4499 255.004 98.0055C255.151 97.9252 255.316 97.8832 255.484 97.8832C255.652 97.8832 255.818 97.9252 255.965 98.0055C256.129 98.1176 256.261 98.2715 256.346 98.4513C256.432 98.6311 256.467 98.8304 256.45 99.0286V99.2227C257.161 98.7898 257.75 98.1826 258.161 97.4587V97.3793C258.185 97.1754 258.153 96.9688 258.067 96.7821C257.981 96.5955 257.846 96.4359 257.676 96.3209Z" fill="#FF5400"/>
<path d="M263.127 90.6763C262.471 91.103 261.926 91.6786 261.535 92.3561C261.144 93.0335 260.919 93.7937 260.878 94.5747C260.86 94.8198 260.896 95.0658 260.983 95.2957C261.07 95.5256 261.206 95.734 261.381 95.9065L261.098 97.2384C261.098 97.4059 261.178 97.4765 261.283 97.353L262.298 96.1711C262.59 96.1272 262.871 96.0284 263.127 95.8801C263.78 95.4518 264.323 94.8757 264.713 94.1984C265.102 93.5211 265.326 92.7617 265.367 91.9816C265.367 90.544 264.362 89.9619 263.127 90.6763Z" fill="#FF5400"/>
<path d="M273.914 84.3962C274.081 84.288 274.271 84.2214 274.47 84.2021C274.624 84.1812 274.781 84.2089 274.919 84.2815C275.054 84.364 275.16 84.4877 275.219 84.6343C275.303 84.8259 275.342 85.034 275.334 85.2429C275.337 85.427 275.316 85.6108 275.272 85.7897C275.229 85.9572 275.176 86.1221 275.113 86.2836C275.043 86.4336 274.972 86.5835 274.893 86.7246C274.814 86.8658 274.743 86.9981 274.672 87.1304C274.602 87.2627 274.531 87.4038 274.478 87.5361C274.421 87.6629 274.38 87.7962 274.355 87.933C274.344 87.9956 274.33 88.0575 274.311 88.1182C274.291 88.1656 274.257 88.2056 274.214 88.2329L273.579 88.6033C273.564 88.6163 273.545 88.6235 273.526 88.6235C273.506 88.6235 273.487 88.6163 273.473 88.6033C273.441 88.5666 273.426 88.5192 273.429 88.471C273.43 88.2981 273.454 88.1262 273.499 87.9594C273.549 87.7916 273.608 87.6267 273.676 87.4655C273.746 87.3156 273.826 87.1568 273.905 87.0157C273.984 86.8746 274.064 86.7335 274.134 86.6012C274.202 86.4822 274.261 86.3584 274.311 86.2307C274.357 86.1219 274.381 86.005 274.381 85.8867C274.381 85.728 274.381 85.631 274.267 85.5869C274.152 85.5428 274.073 85.5869 273.914 85.6574C273.777 85.7319 273.659 85.8377 273.57 85.9661C273.507 86.0686 273.457 86.1781 273.42 86.2925C273.42 86.3983 273.358 86.4953 273.341 86.5747C273.32 86.6526 273.273 86.7211 273.208 86.7687L272.564 87.1392C272.552 87.1492 272.536 87.1547 272.52 87.1547C272.504 87.1547 272.489 87.1492 272.476 87.1392C272.463 87.1051 272.463 87.0674 272.476 87.0333C272.482 86.8098 272.515 86.5878 272.573 86.3718C272.647 86.1164 272.745 85.8684 272.864 85.631C272.992 85.3832 273.146 85.1497 273.323 84.9342C273.485 84.7199 273.685 84.5375 273.914 84.3962ZM274.372 89.6882C274.37 89.7494 274.355 89.8096 274.328 89.8646C274.308 89.9138 274.274 89.9565 274.231 89.988L273.561 90.3673C273.548 90.3797 273.531 90.3866 273.513 90.3866C273.495 90.3866 273.477 90.3797 273.464 90.3673C273.433 90.3306 273.417 90.2832 273.42 90.235V89.4147C273.422 89.3535 273.437 89.2933 273.464 89.2383C273.481 89.1874 273.516 89.1439 273.561 89.1149L274.231 88.7268C274.245 88.7161 274.262 88.7102 274.28 88.7102C274.297 88.7102 274.315 88.7161 274.328 88.7268C274.36 88.7635 274.376 88.8109 274.372 88.8591V89.6882Z" fill="#FF5400"/>
<path d="M116.592 190.412V227.368C116.592 228.585 117.474 229.079 118.505 228.471L249.923 152.566C250.478 152.202 250.939 151.713 251.27 151.139C251.601 150.564 251.792 149.92 251.829 149.258V112.311C251.829 111.094 250.947 110.6 249.923 111.209L118.505 187.105C117.949 187.467 117.485 187.955 117.152 188.529C116.82 189.104 116.628 189.749 116.592 190.412Z" fill="#FF5400"/>
<path opacity="0.7" d="M116.592 190.412V227.368C116.592 228.585 117.474 229.079 118.505 228.471L249.923 152.566C250.478 152.202 250.939 151.713 251.27 151.139C251.601 150.564 251.792 149.92 251.829 149.258V112.311C251.829 111.094 250.947 110.6 249.923 111.209L118.505 187.105C117.949 187.467 117.485 187.955 117.152 188.529C116.82 189.104 116.628 189.749 116.592 190.412Z" fill="white"/>
<path d="M127.343 195.792C123.383 198.086 120.172 203.642 120.172 208.211C120.172 212.78 123.383 214.632 127.343 212.348C131.303 210.063 134.514 204.507 134.505 199.929C134.496 195.351 131.294 193.508 127.343 195.792Z" fill="#FF5400"/>
<path d="M126.505 203.087C126.282 203.09 126.063 203.032 125.87 202.92C125.636 202.765 125.449 202.549 125.328 202.296C125.206 202.043 125.156 201.761 125.182 201.482C125.212 200.828 125.398 200.19 125.725 199.622C126.052 199.054 126.51 198.573 127.061 198.219C127.282 198.039 127.553 197.93 127.838 197.907C128.123 197.884 128.407 197.948 128.655 198.09C128.902 198.233 129.101 198.447 129.224 198.704C129.347 198.962 129.39 199.251 129.345 199.533C129.314 200.188 129.126 200.826 128.798 201.394C128.469 201.961 128.01 202.442 127.458 202.796C127.172 202.976 126.843 203.076 126.505 203.087Z" fill="white"/>
<path d="M130.174 203.563C129.775 203.365 129.33 203.279 128.886 203.313C128.442 203.347 128.016 203.501 127.652 203.758L126.611 204.357C125.668 204.964 124.883 205.787 124.322 206.758C123.76 207.729 123.438 208.82 123.383 209.94V210.681C124.406 211.246 125.799 211.149 127.343 210.258C128.99 209.233 130.349 207.806 131.294 206.112V205.936C131.33 205.477 131.245 205.017 131.049 204.601C130.853 204.185 130.551 203.827 130.174 203.563Z" fill="white"/>
<path d="M139.462 194.284L154.641 185.526C155.4 185.085 156.017 185.367 156.017 186.143C155.976 186.593 155.83 187.026 155.591 187.409C155.352 187.792 155.027 188.114 154.641 188.348L139.462 197.107C138.703 197.548 138.086 197.274 138.086 196.489C138.127 196.04 138.273 195.606 138.512 195.224C138.751 194.841 139.076 194.519 139.462 194.284Z" fill="#455A64"/>
<path d="M138.897 200.159L147.823 195.008C148.264 194.743 148.626 194.911 148.626 195.369C148.601 195.633 148.516 195.887 148.377 196.112C148.238 196.337 148.048 196.527 147.823 196.666L138.897 201.817C138.448 202.073 138.086 201.914 138.086 201.455C138.109 201.19 138.195 200.935 138.336 200.709C138.477 200.484 138.669 200.295 138.897 200.159Z" fill="#455A64"/>
<path d="M118.505 228.515L249.923 152.663C250.478 152.299 250.939 151.81 251.27 151.236C251.601 150.661 251.792 150.017 251.829 149.355V143.296L116.592 221.344V227.412C116.592 228.629 117.447 229.123 118.505 228.515Z" fill="#F5F5F5"/>
<path d="M152.418 207.144C152.375 207.145 152.332 207.137 152.292 207.121C152.252 207.105 152.215 207.081 152.185 207.051C152.154 207.02 152.13 206.984 152.114 206.944C152.098 206.904 152.091 206.861 152.092 206.817V202.681C152.091 202.637 152.098 202.594 152.114 202.553C152.13 202.513 152.154 202.476 152.184 202.444C152.215 202.413 152.251 202.388 152.291 202.371C152.331 202.354 152.375 202.346 152.418 202.346C152.507 202.346 152.592 202.381 152.655 202.444C152.718 202.507 152.753 202.592 152.753 202.681V206.817C152.753 206.861 152.745 206.904 152.728 206.944C152.711 206.985 152.686 207.021 152.655 207.051C152.624 207.082 152.586 207.106 152.546 207.122C152.505 207.137 152.462 207.145 152.418 207.144Z" fill="#EBEBEB"/>
<path d="M136.392 212.595L148.017 205.812C148.776 205.38 149.393 205.707 149.393 206.562C149.362 207.031 149.221 207.486 148.982 207.89C148.743 208.295 148.413 208.637 148.017 208.891L136.392 215.708C135.634 216.149 135.016 215.814 135.016 214.968C135.04 214.491 135.178 214.027 135.417 213.615C135.656 213.202 135.991 212.853 136.392 212.595Z" fill="#E0E0E0"/>
<path d="M173.419 194.947C173.375 194.947 173.332 194.938 173.292 194.921C173.252 194.904 173.215 194.879 173.185 194.848C173.154 194.817 173.131 194.78 173.115 194.739C173.099 194.698 173.091 194.655 173.092 194.611V190.475C173.092 190.388 173.127 190.305 173.188 190.244C173.249 190.183 173.332 190.148 173.419 190.148C173.506 190.148 173.59 190.183 173.653 190.243C173.715 190.304 173.752 190.387 173.754 190.475V194.611C173.754 194.7 173.719 194.785 173.656 194.848C173.593 194.911 173.508 194.947 173.419 194.947Z" fill="#EBEBEB"/>
<path d="M157.393 200.388L169.018 193.658C169.776 193.217 170.393 193.553 170.393 194.399C170.364 194.868 170.224 195.324 169.985 195.728C169.746 196.133 169.414 196.476 169.018 196.728L157.393 203.51C156.634 203.951 156.017 203.616 156.017 202.769C156.04 202.291 156.176 201.826 156.416 201.412C156.655 200.997 156.99 200.646 157.393 200.388Z" fill="#E0E0E0"/>
<path d="M194.419 182.739C194.332 182.74 194.248 182.705 194.185 182.644C194.123 182.584 194.086 182.501 194.084 182.413V178.277C194.084 178.188 194.119 178.102 194.182 178.04C194.245 177.977 194.33 177.941 194.419 177.941C194.463 177.941 194.506 177.95 194.546 177.967C194.586 177.984 194.623 178.009 194.653 178.04C194.684 178.071 194.707 178.108 194.723 178.149C194.739 178.19 194.747 178.233 194.745 178.277V182.413C194.745 182.5 194.711 182.583 194.65 182.644C194.589 182.705 194.506 182.739 194.419 182.739Z" fill="#EBEBEB"/>
<path d="M178.393 188.19L190.018 181.407C190.777 180.975 191.394 181.301 191.394 182.157C191.363 182.626 191.222 183.081 190.983 183.485C190.744 183.889 190.414 184.232 190.018 184.485L178.393 191.259C177.635 191.7 177.017 191.365 177.017 190.518C177.048 190.049 177.189 189.595 177.428 189.19C177.667 188.786 177.998 188.443 178.393 188.19Z" fill="#E0E0E0"/>
<path d="M215.42 170.541C215.331 170.541 215.245 170.506 215.183 170.443C215.12 170.38 215.084 170.295 215.084 170.206V166.07C215.084 166.026 215.093 165.983 215.11 165.943C215.127 165.902 215.152 165.866 215.183 165.836C215.214 165.805 215.251 165.781 215.292 165.766C215.333 165.75 215.376 165.742 215.42 165.743C215.463 165.742 215.506 165.75 215.546 165.766C215.586 165.782 215.623 165.806 215.653 165.836C215.684 165.867 215.708 165.903 215.724 165.943C215.74 165.983 215.747 166.026 215.746 166.07V170.206C215.747 170.25 215.74 170.293 215.724 170.334C215.708 170.374 215.684 170.411 215.654 170.443C215.623 170.474 215.587 170.499 215.547 170.516C215.506 170.533 215.463 170.541 215.42 170.541Z" fill="#EBEBEB"/>
<path d="M199.394 176.018L211.019 169.244C211.777 168.803 212.394 169.138 212.394 169.985C212.365 170.454 212.225 170.91 211.986 171.314C211.747 171.719 211.415 172.061 211.019 172.314L199.394 179.096C198.626 179.537 198.018 179.202 198.018 178.355C198.045 177.885 198.184 177.427 198.424 177.021C198.663 176.614 198.995 176.271 199.394 176.018Z" fill="#E0E0E0"/>
<path d="M220.385 163.785L232.019 157.003C232.777 156.571 233.395 156.897 233.395 157.753C233.364 158.221 233.223 158.676 232.984 159.081C232.745 159.485 232.414 159.828 232.019 160.081L220.385 166.855C219.627 167.296 219.018 166.961 219.018 166.114C219.047 165.646 219.186 165.191 219.424 164.787C219.661 164.382 219.991 164.039 220.385 163.785Z" fill="#E0E0E0"/>
<path d="M112.014 352.321L123.736 345.565C123.736 345.565 131.012 324.15 129.169 304.429C126.849 279.927 115.277 271.274 108.486 274.044C101.695 276.813 103.097 286.542 110.303 299.622C115.992 310.021 116.009 333.94 112.014 352.321Z" fill="#FF5400"/>
<path opacity="0.1" d="M112.014 352.321L123.736 345.565C123.736 345.565 131.012 324.15 129.169 304.429C126.849 279.927 115.277 271.274 108.486 274.044C101.695 276.813 103.097 286.542 110.303 299.622C115.992 310.021 116.009 333.94 112.014 352.321Z" fill="#333333"/>
<path d="M117.615 349.631C117.726 349.631 117.834 349.596 117.925 349.531C118.015 349.466 118.082 349.375 118.117 349.269C125.667 326.152 125.985 293.703 111.697 279.053C111.648 279.003 111.59 278.964 111.526 278.936C111.462 278.909 111.393 278.894 111.324 278.894C111.254 278.893 111.185 278.906 111.12 278.932C111.056 278.957 110.997 278.996 110.947 279.044C110.897 279.093 110.857 279.151 110.83 279.215C110.802 279.279 110.788 279.348 110.787 279.417C110.786 279.487 110.799 279.556 110.825 279.621C110.851 279.685 110.889 279.744 110.938 279.794C124.424 293.606 124.662 325.799 117.112 348.934C117.09 349.001 117.082 349.071 117.087 349.141C117.093 349.211 117.112 349.279 117.144 349.341C117.176 349.404 117.22 349.459 117.274 349.504C117.327 349.549 117.389 349.583 117.456 349.604C117.507 349.622 117.561 349.631 117.615 349.631Z" fill="white"/>
<path d="M90.9165 364.485C89.6993 365.181 87.1945 363.656 86.2419 363.012C84.6023 361.894 83.2756 360.376 82.3876 358.602C81.396 356.579 81.057 354.298 81.4174 352.075C81.6153 350.902 81.8923 349.744 82.2464 348.609C82.5728 347.488 82.8903 346.368 83.2166 345.239C83.6068 344.155 83.7748 343.003 83.7106 341.852C83.4107 339.55 81.3733 337.936 79.5122 336.56C77.4572 335.026 75.3228 332.988 75.3316 330.219C75.4781 328.067 76.3377 326.024 77.7747 324.415C79.0977 322.74 80.6677 321.258 81.8672 319.485C82.8119 318.253 83.304 316.733 83.2607 315.181C83.1314 314.231 82.8135 313.316 82.3258 312.491C81.3468 310.683 80.0503 309.033 79.3799 307.093C78.7096 305.152 78.7978 302.745 80.3149 301.36C81.5585 300.222 83.4019 300.063 85.0865 300.169C86.6519 300.365 88.1564 300.898 89.4965 301.73C93.9065 304.182 96.4114 309.386 101.077 311.274C102.841 311.997 104.852 312.156 106.731 312.649C108.609 313.143 110.523 314.105 111.388 315.842C113.108 319.264 109.924 323.489 111.123 327.123C112.19 330.334 115.321 331.533 117.077 334.461C117.791 335.741 118.078 337.215 117.897 338.668C117.747 341.129 117.15 343.541 116.133 345.786C114.994 348.014 113.691 350.155 112.234 352.19C112.155 352.242 91.1017 364.379 90.9165 364.485Z" fill="#FF5400"/>
<path d="M103.494 357.711C103.609 357.707 103.72 357.663 103.806 357.585C103.891 357.508 103.947 357.402 103.961 357.287C106.228 339.33 97.655 315.101 84.8483 303.291C84.7541 303.219 84.6362 303.184 84.5177 303.194C84.3992 303.204 84.2887 303.258 84.208 303.345C84.1273 303.433 84.0822 303.547 84.0816 303.666C84.0809 303.785 84.1248 303.9 84.2045 303.988C96.8083 315.622 105.249 339.48 103.018 357.173C103.003 357.298 103.038 357.424 103.116 357.523C103.193 357.622 103.307 357.686 103.432 357.702L103.494 357.711Z" fill="white"/>
<path d="M101.298 334.708C101.372 334.708 101.445 334.691 101.511 334.657C101.577 334.623 101.634 334.574 101.677 334.514C101.752 334.414 101.785 334.289 101.768 334.165C101.752 334.042 101.687 333.929 101.589 333.853C94.5327 328.561 83.7194 329.443 83.2696 329.513C83.207 329.519 83.146 329.537 83.0903 329.566C83.0346 329.595 82.9853 329.635 82.9451 329.683C82.9049 329.732 82.8747 329.788 82.8562 329.848C82.8377 329.908 82.8314 329.971 82.8374 330.034C82.8508 330.157 82.9114 330.272 83.0067 330.352C83.1019 330.433 83.2245 330.473 83.349 330.466C83.4636 330.466 94.2417 329.531 100.989 334.611C101.078 334.677 101.187 334.711 101.298 334.708Z" fill="white"/>
<path d="M100.239 330.297C100.36 330.298 100.477 330.251 100.564 330.167C100.651 330.083 100.702 329.969 100.707 329.848C101.033 321.619 107.242 316.618 107.304 316.618C107.354 316.58 107.396 316.532 107.428 316.478C107.459 316.423 107.48 316.363 107.488 316.301C107.496 316.239 107.492 316.175 107.475 316.115C107.459 316.054 107.431 315.997 107.392 315.947C107.313 315.85 107.198 315.787 107.073 315.772C106.948 315.757 106.822 315.792 106.722 315.868C104.677 317.601 103.006 319.731 101.81 322.13C100.614 324.529 99.9173 327.145 99.763 329.821C99.7582 329.946 99.8027 330.068 99.8868 330.16C99.971 330.253 100.088 330.308 100.213 330.315L100.239 330.297Z" fill="white"/>
<path d="M216.91 349.543C209.088 345.025 202.384 338.804 197.297 331.34C192.209 323.877 188.868 315.363 187.522 306.431L181.269 264.915C180.077 256.999 177.316 249.402 173.148 242.568C168.98 235.734 163.488 229.802 156.996 225.119L148.837 219.236V223.893L153.247 227.086C159.723 231.76 165.203 237.676 169.368 244.491C173.532 251.306 176.298 258.881 177.502 266.776L183.879 308.583C185.239 317.494 188.584 325.986 193.668 333.43C198.752 340.874 205.444 347.08 213.25 351.589L216.893 353.688V349.552L216.91 349.543Z" fill="#EBEBEB"/>
<path d="M287.832 248.51L281.578 206.994C280.388 199.079 277.628 191.482 273.461 184.648C269.295 177.815 263.805 171.882 257.315 167.198L249.156 161.307L148.837 219.236L156.996 225.128C163.488 229.81 168.98 235.743 173.148 242.577C177.316 249.411 180.077 257.008 181.269 264.924L187.522 306.44C188.868 315.372 192.209 323.886 197.297 331.349C202.384 338.813 209.088 345.034 216.91 349.552L317.229 291.631C309.403 287.115 302.696 280.893 297.606 273.427C292.517 265.962 289.176 257.445 287.832 248.51Z" fill="#FAFAFA"/>
<path d="M249.103 162.356L256.794 167.913C263.176 172.543 268.577 178.392 272.683 185.123C276.788 191.854 279.518 199.333 280.714 207.127L286.959 248.642C288.265 257.46 291.498 265.882 296.428 273.309C301.358 280.736 307.864 286.986 315.482 291.613L216.91 348.52C209.301 344.064 202.788 337.957 197.851 330.65C192.915 323.343 189.68 315.021 188.386 306.299L182.142 264.783C180.911 256.757 178.102 249.055 173.875 242.123C169.648 235.19 164.088 229.165 157.516 224.396L150.46 219.307L249.103 162.356ZM249.156 161.307L148.837 219.236L156.996 225.128C163.488 229.81 168.98 235.743 173.148 242.577C177.316 249.411 180.077 257.008 181.269 264.924L187.522 306.44C188.868 315.372 192.209 323.886 197.297 331.349C202.384 338.813 209.088 345.034 216.91 349.552L317.229 291.631C309.404 287.116 302.698 280.895 297.608 273.431C292.519 265.967 289.177 257.452 287.832 248.519L281.578 207.003C280.389 199.087 277.63 191.488 273.463 184.652C269.296 177.817 263.806 171.883 257.315 167.198L249.156 161.307Z" fill="#E0E0E0"/>
<path d="M216.91 349.543L317.229 291.622V295.759L216.91 353.68V349.543Z" fill="#F5F5F5"/>
<path d="M167.58 216.115C164.052 217.605 163.708 220.657 166.742 222.95C168.463 224.103 170.432 224.834 172.488 225.084C174.545 225.334 176.631 225.095 178.578 224.388C182.106 222.906 182.459 219.845 179.46 217.561C177.736 216.397 175.76 215.659 173.694 215.408C171.629 215.156 169.533 215.399 167.58 216.115Z" fill="#FF5400"/>
<path d="M171.373 219.827C171.079 219.86 170.784 219.86 170.491 219.827C169.836 219.771 169.207 219.546 168.665 219.175C167.853 218.566 167.942 217.772 168.885 217.411C169.504 217.179 170.172 217.109 170.826 217.208C171.48 217.272 172.108 217.5 172.651 217.869C173.463 218.478 173.366 219.272 172.431 219.633C172.092 219.758 171.734 219.823 171.373 219.827Z" fill="white"/>
<path d="M176.338 219.748C175.305 219.592 174.249 219.701 173.269 220.065L172.387 220.453C170.79 221.141 170.623 222.491 172.016 223.531L172.51 223.902C174.18 224.147 175.884 224.011 177.494 223.505C179.011 222.923 179.937 222.252 180.069 221.291L179.39 220.841C178.482 220.223 177.432 219.847 176.338 219.748Z" fill="white"/>
<path d="M183.87 209.605L213.329 192.591C213.905 192.286 214.553 192.144 215.204 192.178C215.854 192.212 216.484 192.422 217.025 192.785L217.289 192.997C217.507 193.136 217.683 193.333 217.798 193.565C217.913 193.797 217.963 194.056 217.942 194.314C217.922 194.572 217.831 194.82 217.68 195.031C217.529 195.241 217.324 195.407 217.087 195.51L187.654 212.559C187.084 212.846 186.445 212.969 185.81 212.912C185.174 212.856 184.567 212.624 184.056 212.242C183.95 212.162 183.844 212.083 183.747 211.995C183.526 211.876 183.343 211.697 183.22 211.479C183.096 211.26 183.038 211.011 183.051 210.761C183.064 210.51 183.148 210.268 183.293 210.064C183.438 209.859 183.638 209.7 183.87 209.605Z" fill="#455A64"/>
<path d="M190.344 216.467L205.091 207.956C205.21 207.898 205.312 207.811 205.388 207.703C205.464 207.596 205.511 207.471 205.526 207.34C205.541 207.209 205.523 207.076 205.473 206.954C205.423 206.832 205.344 206.725 205.241 206.641L204.977 206.386C204.74 206.173 204.443 206.04 204.127 206.003C203.811 205.967 203.492 206.03 203.213 206.183L188.545 214.756C188.427 214.815 188.325 214.903 188.249 215.011C188.173 215.12 188.126 215.245 188.111 215.377C188.096 215.508 188.114 215.641 188.164 215.764C188.214 215.886 188.293 215.995 188.395 216.079L188.58 216.255C188.817 216.467 189.114 216.601 189.429 216.638C189.745 216.676 190.064 216.616 190.344 216.467Z" fill="#455A64"/>
<path opacity="0.2" d="M180.704 232.634L260.19 186.726C260.714 186.432 261.327 186.34 261.914 186.469C262.501 186.597 263.021 186.937 263.374 187.423L263.541 187.661C263.701 187.897 263.809 188.164 263.86 188.444C263.911 188.724 263.903 189.012 263.836 189.289C263.77 189.566 263.647 189.826 263.475 190.053C263.302 190.28 263.085 190.469 262.836 190.607L183.306 236.55C182.789 236.838 182.182 236.921 181.607 236.782C181.032 236.643 180.53 236.293 180.201 235.801L180.034 235.545C179.871 235.314 179.759 235.052 179.704 234.776C179.65 234.499 179.654 234.214 179.717 233.939C179.781 233.665 179.901 233.406 180.071 233.181C180.241 232.956 180.457 232.77 180.704 232.634Z" fill="#333333"/>
<path opacity="0.2" d="M185.529 240.466L265.103 194.541C265.348 194.394 265.621 194.3 265.904 194.265C266.188 194.23 266.476 194.255 266.749 194.338C267.022 194.422 267.275 194.561 267.492 194.748C267.708 194.934 267.882 195.164 268.004 195.423L268.128 195.679C268.365 196.231 268.394 196.851 268.209 197.424C268.024 197.996 267.638 198.482 267.122 198.792L187.531 244.779C187.293 244.923 187.028 245.015 186.753 245.048C186.477 245.082 186.198 245.056 185.933 244.972C185.668 244.889 185.424 244.75 185.218 244.564C185.011 244.379 184.846 244.152 184.735 243.897L184.594 243.615C184.322 243.07 184.267 242.441 184.441 241.857C184.614 241.272 185.003 240.775 185.529 240.466Z" fill="#333333"/>
<path opacity="0.2" d="M189.11 248.978L268.754 202.999C268.98 202.85 269.239 202.757 269.508 202.728C269.778 202.7 270.05 202.735 270.303 202.833C270.555 202.93 270.781 203.087 270.961 203.289C271.141 203.491 271.271 203.734 271.338 203.996L271.444 204.393C271.592 205.002 271.544 205.642 271.306 206.221C271.069 206.801 270.654 207.291 270.121 207.621L190.512 253.635C190.291 253.782 190.037 253.872 189.773 253.898C189.508 253.924 189.242 253.884 188.997 253.781C188.752 253.679 188.536 253.518 188.367 253.313C188.199 253.107 188.085 252.863 188.033 252.603C188.033 252.462 187.954 252.321 187.91 252.179C187.745 251.588 187.773 250.959 187.988 250.383C188.204 249.808 188.596 249.316 189.11 248.978Z" fill="#333333"/>
<path opacity="0.2" d="M191.394 258.256L237.69 231.522C237.896 231.369 238.14 231.275 238.396 231.25C238.651 231.226 238.909 231.272 239.14 231.384C239.371 231.496 239.567 231.67 239.706 231.885C239.846 232.101 239.923 232.351 239.93 232.607L240.027 233.225C240.094 233.864 239.982 234.51 239.703 235.089C239.425 235.669 238.99 236.159 238.449 236.506L192.152 263.266C191.947 263.419 191.704 263.513 191.449 263.537C191.194 263.562 190.937 263.517 190.706 263.406C190.476 263.295 190.28 263.123 190.14 262.909C189.999 262.694 189.921 262.445 189.912 262.19C189.912 261.969 189.85 261.757 189.815 261.537C189.755 260.898 189.87 260.255 190.148 259.677C190.427 259.099 190.857 258.607 191.394 258.256Z" fill="#333333"/>
<path d="M287.126 283.411L211.371 327.158C210.324 327.761 209.09 327.955 207.909 327.701C206.728 327.446 205.683 326.763 204.977 325.782C200.184 318.444 196.986 309.303 195.38 298.361L192.355 278.26C192.224 276.98 192.45 275.689 193.007 274.529C193.565 273.369 194.432 272.386 195.513 271.689L271.365 227.871C273.473 226.654 275.484 227.624 275.845 230.032L278.871 250.142C279.877 259.911 283.145 269.311 288.414 277.598C288.739 278.056 288.964 278.576 289.075 279.126C289.187 279.676 289.182 280.243 289.06 280.79C288.939 281.338 288.704 281.854 288.371 282.305C288.038 282.757 287.614 283.133 287.126 283.411Z" fill="#FF5400"/>
<path opacity="0.7" d="M287.126 283.411L211.371 327.158C210.324 327.761 209.09 327.955 207.909 327.701C206.728 327.446 205.683 326.763 204.977 325.782C200.184 318.444 196.986 309.303 195.38 298.361L192.355 278.26C192.224 276.98 192.45 275.689 193.007 274.529C193.565 273.369 194.432 272.386 195.513 271.689L271.365 227.871C273.473 226.654 275.484 227.624 275.845 230.032L278.871 250.142C279.877 259.911 283.145 269.311 288.414 277.598C288.739 278.056 288.964 278.576 289.075 279.126C289.187 279.676 289.182 280.243 289.06 280.79C288.939 281.338 288.704 281.854 288.371 282.305C288.038 282.757 287.614 283.133 287.126 283.411Z" fill="white"/>
<path d="M211.371 327.158L287.126 283.411C287.614 283.134 288.038 282.757 288.371 282.306C288.704 281.854 288.939 281.338 289.06 280.791C289.182 280.243 289.187 279.676 289.075 279.126C288.964 278.576 288.739 278.056 288.414 277.599C285.936 273.758 283.917 269.641 282.399 265.33L258.893 258.697L248.459 281.859L259.793 290.97L220.244 270.154L200.02 316.133C201.353 319.507 203.013 322.741 204.977 325.791C205.684 326.77 206.73 327.452 207.911 327.705C209.092 327.957 210.325 327.763 211.371 327.158Z" fill="#FF5400"/>
<path d="M243.141 253.784C245.928 252.179 248.583 253.51 249.077 256.765C249.266 258.476 248.977 260.206 248.242 261.763C247.507 263.32 246.355 264.643 244.914 265.585C242.127 267.199 239.472 265.858 238.987 262.604C238.796 260.893 239.083 259.163 239.816 257.606C240.55 256.049 241.701 254.726 243.141 253.784Z" fill="#FF5400"/>
<path d="M266.143 309.332C265.891 309.354 265.637 309.354 265.385 309.332C264.834 309.28 264.306 309.089 263.85 308.777C263.18 308.274 263.259 307.613 264.035 307.277C264.55 307.085 265.106 307.027 265.649 307.11C266.198 307.163 266.725 307.351 267.184 307.657C267.854 308.168 267.775 308.83 266.999 309.165C266.725 309.27 266.436 309.326 266.143 309.332Z" fill="#FF5400"/>
<path d="M270.298 309.271C269.434 309.137 268.55 309.228 267.731 309.535L266.964 309.853C265.632 310.426 265.491 311.555 266.655 312.428L267.061 312.737C268.459 312.939 269.885 312.824 271.233 312.402C272.494 311.917 273.27 311.352 273.385 310.55L272.811 310.179C272.065 309.666 271.199 309.354 270.298 309.271Z" fill="#FF5400"/>
<path d="M271.753 305.946L268.913 306.087L268.146 306.749C268.114 306.775 268.089 306.807 268.072 306.843C268.054 306.88 268.045 306.92 268.045 306.961C268.045 307.001 268.054 307.041 268.072 307.078C268.089 307.114 268.114 307.147 268.146 307.172L268.913 307.781L271.797 307.666L271.753 305.946ZM268.719 307.146C268.691 307.146 268.664 307.14 268.639 307.13C268.614 307.119 268.591 307.103 268.572 307.083C268.553 307.064 268.538 307.04 268.529 307.014C268.519 306.989 268.515 306.961 268.516 306.934C268.516 306.88 268.537 306.829 268.575 306.791C268.613 306.753 268.665 306.731 268.719 306.731C268.746 306.73 268.774 306.734 268.799 306.744C268.825 306.754 268.848 306.769 268.868 306.787C268.888 306.806 268.904 306.829 268.914 306.854C268.925 306.88 268.931 306.907 268.931 306.934C268.931 306.99 268.908 307.044 268.868 307.084C268.829 307.124 268.775 307.146 268.719 307.146Z" fill="#FF5400"/>
<path d="M286.456 300.918C286.456 301.35 285.9 301.712 285.574 301.888C284.958 302.232 284.281 302.451 283.58 302.532C282.91 301.747 284.198 300.38 286.456 300.918Z" fill="#FF5400"/>
<path d="M286.562 298.14C284.48 296.42 281.217 295.785 278.924 297.099C276.63 298.414 276.181 301.192 278.288 302.912C280.396 304.632 284.163 304.676 286.438 303.344C288.714 302.012 288.652 299.851 286.562 298.14ZM283.122 297.735C283.314 297.641 283.531 297.609 283.742 297.642C283.953 297.675 284.149 297.772 284.304 297.92C284.372 297.976 284.424 298.049 284.457 298.131C284.49 298.213 284.501 298.302 284.491 298.39C284.48 298.477 284.448 298.561 284.397 298.633C284.346 298.705 284.277 298.763 284.198 298.802C284.005 298.908 283.783 298.952 283.564 298.929C283.345 298.905 283.138 298.814 282.972 298.669C282.904 298.605 282.853 298.526 282.823 298.437C282.793 298.349 282.785 298.255 282.8 298.162C282.815 298.07 282.852 297.983 282.908 297.909C282.964 297.834 283.037 297.774 283.122 297.735ZM278.941 300.945C278.872 300.881 278.819 300.801 278.788 300.711C278.757 300.622 278.748 300.526 278.763 300.433C278.778 300.339 278.815 300.251 278.873 300.176C278.93 300.101 279.005 300.041 279.091 300.001C279.282 299.908 279.497 299.875 279.707 299.908C279.917 299.941 280.112 300.039 280.264 300.186C280.332 300.242 280.386 300.314 280.419 300.396C280.452 300.478 280.465 300.566 280.455 300.654C280.445 300.741 280.414 300.825 280.364 300.898C280.313 300.97 280.246 301.029 280.167 301.068C279.974 301.191 279.746 301.248 279.518 301.232C279.289 301.217 279.072 301.128 278.897 300.98L278.941 300.945ZM285.856 302.233C284.88 302.754 283.787 303.018 282.681 303C281.719 303.014 280.767 302.812 279.894 302.409L285.821 299.066C286.135 299.27 286.398 299.543 286.591 299.864C286.783 300.185 286.9 300.546 286.932 300.919C286.868 301.217 286.732 301.496 286.537 301.731C286.342 301.965 286.094 302.15 285.812 302.268L285.856 302.233Z" fill="#FF5400"/>
<path d="M298.998 290.387C298.788 290.051 298.522 289.753 298.213 289.505C297.487 288.882 296.596 288.482 295.648 288.352C294.7 288.222 293.735 288.368 292.868 288.773C292.493 288.945 292.17 289.211 291.929 289.546C291.688 289.88 291.538 290.271 291.493 290.681C291.449 291.091 291.512 291.505 291.675 291.883C291.839 292.262 292.098 292.591 292.427 292.839C292.612 292.986 292.81 293.115 293.018 293.227C295.664 294.735 300.471 294.921 300.471 294.921C300.425 293.299 299.914 291.726 298.998 290.387ZM296.696 292.054C296.272 292.28 295.794 292.387 295.314 292.362C294.834 292.337 294.369 292.182 293.971 291.913C293.814 291.793 293.691 291.635 293.614 291.454C293.536 291.273 293.506 291.075 293.528 290.879C293.549 290.683 293.62 290.496 293.735 290.336C293.85 290.175 294.004 290.047 294.182 289.964C294.597 289.77 295.06 289.701 295.513 289.764C295.967 289.826 296.393 290.018 296.74 290.317C297.446 290.89 297.472 291.613 296.705 292.054H296.696Z" fill="#FF5400"/>
<path d="M394.827 299.701L383.485 332.803C383.413 333.013 383.277 333.196 383.096 333.326C382.915 333.455 382.698 333.525 382.475 333.525C382.252 333.525 382.035 333.455 381.854 333.326C381.673 333.196 381.537 333.013 381.465 332.803L370.272 299.437L394.827 299.701Z" fill="#FFA8A7"/>
<path d="M381.465 332.794C381.537 333.004 381.673 333.187 381.854 333.317C382.035 333.446 382.252 333.516 382.475 333.516C382.697 333.516 382.914 333.446 383.096 333.317C383.277 333.187 383.413 333.004 383.485 332.794L385.699 326.329C384.744 326.839 383.667 327.077 382.585 327.017C381.504 326.956 380.46 326.599 379.569 325.985L379.075 325.649L381.465 332.794Z" fill="#263238"/>
<path d="M370.696 151.834V155.071V158.978L370.29 299.428C373.004 302.294 376.698 304.032 380.636 304.296C386.572 304.914 392.666 302.965 394.836 299.701L395.233 159.331V151.86C394.942 156.694 370.484 156.685 370.696 151.834Z" fill="#FF5400"/>
<path d="M370.625 164.155V171.388C370.555 173.487 375.035 174.845 380.177 175.313C387.022 175.965 395.083 174.113 395.171 171.335V165.999V164.094C395.065 166.872 387.004 168.733 380.177 168.08C375.238 167.622 370.916 166.316 370.669 164.385C370.633 164.314 370.618 164.235 370.625 164.155Z" fill="#EBEBEB"/>
<path d="M370.643 165.963C370.466 170.832 395.004 170.77 395.18 165.901V158.66C395.004 163.529 370.484 163.591 370.643 158.722V165.963Z" fill="#FF5400"/>
<path d="M370.696 151.834V158.978C370.484 163.759 394.166 163.9 395.233 159.331C395.258 159.242 395.272 159.15 395.277 159.058V151.86C394.942 156.694 370.484 156.685 370.696 151.834Z" fill="#EBEBEB"/>
<path d="M395.339 121.211V120.902C395.339 117.418 389.853 114.587 383.079 114.587C376.305 114.587 370.811 117.418 370.811 120.902V124.192L370.696 151.834C370.608 153.906 375.018 155.274 380.133 155.767C386.978 156.438 395.074 154.63 395.224 151.86L395.33 121.431C395.348 121.334 395.339 121.228 395.339 121.211Z" fill="#F28F8F"/>
<path opacity="0.2" d="M383.079 127.217C389.855 127.217 395.348 124.39 395.348 120.902C395.348 117.414 389.855 114.587 383.079 114.587C376.303 114.587 370.811 117.414 370.811 120.902C370.811 124.39 376.303 127.217 383.079 127.217Z" fill="white"/>
<path opacity="0.1" d="M395.207 159.331L395.339 121.211C395.18 124.192 390.047 127.014 384.534 127.217L384.138 304.411L383.485 332.803L394.827 299.701L395.207 159.331Z" fill="#333333"/>
<path d="M355.525 188.86C360.191 188.181 365.942 191.691 369.946 197.318C373.95 202.946 387.904 216.643 389.438 221C390.55 224.175 389.897 230.146 383.326 227.342C376.967 224.634 356.69 204.745 356.69 204.745L355.525 188.86Z" fill="#B16668"/>
<path d="M353.294 188.86C354.796 188.538 356.327 188.367 357.863 188.349C359.477 188.454 363.102 189.416 366.833 193.05C370.564 196.684 380.248 208.423 380.248 208.423C380.248 208.423 380.68 211.722 377.434 215.4C374.189 219.078 371.154 219.078 371.154 219.078L356.769 207.162L353.294 188.86Z" fill="#37474F"/>
<path d="M384.905 214.535L395.136 199.682V188.771C395.136 188.771 397.394 189.53 398.293 193.049C399.193 196.568 400.313 200.661 399.863 203.633C399.414 206.606 392.331 224.757 388.512 227.315C384.693 229.873 384.905 214.535 384.905 214.535Z" fill="#B16668"/>
<path d="M338.855 183.929L340.849 196.489L353.294 195.819L351.512 181.23L338.855 183.929Z" fill="#B16668"/>
<path d="M330.485 168.53C330.485 168.53 327.522 173.028 327.839 173.469C328.157 173.91 330.362 174.351 330.362 174.351L330.485 168.53Z" fill="#9A4A4D"/>
<path d="M338.688 156.076C332.69 157.346 330.953 159.984 330.388 169.518C329.798 179.485 330.812 182.616 332.152 183.956C333.034 184.838 337.947 185.024 340.426 184.344C343.521 183.462 350.533 181.002 353.814 175.992C357.669 170.1 358.683 162.1 354.555 158.828C348.743 154.206 341.167 155.565 338.688 156.076Z" fill="#B16668"/>
<path d="M338.97 184.618C340.039 184.424 341.094 184.159 342.128 183.824C341.342 184.721 340.287 185.34 339.12 185.588L338.97 184.618Z" fill="#9A4A4D"/>
<path d="M330.044 159.101C330.878 159.566 331.767 159.924 332.69 160.168C334.154 160.592 333.934 161.139 334.137 162.479C334.316 163.69 334.897 164.805 335.786 165.646C336.359 166.166 336.783 166.21 336.977 167.004C337.069 167.833 337.069 168.67 336.977 169.5C336.977 171.158 338.053 172.41 338.564 170.197C338.564 170.197 339.517 166.51 342.622 166.977C345.726 167.445 346 170.938 344.518 173.681C343.636 175.356 341.202 174.915 341.202 174.915C341.115 176.459 341.36 178.003 341.919 179.443C342.479 180.884 343.341 182.188 344.447 183.268C344.447 183.268 347.534 185.561 352.385 183.18C354.447 180.536 356.294 177.731 357.907 174.792C360.059 171.052 361.92 166.448 361.188 162.047C360.953 160.399 360.224 158.862 359.097 157.637C358.786 157.36 358.535 157.02 358.362 156.641C358.189 156.261 358.097 155.849 358.092 155.432C357.907 154.437 357.376 153.541 356.593 152.901C355.978 152.415 355.245 152.104 354.469 152C353.693 151.896 352.903 152.003 352.183 152.31C352.122 151.541 351.82 150.812 351.319 150.225C350.818 149.639 350.145 149.226 349.395 149.046C347.878 148.729 346.298 148.947 344.924 149.664C344.521 148.942 343.943 148.333 343.244 147.892C342.544 147.451 341.745 147.193 340.92 147.142C340.095 147.09 339.27 147.246 338.521 147.596C337.772 147.945 337.123 148.478 336.633 149.143C336.405 148.793 336.098 148.502 335.736 148.294C335.374 148.085 334.968 147.965 334.551 147.944C333.72 147.914 332.89 148.046 332.108 148.332C331.444 148.529 330.805 148.801 330.203 149.143C329.115 149.817 328.267 150.816 327.78 151.998C327.292 153.181 327.189 154.488 327.487 155.732C327.658 156.439 327.974 157.103 328.414 157.683C328.854 158.263 329.409 158.746 330.044 159.101Z" fill="#263238"/>
<path d="M358.154 158.105L361.744 155.988C361.605 155.752 361.421 155.546 361.202 155.382C360.983 155.217 360.734 155.097 360.469 155.029C360.204 154.961 359.929 154.945 359.658 154.983C359.387 155.022 359.126 155.113 358.89 155.252C358.655 155.391 358.449 155.575 358.284 155.793C358.119 156.012 357.999 156.261 357.931 156.526C357.863 156.791 357.847 157.067 357.885 157.338C357.924 157.609 358.015 157.869 358.154 158.105Z" fill="#263238"/>
<path d="M361.505 344.551L361.585 345.354C361.73 346.415 361.757 347.489 361.664 348.555C361.663 348.963 361.574 349.365 361.403 349.735C361.233 350.104 360.985 350.433 360.676 350.699C359.943 351.101 359.156 351.398 358.339 351.581C356.517 352.028 354.596 351.839 352.897 351.043C351.486 350.364 350.383 349.279 348.857 348.864C347.282 348.473 345.677 348.207 344.059 348.07C343.34 348.012 342.628 347.882 341.934 347.682C341.407 347.497 340.896 347.266 340.408 346.994C338.704 346.188 337.169 345.066 335.883 343.687C335.071 342.77 334.512 341.657 334.26 340.459C334.119 339.744 333.837 337.707 335.01 337.76C340.787 338.016 346.476 339.259 352.28 339.189C352.656 339.162 353.033 339.162 353.409 339.189C354.112 339.337 354.775 339.638 355.349 340.071C355.588 340.277 355.872 340.424 356.179 340.499C356.486 340.574 356.806 340.576 357.113 340.503C358.105 340.35 359.116 340.365 360.103 340.547C360.318 340.577 360.522 340.657 360.701 340.779C360.88 340.902 361.029 341.064 361.135 341.253C361.191 341.39 361.221 341.536 361.223 341.685C361.32 342.717 361.417 343.599 361.505 344.551Z" fill="#263238"/>
<path d="M360.914 337.636L360.615 341.984C360.332 343.642 354.688 344.63 353.559 341.728L353.003 336.789L360.914 337.636Z" fill="#B16668"/>
<path d="M339.42 354.853C339.42 354.853 340.108 357.111 340.47 359.086C340.752 360.656 341.149 363.285 340.575 364.449C340.002 365.613 337.85 366.319 334.534 366.213C332.39 366.142 329.021 367.527 326.701 368.753C324.382 369.979 319.39 370.429 316.894 370.085C313.957 369.67 310.949 367.889 310.499 366.663C310.049 365.437 310.711 364.175 317.714 361.371C317.776 361.371 327.416 358.442 330.873 354.817L339.42 354.853Z" fill="#263238"/>
<path d="M339.482 352.057C339.482 352.057 339.429 353.971 339.42 355.073C339.411 356.176 338.071 357.772 334.719 357.578C332.364 357.437 330.741 356.767 330.874 354.835L330.935 352.039L339.482 352.057Z" fill="#B16668"/>
<path d="M363.19 304.199C362.193 295.732 361.426 290.872 361.426 290.872C361.426 290.872 361.602 279.071 362.308 268.073C363.058 256.183 362.89 241.216 363.19 238.252C363.19 238.252 325.008 230.103 324.691 243.871C324.338 259.87 325.396 292.972 325.626 297.285C325.943 303.335 325.961 309.633 326.984 319.449C327.998 329.151 330.935 352.039 330.935 352.039C332.25 352.742 333.718 353.109 335.209 353.109C336.699 353.109 338.167 352.742 339.482 352.039C339.482 352.039 342.807 324.6 342.675 317.641C342.595 312.583 342.111 307.54 341.228 302.559L344.236 271.495C344.236 271.495 345.418 281.1 345.735 287.15C346.053 293.201 346.882 296.897 348.381 308.16C349.678 317.923 352.968 338.545 352.968 338.545C354.219 339.249 355.641 339.592 357.076 339.535C358.51 339.477 359.901 339.021 361.091 338.218C361.091 338.218 364.187 312.675 363.19 304.199Z" fill="#FF5400"/>
<path opacity="0.3" d="M363.19 304.199C362.193 295.732 361.426 290.872 361.426 290.872C361.426 290.872 361.602 279.071 362.308 268.073C363.058 256.183 362.89 241.216 363.19 238.252C363.19 238.252 325.008 230.103 324.691 243.871C324.338 259.87 325.396 292.972 325.626 297.285C325.943 303.335 325.961 309.633 326.984 319.449C327.998 329.151 330.935 352.039 330.935 352.039C332.25 352.742 333.718 353.109 335.209 353.109C336.699 353.109 338.167 352.742 339.482 352.039C339.482 352.039 342.807 324.6 342.675 317.641C342.595 312.583 342.111 307.54 341.228 302.559L344.236 271.495C344.236 271.495 345.418 281.1 345.735 287.15C346.053 293.201 346.882 296.897 348.381 308.16C349.678 317.923 352.968 338.545 352.968 338.545C354.219 339.249 355.641 339.592 357.076 339.535C358.51 339.477 359.901 339.021 361.091 338.218C361.091 338.218 364.187 312.675 363.19 304.199Z" fill="#333333"/>
<path opacity="0.15" d="M358.762 257.057C358.762 257.057 356.116 261.423 348.09 264.615L345.85 272.112L345.612 285.289C345.303 281.047 344.836 276.408 344.236 271.495L345.118 263.769C345.118 263.769 354.008 261.087 358.762 257.057Z" fill="#333333"/>
<path d="M364.663 196.984C363.128 191.524 359.521 189.116 355.525 188.86C354.511 188.799 352.447 188.86 352.447 188.86C352.729 191.18 345.603 192.812 340.099 191.506C338.423 191.939 335.689 192.565 334.269 193.032C330.291 194.355 325.511 199.33 324.893 212.322C324.893 212.322 324.258 240.237 324.452 248.351C334.287 252.497 343.786 253.017 349.51 251.879C361.443 249.56 363.402 244.444 363.402 244.444C363.402 244.444 363.296 237.388 362.846 226.037C364.839 209.984 365.324 199.347 364.663 196.984Z" fill="#455A64"/>
<path d="M318.137 243.253C319.188 243.909 320.058 244.817 320.667 245.896C321.275 246.975 321.604 248.189 321.621 249.427C321.789 251.967 321.789 254.719 322.98 257.021C323.174 257.401 324.214 258.256 324.62 258.133V254.887C325.282 254.049 327.09 252.488 327.557 251.526C328.333 249.921 327.425 247.998 327.892 246.234C328.192 245.555 328.394 244.836 328.492 244.1C328.558 243.188 328.413 242.273 328.069 241.426C327.724 240.579 327.19 239.822 326.508 239.214C324.744 237.794 323.191 236.03 321.612 234.442C319.566 232.387 316.726 229.362 314.68 227.298L328.413 214.13C329.997 212.62 331.32 210.859 332.329 208.917C334.578 204.595 337.621 197.019 334.225 193.041C329.33 193.041 326.552 193.791 321.551 199.621C317.238 204.648 303.47 221.142 301.697 223.937C299.924 226.733 298.91 228.647 302.306 231.752C305.072 234.113 307.964 236.324 310.967 238.376C313.286 240.043 315.818 241.604 318.137 243.253Z" fill="#B16668"/>
<path d="M314.689 227.342C313.456 228.533 312.035 229.51 310.482 230.235C312.322 229.981 314.084 229.325 315.641 228.312L314.689 227.342Z" fill="#9A4A4D"/>
<path d="M335.769 192.6C333.782 192.507 331.791 192.658 329.842 193.05C326.869 193.694 324.867 195.202 319.716 201.032C314.565 206.862 310.949 211.616 310.949 211.616C310.949 211.616 309.467 214.897 313.595 218.619C317.723 222.341 321.445 221.697 321.445 221.697L333.017 210.443C333.017 210.443 341.272 201.808 335.769 192.6Z" fill="#37474F"/>
</svg>
