<svg width="57" height="64" viewBox="0 0 57 64" fill="none" xmlns="http://www.w3.org/2000/svg">
<path d="M48.4 32.08C48.4 32.08 48.39 32.08 48.38 32.09C48.6 31.32 48.73 30.52 48.73 29.69C48.73 26.26 47.38 21.77 43.6 19.98H29.8V29.26H32.7C33.9 29.26 34.5 29.66 34.5 30.46C34.5 31.52 33.59 32.05 31.77 32.05C28.92 32.05 26.65 31.2 24.97 29.5C23.29 27.8 22.45 25.51 22.45 22.61C22.45 19.71 23.35 17.47 25.16 15.69C26.97 13.91 29.3 13.02 32.15 13.02C33.73 13.02 35.47 13.47 37.39 14.37V2.23C34.93 1.41 32.7 1 30.68 1C24.78 1 19.86 3.02 15.91 7.05C11.97 11.08 10 16.13 10 22.2C10 27.19 11.34 31.55 13.98 35.29C14.97 36.92 21.9 44.43 23.75 48.58C24.5 50.26 25.82 52.77 28.22 60.3C28.62 61.56 29.14 62.13 29.7 62.28C29.91 62.35 30.15 62.41 30.41 62.41C30.64 62.41 30.7 62.41 30.88 62.35C31.46 62.21 32.19 61.64 32.62 60.31C35.02 52.78 36.84 50.08 37.35 48.93C38.91 45.42 46.13 36.84 47.3 34.65C47.73 33.89 48.09 33.09 48.33 32.27C48.35 32.21 48.38 32.15 48.4 32.09V32.08Z" fill="#F15722"/>
</svg>
